uint16_t dontstopmenow_note[1087][8]={
{NOTE_F3,NOTE_A3,},
{NOTE_F1,NOTE_F2,},
{NOTE_C4,},
{NOTE_F4,},
{NOTE_F4,},
{NOTE_A4,},
{NOTE_F4,},
{NOTE_F4,},
{NOTE_A4,},
{NOTE_C4,},
{NOTE_F4,},
{NOTE_A3,NOTE_C4,},
{NOTE_A4,},
{NOTE_A4,},
{NOTE_E4,},
{NOTE_A4,},
{NOTE_C4,},
{NOTE_E4,},
{NOTE_E4,NOTE_C4,},
{NOTE_A4,},
{NOTE_A4,},
{NOTE_A4,},
{NOTE_E4,NOTE_C4,},
{NOTE_A4,},
{NOTE_D4,},
{NOTE_D4,},
{NOTE_F4,},
{NOTE_D4,},
{NOTE_F4,},
{NOTE_D5,NOTE_F4,NOTE_A4,},
{NOTE_D4,},
{NOTE_F4,},
{NOTE_F4,},
{NOTE_A4,NOTE_D5,},
{NOTE_D4,},
{NOTE_G1,NOTE_AS3,NOTE_G4,NOTE_D4,},
{NOTE_G4,},
{NOTE_G4,},
{NOTE_AS3,NOTE_G3,NOTE_D4,},
{NOTE_A3,NOTE_C4,NOTE_G4,},
{NOTE_G4,},
{NOTE_G3,NOTE_AS3,NOTE_D4,},
{NOTE_G4,},
{NOTE_C4,},
{NOTE_G4,NOTE_E4,},
{NOTE_C4,},
{NOTE_C4,},
{NOTE_C4,NOTE_G4,NOTE_E4,},
{NOTE_C4,},
{NOTE_C5,NOTE_D4,NOTE_F4,},
{NOTE_E4,NOTE_G4,NOTE_C5,},
{NOTE_C4,},
{NOTE_F4,},
{NOTE_F4,},
{NOTE_A4,},
{NOTE_C4,},
{NOTE_F4,},
{NOTE_F4,},
{NOTE_F4,},
{NOTE_A4,},
{NOTE_F4,},
{NOTE_F4,},
{NOTE_A4,},
{NOTE_C4,},
{NOTE_F4,},
{NOTE_F1,NOTE_F2,},
{NOTE_A4,},
{NOTE_C4,NOTE_DS4,},
{NOTE_F4,},
{NOTE_A4,},
{NOTE_C4,},
{NOTE_DS4,},
{NOTE_F4,},
{NOTE_A4,},
{NOTE_DS4,NOTE_C4,},
{NOTE_F4,},
{NOTE_AS3,NOTE_F3,NOTE_D4,NOTE_AS1,},
{NOTE_AS4,},
{NOTE_AS4,},
{NOTE_AS4,NOTE_D5,NOTE_F4,},
{NOTE_AS4,NOTE_DS5,NOTE_G4,},
{NOTE_AS4,NOTE_D5,NOTE_F4,},
{NOTE_AS4,},
{NOTE_AS3,NOTE_D4,},
{NOTE_F4,},
{NOTE_AS4,},
{NOTE_AS3,NOTE_F4,NOTE_D4,},
{NOTE_G2,NOTE_G1,},
{NOTE_G4,},
{NOTE_AS4,},
{NOTE_AS3,NOTE_F4,NOTE_D4,},
{NOTE_G4,},
{NOTE_AS4,},
{NOTE_AS3,NOTE_D4,},
{NOTE_F4,NOTE_D4,},
{NOTE_D4,},
{NOTE_D4,},
{NOTE_C4,},
{NOTE_D4,NOTE_FS4,},
{NOTE_C4,},
{NOTE_D4,NOTE_FS4,},
{NOTE_FS4,},
{NOTE_D4,},
{NOTE_C4,},
{NOTE_A4,},
{NOTE_D4,},
{NOTE_G4,NOTE_AS4,NOTE_G2,NOTE_G3,NOTE_D4,},
{NOTE_F2,NOTE_F3,NOTE_C4,NOTE_F4,NOTE_A4,},
{NOTE_C3,NOTE_C2,NOTE_C4,NOTE_G4,NOTE_E4,},
{NOTE_G2,NOTE_G1,},
{NOTE_AS3,NOTE_G3,},
{NOTE_D4,},
{NOTE_G4,},
{NOTE_AS4,},
{NOTE_G4,},
{NOTE_G4,},
{NOTE_G4,},
{NOTE_AS4,},
{NOTE_G3,NOTE_G2,NOTE_AS4,NOTE_D4,NOTE_G4,},
{NOTE_F2,NOTE_F3,NOTE_C4,NOTE_F4,NOTE_A4,},
{NOTE_C4,NOTE_E4,NOTE_C2,NOTE_C3,NOTE_G4,},
{NOTE_G1,NOTE_G2,},
{NOTE_G3,NOTE_AS3,NOTE_D4,},
{NOTE_AS3,NOTE_D4,NOTE_G3,},
{NOTE_G2,NOTE_G1,},
{NOTE_AS3,NOTE_D4,NOTE_G3,},
{NOTE_A3,NOTE_C4,NOTE_F4,},
{NOTE_G2,NOTE_G1,},
{NOTE_AS3,NOTE_D4,NOTE_F4,},
{NOTE_G1,NOTE_G2,},
{NOTE_G1,NOTE_G2,},
{NOTE_C3,NOTE_C2,NOTE_C4,NOTE_G4,NOTE_E4,},
{NOTE_C3,NOTE_C2,NOTE_G4,NOTE_C4,NOTE_E4,},
{NOTE_C3,NOTE_C2,NOTE_C4,NOTE_E4,NOTE_G4,},
{NOTE_C3,NOTE_C2,NOTE_D4,NOTE_F4,NOTE_A4,},
{NOTE_C2,NOTE_C3,},
{NOTE_AS4,NOTE_E4,NOTE_G4,},
{NOTE_F4,},
{NOTE_A3,NOTE_F4,NOTE_F3,NOTE_C4,},
{NOTE_F4,},
{NOTE_F3,NOTE_A3,NOTE_F4,NOTE_C4,},
{NOTE_A3,NOTE_F3,NOTE_C4,NOTE_F4,},
{NOTE_F3,NOTE_A3,NOTE_F4,NOTE_C4,},
{NOTE_F4,},
{NOTE_F4,NOTE_F3,NOTE_A3,NOTE_C4,},
{NOTE_F4,},
{NOTE_F4,},
{NOTE_A4,},
{NOTE_A3,NOTE_C4,NOTE_E4,},
{NOTE_A4,},
{NOTE_A4,NOTE_A3,NOTE_C4,NOTE_E4,},
{NOTE_A4,},
{NOTE_E4,NOTE_A4,NOTE_A3,NOTE_C4,},
{NOTE_A4,},
{NOTE_D4,},
{NOTE_F4,NOTE_A4,},
{NOTE_D4,},
{NOTE_D4,},
{NOTE_D4,},
{NOTE_D4,NOTE_F4,NOTE_A4,NOTE_D5,},
{NOTE_F4,NOTE_A4,NOTE_D5,NOTE_D4,},
{NOTE_D4,},
{NOTE_D5,NOTE_D4,NOTE_F4,NOTE_A4,},
{NOTE_D4,},
{NOTE_E4,},
{NOTE_G4,},
{NOTE_AS3,NOTE_D4,NOTE_G3,},
{NOTE_G4,},
{NOTE_G4,},
{NOTE_A3,NOTE_G4,NOTE_C4,},
{NOTE_G4,},
{NOTE_AS3,NOTE_G3,NOTE_D4,},
{NOTE_G4,},
{NOTE_C4,NOTE_E4,NOTE_G4,},
{NOTE_C4,},
{NOTE_C4,NOTE_E4,NOTE_G4,},
{NOTE_C4,},
{NOTE_C5,NOTE_D4,NOTE_F4,},
{NOTE_C4,},
{NOTE_E4,NOTE_G4,NOTE_C5,},
{NOTE_C4,},
{NOTE_D4,},
{NOTE_F2,NOTE_F4,NOTE_F3,NOTE_A3,NOTE_C4,},
{NOTE_F4,},
{NOTE_A3,NOTE_F4,NOTE_F3,NOTE_C4,},
{NOTE_A3,NOTE_F4,NOTE_F3,NOTE_C4,},
{NOTE_F4,NOTE_F3,NOTE_A3,NOTE_C4,},
{NOTE_F4,},
{NOTE_F3,NOTE_C4,NOTE_F4,NOTE_A3,},
{NOTE_F4,},
{NOTE_G4,},
{NOTE_A4,},
{NOTE_A3,NOTE_C4,NOTE_E4,},
{NOTE_C4,NOTE_A3,NOTE_E4,},
{NOTE_A4,},
{NOTE_A4,NOTE_A3,NOTE_C4,NOTE_E4,},
{NOTE_A4,},
{NOTE_A3,NOTE_C4,NOTE_E4,},
{NOTE_A4,},
{NOTE_D4,NOTE_F4,NOTE_A4,},
{NOTE_D4,},
{NOTE_D4,},
{NOTE_D5,NOTE_D4,NOTE_F4,NOTE_A4,},
{NOTE_D4,},
{NOTE_D4,},
{NOTE_A4,NOTE_D5,NOTE_F4,},
{NOTE_D4,},
{NOTE_D4,NOTE_A4,NOTE_F4,},
{NOTE_D4,},
{NOTE_E4,},
{NOTE_G4,},
{NOTE_AS4,},
{NOTE_D4,},
{NOTE_G4,},
{NOTE_G4,},
{NOTE_G4,},
{NOTE_G4,NOTE_A3,},
{NOTE_C4,},
{NOTE_G4,},
{NOTE_G4,},
{NOTE_G1,NOTE_AS3,NOTE_D4,},
{NOTE_G4,},
{NOTE_G4,},
{NOTE_C4,},
{NOTE_C4,NOTE_E4,NOTE_G4,},
{NOTE_C4,},
{NOTE_C4,},
{NOTE_C4,},
{NOTE_C5,NOTE_D4,NOTE_F4,},
{NOTE_C5,NOTE_G4,NOTE_E4,},
{NOTE_C4,},
{NOTE_E4,},
{NOTE_F4,},
{NOTE_A3,NOTE_C4,NOTE_F4,NOTE_F3,},
{NOTE_F4,NOTE_F3,NOTE_A3,NOTE_C4,},
{NOTE_F4,},
{NOTE_A3,NOTE_F4,NOTE_F3,NOTE_C4,},
{NOTE_F4,},
{NOTE_C4,NOTE_F4,NOTE_F3,NOTE_A3,},
{NOTE_F4,},
{NOTE_F4,},
{NOTE_F4,},
{NOTE_F3,NOTE_C4,NOTE_DS4,NOTE_A3,},
{NOTE_A3,NOTE_F3,NOTE_C4,},
{NOTE_DS4,},
{NOTE_F4,},
{NOTE_C4,NOTE_DS4,NOTE_F3,NOTE_A3,},
{NOTE_F4,},
{NOTE_F3,NOTE_A3,NOTE_C4,NOTE_DS4,},
{NOTE_F4,},
{NOTE_AS4,},
{NOTE_AS4,},
{NOTE_AS3,NOTE_D4,NOTE_F3,},
{NOTE_F4,NOTE_AS4,NOTE_D5,},
{NOTE_AS4,},
{NOTE_AS4,NOTE_G4,NOTE_DS5,},
{NOTE_AS4,},
{NOTE_DS5,NOTE_G4,NOTE_AS4,},
{NOTE_AS4,NOTE_F4,NOTE_D5,},
{NOTE_AS4,},
{NOTE_A4,},
{NOTE_G4,},
{NOTE_AS3,NOTE_G3,NOTE_D4,NOTE_F4,},
{NOTE_G3,NOTE_AS3,NOTE_F4,NOTE_D4,},
{NOTE_G4,},
{NOTE_AS3,NOTE_G3,NOTE_F4,NOTE_D4,},
{NOTE_G4,},
{NOTE_AS3,NOTE_F4,NOTE_G3,NOTE_D4,},
{NOTE_G4,},
{NOTE_FS4,},
{NOTE_FS4,NOTE_C4,NOTE_D4,},
{NOTE_FS4,NOTE_D4,NOTE_C4,},
{NOTE_D4,},
{NOTE_G4,NOTE_C4,NOTE_D4,},
{NOTE_D4,},
{NOTE_A4,NOTE_C4,NOTE_D4,},
{NOTE_D4,},
{NOTE_G4,},
{NOTE_AS3,NOTE_D4,},
{NOTE_G4,NOTE_D4,},
{NOTE_G4,},
{NOTE_G4,},
{NOTE_G4,},
{NOTE_G4,},
{NOTE_AS3,NOTE_D4,NOTE_G3,},
{NOTE_G4,},
{NOTE_AS3,NOTE_D4,},
{NOTE_G4,},
{NOTE_G4,},
{NOTE_G1,NOTE_AS3,NOTE_D4,},
{NOTE_G4,},
{NOTE_G4,},
{NOTE_G4,},
{NOTE_FS4,},
{NOTE_FS4,NOTE_C4,NOTE_D4,},
{NOTE_FS4,NOTE_C4,NOTE_D4,},
{NOTE_D4,},
{NOTE_C4,NOTE_D4,NOTE_G4,},
{NOTE_D4,},
{NOTE_C4,NOTE_D4,NOTE_A4,},
{NOTE_D4,},
{NOTE_AS3,NOTE_D4,},
{NOTE_G3,NOTE_G4,NOTE_D4,},
{NOTE_G4,},
{NOTE_G4,},
{NOTE_G4,},
{NOTE_AS3,NOTE_G3,NOTE_D4,},
{NOTE_G3,NOTE_AS3,NOTE_D4,},
{NOTE_G4,},
{NOTE_G3,NOTE_AS3,NOTE_D4,NOTE_G1,},
{NOTE_G4,},
{NOTE_G4,},
{NOTE_G1,NOTE_G2,NOTE_G3,},
{NOTE_G1,NOTE_G2,NOTE_G3,},
{NOTE_A1,NOTE_A2,NOTE_A3,},
{NOTE_A3,NOTE_A1,NOTE_A2,},
{NOTE_AS2,NOTE_AS1,NOTE_AS3,},
{NOTE_AS2,NOTE_AS1,NOTE_AS3,},
{NOTE_B3,NOTE_B1,NOTE_B2,},
{NOTE_C3,NOTE_C2,},
{NOTE_C4,},
{NOTE_C4,NOTE_C5,},
{NOTE_C4,NOTE_C5,},
{NOTE_C2,NOTE_C3,},
{NOTE_C4,NOTE_C5,},
{NOTE_C4,NOTE_C5,},
{NOTE_C2,NOTE_C3,},
{NOTE_C3,NOTE_C2,},
{NOTE_F1,NOTE_F2,NOTE_C4,NOTE_F3,NOTE_A3,},
{NOTE_F1,NOTE_F2,},
{NOTE_G1,NOTE_G2,},
{NOTE_G3,NOTE_AS3,NOTE_D4,},
{NOTE_G1,NOTE_G2,},
{NOTE_A1,NOTE_A2,},
{NOTE_A3,NOTE_C4,NOTE_E4,},
{NOTE_D4,},
{NOTE_D4,},
{NOTE_D4,NOTE_F4,NOTE_A4,},
{NOTE_D4,},
{NOTE_D4,NOTE_F4,NOTE_A4,},
{NOTE_D4,NOTE_F4,NOTE_A4,},
{NOTE_D4,},
{NOTE_D4,NOTE_F4,NOTE_A4,},
{NOTE_D4,},
{NOTE_D4,},
{NOTE_G4,},
{NOTE_AS3,NOTE_G3,NOTE_D4,},
{NOTE_AS3,NOTE_G3,NOTE_D4,},
{NOTE_G4,},
{NOTE_G3,NOTE_AS3,NOTE_D4,},
{NOTE_G4,},
{NOTE_AS3,NOTE_D4,NOTE_G3,},
{NOTE_G4,},
{NOTE_C4,},
{NOTE_E4,NOTE_C4,NOTE_C5,NOTE_G4,},
{NOTE_E4,NOTE_C4,NOTE_G4,NOTE_C5,},
{NOTE_C4,},
{NOTE_C5,NOTE_D4,NOTE_F4,},
{NOTE_C4,},
{NOTE_E4,NOTE_G4,NOTE_C5,},
{NOTE_C4,},
{NOTE_C4,},
{NOTE_F2,NOTE_F1,NOTE_A3,NOTE_C4,NOTE_F3,},
{NOTE_F1,NOTE_F2,},
{NOTE_C4,NOTE_F3,NOTE_A3,},
{NOTE_F1,NOTE_F2,},
{NOTE_G1,NOTE_G2,},
{NOTE_G3,NOTE_AS3,NOTE_D4,},
{NOTE_G2,NOTE_G1,},
{NOTE_E4,NOTE_A3,NOTE_C4,},
{NOTE_A1,NOTE_A2,},
{NOTE_A4,NOTE_D4,NOTE_F4,},
{NOTE_D4,},
{NOTE_D4,},
{NOTE_D4,NOTE_F4,NOTE_A4,},
{NOTE_D4,},
{NOTE_D4,NOTE_A4,NOTE_F4,},
{NOTE_D4,},
{NOTE_A3,NOTE_D4,NOTE_F4,},
{NOTE_D4,},
{NOTE_E4,},
{NOTE_G3,NOTE_AS3,NOTE_F4,NOTE_D4,},
{NOTE_G4,},
{NOTE_G4,},
{NOTE_AS3,NOTE_F4,NOTE_G3,NOTE_D4,},
{NOTE_G4,},
{NOTE_G3,NOTE_F4,NOTE_AS3,NOTE_D4,},
{NOTE_G4,},
{NOTE_FS4,NOTE_C4,NOTE_D4,},
{NOTE_D4,},
{NOTE_FS4,},
{NOTE_C4,NOTE_D4,},
{NOTE_D4,},
{NOTE_A4,},
{NOTE_C4,NOTE_FS4,NOTE_D4,},
{NOTE_D4,},
{NOTE_C4,NOTE_D4,NOTE_FS4,},
{NOTE_D4,},
{NOTE_D4,},
{NOTE_D4,NOTE_G4,NOTE_AS4,},
{NOTE_G2,NOTE_G3,},
{NOTE_F4,NOTE_C4,NOTE_A4,NOTE_F2,NOTE_F3,},
{NOTE_C4,NOTE_E4,NOTE_G4,},
{NOTE_C2,NOTE_C3,},
{NOTE_AS3,NOTE_D4,NOTE_G3,NOTE_G2,},
{NOTE_G4,},
{NOTE_G3,NOTE_AS3,NOTE_D4,},
{NOTE_G4,},
{NOTE_AS3,NOTE_D4,NOTE_G3,},
{NOTE_G4,},
{NOTE_G3,NOTE_AS3,NOTE_F4,NOTE_D4,},
{NOTE_G4,},
{NOTE_AS4,NOTE_G4,NOTE_D4,NOTE_G2,NOTE_G3,},
{NOTE_G2,NOTE_G3,},
{NOTE_G3,NOTE_G2,},
{NOTE_F3,NOTE_F2,},
{NOTE_F4,NOTE_C4,NOTE_A4,},
{NOTE_F2,NOTE_F3,},
{NOTE_C3,NOTE_C2,},
{NOTE_C4,NOTE_G4,NOTE_E4,},
{NOTE_G3,NOTE_AS3,NOTE_D4,},
{NOTE_G4,},
{NOTE_G4,},
{NOTE_G4,},
{NOTE_AS3,NOTE_G3,NOTE_D4,},
{NOTE_A3,NOTE_C4,NOTE_G4,},
{NOTE_G4,},
{NOTE_AS3,NOTE_G3,NOTE_D4,},
{NOTE_G4,},
{NOTE_C5,NOTE_C4,NOTE_E4,NOTE_G4,},
{NOTE_C4,},
{NOTE_C4,NOTE_C5,NOTE_E4,NOTE_G4,},
{NOTE_C4,},
{NOTE_C5,NOTE_D4,NOTE_F4,},
{NOTE_C4,},
{NOTE_C5,NOTE_E4,NOTE_G4,},
{NOTE_C4,},
{NOTE_GS4,},
{NOTE_GS4,},
{NOTE_C4,},
{NOTE_DS4,},
{NOTE_AS1,NOTE_AS2,},
{NOTE_GS4,},
{NOTE_GS3,NOTE_C4,NOTE_DS4,},
{NOTE_GS4,},
{NOTE_GS4,},
{NOTE_AS4,},
{NOTE_C5,NOTE_DS5,},
{NOTE_GS4,},
{NOTE_AS1,NOTE_AS2,},
{NOTE_C4,NOTE_DS4,NOTE_GS4,},
{NOTE_AS1,NOTE_AS2,},
{NOTE_AS1,NOTE_AS2,},
{NOTE_AS1,NOTE_AS2,},
{NOTE_DS4,NOTE_C4,NOTE_GS4,},
{NOTE_AS2,NOTE_AS1,},
{NOTE_AS1,NOTE_AS2,},
{NOTE_AS1,NOTE_AS2,},
{NOTE_F4,},
{NOTE_F3,NOTE_A3,NOTE_C4,NOTE_F4,},
{NOTE_F4,},
{NOTE_F3,NOTE_A3,NOTE_F4,NOTE_C4,},
{NOTE_F3,NOTE_A3,NOTE_F4,NOTE_C4,},
{NOTE_A3,NOTE_F3,NOTE_C4,NOTE_F4,},
{NOTE_F4,},
{NOTE_F3,NOTE_A3,NOTE_C4,NOTE_F4,},
{NOTE_F4,},
{NOTE_F4,},
{NOTE_A4,},
{NOTE_C4,NOTE_A3,NOTE_E4,},
{NOTE_C4,NOTE_A3,NOTE_E4,},
{NOTE_A4,},
{NOTE_C4,NOTE_E4,NOTE_A4,NOTE_A3,},
{NOTE_A4,},
{NOTE_A3,NOTE_E4,NOTE_C4,},
{NOTE_A4,},
{NOTE_A4,},
{NOTE_F4,},
{NOTE_A4,},
{NOTE_D4,},
{NOTE_D4,},
{NOTE_D4,},
{NOTE_D4,},
{NOTE_D4,NOTE_D5,NOTE_F4,NOTE_A4,},
{NOTE_D4,},
{NOTE_D5,NOTE_D4,NOTE_F4,NOTE_A4,},
{NOTE_D4,},
{NOTE_D4,},
{NOTE_G4,},
{NOTE_AS3,NOTE_G4,NOTE_G3,NOTE_D4,},
{NOTE_AS3,NOTE_G3,NOTE_D4,NOTE_G4,},
{NOTE_G4,},
{NOTE_G4,NOTE_A3,NOTE_C4,},
{NOTE_G4,},
{NOTE_AS3,NOTE_D4,},
{NOTE_G4,},
{NOTE_E4,NOTE_C4,NOTE_G4,},
{NOTE_C4,},
{NOTE_C5,NOTE_C4,NOTE_E4,NOTE_G4,},
{NOTE_C4,},
{NOTE_C5,NOTE_D4,NOTE_F4,},
{NOTE_C4,},
{NOTE_C5,NOTE_E4,NOTE_G4,},
{NOTE_C4,},
{NOTE_E4,},
{NOTE_A3,NOTE_C4,NOTE_F4,},
{NOTE_F4,},
{NOTE_F4,},
{NOTE_A3,NOTE_C4,NOTE_F4,NOTE_F3,},
{NOTE_F4,},
{NOTE_C4,NOTE_F4,NOTE_F3,NOTE_A3,},
{NOTE_F4,NOTE_A3,NOTE_C4,NOTE_F3,},
{NOTE_F4,},
{NOTE_F3,NOTE_C4,NOTE_F4,},
{NOTE_A3,NOTE_C4,},
{NOTE_F4,},
{NOTE_F4,},
{NOTE_A4,},
{NOTE_A3,NOTE_C4,NOTE_E4,},
{NOTE_A3,NOTE_C4,NOTE_E4,},
{NOTE_A4,},
{NOTE_C4,NOTE_E4,NOTE_A4,NOTE_A3,},
{NOTE_A4,},
{NOTE_A3,NOTE_C4,},
{NOTE_E4,},
{NOTE_A4,},
{NOTE_D4,},
{NOTE_A4,},
{NOTE_F4,},
{NOTE_D4,},
{NOTE_D4,},
{NOTE_D4,},
{NOTE_F4,NOTE_D5,NOTE_D4,NOTE_A4,},
{NOTE_D4,NOTE_F4,NOTE_A4,NOTE_D5,},
{NOTE_D4,},
{NOTE_D4,NOTE_F4,NOTE_A4,},
{NOTE_D4,},
{NOTE_E4,},
{NOTE_G4,},
{NOTE_G3,NOTE_AS3,NOTE_D4,},
{NOTE_G4,},
{NOTE_G4,NOTE_A3,NOTE_C4,},
{NOTE_G4,},
{NOTE_G4,},
{NOTE_AS3,NOTE_F4,NOTE_D4,},
{NOTE_G4,},
{NOTE_G4,},
{NOTE_A4,},
{NOTE_C4,NOTE_E4,},
{NOTE_G4,},
{NOTE_C4,},
{NOTE_C4,},
{NOTE_D4,NOTE_F4,NOTE_A4,},
{NOTE_AS4,NOTE_E4,NOTE_G4,},
{NOTE_C4,},
{NOTE_E4,},
{NOTE_F4,},
{NOTE_A3,NOTE_F4,NOTE_F3,NOTE_C4,},
{NOTE_F4,},
{NOTE_F3,NOTE_A3,NOTE_C4,NOTE_F4,},
{NOTE_F4,},
{NOTE_C4,NOTE_F4,NOTE_A3,},
{NOTE_F4,},
{NOTE_A3,NOTE_C4,NOTE_F4,},
{NOTE_F4,},
{NOTE_F4,},
{NOTE_F4,},
{NOTE_C4,NOTE_DS4,NOTE_F3,NOTE_A3,},
{NOTE_F3,NOTE_A3,NOTE_C4,NOTE_DS4,},
{NOTE_F4,},
{NOTE_F3,NOTE_A3,NOTE_C4,NOTE_DS4,},
{NOTE_F4,},
{NOTE_F3,NOTE_A3,NOTE_C4,NOTE_DS4,},
{NOTE_F4,},
{NOTE_DS4,},
{NOTE_AS4,},
{NOTE_AS3,NOTE_F3,NOTE_D4,},
{NOTE_AS4,},
{NOTE_AS4,NOTE_F4,},
{NOTE_D5,NOTE_F4,},
{NOTE_G4,NOTE_AS4,NOTE_DS5,},
{NOTE_DS5,NOTE_G4,},
{NOTE_AS4,},
{NOTE_AS4,},
{NOTE_AS4,NOTE_D5,NOTE_F4,},
{NOTE_AS4,},
{NOTE_AS4,},
{NOTE_AS3,NOTE_G3,NOTE_F4,NOTE_D4,},
{NOTE_G4,},
{NOTE_F4,NOTE_G3,NOTE_AS3,NOTE_D4,},
{NOTE_G4,},
{NOTE_AS3,NOTE_G3,NOTE_D4,NOTE_F4,},
{NOTE_G4,},
{NOTE_G3,NOTE_AS3,NOTE_F4,NOTE_D4,},
{NOTE_G4,},
{NOTE_FS4,},
{NOTE_C4,NOTE_D4,NOTE_FS4,},
{NOTE_FS4,NOTE_C4,NOTE_D4,},
{NOTE_D4,},
{NOTE_C4,NOTE_D4,NOTE_G4,},
{NOTE_D4,},
{NOTE_C4,NOTE_A4,NOTE_D4,},
{NOTE_D4,},
{NOTE_AS4,},
{NOTE_D4,},
{NOTE_G4,},
{NOTE_G4,},
{NOTE_G4,},
{NOTE_G4,},
{NOTE_G4,},
{NOTE_AS3,NOTE_G3,NOTE_D4,},
{NOTE_G2,NOTE_D4,},
{NOTE_G3,NOTE_AS3,NOTE_D4,},
{NOTE_G4,},
{NOTE_G1,NOTE_AS3,NOTE_D4,},
{NOTE_G4,},
{NOTE_G4,},
{NOTE_G4,},
{NOTE_FS4,},
{NOTE_FS4,NOTE_C4,NOTE_D4,},
{NOTE_FS4,NOTE_C4,NOTE_D4,},
{NOTE_D4,},
{NOTE_C4,NOTE_D4,NOTE_G4,},
{NOTE_D4,},
{NOTE_C4,NOTE_D4,NOTE_A4,},
{NOTE_D4,},
{NOTE_AS3,NOTE_D4,},
{NOTE_G4,},
{NOTE_G4,},
{NOTE_G1,NOTE_G3,},
{NOTE_G4,},
{NOTE_AS3,NOTE_D4,NOTE_G3,},
{NOTE_G3,NOTE_AS3,NOTE_D4,NOTE_G2,},
{NOTE_G4,},
{NOTE_G4,},
{NOTE_AS4,},
{NOTE_D4,},
{NOTE_G4,},
{NOTE_G4,},
{NOTE_G4,},
{NOTE_G4,},
{NOTE_G2,NOTE_G1,},
{NOTE_G4,},
{NOTE_G1,NOTE_G2,},
{NOTE_G4,},
{NOTE_A1,NOTE_A2,},
{NOTE_A4,},
{NOTE_A2,NOTE_A1,NOTE_A3,},
{NOTE_AS2,NOTE_AS1,NOTE_AS3,},
{NOTE_AS1,NOTE_AS2,},
{NOTE_AS4,},
{NOTE_B1,NOTE_B2,},
{NOTE_B4,},
{NOTE_C2,NOTE_C3,},
{NOTE_C4,},
{NOTE_F3,NOTE_A3,NOTE_C4,NOTE_F4,},
{NOTE_F4,},
{NOTE_A3,NOTE_C4,NOTE_F4,NOTE_F3,},
{NOTE_A3,NOTE_C4,NOTE_F4,NOTE_F3,},
{NOTE_F4,},
{NOTE_F3,NOTE_A3,NOTE_C4,NOTE_F4,},
{NOTE_F4,},
{NOTE_F4,},
{NOTE_A4,},
{NOTE_A3,NOTE_C4,NOTE_E4,},
{NOTE_A3,NOTE_E4,},
{NOTE_C4,},
{NOTE_A4,},
{NOTE_C4,NOTE_A4,NOTE_E4,},
{NOTE_A4,},
{NOTE_A3,NOTE_C4,NOTE_E4,},
{NOTE_A4,},
{NOTE_A3,NOTE_D4,},
{NOTE_F4,},
{NOTE_D4,},
{NOTE_D4,},
{NOTE_D4,},
{NOTE_D4,NOTE_F4,NOTE_D5,NOTE_A4,},
{NOTE_D4,NOTE_F4,NOTE_A4,NOTE_D5,},
{NOTE_D4,},
{NOTE_A4,NOTE_D4,NOTE_F4,NOTE_D5,},
{NOTE_D4,},
{NOTE_E4,},
{NOTE_G4,},
{NOTE_F4,NOTE_G3,NOTE_AS3,NOTE_D4,},
{NOTE_AS3,NOTE_F4,NOTE_G3,NOTE_D4,},
{NOTE_G4,},
{NOTE_A3,NOTE_G4,NOTE_C4,},
{NOTE_G4,},
{NOTE_AS3,NOTE_F4,NOTE_D4,},
{NOTE_G4,},
{NOTE_C4,NOTE_E4,NOTE_G4,},
{NOTE_C4,},
{NOTE_C5,NOTE_C4,NOTE_E4,NOTE_G4,},
{NOTE_C4,},
{NOTE_C5,NOTE_D4,NOTE_F4,},
{NOTE_C4,},
{NOTE_C5,NOTE_E4,NOTE_G4,},
{NOTE_C4,},
{NOTE_C4,NOTE_F4,NOTE_A3,},
{NOTE_F4,},
{NOTE_G4,},
{NOTE_A3,NOTE_C4,NOTE_F4,},
{NOTE_F4,},
{NOTE_A4,NOTE_C4,NOTE_F4,NOTE_A3,},
{NOTE_C4,NOTE_F4,NOTE_A4,NOTE_A3,},
{NOTE_C4,NOTE_A3,NOTE_F4,},
{NOTE_F4,},
{NOTE_C4,NOTE_F4,NOTE_A3,},
{NOTE_F4,},
{NOTE_AS4,},
{NOTE_A4,},
{NOTE_A3,NOTE_C4,NOTE_A4,NOTE_E4,},
{NOTE_C4,NOTE_A3,NOTE_E4,NOTE_A4,},
{NOTE_A4,},
{NOTE_A3,NOTE_C4,NOTE_E4,NOTE_A4,},
{NOTE_A4,},
{NOTE_A3,NOTE_C4,NOTE_E4,},
{NOTE_A4,},
{NOTE_D4,NOTE_A3,},
{NOTE_F4,},
{NOTE_D4,},
{NOTE_D4,},
{NOTE_D4,},
{NOTE_F4,NOTE_D4,NOTE_D5,NOTE_A4,},
{NOTE_F4,NOTE_A4,NOTE_D5,NOTE_D4,},
{NOTE_D4,},
{NOTE_F4,NOTE_A4,NOTE_D5,},
{NOTE_D4,},
{NOTE_D4,},
{NOTE_G4,},
{NOTE_G4,},
{NOTE_AS4,},
{NOTE_D4,},
{NOTE_G4,},
{NOTE_G4,},
{NOTE_A3,NOTE_C4,NOTE_G4,},
{NOTE_G4,},
{NOTE_G4,},
{NOTE_G4,},
{NOTE_AS3,NOTE_D4,},
{NOTE_G4,},
{NOTE_C4,},
{NOTE_C4,NOTE_E4,NOTE_G4,},
{NOTE_C4,},
{NOTE_C4,},
{NOTE_C4,},
{NOTE_D4,NOTE_F4,NOTE_C5,},
{NOTE_C5,NOTE_E4,NOTE_G4,},
{NOTE_C4,},
{NOTE_C4,},
{NOTE_F2,NOTE_C4,NOTE_F3,NOTE_A3,},
{NOTE_F4,},
{NOTE_F3,NOTE_A3,NOTE_C4,NOTE_F4,},
{NOTE_A3,NOTE_F4,NOTE_F3,NOTE_C4,},
{NOTE_F4,},
{NOTE_F3,NOTE_A3,NOTE_C4,NOTE_F4,},
{NOTE_F4,},
{NOTE_F3,NOTE_A3,NOTE_C4,NOTE_F4,},
{NOTE_F4,},
{NOTE_C4,NOTE_F3,NOTE_A3,NOTE_DS4,},
{NOTE_F3,NOTE_A3,NOTE_C4,NOTE_DS4,},
{NOTE_F4,},
{NOTE_F3,NOTE_A3,NOTE_C4,NOTE_DS4,},
{NOTE_F4,},
{NOTE_A3,NOTE_DS4,NOTE_F3,NOTE_C4,},
{NOTE_F4,},
{NOTE_C4,},
{NOTE_AS4,},
{NOTE_F4,NOTE_AS3,NOTE_D4,},
{NOTE_AS4,},
{NOTE_AS4,NOTE_D5,},
{NOTE_F4,},
{NOTE_AS4,NOTE_DS5,NOTE_G4,},
{NOTE_AS4,},
{NOTE_DS5,NOTE_G4,},
{NOTE_AS4,},
{NOTE_F4,NOTE_D5,},
{NOTE_AS4,},
{NOTE_A4,},
{NOTE_G4,},
{NOTE_AS3,NOTE_F4,NOTE_G3,NOTE_D4,},
{NOTE_AS3,NOTE_F4,NOTE_G3,NOTE_D4,},
{NOTE_G4,},
{NOTE_G3,NOTE_AS3,NOTE_F4,},
{NOTE_D4,},
{NOTE_G4,},
{NOTE_G3,NOTE_AS3,NOTE_D4,NOTE_F4,},
{NOTE_G4,},
{NOTE_FS4,},
{NOTE_FS4,NOTE_C4,NOTE_D4,},
{NOTE_FS4,NOTE_C4,NOTE_D4,},
{NOTE_D4,},
{NOTE_C4,NOTE_G4,NOTE_D4,},
{NOTE_D4,},
{NOTE_C4,NOTE_D4,NOTE_A4,},
{NOTE_D4,},
{NOTE_AS3,NOTE_D4,},
{NOTE_G4,},
{NOTE_G4,},
{NOTE_G4,},
{NOTE_G4,},
{NOTE_G3,NOTE_AS3,NOTE_D4,},
{NOTE_G4,},
{NOTE_G2,NOTE_D4,},
{NOTE_G3,NOTE_AS3,NOTE_D4,},
{NOTE_G4,},
{NOTE_G4,},
{NOTE_G3,NOTE_AS3,NOTE_D4,},
{NOTE_G4,},
{NOTE_AS3,NOTE_D4,NOTE_G3,},
{NOTE_G4,},
{NOTE_FS4,},
{NOTE_C4,NOTE_D4,NOTE_FS4,},
{NOTE_C4,NOTE_FS4,NOTE_D4,},
{NOTE_D4,},
{NOTE_C4,NOTE_G4,NOTE_D4,},
{NOTE_D4,},
{NOTE_C4,NOTE_A4,NOTE_D4,},
{NOTE_D4,},
{NOTE_G4,},
{NOTE_AS3,NOTE_D4,NOTE_G4,},
{NOTE_G4,},
{NOTE_G1,NOTE_G3,},
{NOTE_G4,},
{NOTE_G3,NOTE_AS3,NOTE_G4,NOTE_D4,},
{NOTE_G4,},
{NOTE_AS3,NOTE_G4,NOTE_G3,},
{NOTE_D4,},
{NOTE_G4,},
{NOTE_G4,},
{NOTE_G3,NOTE_G4,},
{NOTE_AS4,},
{NOTE_D4,},
{NOTE_G4,},
{NOTE_G4,},
{NOTE_G2,NOTE_G1,NOTE_G3,},
{NOTE_G4,},
{NOTE_G1,NOTE_G2,},
{NOTE_A1,NOTE_A2,NOTE_A3,},
{NOTE_A3,NOTE_A2,NOTE_A1,},
{NOTE_AS2,NOTE_AS1,},
{NOTE_AS4,},
{NOTE_AS2,NOTE_AS1,},
{NOTE_AS4,},
{NOTE_B3,NOTE_B2,},
{NOTE_B1,NOTE_B2,},
{NOTE_C4,},
{NOTE_C3,NOTE_C2,},
{NOTE_C4,NOTE_C5,},
{NOTE_C4,NOTE_C5,},
{NOTE_C2,NOTE_C3,},
{NOTE_C4,NOTE_C5,},
{NOTE_C4,NOTE_C5,},
{NOTE_C4,NOTE_C5,},
{NOTE_C3,NOTE_C2,},
{NOTE_C4,NOTE_F3,NOTE_A3,},
{NOTE_F1,NOTE_F2,},
{NOTE_F3,NOTE_A3,NOTE_C4,},
{NOTE_F1,NOTE_F2,},
{NOTE_F1,NOTE_F2,},
{NOTE_G2,NOTE_G1,},
{NOTE_G3,NOTE_AS3,NOTE_D4,},
{NOTE_G1,NOTE_G2,},
{NOTE_A1,NOTE_A2,},
{NOTE_A3,NOTE_E4,NOTE_C4,},
{NOTE_D4,NOTE_D3,},
{NOTE_F4,NOTE_A4,NOTE_D2,},
{NOTE_D4,},
{NOTE_D4,},
{NOTE_D5,NOTE_D4,NOTE_F4,NOTE_A4,},
{NOTE_D4,},
{NOTE_D5,NOTE_D4,NOTE_F4,NOTE_A4,},
{NOTE_D4,},
{NOTE_D4,NOTE_F4,NOTE_D5,NOTE_A4,},
{NOTE_D4,},
{NOTE_E4,},
{NOTE_G4,},
{NOTE_AS3,NOTE_F4,NOTE_G3,NOTE_D4,},
{NOTE_G3,NOTE_AS3,NOTE_F4,NOTE_D4,},
{NOTE_G4,},
{NOTE_G3,NOTE_AS3,NOTE_F4,NOTE_D4,},
{NOTE_G4,},
{NOTE_G3,NOTE_AS3,NOTE_F4,NOTE_D4,},
{NOTE_G4,},
{NOTE_F4,},
{NOTE_C4,},
{NOTE_C5,NOTE_C4,NOTE_E4,NOTE_G4,},
{NOTE_C4,NOTE_G4,NOTE_C5,NOTE_E4,},
{NOTE_C4,},
{NOTE_F4,NOTE_C5,NOTE_D4,},
{NOTE_C4,},
{NOTE_C5,NOTE_E4,NOTE_G4,},
{NOTE_C4,},
{NOTE_D4,},
{NOTE_C4,NOTE_F3,NOTE_A3,NOTE_F2,NOTE_F1,},
{NOTE_C4,NOTE_F3,NOTE_A3,},
{NOTE_F2,NOTE_F1,},
{NOTE_F1,NOTE_F2,},
{NOTE_G2,NOTE_G1,},
{NOTE_AS3,NOTE_G3,NOTE_D4,},
{NOTE_G1,NOTE_G2,},
{NOTE_A2,NOTE_A1,NOTE_A3,NOTE_C4,},
{NOTE_E4,},
{NOTE_D4,},
{NOTE_D4,},
{NOTE_D4,NOTE_F4,},
{NOTE_A4,},
{NOTE_D4,},
{NOTE_F4,NOTE_D4,NOTE_A4,NOTE_D5,},
{NOTE_D4,},
{NOTE_F4,NOTE_A4,NOTE_D5,},
{NOTE_D4,},
{NOTE_D5,NOTE_D4,NOTE_F4,NOTE_A4,},
{NOTE_D4,},
{NOTE_D4,},
{NOTE_AS3,NOTE_G3,NOTE_F4,NOTE_D4,},
{NOTE_G4,},
{NOTE_F4,NOTE_AS3,NOTE_G3,NOTE_D4,},
{NOTE_G4,},
{NOTE_AS3,NOTE_G3,NOTE_D4,},
{NOTE_G4,},
{NOTE_AS3,NOTE_G3,NOTE_D4,},
{NOTE_G4,},
{NOTE_G4,},
{NOTE_FS4,NOTE_C4,NOTE_D4,},
{NOTE_D4,},
{NOTE_C4,NOTE_D4,NOTE_FS4,},
{NOTE_D4,},
{NOTE_D4,NOTE_FS4,NOTE_C4,},
{NOTE_D4,},
{NOTE_D4,NOTE_FS4,NOTE_C4,},
{NOTE_D4,},
{NOTE_D4,},
{NOTE_G2,NOTE_G3,},
{NOTE_AS4,NOTE_D4,NOTE_G4,},
{NOTE_G2,NOTE_G3,},
{NOTE_G2,NOTE_G3,},
{NOTE_F3,NOTE_F2,},
{NOTE_C4,NOTE_F4,NOTE_A4,},
{NOTE_C4,NOTE_E4,NOTE_G4,},
{NOTE_C3,NOTE_C2,},
{NOTE_G4,},
{NOTE_G4,},
{NOTE_G3,NOTE_AS3,NOTE_D4,},
{NOTE_G3,NOTE_AS3,NOTE_D4,},
{NOTE_G3,NOTE_AS3,NOTE_D4,},
{NOTE_G4,},
{NOTE_AS3,NOTE_D4,NOTE_G4,},
{NOTE_G4,},
{NOTE_G3,NOTE_AS3,NOTE_D4,},
{NOTE_G4,},
{NOTE_G2,NOTE_G3,NOTE_D4,NOTE_AS4,NOTE_G4,},
{NOTE_G2,NOTE_G3,},
{NOTE_G3,NOTE_G2,},
{NOTE_F3,NOTE_F2,NOTE_C4,NOTE_F4,NOTE_A4,},
{NOTE_F4,},
{NOTE_F4,},
{NOTE_C2,NOTE_C3,},
{NOTE_C4,NOTE_E4,NOTE_G4,},
{NOTE_C3,NOTE_C2,},
{NOTE_G4,},
{NOTE_G4,},
{NOTE_AS3,NOTE_D4,NOTE_G3,},
{NOTE_AS3,NOTE_D4,NOTE_G3,},
{NOTE_G4,},
{NOTE_A4,},
{NOTE_C4,NOTE_G4,},
{NOTE_G4,},
{NOTE_AS3,NOTE_D4,},
{NOTE_G4,},
{NOTE_G4,},
{NOTE_C4,},
{NOTE_C4,NOTE_E4,NOTE_G4,},
{NOTE_C4,NOTE_E4,NOTE_G4,},
{NOTE_C4,},
{NOTE_C5,NOTE_D4,NOTE_F4,},
{NOTE_C4,},
{NOTE_G4,NOTE_C5,NOTE_E4,},
{NOTE_C4,},
{NOTE_AS4,},
{NOTE_AS4,},
{NOTE_DS4,NOTE_GS4,NOTE_C4,},
{NOTE_GS4,},
{NOTE_DS4,NOTE_C4,},
{NOTE_GS4,},
{NOTE_C4,NOTE_DS4,},
{NOTE_GS4,},
{NOTE_DS4,NOTE_C4,},
{NOTE_GS4,},
{NOTE_F4,},
{NOTE_F4,},
{NOTE_A3,NOTE_C4,NOTE_F4,},
{NOTE_F4,},
{NOTE_A3,NOTE_C4,NOTE_F4,},
{NOTE_F4,},
{NOTE_F4,},
{NOTE_C4,},
{NOTE_A4,},
{NOTE_F4,},
{NOTE_A4,},
{NOTE_A4,},
{NOTE_A4,},
{NOTE_C4,NOTE_E4,},
{NOTE_A4,},
{NOTE_C4,},
{NOTE_E4,},
{NOTE_C4,NOTE_E4,},
{NOTE_A4,},
{NOTE_A4,},
{NOTE_C4,NOTE_E4,},
{NOTE_A4,},
{NOTE_A4,},
{NOTE_A4,},
{NOTE_D4,},
{NOTE_D4,},
{NOTE_D4,},
{NOTE_F4,},
{NOTE_D4,},
{NOTE_F4,},
{NOTE_F4,NOTE_A4,NOTE_D5,},
{NOTE_D4,},
{NOTE_F4,},
{NOTE_F4,NOTE_A4,NOTE_D5,},
{NOTE_D4,},
{NOTE_G4,},
{NOTE_G4,},
{NOTE_G4,},
{NOTE_G3,NOTE_AS3,NOTE_D4,},
{NOTE_G4,NOTE_A3,NOTE_C4,},
{NOTE_G4,},
{NOTE_AS3,NOTE_G3,NOTE_D4,},
{NOTE_G4,},
{NOTE_C4,},
{NOTE_E4,NOTE_G4,},
{NOTE_C4,},
{NOTE_C4,},
{NOTE_C4,},
{NOTE_G4,NOTE_C5,NOTE_E4,},
{NOTE_C4,},
{NOTE_F4,NOTE_C5,NOTE_D4,},
{NOTE_C5,NOTE_E4,NOTE_G4,},
{NOTE_C4,},
{NOTE_F4,},
{NOTE_C4,NOTE_A3,},
{NOTE_F1,NOTE_F2,},
{NOTE_F4,},
{NOTE_A4,},
{NOTE_C4,},
{NOTE_F4,},
{NOTE_F4,},
{NOTE_A4,},
{NOTE_C4,},
{NOTE_A4,},
{NOTE_C4,},
{NOTE_DS4,},
{NOTE_F4,},
{NOTE_F4,},
{NOTE_F4,},
{NOTE_A4,},
{NOTE_C4,},
{NOTE_A4,},
{NOTE_C4,NOTE_DS4,},
{NOTE_F4,},
{NOTE_A3,NOTE_C4,NOTE_DS4,},
{NOTE_F4,},
{NOTE_AS4,},
{NOTE_F4,},
{NOTE_AS4,},
{NOTE_AS4,},
{NOTE_D4,},
{NOTE_F4,},
{NOTE_AS4,},
{NOTE_AS3,NOTE_D4,},
{NOTE_D4,NOTE_AS3,},
{NOTE_F4,},
{NOTE_AS4,},
{NOTE_D4,},
{NOTE_G2,NOTE_G1,},
{NOTE_F4,NOTE_D4,NOTE_AS3,},
{NOTE_G4,},
{NOTE_AS4,},
{NOTE_AS3,NOTE_F4,NOTE_D4,},
{NOTE_F4,},
{NOTE_AS4,},
{NOTE_AS3,NOTE_F4,NOTE_D4,},
};
uint16_t dontstopmenow_notedura[1087]={
3,44,3,6,6,6,6,6,6,6,6,3,44,44,3,6,6,3,4,6,3,4,6,4,42,40,6,6,3,6,6,3,4,6,3,4,21,42,3,8,9,6,12,9,12,44,4,6,16,3,12,8,3,45,6,6,45,9,6,8,8,6,6,6,3,44,4,4,6,3,6,12,6,4,6,3,4,27,36,3,3,6,12,6,6,3,6,42,6,4,6,6,3,3,3,33,44,4,6,4,4,15,12,6,12,8,3,3,3,48,8,12,6,6,6,6,6,3,3,3,3,9,4,4,3,3,9,12,15,3,3,3,3,3,9,15,12,12,9,12,3,3,3,12,12,6,4,12,6,12,9,12,9,12,9,12,12,4,12,3,4,12,3,6,4,9,6,3,12,3,12,3,12,4,12,3,12,4,12,4,6,4,9,12,3,3,3,12,15,6,4,12,3,4,12,9,12,9,12,12,12,4,4,12,3,3,12,4,6,6,4,12,15,9,6,12,15,15,6,6,6,6,3,12,15,6,6,9,3,3,6,6,9,4,9,12,9,12,15,6,6,9,4,9,8,12,12,12,15,6,4,12,8,3,12,3,12,3,6,4,4,12,4,6,12,6,12,15,12,12,3,4,12,4,12,4,8,9,12,12,3,6,4,3,4,6,3,3,4,6,4,12,9,12,6,4,12,4,12,6,8,18,16,4,6,9,3,4,4,6,9,3,3,3,3,3,3,3,3,21,9,3,9,16,3,15,4,3,4,3,3,4,4,4,4,18,16,15,12,4,4,12,4,6,4,8,4,3,12,4,12,15,12,12,3,4,9,4,12,6,6,3,3,3,4,3,3,4,3,6,3,15,18,16,4,9,4,12,4,6,3,12,9,12,4,12,12,12,4,12,6,9,12,6,6,15,6,4,4,6,3,4,4,3,16,18,4,12,3,12,15,8,4,3,3,3,4,4,4,4,15,16,18,12,4,4,12,4,12,3,12,4,12,4,12,4,9,12,16,15,12,52,4,9,9,3,3,6,3,4,16,6,4,4,12,4,4,3,12,9,12,3,3,3,12,15,6,6,12,4,4,12,9,12,6,6,4,6,6,4,12,4,12,4,12,6,8,3,8,4,4,12,8,12,6,12,8,12,4,12,9,12,6,6,3,6,9,4,4,12,3,3,12,16,16,6,4,12,4,4,12,9,12,8,9,9,9,9,12,12,6,12,3,4,12,6,6,3,9,15,12,15,6,4,12,6,4,8,15,16,9,12,4,6,6,3,9,18,12,4,12,6,20,15,6,4,9,4,9,12,9,12,15,6,4,12,9,12,3,4,4,3,12,4,6,3,3,4,12,4,12,4,12,16,9,12,4,4,12,4,12,6,8,15,15,12,4,6,4,3,4,6,4,4,6,4,9,4,12,4,4,12,4,12,4,8,15,12,4,6,3,4,4,4,4,15,20,6,12,3,3,3,3,3,3,3,3,3,3,3,3,3,4,4,3,12,12,4,4,12,15,6,6,12,4,6,4,12,12,12,9,12,9,12,12,4,12,4,3,12,4,6,6,9,4,6,12,4,12,4,12,4,12,4,9,3,12,3,8,9,12,3,3,12,4,3,3,12,15,6,6,12,4,4,12,9,12,4,12,9,12,12,4,12,4,4,12,6,6,6,9,4,15,15,9,12,6,3,6,12,6,6,15,15,4,6,12,4,4,6,4,9,12,3,9,12,3,12,9,12,4,9,12,9,12,12,6,4,12,9,12,4,4,4,12,4,12,6,6,4,12,4,4,12,9,8,12,6,12,12,4,3,12,6,15,4,12,12,9,6,6,4,4,3,6,4,3,6,3,4,6,6,12,4,4,12,6,12,6,6,12,12,3,6,4,3,6,9,8,4,6,9,12,12,9,4,3,3,3,3,3,3,3,3,4,3,3,12,21,4,9,20,3,3,9,3,4,3,6,3,3,3,4,3,3,4,9,12,9,3,3,6,4,12,3,6,6,9,4,4,12,6,12,12,6,6,12,4,4,12,6,12,6,6,3,3,4,3,3,3,4,3,3,4,18,18,16,16,12,4,3,4,12,4,6,4,4,9,3,12,3,12,3,3,6,4,12,4,12,4,12,4,3,3,3,4,3,3,3,4,4,3,20,18,12,3,4,12,3,12,12,9,3,3,3,3,3,3,3,4,3,18,27,12,9,12,12,9,12,6,9,12,12,3,4,12,4,12,12,8,42,42,8,6,6,6,6,6,6,3,42,42,6,6,6,9,18,12,6,3,44,6,42,6,8,6,3,6,4,3,6,6,3,6,42,4,40,6,6,3,3,6,4,4,3,42,21,4,3,8,9,6,9,8,12,15,44,3,6,16,3,4,6,3,6,44,6,6,6,6,9,6,3,4,6,8,42,42,12,8,3,3,4,6,6,3,44,4,40,6,6,6,3,3,6,6,6,3,42,6,6,3,6,6,3,};
uint16_t dontstopmenow_noteos[1087]={
0,96,96,96,102,108,114,120,126,132,138,144,144,144,144,150,156,162,168,168,174,180,180,186,192,192,192,198,204,210,216,222,228,228,234,240,240,246,252,258,264,270,276,282,282,288,294,300,306,312,318,324,333,336,336,336,336,336,342,348,354,360,364,372,378,381,384,384,390,396,402,402,408,414,420,426,432,432,438,444,450,456,462,468,468,474,480,480,486,492,498,504,510,516,516,528,528,528,528,534,540,546,546,552,558,564,576,594,606,618,618,618,630,636,640,648,654,660,672,688,702,720,720,726,732,732,738,744,750,756,762,768,774,780,784,798,798,816,816,828,828,834,840,840,846,852,858,864,870,876,880,888,894,900,906,906,912,916,924,924,928,936,942,948,954,960,960,966,972,978,984,990,996,1002,1008,1014,1020,1026,1032,1038,1044,1050,1056,1068,1068,1074,1080,1080,1086,1092,1098,1104,1104,1110,1116,1122,1128,1134,1140,1146,1152,1158,1164,1164,1170,1170,1176,1182,1188,1194,1200,1200,1200,1200,1206,1212,1218,1218,1224,1230,1236,1240,1242,1248,1254,1260,1266,1272,1272,1278,1284,1288,1296,1296,1302,1308,1314,1320,1326,1332,1338,1344,1344,1350,1350,1356,1362,1368,1374,1380,1384,1392,1392,1404,1404,1408,1416,1416,1420,1428,1432,1440,1440,1446,1452,1458,1464,1470,1476,1488,1488,1494,1500,1504,1512,1516,1524,1530,1530,1530,1536,1542,1542,1548,1548,1552,1554,1554,1560,1564,1566,1572,1572,1584,1584,1590,1596,1602,1608,1612,1620,1626,1626,1632,1636,1644,1644,1650,1656,1662,1668,1674,1680,1686,1692,1698,1704,1708,1716,1722,1722,1734,1740,1746,1752,1758,1764,1770,1776,1782,1794,1794,1800,1804,1806,1818,1818,1818,1836,1836,1842,1848,1854,1860,1866,1872,1872,1878,1884,1890,1896,1902,1908,1920,1920,1926,1932,1938,1944,1950,1956,1962,1968,1974,1974,1980,1986,1986,1992,1996,1996,2010,2010,2010,2028,2028,2034,2040,2046,2052,2058,2064,2064,2076,2082,2088,2094,2100,2112,2112,2118,2118,2124,2124,2130,2136,2142,2148,2154,2160,2172,2178,2190,2190,2202,2202,2220,2220,2226,2232,2238,2244,2256,2262,2268,2274,2274,2280,2286,2286,2298,2298,2298,2316,2316,2322,2328,2334,2340,2352,2352,2358,2364,2370,2376,2382,2388,2400,2400,2400,2400,2400,2412,2418,2418,2430,2436,2436,2442,2454,2454,2460,2466,2472,2472,2478,2484,2490,2496,2496,2508,2508,2514,2520,2520,2526,2532,2538,2544,2544,2550,2556,2562,2568,2574,2580,2586,2592,2592,2592,2592,2598,2604,2610,2616,2622,2628,2634,2640,2640,2646,2652,2658,2664,2670,2676,2682,2688,2694,2700,2706,2712,2718,2724,2730,2736,2736,2742,2748,2748,2754,2760,2760,2766,2766,2772,2778,2784,2784,2790,2796,2802,2808,2814,2814,2820,2826,2826,2826,2832,2838,2844,2844,2850,2856,2862,2868,2874,2880,2880,2892,2898,2904,2910,2916,2916,2922,2928,2934,2934,2940,2952,2952,2958,2964,2970,2976,2976,2988,2994,3000,3000,3000,3006,3012,3018,3024,3024,3030,3036,3042,3048,3054,3060,3066,3072,3072,3084,3084,3084,3090,3096,3096,3096,3102,3108,3114,3120,3120,3126,3132,3138,3144,3150,3156,3168,3168,3174,3180,3184,3192,3196,3204,3210,3210,3210,3216,3222,3222,3228,3228,3234,3234,3240,3246,3252,3252,3258,3264,3264,3270,3276,3282,3288,3294,3300,3304,3304,3312,3318,3324,3324,3330,3336,3340,3340,3340,3342,3348,3348,3352,3360,3360,3366,3366,3372,3372,3376,3384,3388,3390,3396,3396,3402,3402,3888,3900,3900,3906,3912,3918,3924,3930,3936,3936,3942,3942,3948,3954,3960,3966,3972,3978,3978,3984,3990,3996,3996,4002,4008,4014,4020,4026,4032,4032,4038,4044,4050,4056,4062,4068,4074,4080,4086,4092,4098,4104,4110,4116,4122,4128,4128,4134,4140,4140,4146,4152,4152,4158,4164,4170,4176,4176,4182,4188,4194,4200,4206,4212,4218,4218,4224,4230,4236,4236,4242,4248,4254,4260,4266,4272,4272,4272,4272,4278,4284,4290,4296,4302,4308,4308,4314,4320,4326,4332,4338,4344,4344,4350,4356,4362,4368,4380,4380,4386,4392,4398,4404,4404,4416,4416,4422,4428,4434,4440,4446,4452,4458,4464,4464,4476,4476,4476,4482,4488,4488,4488,4494,4500,4506,4512,4512,4518,4524,4530,4530,4536,4542,4548,4560,4560,4566,4572,4578,4584,4590,4596,4602,4602,4608,4614,4614,4620,4620,4624,4626,4632,4638,4638,4644,4644,4650,4656,4656,4662,4668,4674,4680,4686,4692,4698,4698,4704,4710,4716,4716,4722,4722,4722,4728,4734,4734,4734,4734,4740,4746,4752,4758,4758,4764,4770,4776,4776,4782,4782,4788,4788,4794,4794,4806,4812,4818,4824,4830,4836,4842,4848,4848,4854,4854,4860,4866,4866,4872,4878,4878,4890,4890,4902,4902,4908,4912,4914,4920,4924,4932,4938,4944,4944,4950,4956,4962,4968,4974,4980,4986,4992,4992,4998,5004,5010,5016,5022,5028,5034,5040,5046,5046,5052,5056,5056,5064,5068,5070,5082,5082,5082,5082,5100,5100,5106,5106,5112,5118,5124,5130,5136,5136,5142,5148,5154,5160,5166,5172,5178,5184,5184,5190,5196,5202,5208,5214,5220,5226,5232,5232,5238,5244,5250,5250,5262,5262,5274,5274,5274,5286,5292,5292,5298,5304,5310,5316,5328,5334,5340,5346,5352,5352,5358,5358,5364,5370,5370,5370,5382,5388,5394,5394,5400,5406,5412,5412,5424,5424,5430,5436,5442,5448,5454,5460,5472,5472,5472,5478,5484,5488,5496,5502,5508,5514,5520,5520,5520,5526,5532,5538,5544,5550,5556,5562,5565,5568,5568,5568,5574,5580,5586,5592,5592,5598,5604,5604,5610,5616,5616,5616,5616,5616,5622,5628,5634,5640,5646,5652,5658,5664,5664,5670,5676,5682,5688,5694,5700,5706,5706,5712,5712,5718,5724,5730,5736,5742,5748,5754,5760,5760,5766,5772,5778,5784,5790,5796,5802,5805,5808,5808,5808,5808,5814,5820,5826,5832,5832,5838,5844,5850,5856,5856,5856,5856,5856,5862,5868,5874,5880,5886,5892,5896,5904,5904,5910,5916,5922,5928,5934,};
uint16_t dontstopmenow_len=1087;
