uint16_t omr_note[1531][8]={
{NOTE_GS2,NOTE_GS1,},
{NOTE_DS4,NOTE_GS4,},
{NOTE_DS4,NOTE_GS4,},
{NOTE_CS4,NOTE_FS4,},
{NOTE_GS4,NOTE_DS4,},
{NOTE_GS4,NOTE_DS4,},
{NOTE_FS4,NOTE_CS4,},
{NOTE_FS4,NOTE_CS4,},
{NOTE_GS4,NOTE_DS4,},
{NOTE_GS4,NOTE_DS4,},
{NOTE_GS4,NOTE_DS4,},
{NOTE_CS4,NOTE_FS4,},
{NOTE_GS4,NOTE_DS4,},
{NOTE_GS4,NOTE_DS4,},
{NOTE_CS4,NOTE_FS4,},
{NOTE_FS4,NOTE_CS4,},
{NOTE_DS4,NOTE_GS4,},
{NOTE_GS2,NOTE_GS1,},
{NOTE_DS4,NOTE_GS4,},
{NOTE_GS4,NOTE_DS4,},
{NOTE_CS4,NOTE_FS4,},
{NOTE_GS4,NOTE_DS4,},
{NOTE_DS4,NOTE_GS4,},
{NOTE_CS4,NOTE_FS4,},
{NOTE_FS4,NOTE_CS4,},
{NOTE_DS4,NOTE_GS4,},
{NOTE_DS4,NOTE_GS4,},
{NOTE_GS4,NOTE_DS4,},
{NOTE_CS4,NOTE_FS4,},
{NOTE_GS4,NOTE_DS4,},
{NOTE_GS4,NOTE_DS4,},
{NOTE_FS4,NOTE_CS4,},
{NOTE_FS4,NOTE_CS4,},
{NOTE_GS4,NOTE_DS4,},
{NOTE_GS1,NOTE_GS1,},
{NOTE_GS4,NOTE_DS4,NOTE_GS2,},
{NOTE_GS4,NOTE_DS4,NOTE_GS1,},
{NOTE_FS4,NOTE_CS4,},
{NOTE_GS4,},
{NOTE_GS4,NOTE_DS4,},
{NOTE_GS4,},
{NOTE_GS4,NOTE_DS4,NOTE_GS2,},
{NOTE_FS4,NOTE_CS4,NOTE_GS1,},
{NOTE_FS4,NOTE_CS4,},
{NOTE_GS4,},
{NOTE_GS4,NOTE_DS4,},
{NOTE_GS4,},
{NOTE_DS4,NOTE_GS4,NOTE_GS2,},
{NOTE_DS4,NOTE_GS4,NOTE_GS1,},
{NOTE_CS4,NOTE_FS4,},
{NOTE_GS4,},
{NOTE_DS4,NOTE_GS4,},
{NOTE_GS4,},
{NOTE_DS4,NOTE_GS4,NOTE_GS2,},
{NOTE_FS4,NOTE_CS4,NOTE_GS1,},
{NOTE_FS4,NOTE_CS4,},
{NOTE_GS4,},
{NOTE_DS4,NOTE_GS4,},
{NOTE_GS4,},
{NOTE_GS4,NOTE_DS4,NOTE_GS2,},
{NOTE_DS4,NOTE_GS4,NOTE_GS1,},
{NOTE_CS4,NOTE_FS4,},
{NOTE_GS4,},
{NOTE_GS4,NOTE_DS4,},
{NOTE_GS4,},
{NOTE_GS4,NOTE_DS4,NOTE_GS2,},
{NOTE_CS4,NOTE_FS4,NOTE_GS1,},
{NOTE_CS4,NOTE_FS4,},
{NOTE_GS4,},
{NOTE_GS4,NOTE_DS4,},
{NOTE_GS2,NOTE_GS1,},
{NOTE_GS4,NOTE_DS4,},
{NOTE_GS2,NOTE_GS1,},
{NOTE_DS4,NOTE_GS4,},
{NOTE_CS4,NOTE_FS4,},
{NOTE_GS2,NOTE_GS1,},
{NOTE_DS4,NOTE_GS4,},
{NOTE_DS5,NOTE_B5,},
{NOTE_AS4,},
{NOTE_FS4,},
{NOTE_DS5,NOTE_FS5,NOTE_B4,NOTE_GS1,},
{NOTE_DS5,NOTE_B4,NOTE_GS5,},
{NOTE_B2,NOTE_GS2,},
{NOTE_GS5,NOTE_DS5,NOTE_B4,},
{NOTE_B2,NOTE_GS2,},
{NOTE_B4,NOTE_FS5,NOTE_DS5,},
{NOTE_GS4,},
{NOTE_B2,NOTE_GS2,},
{NOTE_DS5,NOTE_FS5,NOTE_B4,NOTE_GS1,},
{NOTE_DS5,NOTE_GS5,NOTE_B4,},
{NOTE_B2,NOTE_GS2,},
{NOTE_DS5,NOTE_GS5,NOTE_B4,},
{NOTE_GS4,},
{NOTE_FS5,NOTE_B4,NOTE_DS5,},
{NOTE_GS4,},
{NOTE_B2,NOTE_GS2,},
{NOTE_DS5,NOTE_B4,NOTE_FS5,NOTE_E1,},
{NOTE_B4,NOTE_DS5,NOTE_GS5,},
{NOTE_E4,},
{NOTE_GS5,NOTE_DS5,NOTE_B4,},
{NOTE_B3,NOTE_GS3,},
{NOTE_GS5,NOTE_GS4,},
{NOTE_E4,},
{NOTE_B3,NOTE_GS3,},
{NOTE_GS4,NOTE_GS5,NOTE_E2,},
{NOTE_AS5,NOTE_AS4,NOTE_B3,NOTE_GS3,},
{NOTE_B5,NOTE_B4,NOTE_E2,},
{NOTE_CS5,NOTE_CS6,},
{NOTE_E4,},
{NOTE_B3,NOTE_GS3,},
{NOTE_AS5,NOTE_CS5,},
{NOTE_FS4,},
{NOTE_AS2,NOTE_FS2,},
{NOTE_AS4,NOTE_FS5,NOTE_CS5,},
{NOTE_AS2,NOTE_FS2,},
{NOTE_FS4,},
{NOTE_FS4,},
{NOTE_AS2,NOTE_FS2,},
{NOTE_AS4,},
{NOTE_CS4,},
{NOTE_E4,},
{NOTE_FS4,},
{NOTE_AS2,NOTE_FS2,},
{NOTE_FS5,NOTE_CS6,NOTE_AS5,},
{NOTE_FS4,},
{NOTE_FS4,},
{NOTE_AS2,NOTE_FS2,},
{NOTE_FS5,NOTE_DS5,NOTE_CS6,},
{NOTE_B4,},
{NOTE_DS3,NOTE_B2,},
{NOTE_FS5,NOTE_DS5,NOTE_CS6,},
{NOTE_FS3,NOTE_DS3,NOTE_B2,},
{NOTE_DS6,NOTE_DS5,NOTE_FS5,},
{NOTE_B4,},
{NOTE_DS3,NOTE_B2,},
{NOTE_AS4,},
{NOTE_DS5,NOTE_B5,NOTE_FS5,NOTE_CS3,NOTE_AS2,},
{NOTE_AS5,NOTE_CS3,NOTE_AS2,},
{NOTE_FS4,},
{NOTE_AS4,},
{NOTE_AS4,},
{NOTE_B4,NOTE_FS5,NOTE_DS5,NOTE_GS1,},
{NOTE_B4,NOTE_GS5,NOTE_DS5,},
{NOTE_B2,NOTE_GS2,},
{NOTE_GS5,NOTE_B4,NOTE_DS5,},
{NOTE_B2,NOTE_GS2,},
{NOTE_DS5,NOTE_B4,NOTE_FS5,},
{NOTE_GS4,},
{NOTE_B2,NOTE_GS2,},
{NOTE_FS5,NOTE_B4,NOTE_DS5,NOTE_GS1,},
{NOTE_GS5,NOTE_DS5,NOTE_B4,},
{NOTE_B2,NOTE_GS2,},
{NOTE_DS5,NOTE_GS5,NOTE_B4,},
{NOTE_GS4,},
{NOTE_B4,NOTE_FS5,NOTE_DS5,},
{NOTE_GS4,},
{NOTE_B2,NOTE_GS2,},
{NOTE_FS5,NOTE_B4,NOTE_DS5,NOTE_E1,},
{NOTE_DS5,NOTE_B4,NOTE_GS5,},
{NOTE_E4,},
{NOTE_GS5,NOTE_DS5,NOTE_B4,},
{NOTE_B3,NOTE_GS3,},
{NOTE_GS4,NOTE_GS5,},
{NOTE_E4,},
{NOTE_B3,NOTE_GS3,},
{NOTE_GS5,NOTE_GS4,NOTE_E2,},
{NOTE_AS4,NOTE_AS5,NOTE_B3,NOTE_GS3,},
{NOTE_B4,NOTE_B5,NOTE_E2,},
{NOTE_CS5,NOTE_CS6,},
{NOTE_E4,},
{NOTE_B3,NOTE_GS3,},
{NOTE_E5,NOTE_GS5,NOTE_CS5,},
{NOTE_CS4,},
{NOTE_CS4,},
{NOTE_E3,NOTE_CS3,},
{NOTE_CS4,},
{NOTE_E3,NOTE_CS3,},
{NOTE_GS5,NOTE_GS4,NOTE_CS2,},
{NOTE_AS5,NOTE_AS4,NOTE_E3,NOTE_CS3,},
{NOTE_B5,NOTE_B4,NOTE_CS2,},
{NOTE_CS6,NOTE_CS5,},
{NOTE_CS4,},
{NOTE_E3,NOTE_CS3,},
{NOTE_AS5,NOTE_AS4,},
{NOTE_DS4,},
{NOTE_DS4,},
{NOTE_FS4,NOTE_FS5,},
{NOTE_FS3,NOTE_DS3,},
{NOTE_DS4,},
{NOTE_FS3,NOTE_DS3,},
{NOTE_DS4,NOTE_DS5,},
{NOTE_DS4,},
{NOTE_FS3,NOTE_DS3,},
{NOTE_FS4,NOTE_FS5,},
{NOTE_DS4,},
{NOTE_DS4,},
{NOTE_FS3,NOTE_DS3,},
{NOTE_B4,NOTE_E5,NOTE_FS5,},
{NOTE_E2,NOTE_E3,},
{NOTE_B4,NOTE_E5,NOTE_GS5,},
{NOTE_B4,NOTE_E5,NOTE_GS5,NOTE_B3,NOTE_GS3,NOTE_FS3,NOTE_E3,},
{NOTE_E5,NOTE_B5,NOTE_E2,NOTE_E3,},
{NOTE_CS5,NOTE_FS5,NOTE_AS5,NOTE_FS3,NOTE_FS2,},
{NOTE_FS4,},
{NOTE_CS4,},
{NOTE_AS4,NOTE_DS5,},
{NOTE_AS3,NOTE_FS3,},
{NOTE_CS5,NOTE_FS5,NOTE_CS3,},
{NOTE_FS5,NOTE_AS4,NOTE_GS2,},
{NOTE_B4,NOTE_GS5,},
{NOTE_GS4,},
{NOTE_B4,NOTE_GS5,},
{NOTE_GS4,},
{NOTE_GS4,},
{NOTE_GS4,},
{NOTE_GS4,},
{NOTE_GS4,},
{NOTE_GS4,},
{NOTE_GS4,},
{NOTE_GS4,},
{NOTE_B3,NOTE_GS4,NOTE_DS4,},
{NOTE_GS4,},
{NOTE_GS4,},
{NOTE_GS4,},
{NOTE_GS4,},
{NOTE_GS4,},
{NOTE_GS4,},
{NOTE_GS4,},
{NOTE_GS4,},
{NOTE_GS4,},
{NOTE_GS4,},
{NOTE_C5,NOTE_F5,},
{NOTE_GS4,},
{NOTE_F4,},
{NOTE_C4,},
{NOTE_F4,},
{NOTE_G4,},
{NOTE_GS4,},
{NOTE_GS4,},
{NOTE_G4,},
{NOTE_GS4,},
{NOTE_AS4,},
{NOTE_GS5,NOTE_DS5,NOTE_AS4,},
{NOTE_DS4,},
{NOTE_AS4,},
{NOTE_DS4,},
{NOTE_G4,},
{NOTE_GS4,},
{NOTE_AS4,},
{NOTE_G4,},
{NOTE_GS4,},
{NOTE_AS4,},
{NOTE_C6,NOTE_GS5,NOTE_F5,NOTE_C5,},
{NOTE_CS4,},
{NOTE_GS4,},
{NOTE_F4,},
{NOTE_G4,},
{NOTE_C4,},
{NOTE_GS4,},
{NOTE_CS4,},
{NOTE_C4,},
{NOTE_AS4,},
{NOTE_AS4,},
{NOTE_C4,},
{NOTE_DS4,NOTE_AS3,NOTE_G3,NOTE_DS3,},
{NOTE_AS4,},
{NOTE_GS4,},
{NOTE_DS4,},
{NOTE_C6,NOTE_DS5,NOTE_GS2,NOTE_GS1,},
{NOTE_AS4,NOTE_G4,NOTE_G2,NOTE_G1,},
{NOTE_GS5,NOTE_F5,NOTE_C5,},
{NOTE_F2,NOTE_F1,},
{NOTE_F4,},
{NOTE_C4,NOTE_DS4,},
{NOTE_GS4,},
{NOTE_DS4,NOTE_C4,},
{NOTE_DS4,},
{NOTE_GS5,NOTE_F5,NOTE_C5,NOTE_CS3,NOTE_CS2,},
{NOTE_G5,NOTE_GS2,},
{NOTE_GS5,NOTE_CS3,NOTE_F3,},
{NOTE_AS5,NOTE_GS2,},
{NOTE_GS5,NOTE_DS5,NOTE_AS4,},
{NOTE_DS3,NOTE_DS2,},
{NOTE_AS4,},
{NOTE_AS3,NOTE_DS4,},
{NOTE_DS3,NOTE_G3,},
{NOTE_DS4,NOTE_AS3,},
{NOTE_AS4,},
{NOTE_GS5,NOTE_C5,NOTE_C3,NOTE_C2,},
{NOTE_G5,NOTE_G2,},
{NOTE_GS5,NOTE_C3,NOTE_DS3,},
{NOTE_AS5,NOTE_G2,},
{NOTE_C5,NOTE_F5,NOTE_GS5,NOTE_C6,},
{NOTE_AS4,},
{NOTE_F4,},
{NOTE_F5,NOTE_C5,},
{NOTE_AS2,NOTE_CS3,},
{NOTE_F4,},
{NOTE_C5,NOTE_DS5,NOTE_G5,NOTE_AS5,NOTE_C2,},
{NOTE_GS5,NOTE_G2,},
{NOTE_G5,NOTE_C3,NOTE_DS3,},
{NOTE_GS5,NOTE_G2,},
{NOTE_G5,NOTE_AS4,},
{NOTE_F2,NOTE_C3,NOTE_F3,},
{NOTE_F5,NOTE_A4,},
{NOTE_F5,NOTE_A4,},
{NOTE_F4,},
{NOTE_F4,},
{NOTE_F5,NOTE_C5,NOTE_C6,NOTE_GS5,},
{NOTE_CS2,NOTE_CS3,},
{NOTE_C6,NOTE_F5,NOTE_C5,},
{NOTE_C6,NOTE_F5,NOTE_C5,},
{NOTE_CS4,},
{NOTE_C6,NOTE_F5,NOTE_C5,},
{NOTE_C6,NOTE_F5,NOTE_C5,},
{NOTE_CS3,NOTE_F3,},
{NOTE_CS4,},
{NOTE_C6,NOTE_C5,NOTE_CS3,NOTE_F3,},
{NOTE_AS5,NOTE_AS4,NOTE_CS2,},
{NOTE_GS5,NOTE_GS4,NOTE_CS3,NOTE_F3,},
{NOTE_G5,NOTE_DS5,NOTE_CS5,NOTE_G4,},
{NOTE_DS4,},
{NOTE_DS3,NOTE_G3,},
{NOTE_G5,NOTE_DS5,NOTE_CS5,NOTE_G4,NOTE_DS2,},
{NOTE_G5,NOTE_DS6,},
{NOTE_DS3,NOTE_G3,},
{NOTE_DS6,NOTE_G5,},
{NOTE_DS4,},
{NOTE_DS3,NOTE_G3,},
{NOTE_DS4,},
{NOTE_DS6,NOTE_DS5,},
{NOTE_DS3,NOTE_G3,},
{NOTE_DS6,NOTE_DS5,},
{NOTE_DS6,NOTE_DS5,NOTE_C2,},
{NOTE_CS6,NOTE_CS5,NOTE_DS3,},
{NOTE_C6,NOTE_C5,NOTE_C2,},
{NOTE_AS5,NOTE_AS4,NOTE_DS3,},
{NOTE_CS6,NOTE_CS5,},
{NOTE_E4,},
{NOTE_C6,NOTE_C5,},
{NOTE_E4,},
{NOTE_AS5,NOTE_AS4,},
{NOTE_E4,},
{NOTE_GS5,NOTE_GS4,NOTE_E3,},
{NOTE_G5,NOTE_AS4,},
{NOTE_F3,NOTE_F2,},
{NOTE_G5,NOTE_AS4,},
{NOTE_F4,},
{NOTE_F5,NOTE_GS4,NOTE_F3,},
{NOTE_GS4,NOTE_C5,NOTE_F5,NOTE_GS5,},
{NOTE_F4,},
{NOTE_GS4,},
{NOTE_F4,},
{NOTE_GS4,},
{NOTE_GS5,NOTE_E5,NOTE_B4,},
{NOTE_E3,NOTE_E2,},
{NOTE_GS5,NOTE_E5,NOTE_B4,},
{NOTE_GS5,NOTE_E5,NOTE_B4,},
{NOTE_E4,},
{NOTE_GS5,NOTE_B4,},
{NOTE_GS5,NOTE_B4,},
{NOTE_GS4,},
{NOTE_E4,},
{NOTE_GS5,NOTE_B4,NOTE_GS3,},
{NOTE_AS5,NOTE_E2,},
{NOTE_B5,NOTE_GS3,},
{NOTE_AS5,NOTE_FS5,NOTE_CS5,NOTE_FS3,NOTE_FS2,},
{NOTE_AS5,NOTE_FS5,NOTE_CS5,NOTE_FS2,},
{NOTE_FS5,NOTE_CS5,NOTE_AS4,},
{NOTE_FS4,},
{NOTE_FS5,NOTE_CS5,NOTE_AS4,},
{NOTE_FS4,},
{NOTE_FS3,NOTE_AS3,},
{NOTE_FS4,},
{NOTE_FS5,NOTE_CS5,NOTE_AS4,NOTE_AS3,NOTE_FS3,},
{NOTE_F5,NOTE_CS5,NOTE_GS4,NOTE_CS3,NOTE_CS2,},
{NOTE_F5,NOTE_CS5,NOTE_GS4,NOTE_CS2,},
{NOTE_DS5,NOTE_CS3,NOTE_F3,},
{NOTE_F5,NOTE_GS4,NOTE_CS2,},
{NOTE_G4,},
{NOTE_CS3,NOTE_F3,},
{NOTE_GS5,NOTE_GS4,},
{NOTE_CS4,},
{NOTE_GS5,NOTE_GS4,NOTE_CS3,NOTE_F3,},
{NOTE_GS5,NOTE_DS5,NOTE_AS4,},
{NOTE_DS4,},
{NOTE_DS4,},
{NOTE_DS4,},
{NOTE_DS4,},
{NOTE_DS4,},
{NOTE_DS4,},
{NOTE_G5,NOTE_DS2,},
{NOTE_F5,NOTE_DS3,},
{NOTE_G5,NOTE_DS5,NOTE_AS4,NOTE_G4,},
{NOTE_DS4,},
{NOTE_DS4,},
{NOTE_DS4,},
{NOTE_DS4,},
{NOTE_DS3,NOTE_DS2,},
{NOTE_DS5,NOTE_AS5,NOTE_DS6,NOTE_DS2,NOTE_DS3,},
{NOTE_E5,NOTE_B5,NOTE_E6,NOTE_E2,NOTE_E3,},
{NOTE_DS6,NOTE_AS5,NOTE_DS5,NOTE_DS2,NOTE_DS3,},
{NOTE_DS1,NOTE_DS2,},
{NOTE_B5,NOTE_DS5,NOTE_B4,},
{NOTE_AS4,},
{NOTE_FS5,NOTE_DS5,NOTE_B4,},
{NOTE_DS5,NOTE_FS5,NOTE_B4,NOTE_GS1,},
{NOTE_DS5,NOTE_B4,NOTE_GS5,},
{NOTE_GS2,NOTE_B2,},
{NOTE_GS5,NOTE_DS5,NOTE_B4,},
{NOTE_GS2,NOTE_B2,},
{NOTE_B4,NOTE_FS5,NOTE_DS5,},
{NOTE_GS4,},
{NOTE_B2,NOTE_GS2,},
{NOTE_DS5,NOTE_FS5,NOTE_B4,NOTE_GS1,},
{NOTE_DS5,NOTE_GS5,NOTE_B4,},
{NOTE_GS2,NOTE_B2,},
{NOTE_DS5,NOTE_GS5,NOTE_B4,},
{NOTE_GS4,},
{NOTE_FS5,NOTE_B4,NOTE_DS5,},
{NOTE_GS4,},
{NOTE_GS2,NOTE_B2,},
{NOTE_DS5,NOTE_B4,NOTE_FS5,NOTE_E1,},
{NOTE_B4,NOTE_DS5,NOTE_GS5,},
{NOTE_E4,},
{NOTE_GS5,NOTE_DS5,NOTE_B4,},
{NOTE_GS3,NOTE_B3,},
{NOTE_GS5,NOTE_GS4,},
{NOTE_E4,},
{NOTE_B3,NOTE_GS3,},
{NOTE_GS4,NOTE_GS5,NOTE_E2,},
{NOTE_AS5,NOTE_AS4,NOTE_GS3,NOTE_B3,},
{NOTE_B5,NOTE_B4,NOTE_E2,},
{NOTE_CS5,NOTE_CS6,},
{NOTE_E4,},
{NOTE_GS3,NOTE_B3,},
{NOTE_AS5,NOTE_CS5,},
{NOTE_FS4,},
{NOTE_AS2,NOTE_FS2,},
{NOTE_AS4,NOTE_FS5,NOTE_CS5,},
{NOTE_AS2,NOTE_FS2,},
{NOTE_FS4,},
{NOTE_FS4,},
{NOTE_FS2,NOTE_AS2,},
{NOTE_AS4,},
{NOTE_CS4,},
{NOTE_E4,},
{NOTE_FS4,},
{NOTE_AS2,NOTE_FS2,},
{NOTE_FS5,NOTE_CS6,NOTE_AS5,},
{NOTE_FS4,},
{NOTE_FS4,},
{NOTE_AS2,NOTE_FS2,},
{NOTE_FS5,NOTE_DS5,NOTE_CS6,},
{NOTE_B4,},
{NOTE_DS3,NOTE_B2,},
{NOTE_FS5,NOTE_DS5,NOTE_CS6,},
{NOTE_B2,NOTE_DS3,NOTE_FS3,},
{NOTE_DS6,NOTE_DS5,NOTE_FS5,},
{NOTE_B4,},
{NOTE_DS3,NOTE_B2,},
{NOTE_AS4,},
{NOTE_DS5,NOTE_B5,NOTE_FS5,NOTE_CS3,NOTE_AS2,},
{NOTE_AS5,NOTE_CS3,NOTE_AS2,},
{NOTE_FS4,},
{NOTE_AS4,},
{NOTE_AS4,},
{NOTE_B4,NOTE_FS5,NOTE_DS5,NOTE_GS1,},
{NOTE_B4,NOTE_GS5,NOTE_DS5,},
{NOTE_B2,NOTE_GS2,},
{NOTE_GS5,NOTE_B4,NOTE_DS5,},
{NOTE_B2,NOTE_GS2,},
{NOTE_DS5,NOTE_B4,NOTE_FS5,},
{NOTE_GS4,},
{NOTE_B2,NOTE_GS2,},
{NOTE_FS5,NOTE_B4,NOTE_DS5,NOTE_GS1,},
{NOTE_GS5,NOTE_DS5,NOTE_B4,},
{NOTE_B2,NOTE_GS2,},
{NOTE_DS5,NOTE_GS5,NOTE_B4,},
{NOTE_GS4,},
{NOTE_B4,NOTE_FS5,NOTE_DS5,},
{NOTE_GS4,},
{NOTE_B2,NOTE_GS2,},
{NOTE_FS5,NOTE_B4,NOTE_DS5,NOTE_E1,},
{NOTE_DS5,NOTE_B4,NOTE_GS5,},
{NOTE_E4,},
{NOTE_GS5,NOTE_DS5,NOTE_B4,},
{NOTE_B3,NOTE_GS3,},
{NOTE_GS4,NOTE_GS5,},
{NOTE_E4,},
{NOTE_GS3,NOTE_B3,},
{NOTE_GS5,NOTE_GS4,NOTE_E2,},
{NOTE_AS4,NOTE_AS5,NOTE_B3,NOTE_GS3,},
{NOTE_B4,NOTE_B5,NOTE_E2,},
{NOTE_CS5,NOTE_CS6,},
{NOTE_E4,},
{NOTE_B3,NOTE_GS3,},
{NOTE_E5,NOTE_GS5,NOTE_CS5,},
{NOTE_CS4,},
{NOTE_CS4,},
{NOTE_E3,NOTE_CS3,},
{NOTE_CS4,},
{NOTE_CS3,NOTE_E3,},
{NOTE_GS5,NOTE_GS4,NOTE_CS2,},
{NOTE_AS5,NOTE_AS4,NOTE_E3,NOTE_CS3,},
{NOTE_B5,NOTE_B4,NOTE_CS2,},
{NOTE_CS6,NOTE_CS5,},
{NOTE_CS4,},
{NOTE_E3,NOTE_CS3,},
{NOTE_AS4,NOTE_AS5,NOTE_DS3,NOTE_DS2,},
{NOTE_FS5,NOTE_FS4,NOTE_FS3,NOTE_FS2,},
{NOTE_DS4,NOTE_DS5,NOTE_DS3,NOTE_DS2,},
{NOTE_B4,NOTE_DS5,NOTE_B5,},
{NOTE_DS2,NOTE_DS1,},
{NOTE_AS4,},
{NOTE_DS2,NOTE_DS3,},
{NOTE_B4,NOTE_DS5,NOTE_FS5,},
{NOTE_DS5,NOTE_FS5,NOTE_B4,NOTE_GS1,},
{NOTE_DS5,NOTE_B4,NOTE_GS5,},
{NOTE_B2,NOTE_GS2,},
{NOTE_GS5,NOTE_DS5,NOTE_B4,},
{NOTE_B2,NOTE_GS2,},
{NOTE_B4,NOTE_FS5,NOTE_DS5,},
{NOTE_GS4,},
{NOTE_GS2,NOTE_B2,},
{NOTE_DS5,NOTE_FS5,NOTE_B4,NOTE_GS1,},
{NOTE_DS5,NOTE_GS5,NOTE_B4,},
{NOTE_B2,NOTE_GS2,},
{NOTE_DS5,NOTE_GS5,NOTE_B4,},
{NOTE_GS4,},
{NOTE_FS5,NOTE_B4,NOTE_DS5,},
{NOTE_GS4,},
{NOTE_B2,NOTE_GS2,},
{NOTE_DS5,NOTE_B4,NOTE_FS5,NOTE_E1,},
{NOTE_B4,NOTE_DS5,NOTE_GS5,},
{NOTE_E4,},
{NOTE_GS5,NOTE_DS5,NOTE_B4,},
{NOTE_B3,NOTE_GS3,},
{NOTE_GS5,NOTE_GS4,},
{NOTE_E4,},
{NOTE_GS3,NOTE_B3,},
{NOTE_GS4,NOTE_GS5,NOTE_E2,},
{NOTE_AS5,NOTE_AS4,NOTE_GS3,NOTE_B3,},
{NOTE_B5,NOTE_B4,NOTE_E2,},
{NOTE_CS5,NOTE_CS6,},
{NOTE_E4,},
{NOTE_B3,NOTE_GS3,},
{NOTE_AS5,NOTE_CS5,},
{NOTE_FS4,},
{NOTE_AS2,NOTE_FS2,},
{NOTE_AS4,NOTE_FS5,NOTE_CS5,},
{NOTE_FS2,NOTE_AS2,},
{NOTE_FS4,},
{NOTE_FS4,},
{NOTE_FS2,NOTE_AS2,},
{NOTE_AS4,},
{NOTE_CS4,},
{NOTE_E4,},
{NOTE_FS4,},
{NOTE_AS2,NOTE_FS2,},
{NOTE_FS5,NOTE_CS6,NOTE_AS5,},
{NOTE_FS4,},
{NOTE_FS4,},
{NOTE_AS2,NOTE_FS2,},
{NOTE_FS5,NOTE_DS5,NOTE_CS6,},
{NOTE_B4,},
{NOTE_DS3,NOTE_B2,},
{NOTE_FS5,NOTE_DS5,NOTE_CS6,},
{NOTE_B2,NOTE_DS3,NOTE_FS3,},
{NOTE_DS6,NOTE_DS5,NOTE_FS5,},
{NOTE_B4,},
{NOTE_B2,NOTE_DS3,},
{NOTE_AS4,},
{NOTE_DS5,NOTE_B5,NOTE_FS5,NOTE_CS3,NOTE_AS2,},
{NOTE_AS5,NOTE_AS2,NOTE_CS3,},
{NOTE_FS4,},
{NOTE_AS4,},
{NOTE_AS4,},
{NOTE_B4,NOTE_FS5,NOTE_DS5,NOTE_GS1,},
{NOTE_B4,NOTE_GS5,NOTE_DS5,},
{NOTE_B2,NOTE_GS2,},
{NOTE_GS5,NOTE_B4,NOTE_DS5,},
{NOTE_B2,NOTE_GS2,},
{NOTE_DS5,NOTE_B4,NOTE_FS5,},
{NOTE_GS4,},
{NOTE_B2,NOTE_GS2,},
{NOTE_FS5,NOTE_B4,NOTE_DS5,NOTE_GS1,},
{NOTE_GS5,NOTE_DS5,NOTE_B4,},
{NOTE_GS2,NOTE_B2,},
{NOTE_DS5,NOTE_GS5,NOTE_B4,},
{NOTE_GS4,},
{NOTE_B4,NOTE_FS5,NOTE_DS5,},
{NOTE_GS4,},
{NOTE_GS2,NOTE_B2,},
{NOTE_FS5,NOTE_B4,NOTE_DS5,NOTE_E1,},
{NOTE_DS5,NOTE_B4,NOTE_GS5,},
{NOTE_E4,},
{NOTE_GS5,NOTE_DS5,NOTE_B4,},
{NOTE_GS3,NOTE_B3,},
{NOTE_GS4,NOTE_GS5,},
{NOTE_E4,},
{NOTE_GS3,NOTE_B3,},
{NOTE_GS5,NOTE_GS4,NOTE_E2,},
{NOTE_AS4,NOTE_AS5,NOTE_B3,NOTE_GS3,},
{NOTE_B4,NOTE_B5,NOTE_E2,},
{NOTE_CS5,NOTE_CS6,},
{NOTE_E4,},
{NOTE_GS3,NOTE_B3,},
{NOTE_E5,NOTE_GS5,NOTE_CS5,},
{NOTE_CS4,},
{NOTE_CS4,},
{NOTE_E3,NOTE_CS3,},
{NOTE_CS4,},
{NOTE_E3,NOTE_CS3,},
{NOTE_GS5,NOTE_GS4,NOTE_CS2,},
{NOTE_AS5,NOTE_AS4,NOTE_E3,NOTE_CS3,},
{NOTE_B5,NOTE_B4,NOTE_CS2,},
{NOTE_CS6,NOTE_CS5,},
{NOTE_CS4,},
{NOTE_E3,NOTE_CS3,},
{NOTE_AS5,NOTE_AS4,},
{NOTE_DS4,},
{NOTE_DS4,},
{NOTE_FS4,NOTE_FS5,},
{NOTE_FS3,NOTE_DS3,},
{NOTE_DS4,},
{NOTE_FS3,NOTE_DS3,},
{NOTE_DS4,NOTE_DS5,},
{NOTE_DS4,},
{NOTE_FS3,NOTE_DS3,},
{NOTE_FS4,NOTE_FS5,},
{NOTE_DS4,},
{NOTE_DS4,},
{NOTE_FS3,NOTE_DS3,},
{NOTE_B4,NOTE_E5,NOTE_FS5,},
{NOTE_E2,NOTE_E3,},
{NOTE_B4,NOTE_E5,NOTE_GS5,},
{NOTE_B4,NOTE_E5,NOTE_GS5,NOTE_GS3,NOTE_FS3,NOTE_B3,NOTE_E3,},
{NOTE_E5,NOTE_B5,NOTE_E2,NOTE_E3,},
{NOTE_CS5,NOTE_FS5,NOTE_AS5,NOTE_FS2,NOTE_FS3,},
{NOTE_FS4,},
{NOTE_CS4,},
{NOTE_AS4,NOTE_DS5,},
{NOTE_FS3,NOTE_AS3,},
{NOTE_CS5,NOTE_FS5,NOTE_CS3,},
{NOTE_FS5,NOTE_AS4,NOTE_GS2,},
{NOTE_B4,NOTE_GS5,},
{NOTE_GS4,},
{NOTE_B4,NOTE_GS5,},
{NOTE_GS4,},
{NOTE_GS4,},
{NOTE_GS4,},
{NOTE_GS4,},
{NOTE_GS4,},
{NOTE_GS4,},
{NOTE_GS4,},
{NOTE_GS4,},
{NOTE_B3,NOTE_GS4,NOTE_DS4,},
{NOTE_GS4,},
{NOTE_GS4,},
{NOTE_GS4,},
{NOTE_GS4,},
{NOTE_GS4,},
{NOTE_GS4,},
{NOTE_GS4,},
{NOTE_GS4,},
{NOTE_GS4,},
{NOTE_GS4,},
{NOTE_C5,NOTE_F5,},
{NOTE_GS4,},
{NOTE_F4,},
{NOTE_C4,},
{NOTE_F4,},
{NOTE_G4,},
{NOTE_GS4,},
{NOTE_GS4,},
{NOTE_G4,},
{NOTE_GS4,},
{NOTE_AS4,},
{NOTE_AS4,NOTE_DS5,NOTE_GS5,},
{NOTE_DS4,},
{NOTE_AS4,},
{NOTE_DS4,},
{NOTE_G4,},
{NOTE_GS4,},
{NOTE_AS4,},
{NOTE_G4,},
{NOTE_GS4,},
{NOTE_AS4,},
{NOTE_C5,NOTE_F5,NOTE_GS5,NOTE_C6,},
{NOTE_CS4,},
{NOTE_GS4,},
{NOTE_F4,},
{NOTE_G4,},
{NOTE_C4,},
{NOTE_GS4,},
{NOTE_CS4,},
{NOTE_C4,},
{NOTE_AS4,},
{NOTE_AS4,},
{NOTE_C4,},
{NOTE_DS3,NOTE_G3,NOTE_AS3,NOTE_DS4,},
{NOTE_AS4,},
{NOTE_GS4,},
{NOTE_DS4,},
{NOTE_DS5,NOTE_C6,NOTE_GS1,NOTE_GS2,},
{NOTE_G4,NOTE_AS4,NOTE_G1,NOTE_G2,},
{NOTE_C5,NOTE_F5,NOTE_GS5,},
{NOTE_F1,NOTE_F2,},
{NOTE_DS4,NOTE_C4,NOTE_DS3,NOTE_C3,},
{NOTE_C4,NOTE_DS4,NOTE_C3,NOTE_DS3,},
{NOTE_C5,NOTE_F5,NOTE_GS5,NOTE_CS2,NOTE_CS3,},
{NOTE_G5,NOTE_GS2,},
{NOTE_GS5,NOTE_F3,NOTE_CS3,},
{NOTE_AS5,NOTE_GS2,},
{NOTE_AS4,NOTE_DS5,NOTE_GS5,},
{NOTE_DS3,NOTE_DS2,NOTE_AS2,},
{NOTE_DS4,},
{NOTE_DS4,NOTE_AS3,},
{NOTE_DS3,NOTE_AS2,},
{NOTE_DS4,},
{NOTE_AS3,NOTE_DS4,NOTE_AS2,NOTE_DS3,},
{NOTE_C5,NOTE_GS5,NOTE_C2,},
{NOTE_G5,NOTE_G2,},
{NOTE_GS5,NOTE_DS3,NOTE_C3,},
{NOTE_AS5,NOTE_G2,},
{NOTE_C5,NOTE_F5,},
{NOTE_GS5,NOTE_C6,},
{NOTE_AS4,},
{NOTE_F4,},
{NOTE_C5,NOTE_F5,},
{NOTE_CS3,NOTE_AS2,},
{NOTE_F4,},
{NOTE_C5,NOTE_DS5,NOTE_G5,},
{NOTE_AS5,NOTE_C2,},
{NOTE_GS5,NOTE_G2,},
{NOTE_G5,NOTE_DS3,NOTE_C3,},
{NOTE_GS5,NOTE_G2,},
{NOTE_G5,NOTE_AS4,},
{NOTE_F2,NOTE_C3,NOTE_F3,},
{NOTE_F5,NOTE_A4,},
{NOTE_F5,NOTE_A4,},
{NOTE_F4,},
{NOTE_F4,},
{NOTE_F5,NOTE_C5,NOTE_C6,NOTE_GS5,},
{NOTE_CS2,NOTE_CS3,},
{NOTE_C6,NOTE_F5,NOTE_C5,},
{NOTE_C6,NOTE_F5,NOTE_C5,},
{NOTE_CS4,},
{NOTE_C6,NOTE_F5,NOTE_C5,},
{NOTE_C6,NOTE_F5,NOTE_C5,},
{NOTE_CS3,NOTE_F3,},
{NOTE_CS4,},
{NOTE_C6,NOTE_C5,NOTE_CS3,NOTE_F3,},
{NOTE_AS5,NOTE_AS4,NOTE_CS2,},
{NOTE_GS5,NOTE_GS4,NOTE_CS3,NOTE_F3,},
{NOTE_G5,NOTE_DS5,NOTE_CS5,NOTE_G4,},
{NOTE_DS4,},
{NOTE_DS3,NOTE_G3,},
{NOTE_G5,NOTE_DS5,NOTE_CS5,NOTE_G4,NOTE_DS2,},
{NOTE_G5,NOTE_DS6,},
{NOTE_DS3,NOTE_G3,},
{NOTE_DS6,NOTE_G5,},
{NOTE_DS4,},
{NOTE_DS3,NOTE_G3,},
{NOTE_DS4,},
{NOTE_DS6,NOTE_DS5,},
{NOTE_DS3,NOTE_G3,},
{NOTE_DS6,NOTE_DS5,},
{NOTE_DS6,NOTE_DS5,NOTE_C2,},
{NOTE_CS6,NOTE_CS5,NOTE_DS3,},
{NOTE_C6,NOTE_C5,NOTE_C2,},
{NOTE_AS5,NOTE_AS4,NOTE_DS3,},
{NOTE_CS6,NOTE_CS5,},
{NOTE_E4,},
{NOTE_C6,NOTE_C5,},
{NOTE_E4,},
{NOTE_AS5,NOTE_AS4,},
{NOTE_E4,},
{NOTE_GS5,NOTE_GS4,NOTE_E3,},
{NOTE_G5,NOTE_AS4,},
{NOTE_F3,NOTE_F2,},
{NOTE_G5,NOTE_AS4,},
{NOTE_F4,},
{NOTE_F5,NOTE_GS4,NOTE_F3,},
{NOTE_GS4,NOTE_C5,NOTE_F5,NOTE_GS5,},
{NOTE_F4,},
{NOTE_GS4,},
{NOTE_F4,},
{NOTE_GS4,},
{NOTE_B4,NOTE_E5,NOTE_GS5,},
{NOTE_E4,},
{NOTE_B4,NOTE_E5,NOTE_GS5,},
{NOTE_B4,NOTE_E5,NOTE_GS5,},
{NOTE_E4,},
{NOTE_B4,NOTE_GS5,},
{NOTE_B4,NOTE_GS5,},
{NOTE_GS4,},
{NOTE_E4,},
{NOTE_B4,NOTE_GS5,NOTE_GS3,},
{NOTE_AS5,NOTE_E2,},
{NOTE_B5,NOTE_GS3,},
{NOTE_CS5,NOTE_FS5,NOTE_AS5,NOTE_FS2,NOTE_FS3,},
{NOTE_CS5,NOTE_FS5,NOTE_AS5,NOTE_FS2,},
{NOTE_AS4,NOTE_CS5,NOTE_FS5,},
{NOTE_FS4,},
{NOTE_AS4,NOTE_CS5,NOTE_FS5,},
{NOTE_FS4,},
{NOTE_AS3,NOTE_FS3,},
{NOTE_FS4,},
{NOTE_AS4,NOTE_CS5,NOTE_FS5,NOTE_FS3,NOTE_AS3,},
{NOTE_GS4,NOTE_CS5,NOTE_F5,NOTE_CS2,NOTE_CS3,},
{NOTE_GS4,NOTE_CS5,NOTE_F5,NOTE_CS2,},
{NOTE_DS5,NOTE_F3,NOTE_CS3,},
{NOTE_GS4,NOTE_F5,NOTE_CS2,},
{NOTE_G4,},
{NOTE_F3,NOTE_CS3,},
{NOTE_GS4,NOTE_GS5,},
{NOTE_CS4,},
{NOTE_GS4,NOTE_GS5,NOTE_F3,NOTE_CS3,},
{NOTE_AS4,NOTE_DS5,NOTE_GS5,NOTE_DS2,NOTE_DS3,},
{NOTE_AS4,NOTE_G5,},
{NOTE_DS4,},
{NOTE_F4,},
{NOTE_G4,},
{NOTE_G4,},
{NOTE_DS4,},
{NOTE_DS4,},
{NOTE_AS4,},
{NOTE_G4,},
{NOTE_G4,},
{NOTE_DS4,},
{NOTE_DS4,},
{NOTE_AS4,},
{NOTE_G4,},
{NOTE_DS4,},
{NOTE_DS4,NOTE_AS3,NOTE_DS2,},
{NOTE_G4,},
{NOTE_DS4,},
{NOTE_G3,NOTE_AS3,NOTE_E4,NOTE_DS2,},
{NOTE_DS4,},
{NOTE_G3,NOTE_AS3,NOTE_DS4,NOTE_DS2,},
{NOTE_B4,NOTE_DS5,NOTE_B5,},
{NOTE_DS1,NOTE_DS2,},
{NOTE_AS4,},
{NOTE_DS1,NOTE_DS2,},
{NOTE_B4,NOTE_DS5,NOTE_FS5,},
{NOTE_DS5,NOTE_FS5,NOTE_B4,},
{NOTE_GS1,NOTE_GS2,},
{NOTE_DS5,NOTE_B4,NOTE_GS5,},
{NOTE_GS4,},
{NOTE_GS5,NOTE_DS5,NOTE_B4,},
{NOTE_GS4,},
{NOTE_B4,NOTE_FS5,NOTE_DS5,NOTE_B2,NOTE_GS2,},
{NOTE_DS5,NOTE_FS5,NOTE_B4,NOTE_GS1,},
{NOTE_DS5,NOTE_GS5,NOTE_B4,},
{NOTE_B2,NOTE_GS2,},
{NOTE_DS5,NOTE_GS5,NOTE_B4,},
{NOTE_GS4,},
{NOTE_FS5,NOTE_B4,NOTE_DS5,NOTE_B2,NOTE_GS2,},
{NOTE_DS5,NOTE_B4,NOTE_FS5,},
{NOTE_E1,NOTE_E2,},
{NOTE_B4,NOTE_DS5,NOTE_GS5,},
{NOTE_E4,},
{NOTE_GS5,NOTE_DS5,NOTE_B4,},
{NOTE_E4,},
{NOTE_GS5,NOTE_GS4,NOTE_B3,NOTE_GS3,},
{NOTE_GS4,NOTE_GS5,NOTE_E2,},
{NOTE_AS5,NOTE_AS4,NOTE_B3,NOTE_GS3,},
{NOTE_B5,NOTE_B4,NOTE_E2,},
{NOTE_CS5,NOTE_CS6,NOTE_B3,NOTE_GS3,},
{NOTE_AS5,NOTE_CS5,NOTE_FS1,NOTE_FS2,},
{NOTE_FS4,},
{NOTE_AS4,NOTE_FS5,NOTE_CS5,},
{NOTE_FS4,},
{NOTE_AS2,NOTE_FS2,},
{NOTE_FS4,},
{NOTE_AS4,},
{NOTE_CS4,},
{NOTE_E4,},
{NOTE_FS4,},
{NOTE_FS2,NOTE_AS2,},
{NOTE_FS5,NOTE_CS6,NOTE_AS5,},
{NOTE_FS4,},
{NOTE_FS2,NOTE_AS2,},
{NOTE_FS5,NOTE_DS5,NOTE_CS6,},
{NOTE_B1,NOTE_B2,},
{NOTE_B4,},
{NOTE_FS5,NOTE_DS5,NOTE_CS6,},
{NOTE_B4,},
{NOTE_DS6,NOTE_DS5,NOTE_FS5,},
{NOTE_DS4,},
{NOTE_AS4,},
{NOTE_DS5,NOTE_B5,NOTE_FS5,NOTE_AS2,NOTE_CS3,},
{NOTE_AS5,NOTE_AS1,},
{NOTE_FS5,NOTE_AS2,NOTE_CS3,},
{NOTE_B4,NOTE_FS5,NOTE_DS5,},
{NOTE_GS1,NOTE_GS2,},
{NOTE_B4,NOTE_GS5,NOTE_DS5,},
{NOTE_GS4,},
{NOTE_GS5,NOTE_B4,NOTE_DS5,},
{NOTE_GS4,},
{NOTE_DS5,NOTE_B4,NOTE_FS5,NOTE_B2,NOTE_GS2,},
{NOTE_FS5,NOTE_B4,NOTE_DS5,NOTE_GS1,},
{NOTE_GS5,NOTE_DS5,NOTE_B4,},
{NOTE_B2,NOTE_GS2,},
{NOTE_DS5,NOTE_GS5,NOTE_B4,},
{NOTE_GS4,},
{NOTE_B4,NOTE_FS5,NOTE_DS5,NOTE_B2,NOTE_GS2,},
{NOTE_FS5,NOTE_B4,NOTE_DS5,},
{NOTE_E1,NOTE_E2,},
{NOTE_DS5,NOTE_B4,NOTE_GS5,},
{NOTE_E4,},
{NOTE_GS5,NOTE_DS5,NOTE_B4,},
{NOTE_E4,},
{NOTE_GS4,NOTE_GS5,NOTE_B3,NOTE_GS3,},
{NOTE_GS5,NOTE_GS4,NOTE_E2,},
{NOTE_AS4,NOTE_AS5,NOTE_B3,NOTE_GS3,},
{NOTE_B4,NOTE_B5,NOTE_E2,},
{NOTE_CS5,NOTE_CS6,NOTE_B3,NOTE_GS3,},
{NOTE_E5,NOTE_GS5,NOTE_CS5,},
{NOTE_CS2,NOTE_CS3,},
{NOTE_CS4,},
{NOTE_CS4,},
{NOTE_E3,NOTE_CS3,},
{NOTE_GS5,NOTE_GS4,NOTE_CS2,},
{NOTE_AS5,NOTE_AS4,NOTE_E3,NOTE_CS3,},
{NOTE_B5,NOTE_B4,NOTE_CS2,},
{NOTE_CS6,NOTE_CS5,NOTE_E3,NOTE_CS3,},
{NOTE_AS4,},
{NOTE_DS3,NOTE_DS2,},
{NOTE_FS4,},
{NOTE_AS4,},
{NOTE_FS4,},
{NOTE_DS4,},
{NOTE_AS4,},
{NOTE_DS4,NOTE_DS5,NOTE_DS2,NOTE_DS3,},
{NOTE_B4,NOTE_DS5,NOTE_B5,},
{NOTE_DS1,NOTE_DS2,},
{NOTE_AS4,},
{NOTE_DS3,NOTE_DS2,},
{NOTE_B4,NOTE_DS5,NOTE_FS5,},
{NOTE_DS5,NOTE_FS5,NOTE_B4,},
{NOTE_GS1,NOTE_GS2,},
{NOTE_DS5,NOTE_B4,NOTE_GS5,},
{NOTE_GS4,},
{NOTE_GS5,NOTE_DS5,NOTE_B4,},
{NOTE_GS4,},
{NOTE_B4,NOTE_FS5,NOTE_DS5,NOTE_B2,NOTE_GS2,},
{NOTE_DS5,NOTE_FS5,NOTE_B4,NOTE_GS1,},
{NOTE_DS5,NOTE_GS5,NOTE_B4,},
{NOTE_B2,NOTE_GS2,},
{NOTE_DS5,NOTE_GS5,NOTE_B4,},
{NOTE_GS4,},
{NOTE_FS5,NOTE_B4,NOTE_DS5,NOTE_B2,NOTE_GS2,},
{NOTE_DS5,NOTE_B4,NOTE_FS5,},
{NOTE_E1,NOTE_E2,},
{NOTE_B4,NOTE_DS5,NOTE_GS5,},
{NOTE_E4,},
{NOTE_GS5,NOTE_DS5,NOTE_B4,},
{NOTE_E4,},
{NOTE_GS5,NOTE_GS4,NOTE_B3,NOTE_GS3,},
{NOTE_GS4,NOTE_GS5,NOTE_E2,},
{NOTE_AS5,NOTE_AS4,NOTE_B3,NOTE_GS3,},
{NOTE_B5,NOTE_B4,NOTE_E2,},
{NOTE_CS5,NOTE_CS6,NOTE_B3,NOTE_GS3,},
{NOTE_AS5,NOTE_CS5,NOTE_FS1,NOTE_FS2,},
{NOTE_FS4,},
{NOTE_AS4,NOTE_FS5,NOTE_CS5,},
{NOTE_FS4,},
{NOTE_AS2,NOTE_FS2,},
{NOTE_FS4,},
{NOTE_AS4,},
{NOTE_CS4,},
{NOTE_E4,},
{NOTE_FS4,},
{NOTE_FS2,NOTE_AS2,},
{NOTE_FS5,NOTE_CS6,NOTE_AS5,},
{NOTE_FS4,},
{NOTE_FS2,NOTE_AS2,},
{NOTE_FS5,NOTE_DS5,NOTE_CS6,},
{NOTE_B1,NOTE_B2,},
{NOTE_B4,},
{NOTE_FS5,NOTE_DS5,NOTE_CS6,},
{NOTE_B4,},
{NOTE_DS6,NOTE_DS5,NOTE_FS5,},
{NOTE_DS4,},
{NOTE_AS4,},
{NOTE_DS5,NOTE_B5,NOTE_FS5,NOTE_AS2,NOTE_CS3,},
{NOTE_AS5,NOTE_AS1,},
{NOTE_FS5,NOTE_AS2,NOTE_CS3,},
{NOTE_B4,NOTE_FS5,NOTE_DS5,},
{NOTE_GS1,NOTE_GS2,},
{NOTE_B4,NOTE_GS5,NOTE_DS5,},
{NOTE_GS4,},
{NOTE_GS5,NOTE_B4,NOTE_DS5,},
{NOTE_GS4,},
{NOTE_DS5,NOTE_B4,NOTE_FS5,NOTE_B2,NOTE_GS2,},
{NOTE_FS5,NOTE_B4,NOTE_DS5,NOTE_GS1,},
{NOTE_GS5,NOTE_DS5,NOTE_B4,},
{NOTE_B2,NOTE_GS2,},
{NOTE_DS5,NOTE_GS5,NOTE_B4,},
{NOTE_GS4,},
{NOTE_B4,NOTE_FS5,NOTE_DS5,NOTE_B2,NOTE_GS2,},
{NOTE_FS5,NOTE_B4,NOTE_DS5,},
{NOTE_E1,NOTE_E2,},
{NOTE_DS5,NOTE_B4,NOTE_GS5,},
{NOTE_E4,},
{NOTE_GS5,NOTE_DS5,NOTE_B4,},
{NOTE_E4,},
{NOTE_GS4,NOTE_GS5,NOTE_B3,NOTE_GS3,},
{NOTE_GS5,NOTE_GS4,NOTE_E2,},
{NOTE_AS4,NOTE_AS5,NOTE_B3,NOTE_GS3,},
{NOTE_B4,NOTE_B5,NOTE_E2,},
{NOTE_CS5,NOTE_CS6,NOTE_B3,NOTE_GS3,},
{NOTE_E5,NOTE_GS5,NOTE_CS5,},
{NOTE_CS2,NOTE_CS3,},
{NOTE_CS4,},
{NOTE_CS4,},
{NOTE_E3,NOTE_CS3,},
{NOTE_GS5,NOTE_GS4,NOTE_CS2,},
{NOTE_AS5,NOTE_AS4,NOTE_E3,NOTE_CS3,},
{NOTE_B5,NOTE_B4,NOTE_CS2,},
{NOTE_CS6,NOTE_CS5,NOTE_E3,NOTE_CS3,},
{NOTE_AS4,NOTE_AS5,NOTE_DS2,},
{NOTE_DS4,},
{NOTE_DS4,},
{NOTE_FS5,NOTE_FS4,},
{NOTE_DS4,},
{NOTE_DS4,},
{NOTE_DS5,NOTE_DS4,},
{NOTE_DS4,},
{NOTE_FS3,NOTE_DS3,},
{NOTE_FS5,NOTE_FS4,},
{NOTE_DS4,},
{NOTE_FS3,NOTE_DS3,},
{NOTE_B4,NOTE_FS5,NOTE_E5,},
{NOTE_E2,NOTE_E3,},
{NOTE_GS4,},
{NOTE_GS5,NOTE_B3,NOTE_GS3,NOTE_FS3,NOTE_E3,},
{NOTE_AS4,},
{NOTE_B5,NOTE_E2,NOTE_E3,},
{NOTE_AS5,NOTE_FS3,NOTE_FS2,},
{NOTE_FS4,},
{NOTE_CS4,},
{NOTE_DS4,},
{NOTE_AS3,NOTE_FS3,},
{NOTE_FS5,NOTE_CS3,},
{NOTE_CS5,NOTE_FS5,},
{NOTE_GS1,NOTE_GS2,},
{NOTE_GS4,},
{NOTE_GS4,},
{NOTE_GS4,},
{NOTE_DS4,},
{NOTE_GS4,},
{NOTE_CS4,},
{NOTE_DS4,},
{NOTE_CS4,},
{NOTE_DS4,NOTE_C5,NOTE_GS1,},
{NOTE_GS4,NOTE_B3,NOTE_DS4,},
{NOTE_B4,NOTE_DS4,NOTE_GS4,},
{NOTE_GS1,NOTE_GS2,},
{NOTE_DS5,NOTE_GS4,NOTE_B4,},
{NOTE_E5,NOTE_GS5,NOTE_B4,},
{NOTE_E4,},
{NOTE_E4,},
{NOTE_E4,},
{NOTE_E4,},
{NOTE_B4,NOTE_E5,},
{NOTE_GS4,},
{NOTE_E4,},
{NOTE_GS4,},
{NOTE_AS4,},
{NOTE_E4,},
{NOTE_B5,NOTE_GS3,},
{NOTE_FS5,NOTE_AS5,NOTE_AS4,NOTE_DS5,},
{NOTE_FS1,NOTE_FS2,},
{NOTE_AS4,NOTE_DS5,NOTE_FS5,},
{NOTE_FS4,},
{NOTE_AS4,NOTE_DS5,},
{NOTE_FS4,},
{NOTE_FS4,},
{NOTE_FS5,NOTE_AS3,NOTE_FS3,},
{NOTE_AS5,NOTE_FS2,},
{NOTE_B5,NOTE_FS3,NOTE_AS3,},
{NOTE_CS4,},
{NOTE_G5,NOTE_DS5,},
{NOTE_DS1,NOTE_DS2,},
{NOTE_CS4,},
{NOTE_CS6,NOTE_DS2,},
{NOTE_CS6,NOTE_G3,NOTE_DS3,},
{NOTE_CS6,NOTE_G5,},
{NOTE_DS4,},
{NOTE_G3,NOTE_DS3,},
{NOTE_DS4,},
{NOTE_DS4,},
{NOTE_E6,NOTE_DS3,NOTE_G3,},
{NOTE_DS6,NOTE_GS5,NOTE_B5,},
{NOTE_GS1,NOTE_GS2,},
{NOTE_GS4,},
{NOTE_GS4,},
{NOTE_B5,NOTE_GS2,},
{NOTE_FS5,NOTE_AS5,NOTE_DS6,},
{NOTE_GS4,},
{NOTE_GS4,},
{NOTE_CS4,},
{NOTE_GS4,},
{NOTE_B4,},
{NOTE_B4,NOTE_E5,NOTE_GS5,},
{NOTE_E1,NOTE_E2,},
{NOTE_E4,},
{NOTE_E6,NOTE_GS6,NOTE_B5,},
{NOTE_E4,},
{NOTE_E4,},
{NOTE_B6,NOTE_GS3,},
{NOTE_AS6,NOTE_E2,},
{NOTE_FS6,NOTE_B3,},
{NOTE_CS6,NOTE_AS5,NOTE_FS3,},
{NOTE_B4,},
{NOTE_CS4,},
{NOTE_AS4,},
{NOTE_FS4,NOTE_AS4,},
{NOTE_FS4,},
{NOTE_CS4,},
{NOTE_CS5,NOTE_AS4,},
{NOTE_B4,NOTE_GS4,},
{NOTE_AS4,NOTE_CS4,},
{NOTE_FS4,NOTE_CS5,NOTE_AS4,},
{NOTE_CS4,NOTE_CS4,},
{NOTE_AS3,NOTE_G3,NOTE_DS4,},
{NOTE_AS3,NOTE_G4,NOTE_DS4,},
{NOTE_AS4,},
{NOTE_G4,NOTE_DS4,NOTE_AS4,},
{NOTE_G4,NOTE_DS5,NOTE_AS4,},
{NOTE_DS4,NOTE_DS3,},
{NOTE_AS4,},
{NOTE_A4,},
{NOTE_F4,},
{NOTE_F4,},
{NOTE_G4,NOTE_AS4,NOTE_D4,},
{NOTE_G4,},
{NOTE_G4,},
{NOTE_F4,},
{NOTE_F4,},
{NOTE_G4,},
{NOTE_G4,},
{NOTE_D4,},
{NOTE_F4,},
{NOTE_F4,},
{NOTE_AS4,NOTE_G4,NOTE_DS4,},
{NOTE_G4,},
{NOTE_G4,},
{NOTE_G4,},
{NOTE_G4,},
{NOTE_A4,},
{NOTE_AS4,},
{NOTE_C4,},
{NOTE_A4,},
{NOTE_F4,NOTE_A4,NOTE_C4,},
{NOTE_F4,},
{NOTE_C5,NOTE_DS6,},
{NOTE_DS5,NOTE_C6,},
{NOTE_C4,},
{NOTE_F4,NOTE_D5,NOTE_AS4,},
{NOTE_C4,},
{NOTE_D4,},
{NOTE_F4,NOTE_A4,NOTE_C5,},
{NOTE_AS4,},
{NOTE_A4,},
{NOTE_F4,},
{NOTE_F4,},
{NOTE_D4,NOTE_G4,NOTE_AS4,},
{NOTE_G4,},
{NOTE_G4,},
{NOTE_F4,},
{NOTE_F4,},
{NOTE_G4,},
{NOTE_G4,},
{NOTE_F4,},
{NOTE_F4,},
{NOTE_AS4,NOTE_DS4,NOTE_G4,},
{NOTE_G4,},
{NOTE_G4,},
{NOTE_G4,},
{NOTE_G4,},
{NOTE_A4,},
{NOTE_AS4,},
{NOTE_C4,},
{NOTE_G4,},
{NOTE_C4,NOTE_G4,NOTE_DS4,},
{NOTE_G4,},
{NOTE_A4,},
{NOTE_AS4,},
{NOTE_C4,},
{NOTE_A4,},
{NOTE_D4,NOTE_F4,NOTE_A3,},
{NOTE_F4,},
{NOTE_D4,},
{NOTE_AS4,},
{NOTE_A4,},
{NOTE_D4,},
{NOTE_F4,},
{NOTE_F5,NOTE_C5,},
{NOTE_G4,},
{NOTE_G4,},
{NOTE_G4,},
{NOTE_F4,},
{NOTE_F4,},
{NOTE_F4,},
{NOTE_D4,NOTE_AS3,},
{NOTE_G4,},
{NOTE_G4,},
{NOTE_F4,},
{NOTE_DS4,},
{NOTE_C5,NOTE_F5,},
{NOTE_DS4,},
{NOTE_G4,},
{NOTE_G4,},
{NOTE_G4,},
{NOTE_DS4,},
{NOTE_G4,},
{NOTE_DS4,NOTE_AS3,NOTE_G3,},
{NOTE_A4,},
{NOTE_AS4,},
{NOTE_C4,},
{NOTE_F4,},
{NOTE_A5,NOTE_C5,},
{NOTE_F4,},
{NOTE_F4,},
{NOTE_F4,},
{NOTE_F4,},
{NOTE_A5,NOTE_C6,},
{NOTE_DS4,},
{NOTE_F4,NOTE_C4,NOTE_A3,},
{NOTE_C4,},
{NOTE_AS4,},
{NOTE_A5,NOTE_C6,NOTE_F5,NOTE_AS2,},
{NOTE_C6,NOTE_AS2,},
{NOTE_D4,},
{NOTE_AS3,NOTE_F3,NOTE_D3,},
{NOTE_A4,},
{NOTE_AS4,},
{NOTE_A5,NOTE_A1,},
{NOTE_F4,},
{NOTE_G4,},
{NOTE_F5,NOTE_C5,},
{NOTE_G4,},
{NOTE_G4,},
{NOTE_G4,},
{NOTE_F4,},
{NOTE_D4,},
{NOTE_F4,},
{NOTE_D4,NOTE_AS3,NOTE_F3,},
{NOTE_G4,},
{NOTE_G4,},
{NOTE_F4,},
{NOTE_DS4,},
{NOTE_F5,NOTE_C5,},
{NOTE_DS4,},
{NOTE_G4,},
{NOTE_G4,},
{NOTE_G4,},
{NOTE_DS4,},
{NOTE_G4,},
{NOTE_DS4,NOTE_AS3,NOTE_G3,},
{NOTE_A4,},
{NOTE_AS4,},
{NOTE_C4,},
{NOTE_C4,},
{NOTE_G4,},
{NOTE_C3,NOTE_C2,},
{NOTE_G4,},
{NOTE_A4,},
{NOTE_AS4,},
{NOTE_C4,},
{NOTE_D5,NOTE_A5,NOTE_D6,NOTE_D2,NOTE_D3,},
{NOTE_DS5,NOTE_DS6,NOTE_AS5,NOTE_DS3,NOTE_DS2,},
{NOTE_F5,NOTE_C6,NOTE_F6,NOTE_F2,NOTE_F3,},
{NOTE_FS6,NOTE_FS5,NOTE_CS6,},
{NOTE_FS3,NOTE_FS2,},
{NOTE_B4,},
{NOTE_AS4,},
{NOTE_FS4,},
{NOTE_DS5,NOTE_FS5,NOTE_B4,NOTE_GS1,},
{NOTE_DS5,NOTE_B4,NOTE_GS5,},
{NOTE_GS2,NOTE_B2,},
{NOTE_GS5,NOTE_DS5,NOTE_B4,},
{NOTE_GS2,NOTE_B2,},
{NOTE_B4,NOTE_FS5,NOTE_DS5,},
{NOTE_GS4,},
{NOTE_B2,NOTE_GS2,},
{NOTE_DS5,NOTE_FS5,NOTE_B4,NOTE_GS1,},
{NOTE_DS5,NOTE_GS5,NOTE_B4,},
{NOTE_GS2,NOTE_B2,},
{NOTE_DS5,NOTE_GS5,NOTE_B4,},
{NOTE_GS4,},
{NOTE_FS5,NOTE_B4,NOTE_DS5,},
{NOTE_GS4,},
{NOTE_GS2,NOTE_B2,},
{NOTE_DS5,NOTE_B4,NOTE_FS5,NOTE_E1,},
{NOTE_B4,NOTE_DS5,NOTE_GS5,},
{NOTE_E4,},
{NOTE_GS5,NOTE_DS5,NOTE_B4,},
{NOTE_GS3,NOTE_B3,},
{NOTE_GS5,NOTE_GS4,},
{NOTE_E4,},
{NOTE_B3,NOTE_GS3,},
{NOTE_GS4,NOTE_GS5,NOTE_E2,},
{NOTE_AS5,NOTE_AS4,NOTE_GS3,NOTE_B3,},
{NOTE_B5,NOTE_B4,NOTE_E2,},
{NOTE_CS5,NOTE_CS6,},
{NOTE_E4,},
{NOTE_GS3,NOTE_B3,},
{NOTE_AS5,NOTE_CS5,},
{NOTE_FS4,},
{NOTE_AS2,NOTE_FS2,},
{NOTE_AS4,NOTE_FS5,NOTE_CS5,},
{NOTE_AS2,NOTE_FS2,},
{NOTE_FS4,},
{NOTE_FS4,},
{NOTE_FS2,NOTE_AS2,},
{NOTE_AS4,},
{NOTE_CS4,},
{NOTE_E4,},
{NOTE_FS4,},
{NOTE_AS2,NOTE_FS2,},
{NOTE_FS5,NOTE_CS6,NOTE_AS5,},
{NOTE_FS4,},
{NOTE_FS4,},
{NOTE_AS2,NOTE_FS2,},
{NOTE_FS5,NOTE_DS5,NOTE_CS6,},
{NOTE_B4,},
{NOTE_DS3,NOTE_B2,},
{NOTE_FS5,NOTE_DS5,NOTE_CS6,},
{NOTE_B2,NOTE_DS3,NOTE_FS3,},
{NOTE_DS6,NOTE_DS5,NOTE_FS5,},
{NOTE_B4,},
{NOTE_DS3,NOTE_B2,},
{NOTE_AS4,},
{NOTE_DS5,NOTE_B5,NOTE_FS5,NOTE_CS3,NOTE_AS2,},
{NOTE_AS5,NOTE_CS3,NOTE_AS2,},
{NOTE_FS4,},
{NOTE_AS4,},
{NOTE_AS4,},
{NOTE_B4,NOTE_FS5,NOTE_DS5,NOTE_GS1,},
{NOTE_B4,NOTE_GS5,NOTE_DS5,},
{NOTE_B2,NOTE_GS2,},
{NOTE_GS5,NOTE_B4,NOTE_DS5,},
{NOTE_B2,NOTE_GS2,},
{NOTE_DS5,NOTE_B4,NOTE_FS5,},
{NOTE_GS4,},
{NOTE_B2,NOTE_GS2,},
{NOTE_FS5,NOTE_B4,NOTE_DS5,NOTE_GS1,},
{NOTE_GS5,NOTE_DS5,NOTE_B4,},
{NOTE_B2,NOTE_GS2,},
{NOTE_DS5,NOTE_GS5,NOTE_B4,},
{NOTE_GS4,},
{NOTE_B4,NOTE_FS5,NOTE_DS5,},
{NOTE_GS4,},
{NOTE_B2,NOTE_GS2,},
{NOTE_FS5,NOTE_B4,NOTE_DS5,NOTE_E1,},
{NOTE_DS5,NOTE_B4,NOTE_GS5,},
{NOTE_E4,},
{NOTE_GS5,NOTE_DS5,NOTE_B4,},
{NOTE_B3,NOTE_GS3,},
{NOTE_GS4,NOTE_GS5,},
{NOTE_E4,},
{NOTE_GS3,NOTE_B3,},
{NOTE_GS5,NOTE_GS4,NOTE_E2,},
{NOTE_AS4,NOTE_AS5,NOTE_B3,NOTE_GS3,},
{NOTE_B4,NOTE_B5,NOTE_E2,},
{NOTE_CS5,NOTE_CS6,},
{NOTE_E4,},
{NOTE_B3,NOTE_GS3,},
{NOTE_E5,NOTE_GS5,NOTE_CS5,},
{NOTE_CS4,},
{NOTE_CS4,},
{NOTE_E3,NOTE_CS3,},
{NOTE_CS4,},
{NOTE_CS3,NOTE_E3,},
{NOTE_GS5,NOTE_GS4,NOTE_CS2,},
{NOTE_AS5,NOTE_AS4,NOTE_E3,NOTE_CS3,},
{NOTE_B5,NOTE_B4,NOTE_CS2,},
{NOTE_CS6,NOTE_CS5,},
{NOTE_CS4,},
{NOTE_E3,NOTE_CS3,},
{NOTE_AS4,NOTE_AS5,NOTE_DS3,NOTE_DS2,},
{NOTE_FS5,NOTE_FS4,NOTE_FS3,NOTE_FS2,},
{NOTE_DS4,NOTE_DS5,NOTE_DS3,NOTE_DS2,},
{NOTE_B4,NOTE_DS5,NOTE_B5,},
{NOTE_DS2,NOTE_DS1,},
{NOTE_AS4,},
{NOTE_DS2,NOTE_DS3,},
{NOTE_B4,NOTE_DS5,NOTE_FS5,},
{NOTE_DS5,NOTE_FS5,NOTE_B4,},
{NOTE_DS5,NOTE_B4,NOTE_GS5,},
{NOTE_GS5,NOTE_DS5,NOTE_B4,},
{NOTE_GS1,NOTE_GS2,},
{NOTE_B4,NOTE_FS5,NOTE_DS5,},
{NOTE_GS4,},
{NOTE_GS2,NOTE_B2,},
{NOTE_DS5,NOTE_FS5,NOTE_B4,NOTE_GS1,},
{NOTE_DS5,NOTE_GS5,NOTE_B4,},
{NOTE_B2,NOTE_GS2,},
{NOTE_DS5,NOTE_GS5,NOTE_B4,},
{NOTE_GS4,},
{NOTE_FS5,NOTE_B4,NOTE_DS5,},
{NOTE_GS4,},
{NOTE_B2,NOTE_GS2,},
{NOTE_DS5,NOTE_B4,NOTE_FS5,NOTE_E1,},
{NOTE_B4,NOTE_DS5,NOTE_GS5,},
{NOTE_E4,},
{NOTE_GS5,NOTE_DS5,NOTE_B4,},
{NOTE_B3,NOTE_GS3,},
{NOTE_GS5,NOTE_GS4,},
{NOTE_E4,},
{NOTE_GS3,NOTE_B3,},
{NOTE_GS4,NOTE_GS5,NOTE_E2,},
{NOTE_AS5,NOTE_AS4,NOTE_GS3,NOTE_B3,},
{NOTE_B5,NOTE_B4,NOTE_E2,},
{NOTE_CS5,NOTE_CS6,},
{NOTE_E4,},
{NOTE_B3,NOTE_GS3,},
{NOTE_AS5,NOTE_CS5,},
{NOTE_FS4,},
{NOTE_AS2,NOTE_FS2,},
{NOTE_AS4,NOTE_FS5,NOTE_CS5,},
{NOTE_FS2,NOTE_AS2,},
{NOTE_FS4,},
{NOTE_FS4,},
{NOTE_FS2,NOTE_AS2,},
{NOTE_AS4,},
{NOTE_CS4,},
{NOTE_E4,},
{NOTE_FS4,},
{NOTE_AS2,NOTE_FS2,},
{NOTE_FS5,NOTE_CS6,NOTE_AS5,},
{NOTE_FS4,},
{NOTE_FS4,},
{NOTE_AS2,NOTE_FS2,},
{NOTE_FS5,NOTE_DS5,NOTE_CS6,},
{NOTE_B4,},
{NOTE_DS3,NOTE_B2,},
{NOTE_FS5,NOTE_DS5,NOTE_CS6,},
{NOTE_B2,NOTE_DS3,NOTE_FS3,},
{NOTE_DS6,NOTE_DS5,NOTE_FS5,},
{NOTE_B4,},
{NOTE_B2,NOTE_DS3,},
{NOTE_AS4,},
{NOTE_DS5,NOTE_B5,NOTE_FS5,NOTE_CS3,NOTE_AS2,},
{NOTE_AS5,NOTE_AS2,NOTE_CS3,},
{NOTE_FS4,},
{NOTE_AS4,},
{NOTE_AS4,},
{NOTE_B4,NOTE_FS5,NOTE_DS5,NOTE_GS1,},
{NOTE_B4,NOTE_GS5,NOTE_DS5,},
{NOTE_B2,NOTE_GS2,},
{NOTE_GS5,NOTE_B4,NOTE_DS5,},
{NOTE_B2,NOTE_GS2,},
{NOTE_DS5,NOTE_B4,NOTE_FS5,},
{NOTE_GS4,},
{NOTE_B2,NOTE_GS2,},
{NOTE_FS5,NOTE_B4,NOTE_DS5,NOTE_GS1,},
{NOTE_GS5,NOTE_DS5,NOTE_B4,},
{NOTE_GS2,NOTE_B2,},
{NOTE_DS5,NOTE_GS5,NOTE_B4,},
{NOTE_GS4,},
{NOTE_B4,NOTE_FS5,NOTE_DS5,},
{NOTE_GS4,},
{NOTE_GS2,NOTE_B2,},
{NOTE_FS5,NOTE_B4,NOTE_DS5,NOTE_E1,},
{NOTE_DS5,NOTE_B4,NOTE_GS5,},
{NOTE_E4,},
{NOTE_GS5,NOTE_DS5,NOTE_B4,},
{NOTE_GS3,NOTE_B3,},
{NOTE_GS4,NOTE_GS5,},
{NOTE_E4,},
{NOTE_GS3,NOTE_B3,},
{NOTE_GS5,NOTE_GS4,NOTE_E2,},
{NOTE_AS4,NOTE_AS5,NOTE_B3,NOTE_GS3,},
{NOTE_B4,NOTE_B5,NOTE_E2,},
{NOTE_CS5,NOTE_CS6,},
{NOTE_E4,},
{NOTE_GS3,NOTE_B3,},
{NOTE_E5,NOTE_GS5,NOTE_CS5,},
{NOTE_CS4,},
{NOTE_CS4,},
{NOTE_E3,NOTE_CS3,},
{NOTE_CS4,},
{NOTE_E3,NOTE_CS3,},
{NOTE_GS5,NOTE_GS4,NOTE_CS2,},
{NOTE_AS5,NOTE_AS4,NOTE_E3,NOTE_CS3,},
{NOTE_B5,NOTE_B4,NOTE_CS2,},
{NOTE_CS6,NOTE_CS5,},
{NOTE_CS4,},
{NOTE_E3,NOTE_CS3,},
{NOTE_AS5,NOTE_AS4,},
{NOTE_DS4,},
{NOTE_DS4,},
{NOTE_FS4,NOTE_FS5,},
{NOTE_FS3,NOTE_DS3,},
{NOTE_DS4,},
{NOTE_FS3,NOTE_DS3,},
{NOTE_DS4,NOTE_DS5,},
{NOTE_DS4,},
{NOTE_FS3,NOTE_DS3,},
{NOTE_FS4,NOTE_FS5,},
{NOTE_DS4,},
{NOTE_DS4,},
{NOTE_FS3,NOTE_DS3,},
{NOTE_E5,NOTE_FS5,NOTE_B4,},
{NOTE_E3,NOTE_E2,},
{NOTE_B4,NOTE_GS5,NOTE_E5,},
{NOTE_E5,NOTE_GS5,NOTE_B4,},
{NOTE_E3,NOTE_E2,},
{NOTE_B5,NOTE_E5,},
{NOTE_CS5,NOTE_AS5,NOTE_FS5,},
{NOTE_FS3,NOTE_FS2,},
{NOTE_FS4,},
{NOTE_DS5,NOTE_AS4,},
{NOTE_FS2,NOTE_FS3,},
{NOTE_DS5,NOTE_FS5,NOTE_CS5,},
{NOTE_AS4,NOTE_FS5,},
{NOTE_GS3,NOTE_GS2,},
{NOTE_DS5,NOTE_B4,NOTE_GS5,},
{NOTE_GS5,NOTE_B4,NOTE_DS5,},
{NOTE_GS2,NOTE_GS3,},
{NOTE_DS4,},
{NOTE_DS4,},
{NOTE_B3,NOTE_GS2,NOTE_GS1,},
};
uint16_t omr_notedura[1531]={
90,6,6,3,3,6,6,3,3,6,6,3,3,6,6,3,3,90,6,6,3,3,6,6,3,3,6,6,3,3,6,6,3,3,6,6,6,3,6,3,6,6,6,3,6,3,6,6,6,3,6,3,6,6,6,3,6,3,6,6,6,3,6,3,6,6,6,3,6,3,9,6,9,6,3,30,3,6,6,6,6,3,6,9,6,6,3,3,6,3,6,9,6,6,3,3,6,3,6,9,6,6,3,3,6,6,6,6,3,3,12,6,6,12,6,3,12,3,12,12,12,6,6,12,6,3,3,9,6,6,9,6,12,3,3,6,6,6,6,3,3,6,3,6,9,6,6,3,3,6,3,6,9,6,6,3,3,6,3,6,9,6,6,3,3,6,6,6,6,3,3,24,6,6,6,3,3,6,6,6,6,3,3,12,6,6,12,6,3,3,12,6,6,12,6,3,3,6,9,3,9,6,6,3,6,9,6,6,6,3,6,87,6,3,3,6,6,6,3,3,48,6,6,6,3,3,6,6,6,3,3,24,24,6,6,6,6,6,24,6,6,6,24,6,6,6,6,6,24,6,6,6,24,6,6,6,6,6,24,6,6,6,3,6,24,6,6,6,12,12,24,6,6,3,6,9,6,6,6,6,6,24,6,6,3,6,9,6,6,6,6,6,12,6,6,12,6,6,6,6,6,6,18,24,6,24,12,12,6,12,3,6,6,3,12,6,6,6,6,6,12,6,6,6,3,6,21,6,6,6,3,6,3,6,6,6,6,3,6,6,6,9,6,6,9,12,9,6,6,24,6,6,6,6,6,12,3,6,6,3,12,6,6,6,6,6,12,6,3,6,21,6,6,6,6,12,6,6,6,3,6,9,6,6,18,3,3,3,3,3,3,3,3,24,3,3,3,3,12,9,9,6,24,6,6,6,6,3,6,9,6,6,3,3,6,3,6,9,6,6,3,3,6,3,6,9,6,6,3,3,6,6,6,6,3,3,12,6,6,12,6,3,12,3,12,12,12,6,6,12,6,3,3,9,6,6,9,6,12,3,3,6,6,6,6,3,3,6,3,6,9,6,6,3,3,6,3,6,9,6,6,3,3,6,3,6,9,6,6,3,3,6,6,6,6,3,3,24,6,6,6,3,3,6,6,6,6,3,3,9,9,12,6,9,6,9,6,6,3,6,9,6,6,3,3,6,3,6,9,6,6,3,3,6,3,6,9,6,6,3,3,6,6,6,6,3,3,12,6,6,12,6,3,12,3,12,12,12,6,6,12,6,3,3,9,6,6,9,6,12,3,3,6,6,6,6,3,3,6,3,6,9,6,6,3,3,6,3,6,9,6,6,3,3,6,3,6,9,6,6,3,3,6,6,6,6,3,3,24,6,6,6,3,3,6,6,6,6,3,3,12,6,6,12,6,3,3,12,6,6,12,6,3,3,6,9,3,9,6,6,3,6,9,6,6,6,3,6,87,6,3,3,6,6,6,3,3,48,6,6,6,3,3,6,6,6,3,3,24,24,6,6,6,6,6,24,6,6,6,24,6,6,6,6,6,24,6,6,6,24,6,6,6,6,6,24,6,6,6,3,6,24,6,6,6,12,12,24,9,9,6,6,6,6,6,24,6,3,9,6,3,6,6,6,6,6,12,12,6,6,12,6,6,6,6,6,6,6,18,24,6,24,12,12,6,12,3,6,6,3,12,6,6,6,6,6,12,6,6,6,3,6,21,6,6,6,3,6,3,6,6,6,6,3,6,6,6,9,6,6,9,12,9,6,6,24,6,6,6,6,6,12,3,6,6,3,12,6,6,6,6,6,12,6,3,6,21,6,6,6,6,12,6,6,6,3,6,9,6,6,18,3,18,3,9,24,12,3,3,3,12,3,6,3,6,12,6,4,3,6,3,6,6,9,6,9,6,6,12,3,6,9,6,6,6,3,6,9,6,6,6,12,3,6,9,6,6,6,6,6,6,12,6,12,6,6,12,12,12,12,6,6,12,6,6,9,12,6,9,6,12,6,6,6,6,6,6,12,3,6,9,6,6,6,3,6,9,6,6,6,12,3,6,9,6,6,6,6,6,6,24,12,6,6,6,6,6,6,6,3,9,3,3,3,3,3,12,6,9,6,9,6,6,12,3,6,9,6,6,6,3,6,9,6,6,6,12,3,6,9,6,6,6,6,6,6,12,6,12,6,6,12,12,12,12,6,6,12,6,6,9,12,6,9,6,12,6,6,6,6,6,6,12,3,6,9,6,6,6,3,6,9,6,6,6,12,3,6,9,6,6,6,6,6,6,24,12,6,6,6,6,6,6,6,12,6,6,12,6,6,12,6,6,12,6,6,6,9,3,9,3,6,6,3,6,9,6,6,6,12,3,39,6,6,6,6,6,6,24,9,9,15,6,24,18,12,6,6,24,9,6,6,9,6,6,9,12,9,6,12,6,6,6,6,6,6,24,12,6,6,6,9,6,6,9,6,6,9,12,9,6,6,9,6,6,9,12,6,18,12,6,12,6,6,6,6,6,6,3,6,6,6,6,6,9,6,6,6,6,18,18,18,12,24,48,6,6,6,6,33,3,9,6,6,3,9,12,6,6,42,3,9,6,6,6,6,6,12,42,12,12,12,9,24,9,6,24,6,6,6,6,42,3,9,6,6,3,9,6,6,42,3,9,6,6,6,6,6,24,42,6,6,6,6,9,36,9,6,6,6,12,6,6,18,3,9,6,24,6,18,3,9,6,24,6,18,3,9,6,24,6,18,6,6,6,24,12,18,12,24,12,12,12,18,12,15,9,9,12,6,12,6,6,6,24,6,18,3,9,6,24,6,18,3,9,6,24,6,18,3,9,6,24,6,18,6,6,6,24,24,42,6,6,6,6,9,9,6,6,24,6,6,6,6,3,6,9,6,6,3,3,6,3,6,9,6,6,3,3,6,3,6,9,6,6,3,3,6,6,6,6,3,3,12,6,6,12,6,3,12,3,12,12,12,6,6,12,6,3,3,9,6,6,9,6,12,3,3,6,6,6,6,3,3,6,3,6,9,6,6,3,3,6,3,6,9,6,6,3,3,6,3,6,9,6,6,3,3,6,6,6,6,3,3,24,6,6,6,3,3,6,6,6,6,3,3,9,9,12,6,9,6,9,6,6,3,9,6,6,3,3,6,3,6,9,6,6,3,3,6,3,6,9,6,6,3,3,6,6,6,6,3,3,12,6,6,12,6,3,12,3,12,12,12,6,6,12,6,3,3,9,6,6,9,6,12,3,3,6,6,6,6,3,3,6,3,6,9,6,6,3,3,6,3,6,9,6,6,3,3,6,3,6,9,6,6,3,3,6,6,6,6,3,3,24,6,6,6,3,3,6,6,6,6,3,3,12,6,6,12,6,3,3,12,6,6,12,6,3,3,6,9,3,9,15,6,6,9,3,9,15,6,6,9,3,60,27,15,12,};
uint16_t omr_noteos[1531]={
0,6,12,18,21,30,36,42,45,54,60,66,69,78,84,90,93,96,102,108,114,117,126,132,138,141,150,156,162,165,174,180,186,189,192,198,204,210,210,213,216,222,228,234,234,237,240,246,252,258,258,261,264,270,276,282,282,285,288,294,300,306,306,309,312,318,324,330,330,333,336,342,345,348,354,354,357,366,372,378,384,390,390,393,396,402,402,405,408,414,414,417,420,426,426,429,432,438,438,441,444,450,450,453,456,462,468,474,474,477,480,480,486,492,492,498,501,501,501,504,504,504,510,516,516,522,525,528,528,534,537,540,546,546,549,552,558,564,570,570,573,576,582,582,585,588,594,594,597,600,606,606,609,612,618,618,621,624,630,630,633,636,642,642,645,648,654,660,666,666,669,672,672,678,684,690,693,696,702,708,714,714,717,720,720,726,732,732,738,741,744,744,750,756,756,762,765,768,768,774,777,786,792,798,798,801,804,810,816,822,822,825,828,834,837,840,846,852,858,861,864,864,870,876,882,885,888,894,900,906,909,960,960,960,966,972,978,984,984,990,996,1002,1008,1008,1014,1020,1026,1032,1032,1038,1044,1050,1056,1056,1062,1068,1074,1080,1080,1086,1092,1098,1101,1104,1104,1110,1116,1122,1128,1140,1152,1152,1158,1161,1164,1167,1170,1176,1182,1188,1194,1200,1200,1206,1209,1212,1215,1218,1224,1230,1236,1242,1248,1248,1254,1260,1260,1266,1272,1278,1284,1290,1296,1296,1314,1320,1320,1332,1344,1344,1350,1353,1356,1359,1362,1362,1368,1374,1380,1386,1392,1392,1398,1404,1410,1410,1413,1416,1422,1428,1434,1434,1437,1440,1446,1452,1458,1464,1464,1467,1470,1473,1476,1482,1488,1488,1497,1500,1506,1512,1512,1518,1524,1530,1536,1536,1542,1545,1548,1551,1554,1554,1560,1566,1572,1578,1584,1596,1602,1602,1605,1608,1614,1620,1626,1632,1644,1650,1656,1662,1662,1665,1668,1674,1680,1680,1683,1686,1689,1692,1695,1698,1701,1704,1704,1707,1710,1713,1716,1728,1737,1746,1752,1758,1764,1770,1776,1782,1782,1785,1788,1794,1794,1797,1800,1806,1806,1809,1812,1818,1818,1821,1824,1830,1830,1833,1836,1842,1842,1845,1848,1854,1860,1866,1866,1869,1872,1872,1878,1884,1884,1890,1893,1893,1893,1896,1896,1896,1902,1908,1908,1914,1917,1920,1920,1926,1929,1932,1938,1938,1941,1944,1950,1956,1962,1962,1965,1968,1974,1974,1977,1980,1986,1986,1989,1992,1998,1998,2001,2004,2010,2010,2013,2016,2022,2022,2025,2028,2034,2034,2037,2040,2046,2052,2058,2058,2061,2064,2064,2070,2076,2082,2085,2088,2094,2100,2106,2106,2109,2112,2121,2130,2142,2142,2148,2151,2154,2160,2166,2166,2169,2172,2178,2178,2181,2184,2190,2190,2193,2196,2202,2202,2205,2208,2214,2214,2217,2220,2226,2226,2229,2232,2238,2244,2250,2250,2253,2256,2256,2262,2268,2268,2274,2277,2277,2277,2280,2280,2280,2286,2292,2292,2298,2301,2304,2304,2310,2313,2316,2322,2322,2325,2328,2334,2340,2346,2346,2349,2352,2358,2358,2361,2364,2370,2370,2373,2376,2382,2382,2385,2388,2394,2394,2397,2400,2406,2406,2409,2412,2418,2418,2421,2424,2430,2436,2442,2442,2445,2448,2448,2454,2460,2466,2469,2472,2478,2484,2490,2490,2493,2496,2496,2502,2508,2508,2514,2517,2520,2520,2526,2532,2532,2538,2541,2544,2544,2550,2553,2562,2568,2574,2574,2577,2580,2586,2592,2598,2598,2601,2604,2610,2613,2616,2622,2628,2634,2637,2640,2640,2646,2652,2658,2661,2664,2670,2676,2682,2685,2733,2736,2736,2742,2748,2754,2760,2760,2766,2772,2778,2784,2784,2790,2796,2802,2808,2808,2814,2820,2826,2832,2832,2838,2844,2850,2856,2856,2862,2868,2874,2877,2880,2880,2886,2892,2898,2904,2916,2928,2928,2937,2946,2952,2958,2964,2970,2976,2976,2982,2985,2985,2991,2994,3000,3006,3012,3018,3021,3024,3024,3030,3036,3036,3042,3048,3048,3054,3060,3066,3072,3072,3090,3096,3096,3108,3120,3120,3126,3129,3132,3135,3138,3138,3144,3150,3156,3162,3168,3168,3174,3180,3186,3186,3189,3192,3198,3204,3210,3210,3213,3216,3222,3228,3234,3240,3240,3243,3246,3249,3252,3258,3264,3264,3273,3276,3282,3288,3288,3294,3300,3306,3312,3312,3318,3321,3324,3327,3330,3330,3336,3342,3348,3354,3360,3372,3378,3378,3381,3384,3390,3396,3402,3408,3420,3426,3432,3438,3438,3441,3444,3450,3456,3474,3474,3477,3480,3480,3480,3483,3486,3489,3492,3492,3492,3495,3498,3498,3504,3504,3510,3513,3519,3522,3534,3534,3540,3543,3546,3552,3552,3558,3558,3561,3564,3570,3576,3582,3582,3585,3588,3594,3600,3600,3606,3606,3609,3612,3618,3624,3630,3636,3642,3648,3654,3660,3660,3666,3669,3669,3672,3672,3672,3678,3684,3684,3690,3696,3696,3702,3705,3708,3714,3714,3720,3726,3732,3738,3744,3744,3750,3750,3753,3756,3762,3768,3774,3774,3777,3780,3786,3792,3792,3798,3798,3801,3804,3810,3816,3822,3828,3834,3840,3840,3846,3852,3858,3864,3870,3876,3882,3888,3888,3891,3894,3897,3900,3903,3906,3918,3918,3924,3927,3930,3936,3936,3942,3942,3945,3948,3954,3960,3966,3966,3969,3972,3978,3984,3984,3990,3990,3993,3996,4002,4008,4014,4020,4026,4032,4038,4044,4044,4050,4053,4053,4056,4056,4056,4062,4068,4068,4074,4080,4080,4086,4089,4092,4098,4098,4104,4110,4116,4122,4128,4128,4134,4134,4137,4140,4146,4152,4158,4158,4161,4164,4170,4176,4176,4182,4182,4185,4188,4194,4200,4206,4212,4218,4224,4224,4230,4236,4242,4248,4254,4260,4266,4272,4272,4278,4284,4284,4290,4296,4296,4302,4308,4308,4314,4320,4320,4326,4329,4336,4338,4344,4350,4350,4353,4356,4362,4368,4368,4374,4377,4380,4386,4392,4398,4404,4410,4416,4440,4449,4449,4458,4464,4464,4464,4476,4482,4488,4488,4488,4494,4497,4500,4506,4512,4512,4521,4524,4530,4530,4536,4542,4548,4554,4560,4560,4560,4566,4572,4578,4584,4584,4590,4593,4596,4602,4608,4608,4617,4620,4626,4632,4632,4638,4641,4644,4650,4656,4656,4668,4674,4674,4680,4686,4692,4698,4704,4710,4710,4713,4716,4719,4722,4725,4728,4734,4740,4746,4752,4770,4782,4788,4800,4800,4830,4836,4842,4848,4848,4854,4857,4866,4872,4878,4881,4884,4890,4896,4896,4902,4905,4914,4920,4926,4932,4938,4944,4944,4956,4968,4980,4992,4992,5001,5010,5016,5022,5028,5034,5040,5040,5046,5049,5058,5064,5070,5073,5082,5088,5088,5094,5097,5106,5112,5118,5124,5130,5136,5136,5160,5166,5172,5178,5184,5184,5193,5202,5214,5220,5220,5226,5232,5232,5238,5241,5250,5250,5256,5256,5262,5265,5274,5274,5280,5280,5286,5289,5298,5298,5304,5304,5310,5316,5322,5322,5328,5328,5340,5346,5349,5349,5352,5352,5364,5370,5376,5385,5394,5394,5400,5406,5412,5418,5418,5424,5424,5430,5433,5442,5442,5448,5448,5454,5457,5466,5466,5472,5472,5478,5481,5490,5490,5496,5496,5502,5508,5514,5514,5520,5520,5544,5550,5556,5562,5568,5577,5586,5592,5592,5598,5604,5610,5616,5622,5622,5625,5628,5634,5634,5637,5640,5646,5646,5649,5652,5658,5658,5661,5664,5670,5670,5673,5676,5682,5682,5685,5688,5694,5700,5706,5706,5709,5712,5712,5718,5724,5724,5730,5733,5733,5733,5736,5736,5736,5742,5748,5748,5754,5757,5760,5760,5766,5769,5772,5778,5778,5781,5784,5790,5796,5802,5802,5805,5808,5814,5814,5817,5820,5826,5826,5829,5832,5838,5838,5841,5844,5850,5850,5853,5856,5862,5862,5865,5868,5874,5874,5877,5880,5886,5892,5898,5898,5901,5904,5904,5910,5916,5922,5925,5928,5934,5940,5946,5946,5949,5952,5961,5970,5982,5982,5988,5991,5994,6000,6006,6009,6012,6018,6018,6021,6024,6030,6030,6033,6036,6042,6042,6045,6048,6054,6054,6057,6060,6066,6066,6069,6072,6078,6084,6090,6090,6093,6096,6096,6102,6108,6108,6114,6117,6117,6117,6120,6120,6120,6126,6132,6132,6138,6141,6144,6144,6150,6153,6156,6162,6162,6165,6168,6174,6180,6186,6186,6189,6192,6198,6198,6201,6204,6210,6210,6213,6216,6222,6222,6225,6228,6234,6234,6237,6240,6246,6246,6249,6252,6258,6258,6261,6264,6270,6276,6282,6282,6285,6288,6288,6294,6300,6306,6309,6312,6318,6324,6330,6330,6333,6336,6336,6342,6348,6348,6354,6357,6360,6360,6366,6372,6372,6378,6381,6384,6384,6390,6393,6393,6402,6408,6408,6414,6417,6417,6426,6432,6432,6438,6441,6441,6468,6468,};
uint16_t omr_len=1531;
