uint16_t dlaam_note[891][8]={
{NOTE_C2,NOTE_FS2,NOTE_E2,NOTE_D6,},
{NOTE_D4,},
{NOTE_FS4,},
{NOTE_D2,NOTE_D5,NOTE_FS3,NOTE_A3,NOTE_D4,},
{NOTE_FS5,NOTE_FS3,NOTE_A3,NOTE_D4,},
{NOTE_B5,NOTE_D6,NOTE_B4,NOTE_D5,},
{NOTE_A5,NOTE_CS6,NOTE_A4,NOTE_CS5,},
{NOTE_G5,NOTE_B5,NOTE_G4,NOTE_B4,},
{NOTE_FS2,NOTE_FS3,NOTE_A5,},
{NOTE_FS5,NOTE_A5,NOTE_FS4,NOTE_A4,},
{NOTE_G5,NOTE_B5,},
{NOTE_A5,NOTE_CS6,},
{NOTE_FS2,NOTE_FS3,NOTE_D6,},
{NOTE_B5,NOTE_D6,NOTE_B4,NOTE_D5,},
{NOTE_A5,NOTE_CS6,NOTE_A4,NOTE_CS5,},
{NOTE_G5,NOTE_B5,},
{NOTE_G4,NOTE_B4,},
{NOTE_C2,NOTE_E2,},
{NOTE_FS2,NOTE_FS3,},
{NOTE_D3,NOTE_D2,NOTE_D5,NOTE_FS5,},
{NOTE_FS5,NOTE_A5,NOTE_FS4,NOTE_A4,},
{NOTE_FS3,NOTE_A3,NOTE_D4,},
{NOTE_A4,},
{NOTE_G5,NOTE_B5,},
{NOTE_A5,NOTE_CS6,},
{NOTE_FS2,NOTE_FS3,NOTE_D6,},
{NOTE_B5,NOTE_D6,NOTE_B4,NOTE_D5,},
{NOTE_A5,NOTE_CS6,NOTE_A4,NOTE_CS5,},
{NOTE_G5,NOTE_B5,NOTE_G4,NOTE_B4,},
{NOTE_FS2,NOTE_A5,},
{NOTE_FS4,},
{NOTE_FS5,NOTE_A5,NOTE_FS4,NOTE_A4,},
{NOTE_G5,NOTE_B5,},
{NOTE_A5,NOTE_CS6,},
{NOTE_FS2,NOTE_C2,NOTE_E2,NOTE_FS3,NOTE_D6,},
{NOTE_D3,NOTE_A3,},
{NOTE_D2,NOTE_FS5,},
{NOTE_D5,NOTE_FS5,},
{NOTE_B5,NOTE_D6,NOTE_B4,NOTE_D5,},
{NOTE_FS3,NOTE_D4,},
{NOTE_A5,NOTE_CS6,NOTE_A4,NOTE_CS5,},
{NOTE_G5,NOTE_B5,NOTE_G4,NOTE_B4,},
{NOTE_FS2,NOTE_FS3,NOTE_A5,},
{NOTE_FS5,NOTE_A5,},
{NOTE_FS4,NOTE_A4,},
{NOTE_C2,NOTE_FS2,NOTE_E2,NOTE_E6,},
{NOTE_E3,NOTE_E2,NOTE_E5,NOTE_GS5,NOTE_GS3,NOTE_B3,NOTE_E4,},
{NOTE_FS4,},
{NOTE_CS6,NOTE_E6,NOTE_CS5,NOTE_E5,},
{NOTE_B5,NOTE_D6,NOTE_B4,NOTE_D5,},
{NOTE_A5,NOTE_CS6,NOTE_A4,NOTE_CS5,},
{NOTE_FS2,NOTE_B5,},
{NOTE_FS4,},
{NOTE_GS5,NOTE_B5,NOTE_GS4,NOTE_B4,},
{NOTE_A5,NOTE_CS6,},
{NOTE_B5,NOTE_D6,},
{NOTE_FS2,NOTE_FS3,NOTE_E6,},
{NOTE_CS6,NOTE_E6,NOTE_CS5,NOTE_E5,},
{NOTE_B5,NOTE_D6,NOTE_B4,NOTE_D5,},
{NOTE_A5,NOTE_CS6,},
{NOTE_A4,NOTE_CS5,},
{NOTE_C2,NOTE_E2,NOTE_FS2,},
{NOTE_E3,NOTE_E5,NOTE_GS5,},
{NOTE_FS4,},
{NOTE_E2,NOTE_E5,NOTE_GS5,NOTE_GS3,NOTE_E4,},
{NOTE_GS5,NOTE_B5,NOTE_GS4,NOTE_B4,},
{NOTE_B4,},
{NOTE_B4,},
{NOTE_A5,NOTE_CS6,},
{NOTE_B5,NOTE_D6,},
{NOTE_FS2,NOTE_FS3,NOTE_E6,},
{NOTE_CS6,NOTE_E6,NOTE_CS5,NOTE_E5,},
{NOTE_B5,NOTE_D6,NOTE_B4,NOTE_D5,},
{NOTE_A5,NOTE_CS6,NOTE_A4,NOTE_CS5,},
{NOTE_FS2,NOTE_B5,},
{NOTE_FS4,},
{NOTE_GS5,NOTE_B5,NOTE_GS4,NOTE_B4,},
{NOTE_A5,NOTE_CS6,},
{NOTE_B5,NOTE_D6,},
{NOTE_C2,NOTE_E2,NOTE_FS2,NOTE_CS6,},
{NOTE_A4,},
{NOTE_FS4,},
{NOTE_A4,},
{NOTE_E5,NOTE_G5,},
{NOTE_A5,NOTE_CS6,NOTE_A4,NOTE_CS5,},
{NOTE_A3,NOTE_CS4,NOTE_E4,},
{NOTE_B5,NOTE_D6,NOTE_B4,NOTE_D5,},
{NOTE_C6,NOTE_DS6,NOTE_C5,NOTE_DS5,},
{NOTE_FS2,NOTE_FS3,NOTE_E6,},
{NOTE_CS6,NOTE_E6,NOTE_E6,},
{NOTE_CS5,NOTE_E5,},
{NOTE_B3,NOTE_G5,NOTE_B5,},
{NOTE_B4,NOTE_G4,NOTE_D5,},
{NOTE_A5,NOTE_CS6,},
{NOTE_B5,NOTE_D6,},
{NOTE_DS3,NOTE_E5,NOTE_G5,},
{NOTE_G4,NOTE_E4,NOTE_B4,},
{NOTE_FS5,NOTE_A5,},
{NOTE_G5,NOTE_B5,},
{NOTE_B4,},
{NOTE_A4,NOTE_FS4,NOTE_CS5,},
{NOTE_FS5,NOTE_A5,},
{NOTE_G5,NOTE_B5,},
{NOTE_A5,NOTE_CS6,},
{NOTE_DS3,NOTE_D5,},
{NOTE_D4,NOTE_FS4,NOTE_A4,},
{NOTE_FS4,},
{NOTE_E5,NOTE_G5,},
{NOTE_FS5,NOTE_A5,},
{NOTE_B3,NOTE_E5,NOTE_G5,},
{NOTE_G4,NOTE_E4,NOTE_B4,},
{NOTE_FS5,NOTE_A5,},
{NOTE_G5,NOTE_B5,},
{NOTE_DS3,NOTE_CS5,NOTE_E5,},
{NOTE_E4,NOTE_CS4,NOTE_G4,},
{NOTE_D5,NOTE_FS5,},
{NOTE_E5,NOTE_G5,},
{NOTE_B3,NOTE_D5,NOTE_FS5,},
{NOTE_D4,NOTE_FS4,NOTE_A4,},
{NOTE_E5,NOTE_G5,},
{NOTE_FS5,NOTE_A5,},
{NOTE_DS4,},
{NOTE_D4,NOTE_B3,NOTE_FS4,},
{NOTE_B4,NOTE_D5,},
{NOTE_CS5,NOTE_E5,},
{NOTE_D5,NOTE_FS5,},
{NOTE_C2,NOTE_E2,NOTE_A2,NOTE_DS6,},
{NOTE_A4,},
{NOTE_E6,NOTE_DS6,NOTE_E6,},
{NOTE_A3,NOTE_CS4,NOTE_E4,},
{NOTE_B2,NOTE_DS6,},
{NOTE_DS4,},
{NOTE_C3,NOTE_D6,},
{NOTE_D4,},
{NOTE_CS3,NOTE_CS6,},
{NOTE_CS4,},
{NOTE_D3,NOTE_C6,},
{NOTE_C4,},
{NOTE_E3,NOTE_B5,},
{NOTE_B4,},
{NOTE_FS3,NOTE_AS5,},
{NOTE_AS4,},
{NOTE_G3,NOTE_A5,},
{NOTE_A4,},
{NOTE_A3,NOTE_GS5,},
{NOTE_GS4,},
{NOTE_B3,NOTE_G5,},
{NOTE_B4,NOTE_G5,},
{NOTE_CS4,NOTE_FS5,},
{NOTE_CS5,NOTE_FS5,},
{NOTE_D4,NOTE_F5,},
{NOTE_D5,NOTE_F5,},
{NOTE_E4,NOTE_E5,},
{NOTE_E5,NOTE_A3,NOTE_CS4,NOTE_E5,},
{NOTE_E4,},
{NOTE_C2,NOTE_DS6,},
{NOTE_A4,},
{NOTE_C2,NOTE_DS6,},
{NOTE_A4,},
{NOTE_A4,},
{NOTE_A4,},
{NOTE_B4,},
{NOTE_B4,},
{NOTE_CS4,},
{NOTE_CS4,},
{NOTE_D4,},
{NOTE_A4,},
{NOTE_FS4,NOTE_FS5,NOTE_FS4,NOTE_FS5,},
{NOTE_C2,NOTE_FS3,NOTE_FS2,},
{NOTE_D2,NOTE_D4,NOTE_FS4,NOTE_A4,},
{NOTE_A4,},
{NOTE_D4,NOTE_FS4,NOTE_A4,},
{NOTE_E2,NOTE_FS3,NOTE_FS2,NOTE_D4,NOTE_FS4,NOTE_A4,},
{NOTE_D5,NOTE_FS4,NOTE_A4,},
{NOTE_CS4,},
{NOTE_C2,NOTE_FS3,NOTE_FS2,},
{NOTE_CS4,},
{NOTE_D4,NOTE_FS4,NOTE_A4,},
{NOTE_D4,},
{NOTE_E2,NOTE_FS2,NOTE_FS5,NOTE_D4,NOTE_FS4,NOTE_A4,},
{NOTE_FS3,NOTE_FS2,},
{NOTE_B4,},
{NOTE_C2,NOTE_FS3,NOTE_FS2,},
{NOTE_B4,},
{NOTE_D4,NOTE_FS4,NOTE_A4,},
{NOTE_B4,},
{NOTE_E2,NOTE_FS3,NOTE_FS2,NOTE_D4,NOTE_FS4,NOTE_A4,},
{NOTE_FS4,NOTE_FS5,NOTE_FS5,NOTE_A4,NOTE_FS4,NOTE_FS5,},
{NOTE_A4,},
{NOTE_C2,NOTE_FS3,NOTE_FS2,},
{NOTE_FS4,NOTE_FS5,NOTE_FS4,NOTE_FS5,},
{NOTE_A4,},
{NOTE_D4,NOTE_FS4,NOTE_A4,},
{NOTE_A4,},
{NOTE_D4,NOTE_D5,NOTE_D4,NOTE_D5,},
{NOTE_E2,NOTE_FS3,NOTE_FS2,NOTE_D4,NOTE_FS4,NOTE_A4,},
{NOTE_FS2,NOTE_FS3,NOTE_C2,},
{NOTE_D4,},
{NOTE_A3,NOTE_A4,NOTE_A4,},
{NOTE_D2,NOTE_D4,NOTE_FS4,NOTE_A4,},
{NOTE_D4,NOTE_FS4,NOTE_A4,},
{NOTE_A4,},
{NOTE_A3,NOTE_A4,},
{NOTE_E2,NOTE_FS2,NOTE_FS3,NOTE_D4,NOTE_FS4,NOTE_A4,},
{NOTE_B4,},
{NOTE_A4,},
{NOTE_C2,NOTE_FS2,NOTE_FS3,},
{NOTE_A4,},
{NOTE_D4,NOTE_FS4,NOTE_A4,},
{NOTE_A4,},
{NOTE_E2,NOTE_FS2,},
{NOTE_FS4,},
{NOTE_FS4,},
{NOTE_E3,NOTE_FS2,},
{NOTE_C2,NOTE_FS2,NOTE_FS3,},
{NOTE_E2,NOTE_G5,},
{NOTE_B3,NOTE_E4,NOTE_G4,},
{NOTE_CS4,NOTE_E4,NOTE_A4,},
{NOTE_E2,NOTE_FS2,NOTE_FS3,NOTE_CS4,NOTE_E4,NOTE_A4,},
{NOTE_FS5,NOTE_A4,},
{NOTE_C2,NOTE_FS2,NOTE_FS3,},
{NOTE_A4,},
{NOTE_B3,NOTE_E4,NOTE_G4,},
{NOTE_E4,},
{NOTE_E2,NOTE_FS2,NOTE_FS3,},
{NOTE_FS2,NOTE_FS3,NOTE_C2,},
{NOTE_B4,},
{NOTE_G4,NOTE_G5,NOTE_G4,NOTE_G5,},
{NOTE_E4,},
{NOTE_B4,},
{NOTE_B3,NOTE_E4,NOTE_G4,},
{NOTE_B3,NOTE_E4,NOTE_G4,},
{NOTE_E2,NOTE_FS2,NOTE_FS3,NOTE_B3,NOTE_E4,},
{NOTE_E5,NOTE_E4,NOTE_G4,},
{NOTE_C2,NOTE_FS2,NOTE_FS3,},
{NOTE_E4,},
{NOTE_B3,NOTE_E4,NOTE_G4,},
{NOTE_E4,},
{NOTE_E2,NOTE_FS2,NOTE_FS3,},
{NOTE_G4,},
{NOTE_FS2,NOTE_FS3,NOTE_C2,},
{NOTE_E4,NOTE_E5,NOTE_E4,NOTE_E5,},
{NOTE_A1,NOTE_CS4,NOTE_E4,NOTE_A4,},
{NOTE_CS4,NOTE_E4,NOTE_A4,},
{NOTE_CS4,},
{NOTE_E2,NOTE_FS2,NOTE_FS3,},
{NOTE_CS6,NOTE_CS4,NOTE_E4,NOTE_A4,},
{NOTE_C2,NOTE_FS2,NOTE_FS3,},
{NOTE_E4,},
{NOTE_CS4,NOTE_E4,NOTE_A4,},
{NOTE_B4,},
{NOTE_E2,NOTE_FS2,NOTE_FS3,},
{NOTE_A4,},
{NOTE_FS2,NOTE_FS3,NOTE_C2,},
{NOTE_B3,NOTE_B4,NOTE_B3,NOTE_B4,},
{NOTE_G2,NOTE_B3,NOTE_D4,NOTE_G4,NOTE_G5,},
{NOTE_G4,},
{NOTE_B3,NOTE_E4,NOTE_G4,},
{NOTE_E2,NOTE_FS2,NOTE_FS3,NOTE_B3,NOTE_D4,NOTE_G4,},
{NOTE_C2,NOTE_FS2,NOTE_FS3,},
{NOTE_B4,},
{NOTE_B3,NOTE_E4,NOTE_G4,},
{NOTE_G4,},
{NOTE_E2,NOTE_FS2,NOTE_B3,NOTE_D4,NOTE_G4,},
{NOTE_FS4,},
{NOTE_FS5,NOTE_D4,NOTE_G4,},
{NOTE_FS2,NOTE_FS3,NOTE_C2,},
{NOTE_G4,NOTE_G5,NOTE_G4,NOTE_G5,},
{NOTE_G4,},
{NOTE_B4,},
{NOTE_B3,NOTE_E4,NOTE_G4,},
{NOTE_E2,NOTE_FS2,NOTE_FS3,NOTE_B3,},
{NOTE_CS4,},
{NOTE_D4,NOTE_G4,},
{NOTE_C2,NOTE_FS2,NOTE_FS3,},
{NOTE_FS4,},
{NOTE_B3,NOTE_E4,NOTE_G4,},
{NOTE_D4,},
{NOTE_FS2,NOTE_FS3,NOTE_E2,NOTE_B3,NOTE_D4,},
{NOTE_FS4,NOTE_FS5,NOTE_FS4,NOTE_FS5,},
{NOTE_G4,},
{NOTE_E4,NOTE_E5,NOTE_E4,NOTE_E5,},
{NOTE_FS2,NOTE_FS3,NOTE_C2,},
{NOTE_E2,NOTE_CS4,NOTE_E4,NOTE_A4,},
{NOTE_A4,},
{NOTE_CS4,NOTE_E4,NOTE_A4,},
{NOTE_E4,},
{NOTE_CS4,NOTE_CS5,NOTE_CS4,NOTE_CS5,},
{NOTE_FS2,NOTE_FS3,NOTE_E2,NOTE_CS4,NOTE_E4,},
{NOTE_B3,NOTE_B4,NOTE_A4,NOTE_B3,NOTE_B4,},
{NOTE_A2,NOTE_A3,NOTE_A4,NOTE_A3,NOTE_A4,},
{NOTE_FS2,NOTE_FS3,NOTE_C2,},
{NOTE_A4,},
{NOTE_CS4,NOTE_E4,NOTE_A4,},
{NOTE_B3,NOTE_B4,NOTE_B3,NOTE_B4,},
{NOTE_FS2,NOTE_FS3,NOTE_E2,},
{NOTE_D4,NOTE_D5,NOTE_CS4,NOTE_E4,NOTE_A4,NOTE_D4,NOTE_D5,},
{NOTE_FS2,NOTE_FS3,NOTE_A2,NOTE_C2,},
{NOTE_CS4,NOTE_A1,NOTE_CS5,NOTE_CS4,NOTE_CS5,},
{NOTE_CS4,NOTE_E4,NOTE_A4,},
{NOTE_D4,NOTE_D5,NOTE_D4,NOTE_D5,},
{NOTE_FS2,NOTE_FS3,NOTE_E2,},
{NOTE_A2,NOTE_E4,NOTE_E5,NOTE_A1,NOTE_E4,NOTE_A4,NOTE_E4,NOTE_E5,},
{NOTE_CS4,NOTE_E4,NOTE_A4,NOTE_E4,NOTE_E5,},
{NOTE_FS3,NOTE_E2,NOTE_C2,},
{NOTE_B2,NOTE_B1,},
{NOTE_A3,NOTE_A4,NOTE_A3,NOTE_A4,},
{NOTE_CS4,NOTE_E4,NOTE_A4,},
{NOTE_E4,},
{NOTE_CS3,NOTE_E4,NOTE_A4,},
{NOTE_E2,NOTE_FS3,NOTE_CS4,},
{NOTE_CS2,NOTE_CS4,NOTE_E4,NOTE_A4,},
{NOTE_FS4,NOTE_FS5,NOTE_FS4,NOTE_FS5,},
{NOTE_D4,NOTE_FS4,NOTE_A4,},
{NOTE_A4,},
{NOTE_FS2,NOTE_C2,NOTE_FS3,},
{NOTE_D4,},
{NOTE_D2,NOTE_D4,NOTE_FS4,NOTE_A4,},
{NOTE_A4,},
{NOTE_FS3,NOTE_FS2,NOTE_E2,NOTE_D4,NOTE_FS4,},
{NOTE_D5,NOTE_D4,NOTE_FS4,NOTE_A4,},
{NOTE_FS3,NOTE_FS2,NOTE_C2,},
{NOTE_CS3,NOTE_C2,},
{NOTE_D4,NOTE_FS4,NOTE_A4,},
{NOTE_CS2,NOTE_D5,},
{NOTE_FS3,NOTE_FS2,},
{NOTE_E2,NOTE_FS5,NOTE_D4,NOTE_FS4,},
{NOTE_A4,},
{NOTE_FS3,NOTE_C2,},
{NOTE_FS2,NOTE_C2,},
{NOTE_B4,},
{NOTE_D4,NOTE_FS4,NOTE_A4,},
{NOTE_B4,},
{NOTE_B4,},
{NOTE_FS2,NOTE_E2,NOTE_FS3,NOTE_FS4,},
{NOTE_FS5,NOTE_FS4,NOTE_FS5,NOTE_FS4,NOTE_FS5,},
{NOTE_D4,NOTE_FS4,NOTE_A4,},
{NOTE_FS2,NOTE_C2,NOTE_FS3,},
{NOTE_A2,NOTE_A5,},
{NOTE_FS4,NOTE_FS5,NOTE_FS4,NOTE_FS5,},
{NOTE_D4,NOTE_FS4,NOTE_A4,},
{NOTE_A4,},
{NOTE_FS2,NOTE_E2,NOTE_FS3,NOTE_D4,NOTE_FS4,},
{NOTE_D4,NOTE_D5,NOTE_D4,NOTE_D5,},
{NOTE_A4,},
{NOTE_A3,NOTE_A4,NOTE_A4,},
{NOTE_D4,NOTE_FS4,NOTE_A4,},
{NOTE_FS2,NOTE_D3,NOTE_C2,NOTE_FS3,},
{NOTE_D4,},
{NOTE_D4,NOTE_FS4,NOTE_A4,},
{NOTE_A4,},
{NOTE_A3,NOTE_A4,},
{NOTE_FS3,NOTE_FS2,NOTE_E2,NOTE_D4,NOTE_FS4,NOTE_A4,},
{NOTE_B4,},
{NOTE_FS3,NOTE_FS2,NOTE_C2,},
{NOTE_A4,},
{NOTE_D4,NOTE_FS4,NOTE_A4,},
{NOTE_A4,},
{NOTE_A4,},
{NOTE_FS3,NOTE_FS2,},
{NOTE_E4,},
{NOTE_FS4,},
{NOTE_FS3,NOTE_FS2,NOTE_C2,},
{NOTE_E4,},
{NOTE_B3,NOTE_E4,NOTE_G4,},
{NOTE_E2,NOTE_G5,},
{NOTE_CS4,NOTE_E4,NOTE_A4,},
{NOTE_FS3,NOTE_FS2,NOTE_E2,NOTE_E4,},
{NOTE_FS5,NOTE_CS4,NOTE_A4,},
{NOTE_FS3,NOTE_FS2,NOTE_C2,},
{NOTE_B3,NOTE_E4,NOTE_G4,},
{NOTE_A4,},
{NOTE_E4,},
{NOTE_FS3,NOTE_FS2,NOTE_E2,},
{NOTE_G4,NOTE_G5,NOTE_G4,NOTE_G5,},
{NOTE_CS4,NOTE_E4,NOTE_G4,},
{NOTE_FS2,NOTE_C2,NOTE_FS3,},
{NOTE_B4,},
{NOTE_E2,NOTE_B3,NOTE_E4,NOTE_G4,},
{NOTE_B4,},
{NOTE_FS3,NOTE_FS2,NOTE_E2,NOTE_B3,},
{NOTE_E5,NOTE_E4,NOTE_G4,},
{NOTE_FS3,NOTE_FS2,NOTE_C2,},
{NOTE_CS4,NOTE_E4,NOTE_G4,},
{NOTE_A4,},
{NOTE_E4,},
{NOTE_FS3,NOTE_FS2,NOTE_E2,},
{NOTE_G4,},
{NOTE_FS2,NOTE_C2,NOTE_FS3,},
{NOTE_E4,NOTE_E5,NOTE_E4,NOTE_E5,},
{NOTE_CS4,NOTE_E4,NOTE_A4,},
{NOTE_E2,NOTE_CS6,NOTE_CS4,NOTE_E4,NOTE_A4,},
{NOTE_FS3,NOTE_FS2,NOTE_E2,},
{NOTE_CS4,NOTE_E4,NOTE_A4,},
{NOTE_FS3,NOTE_FS2,NOTE_C2,},
{NOTE_CS4,NOTE_E4,NOTE_A4,},
{NOTE_A4,},
{NOTE_B4,},
{NOTE_FS3,NOTE_FS2,NOTE_E2,},
{NOTE_A4,},
{NOTE_G4,},
{NOTE_B3,NOTE_B4,NOTE_B3,NOTE_B4,},
{NOTE_FS2,NOTE_C2,NOTE_FS3,},
{NOTE_G4,},
{NOTE_E2,NOTE_B3,NOTE_E4,NOTE_G4,},
{NOTE_G4,},
{NOTE_CS4,NOTE_E4,NOTE_G4,},
{NOTE_FS3,NOTE_FS2,NOTE_E2,},
{NOTE_G5,NOTE_B3,},
{NOTE_E4,NOTE_G4,},
{NOTE_FS3,NOTE_FS2,NOTE_C2,},
{NOTE_A4,},
{NOTE_CS4,NOTE_E4,NOTE_G4,},
{NOTE_FS4,},
{NOTE_FS3,NOTE_FS2,},
{NOTE_E4,},
{NOTE_E4,},
{NOTE_FS2,NOTE_C2,NOTE_FS3,},
{NOTE_CS4,NOTE_CS5,NOTE_CS4,NOTE_CS5,},
{NOTE_E2,NOTE_A3,NOTE_CS4,NOTE_E4,},
{NOTE_CS4,NOTE_E4,NOTE_A4,},
{NOTE_CS4,},
{NOTE_B3,NOTE_B4,NOTE_B3,NOTE_B4,},
{NOTE_FS2,NOTE_E2,NOTE_FS3,},
{NOTE_A3,NOTE_A4,NOTE_A3,NOTE_CS4,NOTE_E4,NOTE_A3,NOTE_A4,},
{NOTE_E4,NOTE_E5,NOTE_E4,NOTE_E5,},
{NOTE_FS2,NOTE_C2,NOTE_FS3,},
{NOTE_A4,},
{NOTE_CS4,NOTE_E4,NOTE_A4,},
{NOTE_E4,},
{NOTE_D4,NOTE_D5,NOTE_D4,NOTE_D5,},
{NOTE_FS2,NOTE_E2,NOTE_FS3,},
{NOTE_CS4,NOTE_CS5,},
{NOTE_CS4,NOTE_CS5,},
{NOTE_FS2,NOTE_C2,NOTE_FS3,},
{NOTE_D4,},
{NOTE_D4,NOTE_D5,NOTE_D2,NOTE_A3,NOTE_D4,NOTE_FS4,NOTE_D4,NOTE_D5,},
{NOTE_D4,},
{NOTE_D4,NOTE_FS4,NOTE_A4,},
{NOTE_D4,},
{NOTE_E2,NOTE_FS2,NOTE_FS3,},
{NOTE_A3,NOTE_A4,NOTE_A3,NOTE_D4,NOTE_FS4,NOTE_A3,NOTE_A4,},
{NOTE_FS2,NOTE_C2,NOTE_FS3,},
{NOTE_FS4,NOTE_FS5,NOTE_FS4,NOTE_FS5,},
{NOTE_D4,},
{NOTE_D2,NOTE_FS4,NOTE_FS5,},
{NOTE_D4,NOTE_FS4,NOTE_A4,},
{NOTE_E2,NOTE_FS2,},
{NOTE_E4,NOTE_E5,NOTE_A3,NOTE_D4,NOTE_E4,NOTE_E5,},
{NOTE_FS4,},
{NOTE_FS4,},
{NOTE_FS2,NOTE_C2,NOTE_FS3,},
{NOTE_E4,},
{NOTE_D4,NOTE_D5,NOTE_E2,NOTE_D4,NOTE_D5,},
{NOTE_D4,NOTE_FS4,NOTE_A4,},
{NOTE_E2,NOTE_FS2,NOTE_FS3,},
{NOTE_E4,NOTE_E5,NOTE_A3,NOTE_D4,NOTE_E4,NOTE_E5,},
{NOTE_FS4,},
{NOTE_E2,NOTE_C2,NOTE_FS3,},
{NOTE_FS2,NOTE_FS4,NOTE_FS5,},
{NOTE_FS4,NOTE_FS5,NOTE_FS4,NOTE_FS5,},
{NOTE_FS4,},
{NOTE_D4,NOTE_FS4,NOTE_A4,},
{NOTE_E4,},
{NOTE_G4,NOTE_G5,NOTE_G4,NOTE_G5,},
{NOTE_E2,NOTE_FS3,},
{NOTE_A4,NOTE_A5,NOTE_A3,NOTE_D4,NOTE_FS4,NOTE_A4,NOTE_A5,},
{NOTE_C2,NOTE_FS3,NOTE_FS2,},
{NOTE_G4,},
{NOTE_G2,NOTE_B3,NOTE_D4,NOTE_G4,NOTE_B5,},
{NOTE_D4,},
{NOTE_D4,NOTE_G4,NOTE_B4,},
{NOTE_E2,NOTE_FS3,NOTE_FS2,NOTE_G5,},
{NOTE_D4,},
{NOTE_B3,NOTE_D4,NOTE_G4,},
{NOTE_A4,},
{NOTE_C2,NOTE_FS3,NOTE_FS2,},
{NOTE_B4,},
{NOTE_G2,NOTE_B5,},
{NOTE_D4,NOTE_G4,NOTE_B4,},
{NOTE_E2,NOTE_FS2,},
{NOTE_FS3,NOTE_FS2,},
{NOTE_A4,},
{NOTE_C2,NOTE_FS3,NOTE_FS2,},
{NOTE_D2,NOTE_A3,NOTE_D4,NOTE_FS4,},
{NOTE_D4,NOTE_FS4,NOTE_A4,},
{NOTE_G4,},
{NOTE_A4,},
{NOTE_E2,NOTE_FS3,NOTE_FS2,},
{NOTE_A3,NOTE_D4,NOTE_FS4,},
{NOTE_B4,},
{NOTE_C2,NOTE_FS3,NOTE_FS2,},
{NOTE_D4,},
{NOTE_D4,NOTE_FS4,NOTE_A4,},
{NOTE_A4,},
{NOTE_E2,NOTE_FS3,NOTE_FS2,},
{NOTE_C2,NOTE_FS3,NOTE_FS2,},
{NOTE_E2,NOTE_B3,NOTE_E4,NOTE_E5,NOTE_GS4,},
{NOTE_B3,NOTE_E4,NOTE_GS4,},
{NOTE_E2,NOTE_FS3,NOTE_FS2,},
{NOTE_FS4,},
{NOTE_B3,NOTE_E4,NOTE_GS4,},
{NOTE_C2,NOTE_FS3,NOTE_FS2,},
{NOTE_E2,NOTE_GS5,},
{NOTE_B3,NOTE_E4,NOTE_GS4,},
{NOTE_E2,NOTE_FS2,},
{NOTE_FS3,NOTE_FS2,},
{NOTE_E4,},
{NOTE_C2,NOTE_FS3,NOTE_FS2,NOTE_CS5,},
{NOTE_A1,NOTE_CS4,NOTE_E4,NOTE_A4,},
{NOTE_CS4,NOTE_E4,NOTE_A4,},
{NOTE_A4,},
{NOTE_E2,NOTE_FS3,NOTE_FS2,},
{NOTE_E5,NOTE_CS4,NOTE_E4,NOTE_A4,},
{NOTE_C2,NOTE_FS3,NOTE_FS2,},
{NOTE_A5,NOTE_FS2,},
{NOTE_A4,},
{NOTE_CS4,NOTE_E4,NOTE_A4,},
{NOTE_E2,NOTE_FS3,NOTE_FS2,},
{NOTE_C2,NOTE_FS3,NOTE_FS2,},
{NOTE_E2,NOTE_C5,},
{NOTE_B4,},
{NOTE_CS4,NOTE_E4,NOTE_B4,NOTE_E4,NOTE_B4,NOTE_G4,},
{NOTE_E2,NOTE_FS3,NOTE_FS2,NOTE_CS4,NOTE_E4,NOTE_A4,},
{NOTE_C2,NOTE_FS3,NOTE_FS2,},
{NOTE_A1,NOTE_B4,NOTE_E4,NOTE_G4,},
{NOTE_A4,},
{NOTE_E2,NOTE_FS3,NOTE_FS2,},
{NOTE_C2,NOTE_FS3,NOTE_FS2,},
{NOTE_E4,},
{NOTE_E3,NOTE_C5,},
{NOTE_D4,NOTE_G4,NOTE_B4,},
{NOTE_G4,NOTE_B4,NOTE_E4,},
{NOTE_G4,},
{NOTE_E2,NOTE_FS3,NOTE_FS2,},
{NOTE_FS3,NOTE_D4,},
{NOTE_G4,NOTE_B4,},
{NOTE_G5,NOTE_C2,NOTE_FS3,NOTE_FS2,},
{NOTE_E4,},
{NOTE_G4,},
{NOTE_G4,NOTE_B4,},
{NOTE_E4,NOTE_B4,},
{NOTE_F4,},
{NOTE_D4,},
{NOTE_E2,NOTE_FS3,NOTE_FS2,NOTE_E3,},
{NOTE_C2,NOTE_FS3,NOTE_FS2,},
{NOTE_A1,NOTE_CS4,NOTE_E4,NOTE_A4,NOTE_A4,NOTE_E4,},
{NOTE_A4,},
{NOTE_CS4,},
{NOTE_FS3,NOTE_FS2,NOTE_E2,},
{NOTE_CS4,NOTE_E4,NOTE_A4,},
{NOTE_FS3,NOTE_FS2,NOTE_C2,},
{NOTE_A4,NOTE_CS4,NOTE_A4,},
{NOTE_A1,NOTE_A4,NOTE_E4,},
{NOTE_FS3,NOTE_FS2,NOTE_E2,},
{NOTE_E5,NOTE_E5,},
{NOTE_CS4,NOTE_E4,NOTE_A4,NOTE_E5,},
{NOTE_A4,NOTE_CS4,NOTE_E4,NOTE_A2,},
{NOTE_FS3,NOTE_C2,NOTE_E2,},
{NOTE_E5,NOTE_A2,NOTE_E5,},
{NOTE_E4,},
{NOTE_FS3,NOTE_E2,},
{NOTE_A5,NOTE_CS4,NOTE_A5,},
{NOTE_E4,NOTE_A4,NOTE_A5,},
{NOTE_FS3,NOTE_FS2,NOTE_C2,},
{NOTE_A5,NOTE_A1,NOTE_A4,NOTE_E4,NOTE_CS4,NOTE_A5,},
{NOTE_G5,NOTE_CS4,NOTE_E4,NOTE_G5,},
{NOTE_FS3,NOTE_FS2,NOTE_E2,},
{NOTE_A4,NOTE_G5,},
{NOTE_FS2,NOTE_FS3,NOTE_C2,},
{NOTE_D5,NOTE_B5,NOTE_D5,NOTE_B5,},
{NOTE_G2,NOTE_D4,NOTE_G4,NOTE_B4,},
{NOTE_B4,},
{NOTE_D4,NOTE_G4,NOTE_B4,},
{NOTE_FS3,NOTE_FS2,NOTE_E2,},
{NOTE_D4,NOTE_G4,NOTE_B4,},
{NOTE_C2,NOTE_FS2,NOTE_FS3,},
{NOTE_G4,},
{NOTE_D4,NOTE_G4,NOTE_B4,},
{NOTE_A4,},
{NOTE_FS3,NOTE_FS2,},
{NOTE_E4,},
{NOTE_D4,NOTE_G4,NOTE_B4,},
{NOTE_C2,NOTE_FS2,},
{NOTE_FS4,},
{NOTE_G2,NOTE_G5,},
{NOTE_D4,NOTE_G4,NOTE_B4,},
{NOTE_FS3,NOTE_FS2,NOTE_E2,},
{NOTE_D4,NOTE_G4,NOTE_B4,},
{NOTE_FS2,NOTE_FS3,},
{NOTE_D5,NOTE_D4,NOTE_G4,NOTE_B4,NOTE_D5,NOTE_D6,},
{NOTE_C4,},
{NOTE_G4,},
{NOTE_D6,NOTE_D4,NOTE_G4,NOTE_B4,NOTE_D6,},
{NOTE_FS3,NOTE_FS2,NOTE_E2,NOTE_D4,},
{NOTE_G4,NOTE_B4,},
{NOTE_E5,NOTE_E5,},
{NOTE_FS3,NOTE_FS2,NOTE_C2,},
{NOTE_A2,NOTE_CS4,NOTE_E4,NOTE_A4,},
{NOTE_CS6,NOTE_CS6,},
{NOTE_CS4,NOTE_E4,NOTE_A4,},
{NOTE_E4,},
{NOTE_E2,NOTE_FS3,NOTE_FS2,},
{NOTE_CS4,NOTE_E4,NOTE_A4,},
{NOTE_C2,NOTE_FS3,NOTE_FS2,},
{NOTE_A2,NOTE_CS6,},
{NOTE_CS4,NOTE_E4,NOTE_A4,},
{NOTE_E2,NOTE_FS2,},
{NOTE_FS3,NOTE_FS2,},
{NOTE_B5,NOTE_CS4,NOTE_E4,NOTE_A4,},
{NOTE_C2,NOTE_FS3,NOTE_FS2,},
{NOTE_A2,NOTE_A5,},
{NOTE_CS4,NOTE_E4,NOTE_A4,},
{NOTE_E2,NOTE_FS3,NOTE_FS2,},
{NOTE_B5,NOTE_CS4,NOTE_E4,},
{NOTE_A4,},
{NOTE_C2,NOTE_FS3,NOTE_FS2,},
{NOTE_A4,},
{NOTE_CS4,NOTE_E4,NOTE_A4,},
{NOTE_A4,},
{NOTE_FS3,NOTE_FS2,NOTE_E2,NOTE_A1,},
{NOTE_D5,NOTE_B5,NOTE_CS4,NOTE_E4,NOTE_A4,NOTE_D5,NOTE_B5,},
{NOTE_G5,NOTE_D5,NOTE_B5,},
{NOTE_A1,NOTE_CS4,NOTE_E4,NOTE_A4,NOTE_CS4,NOTE_E4,NOTE_A4,},
{NOTE_CS5,NOTE_A5,NOTE_CS5,NOTE_A5,},
{NOTE_FS3,NOTE_FS2,NOTE_C2,NOTE_E2,},
{NOTE_A4,},
{NOTE_A4,},
{NOTE_B4,},
{NOTE_FS4,},
{NOTE_E4,},
{NOTE_D4,},
{NOTE_D5,NOTE_D5,},
{NOTE_FS2,NOTE_C2,NOTE_FS3,},
{NOTE_D2,NOTE_D4,NOTE_FS4,NOTE_A4,},
{NOTE_D4,NOTE_FS4,NOTE_A4,},
{NOTE_A4,NOTE_A4,},
{NOTE_FS2,NOTE_E2,NOTE_FS3,},
{NOTE_D5,NOTE_D4,NOTE_FS4,NOTE_A4,NOTE_D5,},
{NOTE_FS2,NOTE_C2,NOTE_FS3,},
{NOTE_FS5,NOTE_FS5,},
{NOTE_A4,},
{NOTE_D4,NOTE_FS4,NOTE_A4,},
{NOTE_D5,NOTE_D5,},
{NOTE_FS2,NOTE_E2,NOTE_FS3,},
{NOTE_FS5,NOTE_D4,NOTE_FS4,NOTE_A4,NOTE_FS5,},
{NOTE_FS2,NOTE_C2,NOTE_FS3,},
{NOTE_A5,NOTE_A5,},
{NOTE_D4,},
{NOTE_D4,NOTE_FS4,NOTE_A4,},
{NOTE_FS5,NOTE_FS5,},
{NOTE_FS2,NOTE_E2,NOTE_FS3,},
{NOTE_A5,NOTE_D4,NOTE_FS4,NOTE_A4,NOTE_A5,},
{NOTE_C2,NOTE_E2,NOTE_FS3,},
{NOTE_D6,NOTE_FS3,NOTE_D6,},
{NOTE_A4,},
{NOTE_D4,NOTE_FS4,NOTE_A4,},
{NOTE_E4,},
{NOTE_FS3,NOTE_E2,},
{NOTE_D4,NOTE_FS4,NOTE_A4,},
{NOTE_B3,NOTE_FS3,NOTE_C2,NOTE_D6,},
{NOTE_D4,},
{NOTE_D2,NOTE_A3,NOTE_D4,NOTE_FS4,},
{NOTE_D5,NOTE_D4,NOTE_FS4,NOTE_A4,},
{NOTE_D4,},
{NOTE_FS2,NOTE_FS3,NOTE_E2,NOTE_D6,NOTE_D4,},
{NOTE_FS2,NOTE_FS3,NOTE_C2,NOTE_CS6,},
{NOTE_A4,},
{NOTE_A4,},
{NOTE_CS5,NOTE_D4,NOTE_FS4,NOTE_A4,},
{NOTE_CS4,},
{NOTE_A3,NOTE_D4,},
{NOTE_FS4,},
{NOTE_FS2,NOTE_FS3,NOTE_E2,NOTE_CS6,},
{NOTE_CS4,},
{NOTE_FS2,NOTE_FS3,NOTE_C2,NOTE_B5,},
{NOTE_D2,NOTE_B3,},
{NOTE_D2,NOTE_A3,NOTE_D4,NOTE_FS4,},
{NOTE_B4,NOTE_D4,NOTE_FS4,NOTE_A4,},
{NOTE_FS2,NOTE_FS3,NOTE_E2,},
{NOTE_B5,NOTE_B3,NOTE_A3,},
{NOTE_D4,NOTE_FS4,},
{NOTE_A4,},
{NOTE_FS2,NOTE_FS3,NOTE_C2,NOTE_A5,},
{NOTE_A4,},
{NOTE_A4,NOTE_D4,NOTE_FS4,NOTE_A4,},
{NOTE_A4,},
{NOTE_FS2,NOTE_FS3,NOTE_E2,},
{NOTE_A5,NOTE_A3,},
{NOTE_A3,NOTE_D4,NOTE_FS4,},
{NOTE_FS2,NOTE_FS3,NOTE_C2,NOTE_B5,},
{NOTE_D4,},
{NOTE_D4,},
{NOTE_B4,NOTE_D4,NOTE_FS4,NOTE_A4,},
{NOTE_B4,},
{NOTE_FS2,NOTE_FS3,NOTE_E2,NOTE_B5,NOTE_B3,},
{NOTE_A3,NOTE_D4,},
{NOTE_FS4,},
{NOTE_FS2,NOTE_FS3,NOTE_C2,NOTE_CS6,},
{NOTE_A2,NOTE_CS4,},
{NOTE_A4,},
{NOTE_CS5,NOTE_D4,NOTE_FS4,NOTE_A4,},
{NOTE_FS2,NOTE_FS3,NOTE_E2,NOTE_CS6,NOTE_A3,NOTE_D4,NOTE_FS4,},
{NOTE_CS4,NOTE_D4,},
{NOTE_FS2,NOTE_FS3,NOTE_C2,NOTE_D6,},
{NOTE_D4,},
{NOTE_D2,NOTE_A3,NOTE_D4,},
{NOTE_D4,},
{NOTE_D4,},
{NOTE_FS4,},
{NOTE_D4,NOTE_FS4,NOTE_A4,},
{NOTE_FS2,NOTE_FS3,NOTE_E2,},
{NOTE_FS2,NOTE_FS3,NOTE_C2,},
{NOTE_A4,},
{NOTE_D4,},
{NOTE_D4,NOTE_FS4,NOTE_A4,},
{NOTE_CS4,},
{NOTE_FS2,NOTE_FS3,NOTE_E2,},
{NOTE_D4,},
{NOTE_C2,NOTE_FS3,NOTE_FS2,},
{NOTE_E2,NOTE_E5,},
{NOTE_E4,},
{NOTE_E4,NOTE_GS4,},
{NOTE_E4,NOTE_GS4,NOTE_B4,},
{NOTE_B3,NOTE_E4,NOTE_GS4,},
{NOTE_E2,NOTE_FS3,NOTE_FS2,NOTE_B3,},
{NOTE_GS4,NOTE_B4,},
{NOTE_E4,NOTE_GS4,NOTE_B4,},
{NOTE_C2,NOTE_FS3,NOTE_FS2,},
{NOTE_B4,},
{NOTE_B4,},
{NOTE_GS4,NOTE_B4,},
{NOTE_B3,NOTE_E4,NOTE_GS4,},
{NOTE_E2,NOTE_FS2,},
{NOTE_FS3,NOTE_FS2,},
{NOTE_E4,NOTE_GS4,NOTE_B4,},
{NOTE_E2,NOTE_GS4,NOTE_E5,},
{NOTE_C2,NOTE_FS3,NOTE_FS2,},
{NOTE_E4,},
{NOTE_E4,},
{NOTE_B3,NOTE_E4,NOTE_GS4,},
{NOTE_E2,NOTE_FS3,NOTE_FS2,NOTE_B3,},
{NOTE_GS4,NOTE_B4,},
{NOTE_E4,NOTE_GS4,NOTE_B4,},
{NOTE_C2,NOTE_FS3,NOTE_FS2,},
{NOTE_B4,},
{NOTE_B4,},
{NOTE_GS4,NOTE_B4,},
{NOTE_B3,NOTE_E4,NOTE_GS4,},
{NOTE_E2,NOTE_FS3,NOTE_FS2,NOTE_E4,},
{NOTE_GS4,NOTE_B4,},
{NOTE_E4,},
{NOTE_B3,NOTE_GS4,NOTE_B4,NOTE_E4,NOTE_GS4,NOTE_B4,},
{NOTE_C2,NOTE_FS3,NOTE_FS2,},
{NOTE_E4,},
{NOTE_B3,NOTE_E4,NOTE_GS4,},
{NOTE_E2,NOTE_FS3,NOTE_FS2,},
{NOTE_CS4,NOTE_GS4,NOTE_CS5,NOTE_E4,NOTE_GS4,NOTE_B4,},
{NOTE_C2,NOTE_FS3,NOTE_FS2,},
{NOTE_B4,},
{NOTE_D4,NOTE_GS4,NOTE_D5,},
{NOTE_B3,NOTE_E4,NOTE_GS4,},
{NOTE_E2,NOTE_FS2,},
{NOTE_FS3,NOTE_FS2,},
{NOTE_B3,NOTE_GS4,NOTE_B4,NOTE_B4,},
{NOTE_E4,NOTE_GS4,},
{NOTE_E5,NOTE_A4,NOTE_E5,NOTE_E5,},
{NOTE_FS3,NOTE_FS2,NOTE_C2,},
{NOTE_E4,},
{NOTE_E4,},
{NOTE_CS4,NOTE_E4,NOTE_A4,},
{NOTE_FS5,NOTE_FS5,},
{NOTE_FS3,NOTE_FS2,NOTE_E2,},
{NOTE_E5,NOTE_CS4,NOTE_E4,NOTE_A4,NOTE_E5,},
{NOTE_A2,NOTE_G5,NOTE_G5,},
{NOTE_FS3,NOTE_FS2,NOTE_C2,},
{NOTE_A4,},
{NOTE_CS4,NOTE_E4,NOTE_A4,},
{NOTE_FS5,NOTE_FS5,},
{NOTE_FS3,NOTE_FS2,NOTE_E2,},
{NOTE_E5,NOTE_CS4,NOTE_E4,NOTE_A4,NOTE_E5,},
{NOTE_C2,NOTE_FS3,NOTE_FS2,NOTE_D6,},
{NOTE_D4,},
{NOTE_D2,NOTE_D4,},
{NOTE_D5,NOTE_D4,NOTE_FS4,NOTE_A4,},
{NOTE_D4,},
{NOTE_A3,NOTE_D4,NOTE_FS4,},
{NOTE_E2,NOTE_FS3,NOTE_FS2,NOTE_D6,NOTE_D4,},
{NOTE_C2,NOTE_FS3,NOTE_FS2,NOTE_CS6,NOTE_CS4,},
{NOTE_A2,NOTE_CS4,},
{NOTE_A4,},
{NOTE_CS5,NOTE_D4,NOTE_FS4,NOTE_A4,},
{NOTE_A3,NOTE_D4,NOTE_FS4,},
{NOTE_E2,NOTE_FS2,NOTE_CS6,NOTE_CS4,},
{NOTE_FS3,NOTE_FS2,},
{NOTE_C2,NOTE_FS3,NOTE_FS2,NOTE_B5,},
{NOTE_D4,},
{NOTE_D2,NOTE_A3,NOTE_D4,NOTE_FS4,},
{NOTE_B4,NOTE_D4,NOTE_FS4,NOTE_A4,},
{NOTE_B4,},
{NOTE_E2,NOTE_FS3,NOTE_FS2,NOTE_B5,NOTE_B3,},
{NOTE_A3,NOTE_D4,NOTE_FS4,},
{NOTE_C2,NOTE_FS3,NOTE_FS2,NOTE_A5,},
{NOTE_A2,NOTE_A3,},
{NOTE_A4,},
{NOTE_A4,NOTE_D4,NOTE_FS4,NOTE_A4,},
{NOTE_E2,NOTE_FS3,NOTE_FS2,NOTE_D4,},
{NOTE_D6,NOTE_D4,NOTE_A3,NOTE_D4,NOTE_FS4,},
{NOTE_D4,},
{NOTE_C2,NOTE_FS3,NOTE_FS2,NOTE_FS6,},
{NOTE_D2,NOTE_E4,NOTE_FS4,NOTE_A4,},
{NOTE_FS4,},
{NOTE_FS4,},
{NOTE_E4,NOTE_FS4,NOTE_A4,},
{NOTE_E2,NOTE_FS3,NOTE_FS2,NOTE_FS4,},
{NOTE_FS6,NOTE_FS4,NOTE_E4,NOTE_FS4,},
{NOTE_A4,},
{NOTE_FS4,},
{NOTE_C2,NOTE_FS3,NOTE_FS2,},
{NOTE_FS4,},
{NOTE_FS6,NOTE_FS4,},
{NOTE_E4,NOTE_FS4,NOTE_A4,},
{NOTE_E4,},
{NOTE_E4,},
{NOTE_E2,NOTE_FS2,NOTE_E4,NOTE_FS4,},
{NOTE_FS3,NOTE_FS2,},
{NOTE_FS6,NOTE_FS4,NOTE_A4,},
{NOTE_FS4,},
{NOTE_C2,NOTE_FS3,NOTE_FS2,},
{NOTE_G4,},
{NOTE_G4,},
{NOTE_G4,},
{NOTE_G4,},
{NOTE_G4,NOTE_D4,NOTE_G4,NOTE_B4,},
{NOTE_E4,NOTE_G4,NOTE_B4,},
{NOTE_E2,NOTE_FS3,NOTE_FS2,},
{NOTE_E4,},
{NOTE_G4,NOTE_B4,},
{NOTE_C2,NOTE_FS3,NOTE_FS2,},
{NOTE_B4,},
{NOTE_D4,NOTE_G4,NOTE_B4,},
{NOTE_E2,NOTE_FS3,NOTE_FS2,NOTE_E4,},
{NOTE_D5,NOTE_G4,NOTE_B4,},
{NOTE_C2,NOTE_FS3,NOTE_FS2,},
{NOTE_E2,NOTE_E4,NOTE_G4,NOTE_B4,},
{NOTE_B4,},
{NOTE_B4,},
{NOTE_E4,NOTE_G4,NOTE_B4,},
{NOTE_FS3,NOTE_FS2,NOTE_E2,},
{NOTE_AS3,NOTE_E4,NOTE_B4,},
{NOTE_AS4,NOTE_E4,NOTE_G4,NOTE_B4,},
{NOTE_C2,NOTE_FS3,NOTE_FS2,},
{NOTE_E4,},
{NOTE_E4,},
{NOTE_B4,},
{NOTE_B4,},
{NOTE_E4,NOTE_G4,NOTE_B4,},
{NOTE_E4,},
{NOTE_FS3,NOTE_FS2,},
{NOTE_E2,NOTE_D4,NOTE_E4,NOTE_G4,},
{NOTE_D5,NOTE_G4,NOTE_B4,},
{NOTE_C2,NOTE_FS3,NOTE_FS2,},
{NOTE_A1,NOTE_CS4,NOTE_E4,NOTE_A4,},
{NOTE_CS4,},
{NOTE_CS4,},
{NOTE_CS4,NOTE_E4,NOTE_A4,},
{NOTE_E4,},
{NOTE_FS3,NOTE_FS2,NOTE_E2,},
{NOTE_D4,},
{NOTE_D5,NOTE_CS4,NOTE_E4,NOTE_A4,},
{NOTE_C2,NOTE_FS3,NOTE_FS2,NOTE_E2,},
{NOTE_A4,},
{NOTE_E4,},
{NOTE_E4,},
{NOTE_CS4,NOTE_E4,NOTE_A4,},
{NOTE_FS3,NOTE_FS2,NOTE_E2,},
{NOTE_CS4,NOTE_E4,NOTE_A4,},
{NOTE_FS3,NOTE_FS2,NOTE_C2,},
{NOTE_D4,},
{NOTE_FS4,NOTE_D5,NOTE_FS4,NOTE_D5,},
{NOTE_D2,NOTE_D4,NOTE_FS4,NOTE_A4,},
{NOTE_D4,NOTE_D5,},
{NOTE_D4,NOTE_FS4,NOTE_A4,},
{NOTE_G4,NOTE_E5,NOTE_G4,NOTE_E5,},
{NOTE_FS3,NOTE_FS2,NOTE_E2,},
{NOTE_A4,NOTE_FS5,NOTE_D4,NOTE_FS4,NOTE_A4,NOTE_A4,NOTE_FS5,},
{NOTE_A2,NOTE_C2,},
{NOTE_FS3,NOTE_FS2,NOTE_C2,},
{NOTE_B4,NOTE_G5,NOTE_B4,NOTE_G5,},
{NOTE_A1,NOTE_D4,NOTE_FS4,NOTE_A4,},
};
uint16_t dlaam_notedura[891]={
3,32,3,32,33,4,4,3,3,4,4,3,3,4,4,3,4,3,3,32,4,33,3,4,3,3,4,4,3,3,3,4,4,3,3,20,18,18,4,21,4,3,3,3,4,3,32,3,4,4,3,3,3,4,4,3,3,4,4,3,4,3,33,3,33,4,33,3,4,3,3,4,4,3,3,3,4,4,3,3,20,3,18,15,4,21,4,4,3,3,4,3,12,3,3,3,12,3,3,3,12,3,3,3,3,12,3,3,3,3,12,3,3,3,12,3,3,3,12,3,3,3,12,3,3,3,3,51,3,48,3,3,3,3,3,3,3,3,3,3,3,3,3,3,3,3,3,3,3,3,3,3,3,3,4,3,6,3,6,3,3,3,4,3,3,4,6,27,3,8,48,12,3,3,4,3,8,12,6,3,3,4,3,8,12,6,3,3,4,3,6,8,12,4,3,3,3,3,48,8,12,6,48,3,3,4,3,8,12,6,3,3,3,3,3,6,12,8,3,3,3,9,12,4,3,3,6,24,9,48,12,8,3,3,3,8,12,6,3,3,3,21,8,12,6,3,3,3,8,12,6,3,3,3,21,8,48,12,3,3,9,12,6,3,3,3,3,20,9,8,12,3,6,3,3,8,12,6,3,3,3,3,3,8,48,12,36,4,3,3,4,3,9,12,4,3,3,3,4,12,4,3,3,3,3,4,3,12,3,3,3,3,27,12,48,3,3,6,6,3,3,3,3,12,8,3,3,3,3,3,4,12,8,6,3,3,3,3,4,6,12,8,3,3,3,48,12,3,6,8,6,48,3,3,3,4,12,8,6,3,3,3,3,3,12,6,8,3,3,3,12,6,4,3,21,12,3,48,6,4,3,3,3,12,9,6,3,3,3,21,12,8,3,3,3,12,8,6,3,3,6,24,3,3,8,48,12,3,3,4,3,9,12,6,3,3,3,3,3,8,12,9,4,3,4,3,3,8,12,9,4,3,4,4,3,3,8,48,12,36,3,4,3,8,4,8,12,3,4,3,3,3,4,8,12,3,4,3,3,4,4,8,12,3,4,3,3,3,4,6,72,12,3,9,3,3,3,4,8,12,3,3,3,3,8,12,3,3,3,4,3,3,8,12,6,3,3,6,12,3,3,4,3,6,12,3,3,3,3,8,12,15,3,4,3,3,8,12,3,3,6,4,6,3,3,8,6,3,3,6,4,8,8,4,3,3,3,3,8,4,9,8,3,15,3,3,8,24,6,3,3,3,6,8,3,3,3,8,3,6,3,3,3,3,3,8,3,3,3,3,36,8,4,12,3,3,3,8,12,6,3,3,3,3,3,6,12,3,3,3,12,3,8,12,3,3,40,3,8,42,12,6,3,3,3,6,12,3,3,3,3,6,12,3,3,4,3,6,12,6,3,4,4,4,3,3,8,6,3,18,3,36,4,3,8,12,4,3,3,3,4,8,12,4,3,3,3,4,8,12,4,3,3,3,3,8,12,3,3,3,3,4,6,12,4,3,3,4,8,12,3,6,6,3,3,3,4,6,12,3,3,4,6,3,8,12,3,3,3,3,3,4,8,12,3,3,4,4,3,4,8,12,3,3,3,6,6,24,3,8,12,3,3,8,4,12,3,3,4,3,4,6,3,8,12,3,3,4,3,9,4,6,12,3,3,4,4,3,8,3,12,3,3,4,3,9,4,6,12,3,3,6,8,3,6,12,3,4,3,9,8,12,3,3,4,3,3,3,8,6,12,4,3,3,4,3,9,12,4,3,3,3,4,8,12,3,6,3,3,4,8,12,6,3,3,3,6,6,12,3,3,4,3,4,9,12,3,3,6,3,8,24,3,12,3,3,3,6,3,9,3,12,3,4,3,3,3,4,3,6,9,16,24,12,8,3,3,4,3,9,12,3,3,3,8,3,6,12,3,3,4,3,3,9,4,6,12,3,3,3,3,3,8,3,6,12,3,3,3,4,3,9,8,6,12,3,3,3,3,3,6,18,12,4,3,3,3,3,4,};
uint16_t dlaam_noteos[891]={
0,0,0,0,0,0,4,8,12,12,16,20,24,24,28,32,32,36,36,36,36,36,36,40,44,48,48,52,56,60,60,60,64,68,72,72,72,72,72,72,76,80,84,84,84,96,96,96,96,100,104,108,108,108,112,116,120,120,124,128,128,132,132,132,132,132,132,132,136,140,144,144,148,152,156,156,156,160,164,168,168,168,168,168,168,168,172,176,180,180,180,192,192,196,200,204,204,208,212,216,216,216,220,224,228,228,228,232,236,240,240,244,248,252,252,256,260,264,264,268,272,276,276,276,280,284,288,288,288,288,292,292,296,296,300,300,304,304,308,308,312,312,316,316,320,320,324,324,328,328,332,332,336,336,336,348,348,360,360,368,368,372,372,380,380,384,384,384,384,384,384,384,392,392,396,396,396,396,396,404,404,408,408,408,408,408,416,416,420,420,420,420,420,420,428,428,432,432,432,432,432,432,432,440,440,444,444,444,444,444,452,452,452,456,456,456,456,456,464,464,468,468,468,468,476,480,480,480,480,480,480,480,488,488,492,492,492,492,500,500,504,504,504,504,504,512,512,516,516,516,516,524,524,528,528,528,528,528,536,540,540,540,540,548,548,548,552,552,552,552,552,560,560,560,564,564,564,568,572,572,572,576,576,576,576,576,576,580,584,584,588,588,588,588,592,596,596,600,600,600,604,608,608,608,612,612,612,612,616,620,620,620,624,624,624,624,624,624,624,632,632,636,636,636,636,644,644,644,648,648,648,648,648,648,656,656,656,660,660,660,660,660,668,668,668,672,672,672,672,672,672,672,680,680,684,684,684,684,684,692,692,692,696,696,696,696,696,704,704,708,708,708,708,716,720,720,720,720,720,720,728,728,732,732,732,732,740,740,744,744,744,744,752,752,756,756,756,756,764,764,768,768,768,768,768,768,768,776,776,776,780,780,780,780,788,788,788,792,792,792,792,792,796,800,800,804,804,804,804,804,808,812,812,812,816,816,816,816,816,816,824,824,828,828,828,828,828,836,836,836,836,840,840,840,840,848,848,848,852,852,852,852,852,856,856,860,860,864,864,864,864,864,872,872,872,873,876,876,876,876,884,884,884,888,888,888,888,892,896,896,896,900,900,900,900,908,912,912,912,920,920,920,924,924,924,932,932,932,936,936,936,936,944,944,948,948,948,948,956,960,960,960,960,968,972,972,972,980,984,984,984,984,984,990,992,992,992,996,996,996,996,996,1000,1004,1004,1008,1008,1008,1008,1016,1016,1020,1020,1020,1028,1028,1028,1032,1032,1032,1036,1040,1040,1040,1044,1044,1052,1052,1052,1056,1056,1056,1056,1056,1064,1064,1068,1068,1068,1068,1076,1076,1076,1080,1080,1080,1080,1088,1088,1092,1092,1092,1092,1092,1100,1100,1104,1104,1104,1104,1104,1104,1112,1112,1116,1116,1116,1124,1124,1124,1128,1128,1128,1136,1136,1136,1140,1140,1140,1140,1148,1148,1148,1152,1152,1152,1152,1164,1172,1176,1196,1200,1200,1200,1200,1200,1204,1208,1208,1212,1212,1212,1212,1216,1220,1220,1224,1224,1224,1224,1228,1232,1232,1236,1236,1236,1236,1240,1244,1244,1248,1248,1248,1248,1248,1256,1260,1260,1260,1260,1260,1260,1260,1268,1268,1272,1272,1272,1272,1280,1280,1280,1284,1284,1284,1284,1284,1292,1292,1292,1296,1296,1296,1296,1296,1304,1304,1304,1308,1308,1308,1308,1316,1316,1320,1320,1320,1320,1320,1320,1320,1328,1332,1332,1332,1332,1336,1340,1340,1344,1344,1344,1344,1344,1344,1352,1352,1352,1356,1356,1356,1356,1356,1364,1364,1364,1368,1368,1368,1368,1368,1376,1376,1376,1380,1380,1380,1380,1380,1388,1388,1392,1392,1392,1392,1392,1400,1400,1404,1404,1404,1404,1412,1412,1412,1412,1416,1416,1416,1416,1416,1420,1424,1424,1428,1428,1428,1428,1432,1436,1436,1440,1440,1440,1440,1440,1440,1448,1452,1452,1452,1452,1452,1460,1460,1464,1464,1464,1464,1464,1472,1472,1476,1476,1476,1476,1484,1484,1488,1488,1488,1488,1488,1488,1496,1496,1496,1500,1500,1500,1500,1500,1504,1504,1508,1508,1508,1508,1512,1512,1512,1512,1512,1512,1512,1520,1520,1520,1524,1524,1524,1532,1532,1536,1536,1536,1536,1536,1544,1544,1544,1548,1548,1548,1548,1548,1548,1552,1556,1556,1556,1560,1560,1560,1560,1560,1564,1568,1568,1568,1572,1572,1572,1572,1572,1580,1580,1584,1584,1584,1584,1584,1584,1588,1592,1592,1596,1596,1596,};
uint16_t dlaam_len=891;
