uint16_t pal4_1_note[51][8]={
{NOTE_B4,},
{NOTE_A4,},
{NOTE_B4,},
{NOTE_B4,},
{NOTE_E4,},
{NOTE_A4,},
{NOTE_G4,},
{NOTE_FS4,},
{NOTE_E4,},
{NOTE_FS4,},
{NOTE_E4,},
{NOTE_FS4,},
{NOTE_D4,},
{NOTE_B4,},
{NOTE_B4,},
{NOTE_D4,},
{NOTE_G4,},
{NOTE_B4,},
{NOTE_D4,},
{NOTE_FS4,},
{NOTE_E4,},
{NOTE_D4,},
{NOTE_E4,},
{NOTE_B4,},
{NOTE_A4,},
{NOTE_B4,},
{NOTE_A4,},
{NOTE_B4,},
{NOTE_B4,},
{NOTE_E4,},
{NOTE_A4,},
{NOTE_G4,},
{NOTE_FS4,},
{NOTE_E4,},
{NOTE_FS4,},
{NOTE_E4,},
{NOTE_FS4,},
{NOTE_E4,},
{NOTE_D4,},
{NOTE_B4,},
{NOTE_B4,},
{NOTE_D4,},
{NOTE_G4,},
{NOTE_B4,},
{NOTE_D4,},
{NOTE_A4,},
{NOTE_B4,},
{NOTE_A4,},
{NOTE_D4,},
{NOTE_E4,},
};
uint16_t pal4_1_notedura[51]={
6,6,12,6,6,12,6,6,8,3,3,3,6,8,6,6,8,6,6,8,6,6,15,6,8,6,6,12,6,6,6,6,6,8,3,3,3,3,3,6,6,6,8,6,6,8,3,3,6,};
uint16_t pal4_1_noteos[51]={
0,6,12,24,30,36,48,54,60,69,72,75,78,84,96,102,108,120,126,132,144,150,156,174,180,192,198,204,216,222,228,240,246,252,261,264,268,270,273,276,288,294,300,312,318,324,333,336,340,};
uint16_t pal4_1_len=51;
