uint16_t qby_note[1373][8]={
{NOTE_C5,NOTE_F3,NOTE_F1,NOTE_F6,NOTE_AS6,},
{NOTE_G6,NOTE_G7,NOTE_E4,NOTE_A2,NOTE_D1,},
{NOTE_D5,NOTE_C4,NOTE_G1,NOTE_D6,NOTE_D7,},
{NOTE_C5,NOTE_AS3,NOTE_AS1,NOTE_C6,NOTE_C7,},
{NOTE_F6,NOTE_F7,NOTE_D4,NOTE_G2,NOTE_E1,},
{NOTE_AS4,NOTE_G3,NOTE_G1,NOTE_AS5,NOTE_AS6,},
{NOTE_G4,NOTE_AS3,NOTE_AS1,NOTE_C6,NOTE_C7,},
{NOTE_G6,NOTE_G7,NOTE_E4,NOTE_A2,NOTE_D1,},
{NOTE_F4,NOTE_F3,NOTE_C2,NOTE_AS5,NOTE_AS6,},
{NOTE_AS4,NOTE_AS3,NOTE_AS1,NOTE_G5,NOTE_A6,},
{NOTE_F6,NOTE_F7,NOTE_D4,NOTE_G2,NOTE_E1,},
{NOTE_G4,NOTE_C4,NOTE_C2,NOTE_AS5,NOTE_AS6,},
{NOTE_F4,NOTE_AS3,NOTE_D2,NOTE_C6,NOTE_A6,},
{NOTE_G6,NOTE_G7,NOTE_E4,NOTE_A2,NOTE_D1,},
{NOTE_D4,NOTE_A3,NOTE_AS1,NOTE_AS5,NOTE_D7,},
{NOTE_C4,NOTE_C5,NOTE_C3,NOTE_C2,NOTE_C1,NOTE_C6,NOTE_C7,NOTE_C8,},
{NOTE_CS4,NOTE_CS3,NOTE_CS5,NOTE_CS2,NOTE_CS1,NOTE_CS6,NOTE_CS7,NOTE_CS8,},
{NOTE_D4,NOTE_A3,},
{NOTE_D4,NOTE_A3,},
{NOTE_G3,NOTE_C4,},
{NOTE_A3,NOTE_D4,},
{NOTE_A3,NOTE_D4,},
{NOTE_G3,NOTE_C4,},
{NOTE_F4,},
{NOTE_D4,NOTE_A3,},
{NOTE_D4,NOTE_A3,},
{NOTE_G3,NOTE_C4,},
{NOTE_A3,NOTE_D4,},
{NOTE_G4,NOTE_C4,NOTE_F4,},
{NOTE_A4,},
{NOTE_D4,NOTE_A3,},
{NOTE_D4,NOTE_A3,},
{NOTE_C4,},
{NOTE_D4,NOTE_A3,},
{NOTE_D4,NOTE_A3,},
{NOTE_C4,},
{NOTE_A4,NOTE_D5,NOTE_F4,},
{NOTE_C4,},
{NOTE_A4,},
{NOTE_G4,},
{NOTE_A4,},
{NOTE_G4,},
{NOTE_F4,},
{NOTE_G4,},
{NOTE_G4,},
{NOTE_F4,},
{NOTE_E4,},
{NOTE_A4,},
{NOTE_C4,},
{NOTE_D4,NOTE_G4,NOTE_A3,},
{NOTE_A4,},
{NOTE_D4,},
{NOTE_C4,},
{NOTE_D4,},
{NOTE_C4,NOTE_E4,NOTE_G4,},
{NOTE_A4,},
{NOTE_D4,},
{NOTE_C4,},
{NOTE_D4,},
{NOTE_C4,},
{NOTE_G4,NOTE_D4,NOTE_A3,},
{NOTE_A4,},
{NOTE_D4,},
{NOTE_C4,},
{NOTE_D4,},
{NOTE_C4,},
{NOTE_F4,},
{NOTE_E4,},
{NOTE_F4,},
{NOTE_E4,},
{NOTE_D4,},
{NOTE_C4,},
{NOTE_A3,NOTE_G4,NOTE_D4,},
{NOTE_A4,},
{NOTE_D4,},
{NOTE_C4,},
{NOTE_D4,},
{NOTE_C4,},
{NOTE_C4,NOTE_G4,NOTE_E4,},
{NOTE_A4,},
{NOTE_D4,},
{NOTE_C4,},
{NOTE_D4,},
{NOTE_C4,},
{NOTE_A3,NOTE_C4,NOTE_G4,},
{NOTE_A4,},
{NOTE_C4,},
{NOTE_F4,},
{NOTE_E5,NOTE_AS3,},
{NOTE_F5,NOTE_A3,},
{NOTE_E5,NOTE_AS3,},
{NOTE_D5,NOTE_D4,},
{NOTE_C5,NOTE_C4,},
{NOTE_A4,NOTE_A3,},
{NOTE_A3,NOTE_D4,NOTE_G4,},
{NOTE_A4,},
{NOTE_D4,},
{NOTE_C4,},
{NOTE_D4,},
{NOTE_C4,},
{NOTE_C4,NOTE_E4,NOTE_G4,},
{NOTE_A4,},
{NOTE_D4,},
{NOTE_C4,},
{NOTE_D4,},
{NOTE_C4,},
{NOTE_G4,NOTE_D4,NOTE_A3,},
{NOTE_A4,},
{NOTE_D4,},
{NOTE_C4,},
{NOTE_D4,},
{NOTE_C4,},
{NOTE_F4,},
{NOTE_E4,},
{NOTE_F4,},
{NOTE_E4,},
{NOTE_D4,},
{NOTE_C4,},
{NOTE_D4,NOTE_F4,},
{NOTE_C4,},
{NOTE_D4,},
{NOTE_F4,NOTE_AS4,},
{NOTE_D4,},
{NOTE_G4,},
{NOTE_A4,NOTE_C5,},
{NOTE_G4,},
{NOTE_A4,},
{NOTE_C4,},
{NOTE_F4,},
{NOTE_A4,},
{NOTE_C4,},
{NOTE_A4,NOTE_D5,NOTE_F5,},
{NOTE_E4,},
{NOTE_F4,},
{NOTE_E4,},
{NOTE_D4,},
{NOTE_C5,NOTE_G4,},
{NOTE_D5,NOTE_A4,},
{NOTE_A4,NOTE_D5,},
{NOTE_C5,NOTE_F5,},
{NOTE_G5,NOTE_D5,},
{NOTE_A4,},
{NOTE_D4,},
{NOTE_C4,},
{NOTE_D4,},
{NOTE_C4,},
{NOTE_G5,NOTE_D5,},
{NOTE_A4,},
{NOTE_D4,},
{NOTE_C4,},
{NOTE_D4,},
{NOTE_C4,},
{NOTE_G5,NOTE_D5,},
{NOTE_A4,},
{NOTE_D4,},
{NOTE_C4,},
{NOTE_D4,},
{NOTE_C4,},
{NOTE_F4,},
{NOTE_E4,},
{NOTE_F4,},
{NOTE_E4,},
{NOTE_D4,},
{NOTE_C4,},
{NOTE_G5,NOTE_D5,},
{NOTE_A4,},
{NOTE_D4,},
{NOTE_C4,},
{NOTE_D4,},
{NOTE_C4,},
{NOTE_G5,NOTE_D5,},
{NOTE_A4,},
{NOTE_D4,},
{NOTE_C4,},
{NOTE_D4,},
{NOTE_C4,},
{NOTE_G5,NOTE_D5,},
{NOTE_A4,},
{NOTE_C4,},
{NOTE_F4,},
{NOTE_E6,NOTE_G5,},
{NOTE_F6,NOTE_F5,},
{NOTE_E6,NOTE_G5,},
{NOTE_D6,NOTE_A5,},
{NOTE_C6,NOTE_G5,},
{NOTE_A5,NOTE_F5,},
{NOTE_G5,NOTE_D5,},
{NOTE_A4,},
{NOTE_D4,},
{NOTE_C4,},
{NOTE_D4,},
{NOTE_C4,},
{NOTE_G5,NOTE_D5,},
{NOTE_A4,},
{NOTE_D4,},
{NOTE_C4,},
{NOTE_D4,},
{NOTE_C4,},
{NOTE_G5,NOTE_D5,},
{NOTE_A4,},
{NOTE_D4,},
{NOTE_C4,},
{NOTE_D4,},
{NOTE_C4,},
{NOTE_F4,},
{NOTE_E4,},
{NOTE_F4,},
{NOTE_E4,},
{NOTE_D4,},
{NOTE_C4,},
{NOTE_G5,NOTE_D5,},
{NOTE_F5,NOTE_C5,},
{NOTE_A5,NOTE_E5,},
{NOTE_C6,NOTE_G5,},
{NOTE_D6,NOTE_A5,},
{NOTE_C6,NOTE_G5,},
{NOTE_A5,NOTE_F5,},
{NOTE_G5,NOTE_E5,},
{NOTE_D5,NOTE_A4,},
{NOTE_F5,NOTE_C5,},
{NOTE_G5,NOTE_D5,},
{NOTE_A5,NOTE_F5,},
{NOTE_D5,NOTE_A4,},
{NOTE_D5,NOTE_A4,},
{NOTE_F4,NOTE_A4,NOTE_C5,},
{NOTE_D5,NOTE_F4,NOTE_A4,},
{NOTE_A4,NOTE_F4,},
{NOTE_C5,NOTE_G4,},
{NOTE_D5,NOTE_A4,},
{NOTE_F5,NOTE_C5,},
{NOTE_F4,NOTE_D5,NOTE_G4,},
{NOTE_D5,NOTE_G4,NOTE_F4,},
{NOTE_C4,},
{NOTE_D4,},
{NOTE_F4,},
{NOTE_F4,},
{NOTE_G4,},
{NOTE_F4,NOTE_D5,NOTE_G4,},
{NOTE_D5,NOTE_G4,NOTE_F4,},
{NOTE_C4,},
{NOTE_D5,NOTE_G4,NOTE_E4,},
{NOTE_C4,},
{NOTE_A4,},
{NOTE_C4,},
{NOTE_F4,NOTE_G4,NOTE_D5,},
{NOTE_D5,NOTE_G4,NOTE_F4,},
{NOTE_C4,},
{NOTE_D4,},
{NOTE_F4,},
{NOTE_G4,},
{NOTE_A4,},
{NOTE_A5,NOTE_F5,NOTE_D5,},
{NOTE_G4,},
{NOTE_A4,},
{NOTE_G4,},
{NOTE_F5,NOTE_C5,},
{NOTE_D4,},
{NOTE_F4,NOTE_A4,NOTE_D5,},
{NOTE_D4,},
{NOTE_D5,NOTE_A4,NOTE_F4,},
{NOTE_C4,},
{NOTE_C4,},
{NOTE_D4,},
{NOTE_F4,},
{NOTE_G4,},
{NOTE_F4,NOTE_A4,NOTE_D5,},
{NOTE_D4,},
{NOTE_D5,NOTE_A4,NOTE_F4,},
{NOTE_C4,},
{NOTE_D5,NOTE_A4,NOTE_F4,},
{NOTE_C4,},
{NOTE_C4,},
{NOTE_A4,},
{NOTE_F4,NOTE_A4,NOTE_D5,},
{NOTE_D4,},
{NOTE_D5,NOTE_A4,NOTE_F4,},
{NOTE_C4,},
{NOTE_C5,NOTE_A4,},
{NOTE_D5,NOTE_AS4,},
{NOTE_F5,NOTE_C5,},
{NOTE_G5,NOTE_D5,},
{NOTE_A5,NOTE_F5,NOTE_D5,},
{NOTE_G4,},
{NOTE_E5,NOTE_C5,},
{NOTE_A4,},
{NOTE_G4,},
{NOTE_F5,NOTE_D5,NOTE_AS4,},
{NOTE_D4,},
{NOTE_AS4,NOTE_G4,},
{NOTE_C4,},
{NOTE_F5,NOTE_D5,NOTE_AS4,},
{NOTE_E5,NOTE_D5,NOTE_A4,},
{NOTE_D5,NOTE_G4,NOTE_D4,},
{NOTE_C5,NOTE_F4,NOTE_A4,},
{NOTE_C5,NOTE_A4,},
{NOTE_F4,},
{NOTE_C5,NOTE_A4,},
{NOTE_D5,NOTE_AS4,},
{NOTE_A4,NOTE_F4,},
{NOTE_G4,NOTE_D4,},
{NOTE_F4,NOTE_A4,},
{NOTE_F4,NOTE_A4,},
{NOTE_C4,},
{NOTE_D5,NOTE_A4,NOTE_F4,},
{NOTE_C5,NOTE_E5,NOTE_G5,},
{NOTE_E5,NOTE_C5,NOTE_G4,},
{NOTE_F5,NOTE_D5,NOTE_A4,},
{NOTE_E5,NOTE_F4,},
{NOTE_C4,},
{NOTE_D4,},
{NOTE_G4,},
{NOTE_E4,},
{NOTE_F4,},
{NOTE_G4,},
{NOTE_A4,},
{NOTE_F4,},
{NOTE_G4,},
{NOTE_A4,},
{NOTE_F5,NOTE_D5,NOTE_AS4,},
{NOTE_E5,NOTE_D5,NOTE_A4,},
{NOTE_D5,NOTE_G4,NOTE_D4,},
{NOTE_C5,NOTE_F4,NOTE_A4,},
{NOTE_C4,},
{NOTE_A4,NOTE_F4,},
{NOTE_C4,},
{NOTE_D4,},
{NOTE_A4,},
{NOTE_G4,},
{NOTE_A4,NOTE_F4,},
{NOTE_G4,NOTE_C4,},
{NOTE_C5,NOTE_F4,},
{NOTE_D5,NOTE_B4,NOTE_G4,},
{NOTE_D5,NOTE_B4,NOTE_G4,},
{NOTE_D5,NOTE_B4,NOTE_G4,},
{NOTE_F5,NOTE_D5,NOTE_B4,},
{NOTE_G5,NOTE_D5,NOTE_B4,},
{NOTE_E4,},
{NOTE_CS4,},
{NOTE_A4,},
{NOTE_CS4,},
{NOTE_CS4,},
{NOTE_A4,},
{NOTE_A4,},
{NOTE_CS5,NOTE_A4,},
{NOTE_D5,NOTE_A4,},
{NOTE_F5,NOTE_C5,},
{NOTE_G5,NOTE_D5,NOTE_A4,},
{NOTE_G5,NOTE_D5,NOTE_A4,},
{NOTE_A4,},
{NOTE_A4,},
{NOTE_F5,NOTE_D5,},
{NOTE_F5,NOTE_D5,},
{NOTE_A4,},
{NOTE_C4,},
{NOTE_G5,NOTE_A5,},
{NOTE_D4,},
{NOTE_G4,},
{NOTE_F4,},
{NOTE_A5,NOTE_F5,NOTE_C5,},
{NOTE_D4,},
{NOTE_F4,},
{NOTE_G5,NOTE_D5,NOTE_A4,},
{NOTE_G5,NOTE_D5,NOTE_A4,},
{NOTE_A4,},
{NOTE_A4,},
{NOTE_F5,NOTE_D5,},
{NOTE_F5,NOTE_D5,},
{NOTE_A4,},
{NOTE_AS4,},
{NOTE_F5,NOTE_C5,},
{NOTE_A4,},
{NOTE_G4,},
{NOTE_F4,},
{NOTE_F5,NOTE_C5,NOTE_A4,},
{NOTE_D5,NOTE_A4,},
{NOTE_F5,NOTE_C5,},
{NOTE_G5,NOTE_A4,NOTE_D5,},
{NOTE_G5,NOTE_D5,NOTE_A4,},
{NOTE_A4,},
{NOTE_A4,},
{NOTE_F5,NOTE_D5,},
{NOTE_F5,NOTE_D5,},
{NOTE_A4,},
{NOTE_C4,},
{NOTE_G5,NOTE_F5,},
{NOTE_D4,},
{NOTE_G4,},
{NOTE_F4,},
{NOTE_A5,NOTE_F5,NOTE_C5,},
{NOTE_D4,},
{NOTE_F4,},
{NOTE_AS5,NOTE_F5,NOTE_D5,},
{NOTE_A5,NOTE_E5,NOTE_C5,},
{NOTE_G5,NOTE_D5,NOTE_G4,},
{NOTE_F5,NOTE_C5,NOTE_A4,},
{NOTE_G5,NOTE_D5,},
{NOTE_A4,},
{NOTE_E4,},
{NOTE_C4,},
{NOTE_C4,},
{NOTE_D5,NOTE_F4,NOTE_A4,},
{NOTE_D5,NOTE_A4,},
{NOTE_F5,NOTE_C5,},
{NOTE_A4,NOTE_D5,NOTE_G5,},
{NOTE_G5,NOTE_D5,NOTE_A4,},
{NOTE_A4,},
{NOTE_A4,},
{NOTE_F5,NOTE_D5,},
{NOTE_F5,NOTE_D5,},
{NOTE_A4,},
{NOTE_C4,},
{NOTE_G5,NOTE_F5,},
{NOTE_D4,},
{NOTE_G4,},
{NOTE_F4,},
{NOTE_A5,NOTE_F5,NOTE_C5,},
{NOTE_D4,},
{NOTE_F4,},
{NOTE_G5,NOTE_D5,NOTE_A4,},
{NOTE_G5,NOTE_D5,NOTE_A4,},
{NOTE_A4,},
{NOTE_A4,},
{NOTE_F5,NOTE_D5,},
{NOTE_F5,NOTE_D5,},
{NOTE_A4,},
{NOTE_AS4,},
{NOTE_F5,NOTE_C5,},
{NOTE_A4,},
{NOTE_G4,},
{NOTE_F4,},
{NOTE_F5,NOTE_A4,NOTE_C5,},
{NOTE_D5,NOTE_A4,},
{NOTE_F5,NOTE_C5,},
{NOTE_G5,NOTE_A4,NOTE_D5,},
{NOTE_G5,NOTE_A4,NOTE_D5,},
{NOTE_A4,},
{NOTE_A4,},
{NOTE_F5,NOTE_D5,},
{NOTE_F5,NOTE_D5,},
{NOTE_A4,},
{NOTE_C4,},
{NOTE_G5,NOTE_F5,},
{NOTE_D4,},
{NOTE_G4,},
{NOTE_F4,},
{NOTE_A5,NOTE_F5,NOTE_D5,},
{NOTE_D4,},
{NOTE_F4,},
{NOTE_AS5,NOTE_F5,NOTE_D5,},
{NOTE_A5,NOTE_F5,NOTE_D5,},
{NOTE_G5,NOTE_E5,NOTE_C5,},
{NOTE_F5,NOTE_AS4,NOTE_D5,},
{NOTE_G4,},
{NOTE_D5,NOTE_A4,},
{NOTE_F4,},
{NOTE_G5,NOTE_E5,},
{NOTE_A4,},
{NOTE_C4,},
{NOTE_D6,NOTE_A5,NOTE_F5,NOTE_D5,},
{NOTE_G5,NOTE_D5,},
{NOTE_A4,},
{NOTE_D4,},
{NOTE_C4,},
{NOTE_D4,},
{NOTE_C4,},
{NOTE_G5,NOTE_D5,},
{NOTE_A4,},
{NOTE_D4,},
{NOTE_C4,},
{NOTE_D4,},
{NOTE_C4,},
{NOTE_G5,NOTE_D5,},
{NOTE_A4,},
{NOTE_D4,},
{NOTE_C4,},
{NOTE_D4,},
{NOTE_C4,},
{NOTE_F4,},
{NOTE_E4,},
{NOTE_F4,},
{NOTE_E4,},
{NOTE_D4,},
{NOTE_C4,},
{NOTE_G5,NOTE_D5,},
{NOTE_A4,},
{NOTE_D4,},
{NOTE_C4,},
{NOTE_D4,},
{NOTE_C4,},
{NOTE_G5,NOTE_D5,},
{NOTE_A4,},
{NOTE_D4,},
{NOTE_C4,},
{NOTE_D4,},
{NOTE_C4,},
{NOTE_G5,NOTE_D5,},
{NOTE_A4,},
{NOTE_C4,},
{NOTE_F4,},
{NOTE_E6,NOTE_G5,},
{NOTE_F6,NOTE_F5,},
{NOTE_E6,NOTE_G5,},
{NOTE_D6,NOTE_A5,},
{NOTE_C6,NOTE_G5,},
{NOTE_A5,NOTE_F5,},
{NOTE_G5,NOTE_D5,},
{NOTE_A4,},
{NOTE_D4,},
{NOTE_C4,},
{NOTE_D4,},
{NOTE_C4,},
{NOTE_G5,NOTE_D5,},
{NOTE_A4,},
{NOTE_D4,},
{NOTE_C4,},
{NOTE_D4,},
{NOTE_C4,},
{NOTE_G5,NOTE_D5,},
{NOTE_A4,},
{NOTE_D4,},
{NOTE_C4,},
{NOTE_D4,},
{NOTE_C4,},
{NOTE_F4,},
{NOTE_E4,},
{NOTE_F4,},
{NOTE_E4,},
{NOTE_D4,},
{NOTE_C4,},
{NOTE_G5,NOTE_D5,},
{NOTE_F5,NOTE_C5,},
{NOTE_A5,NOTE_E5,},
{NOTE_C6,NOTE_G5,},
{NOTE_D6,NOTE_A5,},
{NOTE_C6,NOTE_G5,},
{NOTE_A5,NOTE_F5,},
{NOTE_G5,NOTE_E5,},
{NOTE_D5,NOTE_A4,},
{NOTE_F5,NOTE_C5,},
{NOTE_G5,NOTE_D5,},
{NOTE_A5,NOTE_F5,},
{NOTE_D5,NOTE_A4,},
{NOTE_D5,NOTE_A4,},
{NOTE_F4,NOTE_A4,NOTE_C5,},
{NOTE_D5,NOTE_F4,NOTE_A4,},
{NOTE_A4,NOTE_F4,},
{NOTE_C5,NOTE_G4,},
{NOTE_D5,NOTE_A4,},
{NOTE_F5,NOTE_C5,},
{NOTE_F4,NOTE_G4,},
{NOTE_D4,},
{NOTE_D4,},
{NOTE_D5,NOTE_G4,NOTE_F4,},
{NOTE_C4,},
{NOTE_D4,},
{NOTE_F4,},
{NOTE_F4,},
{NOTE_G4,},
{NOTE_F4,NOTE_G4,},
{NOTE_D4,},
{NOTE_D4,},
{NOTE_D5,NOTE_G4,NOTE_F4,},
{NOTE_C4,},
{NOTE_D5,NOTE_G4,NOTE_E4,},
{NOTE_C4,},
{NOTE_A4,},
{NOTE_C4,},
{NOTE_F4,NOTE_G4,NOTE_D5,},
{NOTE_D5,NOTE_G4,NOTE_F4,},
{NOTE_C4,},
{NOTE_D4,},
{NOTE_F4,},
{NOTE_G4,},
{NOTE_A4,},
{NOTE_A5,NOTE_F5,NOTE_D5,},
{NOTE_G4,},
{NOTE_A4,},
{NOTE_G4,},
{NOTE_F5,NOTE_C5,},
{NOTE_D4,},
{NOTE_F4,NOTE_A4,NOTE_D5,},
{NOTE_D4,},
{NOTE_D5,NOTE_A4,NOTE_F4,},
{NOTE_C4,},
{NOTE_C4,},
{NOTE_D4,},
{NOTE_F4,},
{NOTE_G4,},
{NOTE_F4,NOTE_A4,NOTE_D5,},
{NOTE_D5,NOTE_A4,NOTE_F4,},
{NOTE_C4,},
{NOTE_D5,NOTE_A4,NOTE_F4,},
{NOTE_C4,},
{NOTE_C4,},
{NOTE_A4,},
{NOTE_F4,NOTE_A4,NOTE_D5,},
{NOTE_D4,},
{NOTE_D4,},
{NOTE_A4,NOTE_F4,},
{NOTE_C4,},
{NOTE_C5,NOTE_A4,},
{NOTE_D5,NOTE_AS4,},
{NOTE_F5,NOTE_C5,},
{NOTE_G5,NOTE_D5,},
{NOTE_A5,NOTE_F5,NOTE_D5,},
{NOTE_G4,},
{NOTE_E5,NOTE_C5,},
{NOTE_A4,},
{NOTE_G4,},
{NOTE_F5,NOTE_D5,NOTE_AS4,},
{NOTE_D4,},
{NOTE_AS4,NOTE_G4,},
{NOTE_C4,},
{NOTE_F5,NOTE_D5,NOTE_AS4,},
{NOTE_E5,NOTE_D5,NOTE_A4,},
{NOTE_D5,NOTE_G4,NOTE_D4,},
{NOTE_C5,NOTE_F4,NOTE_A4,},
{NOTE_C5,NOTE_A4,},
{NOTE_F4,},
{NOTE_C5,NOTE_A4,},
{NOTE_D5,NOTE_AS4,},
{NOTE_A4,NOTE_F4,},
{NOTE_G4,NOTE_D4,},
{NOTE_F4,NOTE_A4,},
{NOTE_F4,NOTE_A4,},
{NOTE_C4,},
{NOTE_D5,NOTE_A4,NOTE_F4,},
{NOTE_C5,NOTE_E5,NOTE_G5,},
{NOTE_E5,NOTE_C5,NOTE_G4,},
{NOTE_F5,NOTE_D5,NOTE_A4,},
{NOTE_E5,NOTE_F4,},
{NOTE_C4,},
{NOTE_D4,},
{NOTE_G4,},
{NOTE_E4,},
{NOTE_F4,},
{NOTE_G4,},
{NOTE_A4,},
{NOTE_F4,},
{NOTE_G4,},
{NOTE_A4,},
{NOTE_F5,NOTE_D5,NOTE_AS4,},
{NOTE_E5,NOTE_D5,NOTE_A4,},
{NOTE_D5,NOTE_G4,NOTE_D4,},
{NOTE_C5,NOTE_F4,NOTE_A4,},
{NOTE_C4,},
{NOTE_A4,NOTE_F4,},
{NOTE_C4,},
{NOTE_D4,},
{NOTE_A4,},
{NOTE_G4,},
{NOTE_A4,NOTE_F4,},
{NOTE_G4,NOTE_C4,},
{NOTE_C5,NOTE_F4,},
{NOTE_D5,NOTE_B4,NOTE_G4,},
{NOTE_D5,NOTE_B4,NOTE_G4,},
{NOTE_D5,NOTE_B4,NOTE_G4,},
{NOTE_F5,NOTE_D5,NOTE_B4,},
{NOTE_G5,NOTE_D5,NOTE_B4,},
{NOTE_E4,},
{NOTE_CS4,},
{NOTE_A4,},
{NOTE_CS4,},
{NOTE_CS4,},
{NOTE_A4,},
{NOTE_A4,},
{NOTE_CS5,NOTE_A4,},
{NOTE_D5,NOTE_A4,},
{NOTE_F5,NOTE_C5,},
{NOTE_G5,NOTE_D5,NOTE_A4,},
{NOTE_G5,NOTE_D5,NOTE_A4,},
{NOTE_A4,},
{NOTE_A4,},
{NOTE_F5,NOTE_D5,},
{NOTE_F5,NOTE_D5,},
{NOTE_A4,},
{NOTE_C4,},
{NOTE_G5,NOTE_A5,},
{NOTE_D4,},
{NOTE_G4,},
{NOTE_F4,},
{NOTE_A5,NOTE_F5,NOTE_C5,},
{NOTE_D4,},
{NOTE_F4,},
{NOTE_G5,NOTE_D5,NOTE_A4,},
{NOTE_G5,NOTE_D5,NOTE_A4,},
{NOTE_A4,},
{NOTE_A4,},
{NOTE_F5,NOTE_D5,},
{NOTE_F5,NOTE_D5,},
{NOTE_A4,},
{NOTE_AS4,},
{NOTE_F5,NOTE_C5,},
{NOTE_A4,},
{NOTE_G4,},
{NOTE_F4,},
{NOTE_F5,NOTE_C5,NOTE_A4,},
{NOTE_D5,NOTE_A4,},
{NOTE_F5,NOTE_C5,},
{NOTE_G5,NOTE_A4,NOTE_D5,},
{NOTE_G5,NOTE_D5,NOTE_A4,},
{NOTE_A4,},
{NOTE_A4,},
{NOTE_F5,NOTE_D5,},
{NOTE_F5,NOTE_D5,},
{NOTE_A4,},
{NOTE_C4,},
{NOTE_G5,NOTE_F5,},
{NOTE_D4,},
{NOTE_G4,},
{NOTE_F4,},
{NOTE_A5,NOTE_F5,NOTE_C5,},
{NOTE_D4,},
{NOTE_F4,},
{NOTE_AS5,NOTE_F5,NOTE_D5,},
{NOTE_A5,NOTE_E5,NOTE_C5,},
{NOTE_G5,NOTE_D5,NOTE_G4,},
{NOTE_F5,NOTE_C5,NOTE_A4,},
{NOTE_G5,NOTE_D5,},
{NOTE_A4,},
{NOTE_E4,},
{NOTE_C4,},
{NOTE_C4,},
{NOTE_D5,NOTE_F4,NOTE_A4,},
{NOTE_D5,NOTE_A4,},
{NOTE_F5,NOTE_C5,},
{NOTE_A4,NOTE_D5,NOTE_G5,},
{NOTE_G5,NOTE_D5,NOTE_A4,},
{NOTE_A4,},
{NOTE_A4,},
{NOTE_F5,NOTE_D5,},
{NOTE_F5,NOTE_D5,},
{NOTE_A4,},
{NOTE_C4,},
{NOTE_G5,NOTE_F5,},
{NOTE_D4,},
{NOTE_G4,},
{NOTE_F4,},
{NOTE_A5,NOTE_F5,NOTE_C5,},
{NOTE_D4,},
{NOTE_F4,},
{NOTE_G5,NOTE_D5,NOTE_A4,},
{NOTE_G5,NOTE_D5,NOTE_A4,},
{NOTE_A4,},
{NOTE_A4,},
{NOTE_F5,NOTE_D5,},
{NOTE_F5,NOTE_D5,},
{NOTE_A4,},
{NOTE_AS4,},
{NOTE_F5,NOTE_C5,},
{NOTE_A4,},
{NOTE_G4,},
{NOTE_F4,},
{NOTE_F5,NOTE_A4,NOTE_C5,},
{NOTE_D5,NOTE_A4,},
{NOTE_F5,NOTE_C5,},
{NOTE_G5,NOTE_A4,NOTE_D5,},
{NOTE_G5,NOTE_A4,NOTE_D5,},
{NOTE_A4,},
{NOTE_A4,},
{NOTE_F5,NOTE_D5,},
{NOTE_F5,NOTE_D5,},
{NOTE_A4,},
{NOTE_C4,},
{NOTE_G5,NOTE_F5,},
{NOTE_D4,},
{NOTE_G4,},
{NOTE_F4,},
{NOTE_A5,NOTE_F5,NOTE_D5,},
{NOTE_D4,},
{NOTE_F4,},
{NOTE_AS5,NOTE_F5,NOTE_D5,},
{NOTE_A5,NOTE_F5,NOTE_D5,},
{NOTE_G5,NOTE_E5,NOTE_C5,},
{NOTE_F5,NOTE_AS4,NOTE_D5,},
{NOTE_G5,NOTE_D5,NOTE_A4,},
{NOTE_F4,},
{NOTE_G5,NOTE_A5,NOTE_E5,},
{NOTE_C4,},
{NOTE_D6,NOTE_A5,NOTE_F5,},
{NOTE_C4,},
{NOTE_D4,},
{NOTE_D6,NOTE_A5,},
{NOTE_D6,NOTE_A5,},
{NOTE_D6,NOTE_A5,},
{NOTE_D6,NOTE_A5,},
{NOTE_D6,NOTE_A5,},
{NOTE_D6,NOTE_A5,},
{NOTE_C4,},
{NOTE_A4,},
{NOTE_F4,},
{NOTE_G5,NOTE_D5,},
{NOTE_G5,NOTE_D5,},
{NOTE_G5,NOTE_D5,},
{NOTE_G5,NOTE_D5,},
{NOTE_G5,NOTE_D5,},
{NOTE_G5,NOTE_D5,},
{NOTE_G5,NOTE_D5,},
{NOTE_F4,},
{NOTE_D4,},
{NOTE_D5,NOTE_A4,},
{NOTE_D5,NOTE_A4,},
{NOTE_C4,},
{NOTE_A4,NOTE_D5,},
{NOTE_D5,NOTE_A4,},
{NOTE_A4,NOTE_D5,},
{NOTE_A4,NOTE_D5,},
{NOTE_A4,NOTE_D5,},
{NOTE_C4,},
{NOTE_A4,},
{NOTE_G4,},
{NOTE_A4,},
{NOTE_G4,},
{NOTE_A4,},
{NOTE_C4,},
{NOTE_CS4,},
{NOTE_D4,},
{NOTE_E4,},
{NOTE_F4,},
{NOTE_A4,},
{NOTE_D4,},
{NOTE_F4,},
{NOTE_E4,},
{NOTE_D4,},
{NOTE_A4,},
{NOTE_F4,},
{NOTE_D4,},
{NOTE_A4,},
{NOTE_A4,},
{NOTE_F4,},
{NOTE_D4,},
{NOTE_A4,},
{NOTE_F4,},
{NOTE_D4,},
{NOTE_A4,},
{NOTE_A4,},
{NOTE_F4,},
{NOTE_D4,},
{NOTE_AS4,},
{NOTE_G4,},
{NOTE_DS4,},
{NOTE_AS4,},
{NOTE_AS4,},
{NOTE_G4,},
{NOTE_DS4,},
{NOTE_AS4,},
{NOTE_G4,},
{NOTE_DS4,},
{NOTE_AS4,},
{NOTE_AS4,},
{NOTE_G4,},
{NOTE_DS4,},
{NOTE_AS4,},
{NOTE_F4,},
{NOTE_D4,},
{NOTE_AS4,},
{NOTE_AS4,},
{NOTE_F4,},
{NOTE_D4,},
{NOTE_AS4,},
{NOTE_F4,},
{NOTE_D4,},
{NOTE_AS4,},
{NOTE_AS4,},
{NOTE_F4,},
{NOTE_D4,},
{NOTE_G4,},
{NOTE_E4,},
{NOTE_C4,},
{NOTE_G4,},
{NOTE_G4,},
{NOTE_E4,},
{NOTE_C4,},
{NOTE_A4,},
{NOTE_E4,},
{NOTE_CS4,},
{NOTE_A4,},
{NOTE_A4,},
{NOTE_E4,},
{NOTE_CS4,},
{NOTE_E4,},
{NOTE_A4,},
{NOTE_F4,},
{NOTE_D4,},
{NOTE_A4,},
{NOTE_D4,},
{NOTE_A4,},
{NOTE_F4,},
{NOTE_D4,},
{NOTE_G4,},
{NOTE_F4,},
{NOTE_D4,},
{NOTE_A4,},
{NOTE_F4,},
{NOTE_E4,},
{NOTE_D4,},
{NOTE_A4,},
{NOTE_AS4,},
{NOTE_G4,},
{NOTE_DS4,},
{NOTE_AS4,},
{NOTE_DS4,},
{NOTE_AS4,},
{NOTE_G4,},
{NOTE_DS4,},
{NOTE_AS4,},
{NOTE_G4,},
{NOTE_DS4,},
{NOTE_AS4,},
{NOTE_G4,},
{NOTE_F4,},
{NOTE_DS4,},
{NOTE_G4,},
{NOTE_D4,},
{NOTE_AS4,},
{NOTE_F4,},
{NOTE_AS4,},
{NOTE_F4,},
{NOTE_AS4,},
{NOTE_D4,},
{NOTE_F4,},
{NOTE_AS4,},
{NOTE_F4,},
{NOTE_D4,},
{NOTE_AS4,},
{NOTE_AS4,},
{NOTE_G4,},
{NOTE_F4,},
{NOTE_D4,},
{NOTE_C4,},
{NOTE_DS4,},
{NOTE_C4,},
{NOTE_C4,},
{NOTE_CS4,},
{NOTE_E4,},
{NOTE_G4,},
{NOTE_A4,},
{NOTE_CS4,},
{NOTE_E4,},
{NOTE_CS4,},
{NOTE_A4,},
{NOTE_G4,},
{NOTE_A4,},
{NOTE_G4,},
{NOTE_A4,},
{NOTE_F4,},
{NOTE_A4,},
{NOTE_D4,},
{NOTE_A4,},
{NOTE_F4,},
{NOTE_A4,},
{NOTE_G4,},
{NOTE_F4,},
{NOTE_E4,},
{NOTE_D4,},
{NOTE_C4,},
{NOTE_D4,},
{NOTE_A4,},
{NOTE_G4,},
{NOTE_A4,},
{NOTE_G4,},
{NOTE_A4,},
{NOTE_F4,},
{NOTE_A4,},
{NOTE_E4,},
{NOTE_A4,},
{NOTE_G4,},
{NOTE_A4,},
{NOTE_D4,},
{NOTE_D4,},
{NOTE_A4,},
{NOTE_E4,},
{NOTE_A4,},
{NOTE_F4,},
{NOTE_A4,},
{NOTE_A4,},
{NOTE_A4,},
{NOTE_E4,NOTE_G4,},
{NOTE_E4,},
{NOTE_F4,},
{NOTE_E4,},
{NOTE_D4,},
{NOTE_F4,},
{NOTE_F4,NOTE_A4,},
{NOTE_F4,},
{NOTE_G4,},
{NOTE_AS4,},
{NOTE_C4,},
{NOTE_A4,NOTE_F4,},
{NOTE_F4,NOTE_D4,},
{NOTE_C4,},
{NOTE_G4,NOTE_E4,},
{NOTE_F4,},
{NOTE_C5,NOTE_A4,},
{NOTE_G4,},
{NOTE_D5,NOTE_F5,},
{NOTE_C4,},
{NOTE_G5,NOTE_D5,NOTE_A4,},
{NOTE_F4,},
{NOTE_G5,NOTE_D5,NOTE_A4,},
{NOTE_F4,},
{NOTE_C4,},
{NOTE_A5,NOTE_F5,NOTE_D5,},
{NOTE_F5,NOTE_D5,},
{NOTE_D4,},
{NOTE_AS4,},
{NOTE_F4,},
{NOTE_AS4,},
{NOTE_D4,},
{NOTE_F4,},
{NOTE_G4,},
{NOTE_E4,},
{NOTE_C4,},
{NOTE_G4,},
{NOTE_C4,},
{NOTE_E4,},
{NOTE_G4,},
{NOTE_A5,NOTE_F5,NOTE_D5,},
{NOTE_A5,NOTE_F5,NOTE_D5,},
{NOTE_A5,NOTE_F5,NOTE_D5,},
{NOTE_A5,NOTE_F5,NOTE_D5,},
{NOTE_A5,NOTE_F5,NOTE_D5,},
{NOTE_A5,NOTE_F5,NOTE_D5,},
{NOTE_A5,NOTE_F5,NOTE_D5,},
{NOTE_A5,NOTE_F5,NOTE_D5,},
{NOTE_A5,NOTE_F5,NOTE_D5,},
{NOTE_A5,NOTE_F5,NOTE_D5,},
{NOTE_A5,NOTE_F5,NOTE_D5,},
{NOTE_A5,NOTE_F5,NOTE_D5,},
{NOTE_A5,NOTE_F5,NOTE_D5,},
{NOTE_A5,NOTE_F5,NOTE_D5,},
{NOTE_A5,NOTE_F5,NOTE_D5,},
{NOTE_F5,NOTE_D5,NOTE_AS4,},
{NOTE_E5,NOTE_D5,NOTE_A4,},
{NOTE_D5,NOTE_G4,NOTE_D4,},
{NOTE_C5,NOTE_F4,NOTE_A4,},
{NOTE_C5,NOTE_A4,},
{NOTE_F4,},
{NOTE_C5,NOTE_A4,},
{NOTE_D5,NOTE_AS4,},
{NOTE_A4,NOTE_F4,},
{NOTE_G4,NOTE_D4,},
{NOTE_F4,NOTE_A4,},
{NOTE_F4,NOTE_A4,},
{NOTE_C4,},
{NOTE_D5,NOTE_A4,NOTE_F4,},
{NOTE_C5,NOTE_E5,NOTE_G5,},
{NOTE_E5,NOTE_C5,NOTE_G4,},
{NOTE_F5,NOTE_D5,NOTE_A4,},
{NOTE_E5,NOTE_F4,},
{NOTE_C4,},
{NOTE_D4,},
{NOTE_G4,},
{NOTE_E4,},
{NOTE_F4,},
{NOTE_G4,},
{NOTE_A4,},
{NOTE_F4,},
{NOTE_G4,},
{NOTE_A4,},
{NOTE_F5,NOTE_D5,NOTE_AS4,},
{NOTE_E5,NOTE_D5,NOTE_A4,},
{NOTE_D5,NOTE_G4,NOTE_D4,},
{NOTE_C5,NOTE_F4,NOTE_A4,},
{NOTE_C4,},
{NOTE_A4,NOTE_F4,},
{NOTE_C4,},
{NOTE_D4,},
{NOTE_A4,},
{NOTE_G4,},
{NOTE_A4,NOTE_F4,},
{NOTE_G4,NOTE_C4,},
{NOTE_C5,NOTE_F4,},
{NOTE_D5,NOTE_B4,NOTE_G4,},
{NOTE_D5,NOTE_B4,NOTE_G4,},
{NOTE_D5,NOTE_B4,NOTE_G4,},
{NOTE_F5,NOTE_D5,NOTE_B4,},
{NOTE_G5,NOTE_D5,NOTE_B4,},
{NOTE_CS5,NOTE_A4,},
{NOTE_E4,},
{NOTE_CS5,NOTE_A4,},
{NOTE_CS5,NOTE_A4,},
{NOTE_CS5,NOTE_A4,},
{NOTE_D4,},
{NOTE_F4,},
{NOTE_G4,},
{NOTE_G4,},
{NOTE_A4,},
{NOTE_A4,},
{NOTE_A4,},
{NOTE_C4,},
{NOTE_D4,},
{NOTE_G4,},
{NOTE_F4,},
{NOTE_A4,},
{NOTE_D4,},
{NOTE_F4,},
{NOTE_G4,},
{NOTE_G4,},
{NOTE_A4,},
{NOTE_A4,},
{NOTE_A4,},
{NOTE_AS4,},
{NOTE_A4,},
{NOTE_G4,},
{NOTE_F4,},
{NOTE_F4,},
{NOTE_D4,},
{NOTE_F4,},
{NOTE_G4,},
{NOTE_D5,NOTE_A4,},
{NOTE_G4,},
{NOTE_A4,},
{NOTE_A4,},
{NOTE_D5,NOTE_A4,},
{NOTE_A4,},
{NOTE_C4,},
{NOTE_G5,NOTE_F5,},
{NOTE_D4,},
{NOTE_G4,},
{NOTE_F4,},
{NOTE_A5,NOTE_F5,NOTE_C5,},
{NOTE_D4,},
{NOTE_F4,},
{NOTE_AS5,NOTE_F5,NOTE_D5,},
{NOTE_A5,NOTE_F5,NOTE_D5,},
{NOTE_G5,NOTE_E5,NOTE_C5,},
{NOTE_F5,NOTE_C5,NOTE_A4,},
{NOTE_G5,NOTE_D5,NOTE_F5,},
{NOTE_A4,},
{NOTE_G5,NOTE_E5,NOTE_C5,},
{NOTE_A4,},
{NOTE_A4,},
{NOTE_D5,NOTE_F5,},
{NOTE_E5,NOTE_B4,},
{NOTE_G5,NOTE_D5,},
{NOTE_A5,NOTE_E5,NOTE_B4,},
{NOTE_A5,NOTE_E5,NOTE_B4,},
{NOTE_B4,},
{NOTE_G5,NOTE_E5,},
{NOTE_B4,},
{NOTE_G5,NOTE_E5,},
{NOTE_B4,},
{NOTE_D6,NOTE_A5,NOTE_G5,},
{NOTE_E4,},
{NOTE_FS5,NOTE_A5,},
{NOTE_G4,},
{NOTE_B5,NOTE_G5,NOTE_D5,},
{NOTE_E4,},
{NOTE_G4,},
{NOTE_A5,NOTE_E5,NOTE_B4,},
{NOTE_B4,NOTE_E5,NOTE_A5,},
{NOTE_B4,},
{NOTE_B4,},
{NOTE_G5,NOTE_E5,},
{NOTE_G5,NOTE_E5,},
{NOTE_B4,},
{NOTE_C4,},
{NOTE_G5,NOTE_D5,},
{NOTE_B4,},
{NOTE_A4,},
{NOTE_G4,},
{NOTE_D5,NOTE_G5,NOTE_B4,},
{NOTE_E5,NOTE_B4,},
{NOTE_D5,NOTE_G5,},
{NOTE_A5,NOTE_E5,NOTE_B4,},
{NOTE_A5,NOTE_E5,NOTE_B4,},
{NOTE_B4,},
{NOTE_B4,},
{NOTE_G5,NOTE_E5,},
{NOTE_G5,NOTE_E5,},
{NOTE_B4,},
{NOTE_D6,NOTE_A5,NOTE_G5,},
{NOTE_E4,},
{NOTE_A5,NOTE_D5,NOTE_FS5,},
{NOTE_G4,},
{NOTE_B5,NOTE_G5,NOTE_D5,},
{NOTE_E4,},
{NOTE_G4,},
{NOTE_C6,NOTE_G5,NOTE_E5,},
{NOTE_B5,NOTE_G5,NOTE_E5,},
{NOTE_A5,NOTE_D5,NOTE_FS5,},
{NOTE_G5,NOTE_D5,},
{NOTE_A5,NOTE_E5,NOTE_B4,},
{NOTE_G4,},
{NOTE_B5,NOTE_A5,NOTE_FS5,},
{NOTE_D4,},
{NOTE_E6,NOTE_B5,NOTE_G5,},
{NOTE_B3,NOTE_E4,NOTE_A4,},
{NOTE_B4,},
{NOTE_E4,},
{NOTE_D4,},
{NOTE_E4,},
{NOTE_D4,},
{NOTE_E4,NOTE_B3,NOTE_A4,},
{NOTE_B4,},
{NOTE_E4,},
{NOTE_D4,},
{NOTE_E4,},
{NOTE_D4,},
{NOTE_B3,NOTE_E4,NOTE_A4,},
{NOTE_B4,},
{NOTE_E4,},
{NOTE_D4,},
{NOTE_E4,},
{NOTE_D4,},
{NOTE_G4,},
{NOTE_FS4,},
{NOTE_G4,},
{NOTE_FS4,},
{NOTE_E4,},
{NOTE_D4,},
{NOTE_B3,NOTE_E4,NOTE_A4,},
{NOTE_B4,},
{NOTE_E4,},
{NOTE_D4,},
{NOTE_E4,},
{NOTE_D4,},
{NOTE_E4,NOTE_B3,NOTE_A4,},
{NOTE_B4,},
{NOTE_E4,},
{NOTE_D4,},
{NOTE_E4,},
{NOTE_D4,},
{NOTE_B3,NOTE_D4,NOTE_A4,},
{NOTE_B4,},
{NOTE_D4,},
{NOTE_G4,},
{NOTE_FS5,NOTE_C4,},
{NOTE_G5,NOTE_B3,},
{NOTE_FS5,NOTE_C4,},
{NOTE_E5,NOTE_E4,},
{NOTE_D5,NOTE_D4,},
{NOTE_B4,NOTE_B3,},
{NOTE_B3,NOTE_E4,NOTE_A4,},
{NOTE_B4,},
{NOTE_E4,},
{NOTE_D4,},
{NOTE_E4,},
{NOTE_D4,},
{NOTE_D4,NOTE_FS4,NOTE_A4,},
{NOTE_B4,},
{NOTE_E4,},
{NOTE_D4,},
{NOTE_E4,},
{NOTE_D4,},
{NOTE_A4,NOTE_E4,NOTE_B3,},
{NOTE_B4,},
{NOTE_E4,},
{NOTE_D4,},
{NOTE_E4,},
{NOTE_D4,},
{NOTE_G4,},
{NOTE_FS4,},
{NOTE_G4,},
{NOTE_FS4,},
{NOTE_E4,},
{NOTE_D4,},
{NOTE_E4,NOTE_G4,},
{NOTE_D4,},
{NOTE_E4,},
{NOTE_G4,NOTE_C5,},
{NOTE_E4,},
{NOTE_A4,},
{NOTE_B4,NOTE_D5,},
{NOTE_A4,},
{NOTE_B4,},
{NOTE_D4,},
{NOTE_G4,},
{NOTE_B4,},
{NOTE_D4,},
{NOTE_B4,NOTE_E5,NOTE_G5,},
{NOTE_FS4,},
{NOTE_G4,},
{NOTE_FS4,},
{NOTE_E4,},
{NOTE_D5,NOTE_A4,},
{NOTE_E5,NOTE_B4,},
{NOTE_B4,NOTE_E5,},
{NOTE_D5,NOTE_G5,},
{NOTE_A5,NOTE_E5,},
{NOTE_B4,},
{NOTE_E4,},
{NOTE_D4,},
{NOTE_E4,},
{NOTE_D4,},
{NOTE_A5,NOTE_E5,},
{NOTE_B4,},
{NOTE_E4,},
{NOTE_D4,},
{NOTE_E4,},
{NOTE_D4,},
{NOTE_A5,NOTE_E5,},
{NOTE_B4,},
{NOTE_E4,},
{NOTE_D4,},
{NOTE_E4,},
{NOTE_D4,},
{NOTE_G4,},
{NOTE_FS4,},
{NOTE_G4,},
{NOTE_FS4,},
{NOTE_E4,},
{NOTE_D4,},
{NOTE_A5,NOTE_E5,},
{NOTE_B4,},
{NOTE_E4,},
{NOTE_D4,},
{NOTE_E4,},
{NOTE_D4,},
{NOTE_A5,NOTE_E5,},
{NOTE_B4,},
{NOTE_E4,},
{NOTE_D4,},
{NOTE_E4,},
{NOTE_D4,},
{NOTE_A5,NOTE_E5,},
{NOTE_B4,},
{NOTE_D4,},
{NOTE_G4,},
{NOTE_FS6,NOTE_A5,},
{NOTE_G6,NOTE_G5,},
{NOTE_FS6,NOTE_A5,},
{NOTE_E6,NOTE_B5,},
{NOTE_D6,NOTE_A5,},
{NOTE_B5,NOTE_G5,},
{NOTE_A5,NOTE_E5,},
{NOTE_B4,},
{NOTE_E4,},
{NOTE_D4,},
{NOTE_E4,},
{NOTE_D4,},
{NOTE_A5,NOTE_E5,},
{NOTE_B4,},
{NOTE_E4,},
{NOTE_D4,},
{NOTE_E4,},
{NOTE_D4,},
{NOTE_A5,NOTE_E5,},
{NOTE_B4,},
{NOTE_E4,},
{NOTE_D4,},
{NOTE_E4,},
{NOTE_D4,},
{NOTE_G4,},
{NOTE_FS4,},
{NOTE_G4,},
{NOTE_FS4,},
{NOTE_E4,},
{NOTE_D4,},
{NOTE_A5,NOTE_E5,},
{NOTE_G4,},
{NOTE_B4,},
{NOTE_D4,},
{NOTE_E4,},
{NOTE_D4,},
{NOTE_B4,},
{NOTE_A4,},
{NOTE_E4,},
{NOTE_G5,NOTE_E5,},
{NOTE_A5,NOTE_D5,},
{NOTE_B5,NOTE_E5,},
{NOTE_E5,NOTE_B4,},
{NOTE_E5,NOTE_B4,},
{NOTE_D5,NOTE_B4,NOTE_G4,},
{NOTE_E5,NOTE_B4,},
{NOTE_D4,},
{NOTE_DS4,},
{NOTE_E5,NOTE_B4,},
{NOTE_E5,NOTE_B4,},
{NOTE_D4,},
{NOTE_DS4,},
};
uint16_t qby_notedura[1373]={
3,6,3,3,6,3,3,6,3,3,6,3,3,6,3,3,3,9,9,6,9,9,6,36,9,9,6,12,12,48,9,9,6,9,9,6,6,3,3,3,3,3,3,6,12,6,6,12,6,12,6,3,3,6,12,6,3,3,3,3,12,6,3,3,3,3,6,3,3,3,6,6,12,6,3,3,3,3,12,6,3,3,3,3,12,6,3,6,3,3,3,3,6,6,12,6,3,3,3,3,12,6,3,3,3,3,12,6,3,3,3,3,6,3,3,3,6,6,6,3,3,6,3,3,6,3,3,3,3,3,3,6,3,3,3,6,6,12,6,6,12,6,3,3,3,3,12,6,3,3,3,3,12,6,3,3,3,3,6,3,3,3,6,6,12,6,3,3,3,3,12,6,3,3,3,3,12,6,6,6,3,3,3,3,6,6,12,6,3,3,3,3,12,6,3,3,3,3,12,6,3,3,3,3,6,3,3,3,6,6,3,3,3,3,3,3,3,3,6,6,6,6,9,9,6,12,3,3,3,3,12,9,3,6,6,6,6,12,9,3,6,6,6,6,12,9,3,6,6,6,6,12,6,3,3,12,12,9,3,9,3,6,6,6,6,9,3,9,3,6,6,6,6,9,3,6,6,6,6,6,6,12,6,12,3,3,12,6,12,6,12,12,12,12,6,12,3,3,6,6,24,6,6,12,12,12,12,6,6,24,9,3,3,3,9,3,3,3,12,12,12,12,6,12,3,3,6,6,12,6,6,6,6,6,12,12,36,6,12,6,12,6,6,12,6,6,9,9,6,18,12,6,6,6,12,6,6,6,12,6,6,9,9,6,18,12,6,6,6,12,6,6,6,12,6,6,9,9,6,18,12,6,6,6,12,6,6,6,12,6,6,12,12,12,12,12,6,12,6,6,12,6,6,9,9,6,18,12,6,6,6,12,6,6,6,12,6,6,9,9,6,18,12,6,6,6,12,6,6,6,12,6,6,9,9,6,18,12,6,6,6,12,6,6,6,12,6,6,12,12,12,12,6,12,6,12,6,6,24,12,6,3,3,3,3,12,6,3,3,3,3,12,6,3,3,3,3,6,3,3,3,6,6,12,6,3,3,3,3,12,6,3,3,3,3,12,6,6,6,3,3,3,3,6,6,12,6,3,3,3,3,12,6,3,3,3,3,12,6,3,3,3,3,6,3,3,3,6,6,3,3,3,3,3,3,3,3,6,6,6,6,9,9,6,12,3,3,3,3,12,9,3,9,3,6,6,6,6,12,9,3,9,3,6,6,6,6,12,9,3,6,6,6,6,12,6,3,3,12,12,9,3,9,3,6,6,6,6,12,9,3,6,6,6,6,9,3,9,12,3,6,6,6,6,12,6,12,3,3,12,6,12,6,12,12,12,12,6,12,3,3,6,6,24,6,6,12,12,12,12,6,6,24,9,3,3,3,9,3,3,3,12,12,12,12,6,12,3,3,6,6,12,6,6,6,6,6,12,12,36,6,12,6,12,6,6,12,6,6,9,9,6,18,12,6,6,6,12,6,6,6,12,6,6,9,9,6,18,12,6,6,6,12,6,6,6,12,6,6,9,9,6,18,12,6,6,6,12,6,6,6,12,6,6,12,12,12,12,12,6,12,6,6,12,6,6,9,9,6,18,12,6,6,6,12,6,6,6,12,6,6,9,9,6,18,12,6,6,6,12,6,6,6,12,6,6,9,9,6,18,12,6,6,6,12,6,6,6,12,6,6,12,12,12,12,6,6,6,6,24,6,6,6,6,6,6,6,3,3,6,6,6,6,6,6,6,6,3,3,6,6,6,6,6,6,6,6,3,3,6,6,3,3,3,3,3,3,3,3,3,3,3,6,6,3,3,3,6,3,3,3,3,3,3,6,3,3,3,3,3,3,6,3,3,3,3,3,3,6,3,3,3,3,3,3,6,3,3,3,3,3,3,6,3,3,3,3,3,3,6,3,3,3,3,3,3,6,3,3,3,3,3,3,3,3,3,3,3,3,3,3,3,3,3,3,3,3,3,3,3,3,3,3,3,3,3,3,3,3,3,3,3,3,3,3,3,3,3,3,3,3,3,3,3,3,3,3,3,3,3,3,3,3,3,3,3,3,3,3,3,3,3,3,3,3,3,3,3,3,3,3,3,3,3,3,3,3,3,3,3,3,3,3,3,3,3,3,3,24,3,3,3,3,3,3,3,3,12,3,3,3,3,3,12,12,3,3,3,24,6,6,6,6,6,6,6,6,6,6,6,6,6,24,6,3,3,3,3,3,3,3,3,3,6,3,3,3,9,9,6,3,3,3,3,3,3,3,3,3,3,3,12,12,12,12,12,6,12,3,3,6,6,24,6,6,12,12,12,12,6,6,24,9,3,3,3,9,3,3,3,12,12,12,12,6,12,3,3,6,6,12,6,6,6,6,6,12,12,6,36,6,6,18,12,6,9,15,6,18,6,12,6,12,6,12,12,6,9,15,6,18,6,6,12,12,6,12,12,6,9,12,9,6,18,21,6,6,12,6,6,6,12,12,6,12,12,12,12,6,6,6,6,12,6,12,6,9,9,6,12,18,12,6,6,6,6,6,12,6,6,9,9,6,18,12,6,6,6,12,6,6,6,12,12,6,9,9,6,18,12,6,6,6,6,6,6,12,6,6,12,12,12,12,6,6,6,6,24,12,6,3,3,3,3,12,6,3,3,3,3,12,6,3,3,3,3,6,3,3,3,6,6,12,6,3,3,3,3,12,6,3,3,3,3,12,6,3,6,3,3,3,3,6,6,12,6,3,3,3,3,12,6,3,3,3,3,12,6,3,3,3,3,6,3,3,3,6,6,6,3,3,6,3,3,6,3,3,3,3,3,3,6,3,3,3,6,6,12,6,6,12,6,3,3,3,3,12,6,3,3,3,3,12,6,3,3,3,3,6,3,3,3,6,6,12,6,3,3,3,3,12,6,3,3,3,3,12,6,6,6,3,3,3,3,6,6,12,6,3,3,3,3,12,6,3,3,3,3,12,6,3,3,3,3,6,3,3,3,6,6,3,3,3,3,3,3,3,3,6,6,6,6,9,9,6,18,3,3,9,9,3,};
uint16_t qby_noteos[1373]={
0,12,15,18,18,21,24,24,27,30,30,33,36,36,39,42,45,48,57,66,72,81,90,96,96,105,114,120,132,144,144,153,162,168,177,186,192,198,201,204,207,210,213,216,216,222,228,228,234,240,246,252,255,258,264,270,276,279,282,285,288,294,300,303,306,309,312,318,320,321,324,330,336,342,348,351,354,357,360,366,372,375,378,381,384,390,396,402,408,411,414,417,420,426,432,438,444,447,450,453,456,462,468,471,474,477,480,486,492,495,498,501,504,510,512,513,516,522,528,534,537,540,546,549,552,558,561,564,567,570,573,576,582,584,585,588,594,600,612,618,624,630,636,639,642,645,648,654,660,663,666,669,672,678,684,687,690,693,696,702,704,705,708,714,720,726,732,735,738,741,744,750,756,759,762,765,768,774,780,786,792,795,798,801,804,810,816,822,828,831,834,837,840,846,852,855,858,861,864,870,876,879,882,885,888,894,896,897,900,906,912,915,918,921,924,927,930,933,936,942,948,954,960,969,978,984,996,999,1002,1005,1008,1020,1029,1032,1038,1044,1050,1056,1068,1077,1080,1086,1092,1098,1104,1116,1125,1128,1134,1140,1146,1152,1164,1170,1173,1176,1188,1200,1209,1212,1221,1224,1230,1236,1242,1248,1257,1260,1269,1272,1278,1284,1290,1296,1305,1308,1314,1320,1326,1332,1338,1344,1356,1356,1362,1365,1368,1380,1380,1386,1392,1404,1416,1428,1440,1440,1446,1449,1452,1458,1464,1488,1494,1500,1512,1524,1536,1548,1554,1560,1560,1563,1566,1569,1572,1575,1578,1581,1584,1596,1608,1620,1632,1632,1638,1641,1644,1650,1656,1668,1674,1680,1686,1698,1704,1716,1728,1728,1728,1734,1740,1740,1746,1752,1764,1770,1776,1785,1794,1800,1800,1812,1818,1824,1824,1830,1836,1842,1848,1860,1866,1872,1881,1890,1896,1896,1908,1914,1920,1920,1926,1932,1938,1944,1956,1962,1968,1977,1986,1992,1992,2004,2010,2016,2016,2022,2028,2034,2040,2052,2058,2064,2076,2088,2100,2112,2118,2124,2124,2130,2136,2148,2154,2160,2169,2178,2184,2184,2196,2202,2208,2208,2214,2220,2226,2232,2244,2250,2256,2265,2274,2280,2280,2292,2298,2304,2304,2310,2316,2322,2328,2340,2346,2352,2361,2370,2376,2376,2388,2394,2400,2400,2406,2412,2418,2424,2436,2442,2448,2460,2472,2484,2496,2496,2502,2508,2508,2514,2520,2544,2550,2556,2559,2562,2565,2568,2574,2580,2583,2586,2589,2592,2598,2604,2607,2610,2613,2616,2622,2624,2625,2628,2634,2640,2646,2652,2655,2658,2661,2664,2670,2676,2679,2682,2685,2688,2694,2700,2706,2712,2715,2718,2721,2724,2730,2736,2742,2748,2751,2754,2757,2760,2766,2772,2775,2778,2781,2784,2790,2796,2799,2802,2805,2808,2814,2816,2817,2820,2826,2832,2835,2838,2841,2844,2847,2850,2853,2856,2862,2868,2874,2880,2889,2898,2904,2916,2919,2922,2925,2928,2928,2937,2940,2949,2952,2958,2964,2970,2976,2976,2985,2988,2997,3000,3006,3012,3018,3024,3036,3045,3048,3054,3060,3066,3072,3084,3090,3093,3096,3108,3120,3129,3132,3141,3144,3150,3156,3162,3168,3180,3189,3192,3198,3204,3210,3216,3225,3228,3228,3237,3240,3246,3252,3258,3264,3276,3276,3282,3285,3288,3300,3300,3306,3312,3324,3336,3348,3360,3360,3366,3369,3372,3378,3384,3408,3414,3420,3432,3444,3456,3468,3474,3480,3480,3483,3486,3489,3492,3495,3498,3501,3504,3516,3528,3540,3552,3552,3558,3561,3564,3570,3576,3588,3594,3600,3606,3618,3624,3636,3648,3648,3648,3654,3660,3660,3666,3672,3684,3690,3696,3705,3714,3720,3720,3732,3738,3744,3744,3750,3756,3762,3768,3780,3786,3792,3801,3810,3816,3816,3828,3834,3840,3840,3846,3852,3858,3864,3876,3882,3888,3897,3906,3912,3912,3924,3930,3936,3936,3942,3948,3954,3960,3972,3978,3984,3996,4008,4020,4032,4038,4044,4044,4050,4056,4068,4074,4080,4089,4098,4104,4104,4116,4122,4128,4128,4134,4140,4146,4152,4164,4170,4176,4185,4194,4200,4200,4212,4218,4224,4224,4230,4236,4242,4248,4260,4266,4272,4281,4290,4296,4296,4308,4314,4320,4320,4326,4332,4338,4344,4356,4362,4368,4380,4392,4404,4416,4422,4428,4434,4440,4461,4464,4470,4476,4482,4488,4494,4500,4503,4506,4509,4512,4518,4524,4530,4536,4542,4548,4551,4554,4560,4566,4569,4572,4578,4584,4590,4596,4599,4602,4608,4614,4617,4620,4623,4626,4629,4632,4635,4636,4638,4641,4644,4650,4656,4659,4662,4665,4671,4674,4677,4680,4683,4686,4689,4695,4698,4701,4704,4707,4710,4713,4719,4722,4725,4728,4731,4734,4737,4743,4746,4749,4752,4755,4758,4761,4767,4770,4773,4776,4779,4782,4785,4791,4794,4797,4800,4803,4806,4809,4815,4818,4821,4824,4827,4830,4833,4839,4842,4845,4845,4848,4851,4854,4857,4860,4863,4866,4869,4872,4875,4878,4881,4884,4887,4890,4893,4896,4899,4902,4905,4908,4911,4914,4917,4920,4923,4926,4929,4932,4935,4938,4941,4944,4947,4950,4953,4956,4959,4962,4965,4968,4971,4974,4977,4980,4983,4986,4989,4995,4998,5001,5010,5013,5016,5019,5022,5025,5028,5031,5034,5037,5040,5043,5044,5046,5049,5052,5055,5058,5061,5064,5067,5070,5073,5076,5079,5082,5085,5088,5091,5092,5094,5097,5100,5103,5106,5109,5112,5136,5139,5142,5145,5148,5151,5154,5157,5160,5172,5175,5176,5178,5181,5184,5196,5199,5202,5205,5208,5232,5238,5244,5250,5256,5262,5268,5274,5280,5286,5292,5295,5298,5304,5328,5334,5337,5340,5343,5346,5349,5352,5355,5358,5361,5367,5370,5373,5376,5385,5394,5400,5403,5403,5404,5404,5406,5406,5408,5409,5409,5412,5412,5424,5436,5448,5460,5472,5472,5478,5481,5484,5490,5496,5520,5526,5532,5544,5556,5568,5580,5586,5592,5592,5595,5598,5601,5604,5607,5610,5613,5616,5628,5640,5652,5664,5664,5670,5673,5676,5682,5688,5700,5706,5712,5718,5730,5736,5748,5760,5760,5766,5772,5778,5796,5802,5808,5817,5826,5832,5850,5856,5862,5868,5874,5880,5892,5898,5904,5913,5922,5928,5946,5952,5958,5964,5970,5976,5988,5994,6000,6000,6009,6018,6024,6024,6042,6048,6048,6054,6060,6066,6072,6084,6090,6096,6108,6120,6132,6144,6150,6156,6162,6168,6168,6180,6186,6192,6201,6210,6216,6216,6228,6234,6240,6246,6252,6258,6264,6276,6282,6288,6297,6306,6312,6312,6324,6330,6336,6336,6342,6348,6354,6360,6372,6378,6384,6393,6402,6408,6408,6420,6426,6432,6438,6444,6450,6456,6468,6474,6480,6492,6504,6516,6528,6534,6540,6546,6552,6576,6582,6588,6591,6594,6597,6600,6606,6612,6615,6618,6621,6624,6630,6636,6639,6642,6645,6648,6654,6656,6657,6660,6666,6672,6678,6684,6687,6690,6693,6696,6702,6708,6711,6714,6717,6720,6726,6732,6738,6744,6747,6750,6753,6756,6762,6768,6774,6780,6783,6786,6789,6792,6798,6804,6807,6810,6813,6816,6822,6828,6831,6834,6837,6840,6846,6848,6849,6852,6858,6864,6870,6873,6876,6882,6885,6888,6894,6897,6900,6903,6906,6909,6912,6918,6920,6921,6924,6930,6936,6948,6954,6960,6966,6972,6975,6978,6981,6984,6990,6996,6999,7002,7005,7008,7014,7020,7023,7026,7029,7032,7038,7040,7041,7044,7050,7056,7062,7068,7071,7074,7077,7080,7086,7092,7095,7098,7101,7104,7110,7116,7122,7128,7131,7134,7137,7140,7146,7152,7158,7164,7167,7170,7173,7176,7182,7188,7191,7194,7197,7200,7206,7212,7215,7218,7221,7224,7230,7232,7233,7236,7242,7248,7251,7254,7257,7260,7263,7266,7269,7272,7278,7284,7290,7296,7305,7314,7320,7338,7341,7344,7353,7362,};
uint16_t qby_len=1373;
