uint16_t tkzc_note[171][8]={
{NOTE_C4,},
{NOTE_D4,},
{NOTE_DS4,},
{NOTE_D4,},
{NOTE_DS4,},
{NOTE_G4,},
{NOTE_D4,},
{NOTE_G4,},
{NOTE_C4,},
{NOTE_AS4,},
{NOTE_C4,},
{NOTE_DS4,},
{NOTE_AS4,},
{NOTE_G4,},
{NOTE_G4,},
{NOTE_GS4,},
{NOTE_G4,},
{NOTE_GS4,},
{NOTE_DS4,},
{NOTE_G4,},
{NOTE_DS4,},
{NOTE_DS4,},
{NOTE_DS4,},
{NOTE_D4,},
{NOTE_A4,},
{NOTE_D4,},
{NOTE_D4,},
{NOTE_C4,},
{NOTE_D4,},
{NOTE_DS4,},
{NOTE_D4,},
{NOTE_DS4,},
{NOTE_G4,},
{NOTE_D4,},
{NOTE_G4,},
{NOTE_C4,},
{NOTE_AS4,},
{NOTE_C4,},
{NOTE_DS4,},
{NOTE_AS4,},
{NOTE_G4,},
{NOTE_GS4,},
{NOTE_DS4,},
{NOTE_D4,},
{NOTE_DS4,},
{NOTE_F4,},
{NOTE_G4,},
{NOTE_DS4,},
{NOTE_DS4,},
{NOTE_D4,},
{NOTE_C4,},
{NOTE_D4,},
{NOTE_B4,},
{NOTE_C4,},
{NOTE_DS4,},
{NOTE_F4,},
{NOTE_G4,},
{NOTE_F4,},
{NOTE_G4,},
{NOTE_AS4,},
{NOTE_F4,},
{NOTE_AS4,},
{NOTE_DS4,},
{NOTE_D4,},
{NOTE_DS4,},
{NOTE_G4,},
{NOTE_G4,},
{NOTE_C4,},
{NOTE_D4,},
{NOTE_DS4,},
{NOTE_D4,},
{NOTE_DS4,},
{NOTE_F4,},
{NOTE_F4,},
{NOTE_DS4,},
{NOTE_AS4,},
{NOTE_AS4,},
{NOTE_GS4,},
{NOTE_G4,},
{NOTE_F4,},
{NOTE_DS4,},
{NOTE_G4,},
{NOTE_G4,},
{NOTE_C4,},
{NOTE_AS4,},
{NOTE_AS4,},
{NOTE_G4,},
{NOTE_F4,},
{NOTE_DS4,},
{NOTE_F4,},
{NOTE_DS4,},
{NOTE_F4,},
{NOTE_AS4,},
{NOTE_G4,},
{NOTE_G4,},
{NOTE_C4,},
{NOTE_AS4,},
{NOTE_AS4,},
{NOTE_G4,},
{NOTE_F4,},
{NOTE_DS4,},
{NOTE_F4,},
{NOTE_DS4,},
{NOTE_F4,},
{NOTE_D4,},
{NOTE_C4,},
{NOTE_C4,},
{NOTE_D4,},
{NOTE_DS4,},
{NOTE_D4,},
{NOTE_DS4,},
{NOTE_G4,},
{NOTE_D4,},
{NOTE_G4,},
{NOTE_C4,},
{NOTE_AS4,},
{NOTE_C4,},
{NOTE_DS4,},
{NOTE_AS4,},
{NOTE_G4,},
{NOTE_G4,},
{NOTE_GS4,},
{NOTE_G4,},
{NOTE_GS4,},
{NOTE_DS4,},
{NOTE_G4,},
{NOTE_DS4,},
{NOTE_DS4,},
{NOTE_DS4,},
{NOTE_D4,},
{NOTE_A4,},
{NOTE_D4,},
{NOTE_D4,},
{NOTE_C4,},
{NOTE_D4,},
{NOTE_DS4,},
{NOTE_D4,},
{NOTE_DS4,},
{NOTE_G4,},
{NOTE_D4,},
{NOTE_G4,},
{NOTE_C4,},
{NOTE_AS4,},
{NOTE_C4,},
{NOTE_DS4,},
{NOTE_AS4,},
{NOTE_G4,},
{NOTE_GS4,},
{NOTE_DS4,},
{NOTE_D4,},
{NOTE_DS4,},
{NOTE_F4,},
{NOTE_G4,},
{NOTE_DS4,},
{NOTE_DS4,},
{NOTE_D4,},
{NOTE_C4,},
{NOTE_D4,},
{NOTE_B4,},
{NOTE_C4,},
{NOTE_C4,},
{NOTE_D4,},
{NOTE_DS4,},
{NOTE_D4,},
{NOTE_DS4,},
{NOTE_G4,},
{NOTE_D4,},
{NOTE_G4,},
{NOTE_GS4,},
{NOTE_AS4,},
};
uint16_t tkzc_notedura[171]={
6,6,18,6,12,12,36,12,18,6,12,12,36,6,6,18,6,6,18,30,6,6,6,18,18,12,36,6,6,18,6,12,12,36,12,18,6,12,12,36,12,12,6,18,12,12,6,30,6,6,12,12,12,48,24,24,18,6,12,12,36,12,18,6,12,12,48,6,6,12,6,6,6,6,18,6,24,12,12,12,12,84,12,24,18,6,6,6,36,12,6,12,18,36,12,24,18,6,6,6,36,12,6,18,12,36,6,6,18,6,12,12,36,12,18,6,12,12,36,6,6,18,6,6,18,30,6,6,6,18,18,12,36,6,6,18,6,12,12,36,12,18,6,12,12,36,12,12,6,18,12,12,6,30,6,6,12,12,12,36,6,6,18,6,12,12,30,6,6,};
uint16_t tkzc_noteos[171]={
0,42,48,66,72,84,96,132,144,162,168,180,192,228,234,240,258,264,270,288,318,324,330,336,354,372,384,420,426,432,450,456,468,480,516,528,546,552,564,576,612,624,636,642,660,672,684,690,720,726,732,744,756,768,816,840,864,882,888,900,912,948,960,978,984,996,1008,1056,1062,1068,1080,1086,1092,1098,1104,1122,1128,1152,1164,1176,1188,1200,1284,1296,1320,1338,1344,1350,1356,1392,1404,1410,1422,1440,1476,1488,1512,1530,1536,1542,1548,1584,1596,1602,1620,1632,1668,1674,1680,1698,1704,1716,1728,1764,1776,1794,1800,1812,1824,1860,1866,1872,1890,1896,1902,1920,1950,1956,1962,1968,1986,2004,2016,2052,2058,2064,2082,2088,2100,2112,2148,2160,2178,2184,2196,2208,2244,2256,2268,2274,2292,2304,2316,2322,2352,2358,2364,2376,2388,2400,2436,2442,2448,2466,2472,2484,2496,2526,2532,};
uint16_t tkzc_len=171;
