uint16_t headD_note[879][8]={
{NOTE_G4,},
{NOTE_AS4,},
{NOTE_C4,},
{NOTE_C4,},
{NOTE_DS4,},
{NOTE_C4,},
{NOTE_DS4,},
{NOTE_D4,},
{NOTE_AS4,},
{NOTE_G4,},
{NOTE_AS4,},
{NOTE_GS4,},
{NOTE_AS4,},
{NOTE_C5,NOTE_GS4,},
{NOTE_DS4,},
{NOTE_C4,},
{NOTE_F4,},
{NOTE_DS4,},
{NOTE_F4,},
{NOTE_G4,},
{NOTE_D4,},
{NOTE_AS4,},
{NOTE_AS4,},
{NOTE_G4,},
{NOTE_AS4,},
{NOTE_C4,},
{NOTE_C4,},
{NOTE_DS4,},
{NOTE_C4,},
{NOTE_DS4,},
{NOTE_D4,},
{NOTE_AS4,},
{NOTE_AS4,},
{NOTE_G4,},
{NOTE_AS4,},
{NOTE_G4,},
{NOTE_GS4,},
{NOTE_GS4,},
{NOTE_AS4,},
{NOTE_AS4,},
{NOTE_DS4,},
{NOTE_DS4,},
{NOTE_DS4,},
{NOTE_G4,},
{NOTE_AS4,},
{NOTE_C4,},
{NOTE_DS4,},
{NOTE_F4,},
{NOTE_G4,},
{NOTE_AS4,},
{NOTE_C4,},
{NOTE_DS4,},
{NOTE_F4,},
{NOTE_G4,},
{NOTE_AS4,},
{NOTE_C4,},
{NOTE_DS4,},
{NOTE_F4,},
{NOTE_G4,},
{NOTE_C6,NOTE_G5,NOTE_DS5,},
{NOTE_C6,NOTE_G5,NOTE_DS5,},
{NOTE_C6,NOTE_G5,},
{NOTE_C6,NOTE_GS5,NOTE_DS5,},
{NOTE_C6,NOTE_GS5,NOTE_DS5,},
{NOTE_C6,NOTE_GS5,NOTE_DS5,},
{NOTE_C6,NOTE_GS5,NOTE_DS5,},
{NOTE_C6,NOTE_GS5,NOTE_DS5,},
{NOTE_D6,NOTE_AS5,NOTE_F5,},
{NOTE_AS5,NOTE_F5,},
{NOTE_AS5,NOTE_F5,},
{NOTE_AS5,NOTE_F5,NOTE_D5,},
{NOTE_AS5,NOTE_F5,NOTE_D5,},
{NOTE_G5,NOTE_F5,NOTE_D5,},
{NOTE_AS5,NOTE_F5,NOTE_D5,},
{NOTE_GS5,NOTE_DS5,NOTE_C5,},
{NOTE_GS5,NOTE_DS5,NOTE_C5,},
{NOTE_F5,NOTE_DS5,NOTE_C5,},
{NOTE_F5,NOTE_DS5,NOTE_C5,},
{NOTE_DS5,NOTE_C5,NOTE_GS4,},
{NOTE_F5,NOTE_DS5,NOTE_C5,},
{NOTE_G5,NOTE_D5,NOTE_AS4,},
{NOTE_AS5,NOTE_G5,NOTE_D5,},
{NOTE_AS5,NOTE_G5,NOTE_D5,},
{NOTE_AS5,NOTE_G5,NOTE_D5,},
{NOTE_G5,NOTE_D5,NOTE_AS4,},
{NOTE_AS5,NOTE_G5,NOTE_D5,},
{NOTE_C6,NOTE_G5,NOTE_DS5,},
{NOTE_C6,NOTE_G5,NOTE_DS5,},
{NOTE_C6,NOTE_G5,},
{NOTE_C6,NOTE_GS5,NOTE_DS5,},
{NOTE_C6,NOTE_GS5,NOTE_DS5,},
{NOTE_C6,NOTE_GS5,NOTE_DS5,},
{NOTE_C6,NOTE_GS5,NOTE_DS5,},
{NOTE_C6,NOTE_GS5,NOTE_DS5,},
{NOTE_D6,NOTE_AS5,NOTE_F5,},
{NOTE_AS5,NOTE_F5,},
{NOTE_AS5,NOTE_F5,},
{NOTE_AS5,NOTE_F5,NOTE_D5,},
{NOTE_AS5,NOTE_F5,NOTE_D5,},
{NOTE_G5,NOTE_F5,NOTE_D5,},
{NOTE_AS5,NOTE_F5,NOTE_D5,},
{NOTE_GS5,NOTE_DS5,NOTE_C5,},
{NOTE_GS5,NOTE_DS5,NOTE_C5,},
{NOTE_AS5,NOTE_F5,NOTE_D5,},
{NOTE_AS5,NOTE_F5,NOTE_D5,},
{NOTE_F5,NOTE_D5,NOTE_AS4,},
{NOTE_G5,NOTE_F5,NOTE_D5,},
{NOTE_G5,NOTE_DS5,NOTE_AS4,},
{NOTE_G5,NOTE_DS5,NOTE_AS4,},
{NOTE_G5,NOTE_DS5,NOTE_AS4,},
{NOTE_G5,NOTE_DS5,NOTE_AS4,},
{NOTE_G5,NOTE_DS5,NOTE_AS4,},
{NOTE_G5,NOTE_DS5,NOTE_AS4,},
{NOTE_DS4,NOTE_G4,NOTE_C5,},
{NOTE_DS4,NOTE_G4,NOTE_C5,},
{NOTE_DS4,NOTE_G4,NOTE_C5,},
{NOTE_DS4,NOTE_G4,NOTE_C5,},
{NOTE_DS4,NOTE_G4,NOTE_C5,},
{NOTE_DS4,NOTE_G4,NOTE_C5,},
{NOTE_DS4,NOTE_G4,NOTE_C5,},
{NOTE_DS4,NOTE_G4,NOTE_C5,},
{NOTE_DS4,NOTE_G4,NOTE_C5,},
{NOTE_DS4,NOTE_G4,NOTE_C5,},
{NOTE_DS4,NOTE_G4,NOTE_C5,},
{NOTE_DS4,NOTE_G4,NOTE_C5,},
{NOTE_DS4,NOTE_G4,NOTE_C5,},
{NOTE_DS4,NOTE_G4,NOTE_C5,},
{NOTE_DS4,NOTE_G4,NOTE_C5,},
{NOTE_C4,},
{NOTE_G4,},
{NOTE_G4,},
{NOTE_C4,},
{NOTE_C4,},
{NOTE_G4,},
{NOTE_C4,},
{NOTE_G4,},
{NOTE_C4,},
{NOTE_G4,},
{NOTE_C4,},
{NOTE_C4,},
{NOTE_C4,},
{NOTE_C4,},
{NOTE_G4,},
{NOTE_C4,},
{NOTE_DS4,NOTE_G4,NOTE_C5,},
{NOTE_C4,},
{NOTE_C4,},
{NOTE_C4,},
{NOTE_C4,},
{NOTE_C4,},
{NOTE_C4,},
{NOTE_DS4,NOTE_G4,NOTE_C5,},
{NOTE_DS5,NOTE_AS4,NOTE_G4,},
{NOTE_DS4,},
{NOTE_DS4,},
{NOTE_DS4,},
{NOTE_F4,},
{NOTE_D5,NOTE_AS4,},
{NOTE_F4,},
{NOTE_F4,},
{NOTE_F4,},
{NOTE_DS4,NOTE_G4,NOTE_C5,},
{NOTE_C4,},
{NOTE_C4,},
{NOTE_C4,},
{NOTE_C4,},
{NOTE_C4,},
{NOTE_C4,},
{NOTE_DS4,NOTE_G4,NOTE_C5,},
{NOTE_DS5,NOTE_AS4,NOTE_G4,},
{NOTE_DS4,},
{NOTE_DS4,},
{NOTE_DS4,},
{NOTE_F4,},
{NOTE_D5,NOTE_AS4,},
{NOTE_F4,},
{NOTE_F4,},
{NOTE_F4,},
{NOTE_DS4,NOTE_G4,NOTE_C5,},
{NOTE_C4,},
{NOTE_C4,},
{NOTE_C4,},
{NOTE_C4,},
{NOTE_C4,},
{NOTE_C4,},
{NOTE_DS4,NOTE_G4,NOTE_C5,},
{NOTE_DS5,NOTE_AS4,NOTE_G4,},
{NOTE_DS4,},
{NOTE_DS4,},
{NOTE_DS4,},
{NOTE_F4,},
{NOTE_D5,NOTE_AS4,},
{NOTE_F4,},
{NOTE_F4,},
{NOTE_A5,NOTE_F5,NOTE_D5,},
{NOTE_GS5,NOTE_F5,NOTE_D5,},
{NOTE_DS4,},
{NOTE_DS4,},
{NOTE_DS4,},
{NOTE_F4,},
{NOTE_D5,NOTE_AS4,},
{NOTE_F4,},
{NOTE_F4,},
{NOTE_DS4,},
{NOTE_F4,},
{NOTE_DS4,NOTE_G4,NOTE_C5,NOTE_DS5,},
{NOTE_C4,},
{NOTE_C4,},
{NOTE_AS4,},
{NOTE_C4,},
{NOTE_DS4,NOTE_G4,NOTE_AS4,NOTE_C5,},
{NOTE_DS4,NOTE_G4,NOTE_C5,},
{NOTE_GS5,NOTE_C5,NOTE_GS4,},
{NOTE_F5,NOTE_D5,NOTE_AS4,NOTE_F4,},
{NOTE_D4,},
{NOTE_D5,NOTE_AS4,NOTE_F4,},
{NOTE_F4,},
{NOTE_DS5,NOTE_C5,NOTE_G4,NOTE_DS4,},
{NOTE_DS5,NOTE_C5,NOTE_G4,NOTE_DS4,},
{NOTE_F5,NOTE_DS5,NOTE_C5,NOTE_G4,NOTE_F4,},
{NOTE_G4,},
{NOTE_GS5,NOTE_C5,NOTE_GS4,},
{NOTE_F5,NOTE_D5,NOTE_AS4,NOTE_F4,},
{NOTE_D4,},
{NOTE_D5,NOTE_AS4,NOTE_F4,},
{NOTE_F4,},
{NOTE_DS5,NOTE_C5,NOTE_G4,NOTE_DS4,},
{NOTE_DS5,NOTE_C5,NOTE_G4,NOTE_F4,},
{NOTE_GS5,NOTE_C5,NOTE_GS4,},
{NOTE_F5,NOTE_D5,NOTE_AS4,NOTE_F4,},
{NOTE_D4,},
{NOTE_AS4,},
{NOTE_F4,},
{NOTE_DS4,},
{NOTE_C4,},
{NOTE_C4,},
{NOTE_D4,},
{NOTE_DS4,},
{NOTE_C4,},
{NOTE_DS4,},
{NOTE_F4,},
{NOTE_D4,},
{NOTE_F4,},
{NOTE_G4,},
{NOTE_DS4,},
{NOTE_G4,},
{NOTE_AS4,},
{NOTE_G5,NOTE_DS5,},
{NOTE_AS5,NOTE_G5,},
{NOTE_C6,NOTE_G5,},
{NOTE_C6,NOTE_G5,},
{NOTE_DS6,NOTE_AS5,},
{NOTE_C6,NOTE_GS5,},
{NOTE_C6,NOTE_AS5,},
{NOTE_DS6,NOTE_C6,},
{NOTE_D6,NOTE_AS5,},
{NOTE_AS5,NOTE_G5,},
{NOTE_AS5,NOTE_G5,},
{NOTE_G5,NOTE_DS5,},
{NOTE_AS5,NOTE_G5,},
{NOTE_GS5,NOTE_F5,},
{NOTE_AS5,NOTE_G5,},
{NOTE_GS5,NOTE_DS5,},
{NOTE_GS5,NOTE_DS5,},
{NOTE_AS5,NOTE_F5,},
{NOTE_F5,NOTE_C5,},
{NOTE_DS5,NOTE_AS4,},
{NOTE_F5,NOTE_C5,},
{NOTE_G5,NOTE_D5,},
{NOTE_D6,NOTE_G5,},
{NOTE_AS5,NOTE_D5,},
{NOTE_G5,NOTE_DS5,},
{NOTE_AS5,NOTE_G5,},
{NOTE_C6,NOTE_G5,},
{NOTE_C6,NOTE_G5,},
{NOTE_DS6,NOTE_AS5,},
{NOTE_C6,NOTE_GS5,},
{NOTE_C6,NOTE_AS5,},
{NOTE_DS6,NOTE_C6,},
{NOTE_D6,NOTE_AS5,},
{NOTE_AS5,NOTE_G5,},
{NOTE_AS5,NOTE_G5,},
{NOTE_G5,NOTE_DS5,},
{NOTE_AS5,NOTE_G5,},
{NOTE_GS5,NOTE_F5,},
{NOTE_AS5,NOTE_G5,},
{NOTE_GS5,NOTE_F5,},
{NOTE_GS5,NOTE_F5,},
{NOTE_AS5,NOTE_G5,},
{NOTE_F5,NOTE_D5,},
{NOTE_F5,NOTE_C5,},
{NOTE_G5,NOTE_D5,},
{NOTE_F5,NOTE_C5,},
{NOTE_DS5,NOTE_AS4,},
{NOTE_DS5,NOTE_AS4,},
{NOTE_G5,NOTE_DS5,},
{NOTE_AS5,NOTE_G5,},
{NOTE_C6,NOTE_G5,},
{NOTE_C6,NOTE_G5,},
{NOTE_DS6,NOTE_AS5,},
{NOTE_C6,NOTE_GS5,},
{NOTE_C6,NOTE_AS5,},
{NOTE_DS6,NOTE_C6,},
{NOTE_D6,NOTE_AS5,},
{NOTE_AS5,NOTE_G5,},
{NOTE_AS5,NOTE_G5,},
{NOTE_G5,NOTE_DS5,},
{NOTE_AS5,NOTE_G5,},
{NOTE_GS5,NOTE_F5,},
{NOTE_AS5,NOTE_G5,},
{NOTE_GS5,NOTE_DS5,},
{NOTE_GS5,NOTE_DS5,},
{NOTE_AS5,NOTE_F5,},
{NOTE_F5,NOTE_C5,},
{NOTE_DS5,NOTE_AS4,},
{NOTE_F5,NOTE_C5,},
{NOTE_G5,NOTE_D5,},
{NOTE_D6,NOTE_G5,},
{NOTE_AS5,NOTE_D5,},
{NOTE_G5,NOTE_DS5,},
{NOTE_AS5,NOTE_G5,},
{NOTE_C6,NOTE_G5,},
{NOTE_C6,NOTE_G5,},
{NOTE_DS6,NOTE_AS5,},
{NOTE_C6,NOTE_GS5,},
{NOTE_C6,NOTE_AS5,},
{NOTE_DS6,NOTE_C6,},
{NOTE_D6,NOTE_AS5,},
{NOTE_AS5,NOTE_G5,},
{NOTE_AS5,NOTE_G5,},
{NOTE_G5,NOTE_DS5,},
{NOTE_AS5,NOTE_G5,},
{NOTE_GS5,NOTE_F5,},
{NOTE_AS5,NOTE_G5,},
{NOTE_GS5,NOTE_F5,},
{NOTE_GS5,NOTE_F5,},
{NOTE_AS5,NOTE_G5,},
{NOTE_F5,NOTE_D5,},
{NOTE_F5,NOTE_C5,},
{NOTE_G5,NOTE_D5,},
{NOTE_F5,NOTE_C5,},
{NOTE_DS5,NOTE_AS4,},
{NOTE_DS5,NOTE_AS4,},
{NOTE_G4,},
{NOTE_AS4,},
{NOTE_C4,},
{NOTE_DS4,},
{NOTE_F4,},
{NOTE_G4,},
{NOTE_AS4,},
{NOTE_C4,},
{NOTE_DS4,},
{NOTE_F4,},
{NOTE_G4,},
{NOTE_AS4,},
{NOTE_C4,},
{NOTE_DS4,},
{NOTE_F4,},
{NOTE_G4,},
{NOTE_C4,},
{NOTE_G4,},
{NOTE_G4,},
{NOTE_G4,},
{NOTE_G4,},
{NOTE_GS4,},
{NOTE_AS4,},
{NOTE_C4,},
{NOTE_G4,},
{NOTE_G4,},
{NOTE_G4,},
{NOTE_G4,},
{NOTE_GS4,},
{NOTE_AS4,},
{NOTE_C4,},
{NOTE_G4,},
{NOTE_G4,},
{NOTE_G4,},
{NOTE_G4,},
{NOTE_GS4,},
{NOTE_AS4,},
{NOTE_C4,},
{NOTE_G4,},
{NOTE_G4,},
{NOTE_G4,},
{NOTE_G4,},
{NOTE_GS4,},
{NOTE_AS4,},
{NOTE_C4,},
{NOTE_G4,},
{NOTE_G4,},
{NOTE_G4,},
{NOTE_G4,},
{NOTE_GS4,},
{NOTE_AS4,},
{NOTE_C4,},
{NOTE_G4,},
{NOTE_G4,},
{NOTE_G4,},
{NOTE_G4,},
{NOTE_GS4,},
{NOTE_AS4,},
{NOTE_C4,},
{NOTE_G4,},
{NOTE_G4,},
{NOTE_G4,},
{NOTE_G4,},
{NOTE_GS4,},
{NOTE_AS4,},
{NOTE_C4,},
{NOTE_DS4,NOTE_G4,NOTE_C5,},
{NOTE_C4,},
{NOTE_C4,},
{NOTE_C4,},
{NOTE_C4,},
{NOTE_C4,},
{NOTE_C4,},
{NOTE_DS4,NOTE_G4,NOTE_C5,},
{NOTE_DS5,NOTE_AS4,NOTE_G4,},
{NOTE_DS4,},
{NOTE_DS4,},
{NOTE_DS4,},
{NOTE_F4,},
{NOTE_D5,NOTE_AS4,},
{NOTE_F4,},
{NOTE_F4,},
{NOTE_F4,},
{NOTE_DS4,NOTE_G4,NOTE_C5,},
{NOTE_C4,},
{NOTE_C4,},
{NOTE_C4,},
{NOTE_C4,},
{NOTE_C4,},
{NOTE_C4,},
{NOTE_DS4,NOTE_G4,NOTE_C5,},
{NOTE_DS5,NOTE_AS4,NOTE_G4,},
{NOTE_DS4,},
{NOTE_DS4,},
{NOTE_DS4,},
{NOTE_F4,},
{NOTE_D5,NOTE_AS4,},
{NOTE_F4,},
{NOTE_F4,},
{NOTE_F4,},
{NOTE_DS4,NOTE_G4,NOTE_C5,},
{NOTE_C4,},
{NOTE_C4,},
{NOTE_C4,},
{NOTE_C4,},
{NOTE_C4,},
{NOTE_C4,},
{NOTE_DS4,NOTE_G4,NOTE_C5,},
{NOTE_DS5,NOTE_AS4,NOTE_G4,},
{NOTE_DS4,},
{NOTE_DS4,},
{NOTE_DS4,},
{NOTE_F4,},
{NOTE_D5,NOTE_AS4,},
{NOTE_F4,},
{NOTE_F4,},
{NOTE_A5,NOTE_F5,NOTE_D5,},
{NOTE_GS5,NOTE_F5,NOTE_D5,},
{NOTE_DS4,},
{NOTE_DS4,},
{NOTE_DS4,},
{NOTE_F4,},
{NOTE_D5,NOTE_AS4,},
{NOTE_F4,},
{NOTE_F4,},
{NOTE_DS4,},
{NOTE_F4,},
{NOTE_DS4,NOTE_G4,NOTE_C5,NOTE_DS5,},
{NOTE_C4,},
{NOTE_C4,},
{NOTE_AS4,},
{NOTE_C4,},
{NOTE_DS4,NOTE_G4,NOTE_AS4,NOTE_C5,},
{NOTE_DS4,NOTE_G4,NOTE_C5,},
{NOTE_GS5,NOTE_C5,NOTE_GS4,},
{NOTE_F5,NOTE_D5,NOTE_AS4,NOTE_F4,},
{NOTE_D4,},
{NOTE_D5,NOTE_AS4,NOTE_F4,},
{NOTE_F4,},
{NOTE_DS5,NOTE_C5,NOTE_G4,NOTE_DS4,},
{NOTE_DS5,NOTE_C5,NOTE_G4,NOTE_DS4,},
{NOTE_F5,NOTE_DS5,NOTE_C5,NOTE_G4,NOTE_F4,},
{NOTE_G4,},
{NOTE_GS5,NOTE_C5,NOTE_GS4,},
{NOTE_F5,NOTE_D5,NOTE_AS4,NOTE_F4,},
{NOTE_D4,},
{NOTE_D5,NOTE_AS4,NOTE_F4,},
{NOTE_F4,},
{NOTE_DS5,NOTE_C5,NOTE_G4,NOTE_DS4,},
{NOTE_DS5,NOTE_C5,NOTE_G4,NOTE_F4,},
{NOTE_GS5,NOTE_C5,NOTE_GS4,},
{NOTE_F5,NOTE_D5,NOTE_AS4,NOTE_F4,},
{NOTE_D4,},
{NOTE_AS4,},
{NOTE_F4,},
{NOTE_DS4,},
{NOTE_C4,},
{NOTE_C4,},
{NOTE_D4,},
{NOTE_DS4,},
{NOTE_C4,},
{NOTE_DS4,},
{NOTE_F4,},
{NOTE_D4,},
{NOTE_F4,},
{NOTE_G4,},
{NOTE_DS4,},
{NOTE_G4,},
{NOTE_AS4,},
{NOTE_G5,NOTE_DS5,},
{NOTE_AS5,NOTE_G5,},
{NOTE_C6,NOTE_G5,},
{NOTE_C6,NOTE_G5,},
{NOTE_DS6,NOTE_AS5,},
{NOTE_C6,NOTE_GS5,},
{NOTE_C6,NOTE_AS5,},
{NOTE_DS6,NOTE_C6,},
{NOTE_D6,NOTE_AS5,},
{NOTE_AS5,NOTE_G5,},
{NOTE_AS5,NOTE_G5,},
{NOTE_G5,NOTE_DS5,},
{NOTE_AS5,NOTE_G5,},
{NOTE_GS5,NOTE_F5,},
{NOTE_AS5,NOTE_G5,},
{NOTE_GS5,NOTE_DS5,},
{NOTE_GS5,NOTE_DS5,},
{NOTE_AS5,NOTE_F5,},
{NOTE_F5,NOTE_C5,},
{NOTE_DS5,NOTE_AS4,},
{NOTE_F5,NOTE_C5,},
{NOTE_G5,NOTE_D5,},
{NOTE_D6,NOTE_G5,},
{NOTE_AS5,NOTE_D5,},
{NOTE_G5,NOTE_DS5,},
{NOTE_AS5,NOTE_G5,},
{NOTE_C6,NOTE_G5,},
{NOTE_C6,NOTE_G5,},
{NOTE_DS6,NOTE_AS5,},
{NOTE_C6,NOTE_GS5,},
{NOTE_C6,NOTE_AS5,},
{NOTE_DS6,NOTE_C6,},
{NOTE_D6,NOTE_AS5,},
{NOTE_AS5,NOTE_G5,},
{NOTE_AS5,NOTE_G5,},
{NOTE_G5,NOTE_DS5,},
{NOTE_AS5,NOTE_G5,},
{NOTE_GS5,NOTE_F5,},
{NOTE_AS5,NOTE_G5,},
{NOTE_GS5,NOTE_F5,},
{NOTE_GS5,NOTE_F5,},
{NOTE_AS5,NOTE_G5,},
{NOTE_F5,NOTE_D5,},
{NOTE_F5,NOTE_C5,},
{NOTE_G5,NOTE_D5,},
{NOTE_F5,NOTE_C5,},
{NOTE_DS5,NOTE_AS4,},
{NOTE_DS5,NOTE_AS4,},
{NOTE_G5,NOTE_DS5,},
{NOTE_AS5,NOTE_G5,},
{NOTE_C6,NOTE_G5,},
{NOTE_C6,NOTE_G5,},
{NOTE_DS6,NOTE_AS5,},
{NOTE_C6,NOTE_GS5,},
{NOTE_C6,NOTE_AS5,},
{NOTE_DS6,NOTE_C6,},
{NOTE_D6,NOTE_AS5,},
{NOTE_AS5,NOTE_G5,},
{NOTE_AS5,NOTE_G5,},
{NOTE_G5,NOTE_DS5,},
{NOTE_AS5,NOTE_G5,},
{NOTE_GS5,NOTE_F5,},
{NOTE_AS5,NOTE_G5,},
{NOTE_GS5,NOTE_DS5,},
{NOTE_GS5,NOTE_DS5,},
{NOTE_AS5,NOTE_F5,},
{NOTE_F5,NOTE_C5,},
{NOTE_DS5,NOTE_AS4,},
{NOTE_F5,NOTE_C5,},
{NOTE_G5,NOTE_D5,},
{NOTE_D6,NOTE_G5,},
{NOTE_AS5,NOTE_D5,},
{NOTE_G5,NOTE_DS5,},
{NOTE_AS5,NOTE_G5,},
{NOTE_C6,NOTE_G5,},
{NOTE_C6,NOTE_G5,},
{NOTE_DS6,NOTE_AS5,},
{NOTE_C6,NOTE_GS5,},
{NOTE_C6,NOTE_AS5,},
{NOTE_DS6,NOTE_C6,},
{NOTE_D6,NOTE_AS5,},
{NOTE_AS5,NOTE_G5,},
{NOTE_AS5,NOTE_G5,},
{NOTE_G5,NOTE_DS5,},
{NOTE_AS5,NOTE_G5,},
{NOTE_GS5,NOTE_F5,},
{NOTE_AS5,NOTE_G5,},
{NOTE_GS5,NOTE_F5,},
{NOTE_GS5,NOTE_F5,},
{NOTE_AS5,NOTE_G5,},
{NOTE_F5,NOTE_D5,},
{NOTE_F5,NOTE_C5,},
{NOTE_G5,NOTE_D5,},
{NOTE_F5,NOTE_C5,},
{NOTE_DS5,NOTE_AS4,},
{NOTE_DS5,NOTE_AS4,},
{NOTE_G4,},
{NOTE_AS4,},
{NOTE_C4,},
{NOTE_DS4,},
{NOTE_F4,},
{NOTE_G4,},
{NOTE_AS4,},
{NOTE_C4,},
{NOTE_DS4,},
{NOTE_F4,},
{NOTE_G4,},
{NOTE_AS4,},
{NOTE_C4,},
{NOTE_DS4,},
{NOTE_F4,},
{NOTE_G4,},
{NOTE_C4,},
{NOTE_C4,},
{NOTE_DS4,},
{NOTE_C4,},
{NOTE_DS4,},
{NOTE_D4,},
{NOTE_AS4,},
{NOTE_G4,},
{NOTE_AS4,},
{NOTE_GS4,},
{NOTE_AS4,},
{NOTE_C5,NOTE_GS4,},
{NOTE_DS4,},
{NOTE_C4,},
{NOTE_F4,},
{NOTE_DS4,},
{NOTE_F4,},
{NOTE_G4,},
{NOTE_D4,},
{NOTE_AS4,},
{NOTE_AS4,},
{NOTE_GS4,},
{NOTE_B4,},
{NOTE_CS4,},
{NOTE_CS4,},
{NOTE_E4,},
{NOTE_CS4,},
{NOTE_E4,},
{NOTE_DS4,},
{NOTE_B4,},
{NOTE_B4,},
{NOTE_GS4,},
{NOTE_B4,},
{NOTE_GS4,},
{NOTE_A4,},
{NOTE_A4,},
{NOTE_B4,},
{NOTE_B4,},
{NOTE_E4,},
{NOTE_E4,},
{NOTE_E4,},
{NOTE_CS6,NOTE_GS5,},
{NOTE_CS6,NOTE_GS5,},
{NOTE_E6,NOTE_B5,},
{NOTE_CS6,NOTE_A5,},
{NOTE_CS6,NOTE_B5,},
{NOTE_E6,NOTE_CS6,},
{NOTE_DS6,NOTE_B5,},
{NOTE_B5,NOTE_GS5,},
{NOTE_B5,NOTE_GS5,},
{NOTE_GS5,NOTE_E5,},
{NOTE_B5,NOTE_GS5,},
{NOTE_A5,NOTE_FS5,},
{NOTE_B5,NOTE_GS5,},
{NOTE_A5,NOTE_E5,},
{NOTE_A5,NOTE_E5,},
{NOTE_B5,NOTE_FS5,},
{NOTE_FS5,NOTE_CS5,},
{NOTE_E5,NOTE_B4,},
{NOTE_FS5,NOTE_CS5,},
{NOTE_GS5,NOTE_DS5,},
{NOTE_DS6,NOTE_GS5,},
{NOTE_B5,NOTE_DS5,},
{NOTE_GS5,NOTE_E5,},
{NOTE_B5,NOTE_GS5,},
{NOTE_CS6,NOTE_GS5,},
{NOTE_CS6,NOTE_GS5,},
{NOTE_E6,NOTE_B5,},
{NOTE_CS6,NOTE_A5,},
{NOTE_CS6,NOTE_B5,},
{NOTE_E6,NOTE_CS6,},
{NOTE_DS6,NOTE_B5,},
{NOTE_B5,NOTE_GS5,},
{NOTE_B5,NOTE_GS5,},
{NOTE_GS5,NOTE_E5,},
{NOTE_B5,NOTE_GS5,},
{NOTE_A5,NOTE_FS5,},
{NOTE_B5,NOTE_GS5,},
{NOTE_A5,NOTE_FS5,},
{NOTE_A5,NOTE_FS5,},
{NOTE_B5,NOTE_GS5,},
{NOTE_FS5,NOTE_DS5,},
{NOTE_FS5,NOTE_DS5,},
{NOTE_FS5,NOTE_CS5,},
{NOTE_GS5,NOTE_DS5,},
{NOTE_FS5,NOTE_CS5,},
{NOTE_E5,NOTE_B4,},
{NOTE_E5,NOTE_B4,},
{NOTE_E5,NOTE_B4,},
{NOTE_GS5,NOTE_E5,},
{NOTE_B5,NOTE_GS5,},
{NOTE_CS6,NOTE_GS5,},
{NOTE_CS6,NOTE_GS5,},
{NOTE_E6,NOTE_B5,},
{NOTE_CS6,NOTE_A5,},
{NOTE_CS6,NOTE_B5,},
{NOTE_E6,NOTE_CS6,},
{NOTE_DS6,NOTE_B5,},
{NOTE_B5,NOTE_GS5,},
{NOTE_B5,NOTE_GS5,},
{NOTE_GS5,NOTE_E5,},
{NOTE_B5,NOTE_GS5,},
{NOTE_A5,NOTE_FS5,},
{NOTE_B5,NOTE_GS5,},
{NOTE_A5,NOTE_E5,},
{NOTE_A5,NOTE_E5,},
{NOTE_B5,NOTE_FS5,},
{NOTE_FS5,NOTE_CS5,},
{NOTE_E5,NOTE_B4,},
{NOTE_FS5,NOTE_CS5,},
{NOTE_GS5,NOTE_DS5,},
{NOTE_DS6,NOTE_GS5,},
{NOTE_B5,NOTE_DS5,},
{NOTE_GS5,NOTE_E5,},
{NOTE_B5,NOTE_GS5,},
{NOTE_CS6,NOTE_GS5,},
{NOTE_CS6,NOTE_GS5,},
{NOTE_E6,NOTE_B5,},
{NOTE_CS6,NOTE_A5,},
{NOTE_CS6,NOTE_B5,},
{NOTE_E6,NOTE_CS6,},
{NOTE_DS6,NOTE_B5,},
{NOTE_B5,NOTE_GS5,},
{NOTE_B5,NOTE_GS5,},
{NOTE_GS5,NOTE_E5,},
{NOTE_B5,NOTE_GS5,},
{NOTE_A5,NOTE_FS5,},
{NOTE_B5,NOTE_GS5,},
{NOTE_A5,NOTE_FS5,},
{NOTE_A5,NOTE_FS5,},
{NOTE_B5,NOTE_GS5,},
{NOTE_FS5,NOTE_DS5,},
{NOTE_FS5,NOTE_CS5,},
{NOTE_GS5,NOTE_DS5,},
{NOTE_FS5,NOTE_CS5,},
{NOTE_E5,NOTE_B4,},
{NOTE_E5,NOTE_B4,},
{NOTE_GS4,},
{NOTE_B4,},
{NOTE_CS4,},
{NOTE_E4,},
{NOTE_FS4,},
{NOTE_GS4,},
{NOTE_B4,},
{NOTE_CS4,},
{NOTE_E4,},
{NOTE_FS4,},
{NOTE_A4,},
{NOTE_B4,},
{NOTE_CS4,},
{NOTE_E4,},
{NOTE_FS4,},
{NOTE_GS4,},
{NOTE_A4,},
{NOTE_B4,},
{NOTE_CS4,},
{NOTE_DS4,},
{NOTE_E4,},
{NOTE_FS4,},
{NOTE_GS4,},
{NOTE_B4,},
{NOTE_GS4,},
{NOTE_A4,},
{NOTE_B4,},
{NOTE_FS4,},
{NOTE_E4,},
{NOTE_FS4,},
{NOTE_GS4,},
{NOTE_FS4,},
{NOTE_CS4,},
{NOTE_CS4,},
{NOTE_GS4,},
{NOTE_DS4,},
{NOTE_GS4,},
{NOTE_E4,},
{NOTE_GS4,},
{NOTE_FS4,},
{NOTE_DS4,},
{NOTE_E4,},
{NOTE_FS4,},
{NOTE_B4,},
{NOTE_CS4,},
{NOTE_E4,},
{NOTE_CS4,},
{NOTE_DS4,},
{NOTE_FS4,},
{NOTE_DS4,},
{NOTE_E4,},
{NOTE_GS4,},
{NOTE_E4,},
{NOTE_B4,},
{NOTE_A4,},
{NOTE_GS4,},
{NOTE_FS4,},
{NOTE_GS4,},
{NOTE_E4,},
{NOTE_A4,},
{NOTE_GS4,},
{NOTE_GS4,},
{NOTE_B4,},
{NOTE_CS4,},
{NOTE_E4,},
{NOTE_FS4,},
{NOTE_GS4,},
{NOTE_B4,},
{NOTE_CS4,},
{NOTE_E4,},
{NOTE_FS4,},
{NOTE_A4,},
{NOTE_B4,},
{NOTE_CS4,},
{NOTE_E4,},
{NOTE_FS4,},
{NOTE_GS4,},
{NOTE_CS4,},
{NOTE_CS4,},
{NOTE_E4,},
{NOTE_CS4,},
{NOTE_E4,},
{NOTE_DS4,},
{NOTE_B4,},
{NOTE_GS4,},
{NOTE_B4,},
{NOTE_A4,},
{NOTE_B4,},
{NOTE_CS5,NOTE_A4,},
{NOTE_E4,},
{NOTE_CS4,},
{NOTE_FS4,},
{NOTE_E4,},
{NOTE_FS4,},
{NOTE_GS4,},
{NOTE_DS4,},
{NOTE_B4,},
{NOTE_B4,},
{NOTE_GS4,},
{NOTE_B4,},
{NOTE_CS4,},
{NOTE_CS4,},
{NOTE_E4,},
{NOTE_CS4,},
{NOTE_E4,},
{NOTE_DS4,},
{NOTE_B4,},
{NOTE_B4,},
{NOTE_GS4,},
{NOTE_B4,},
{NOTE_GS4,},
{NOTE_A4,},
{NOTE_A4,},
{NOTE_B4,},
{NOTE_B4,},
{NOTE_E4,},
{NOTE_E4,},
};
uint16_t headD_notedura[879]={
6,6,12,6,6,16,6,12,6,6,12,6,6,12,6,6,12,6,6,12,6,6,12,6,6,12,6,6,16,6,6,6,6,6,12,12,16,6,12,12,16,6,21,3,3,3,3,3,3,3,3,3,3,3,3,3,3,3,3,12,6,3,6,3,6,6,6,12,6,3,8,6,6,6,12,8,8,6,6,6,12,8,8,6,6,6,12,6,3,6,3,6,6,6,12,6,3,8,6,6,6,12,8,8,6,6,6,8,8,6,8,6,6,12,8,3,8,12,12,8,3,8,12,12,8,3,8,12,3,3,3,3,3,3,3,3,3,3,3,3,3,3,3,3,6,6,6,3,6,3,6,12,6,6,6,3,6,3,3,6,12,6,6,6,3,6,3,6,12,6,6,6,3,6,3,3,6,12,6,6,6,3,6,3,6,12,6,6,6,3,6,3,3,6,12,6,6,6,3,6,3,3,6,6,6,6,6,6,3,3,12,12,12,16,12,12,6,6,12,6,6,12,16,12,12,6,16,12,12,16,12,12,6,12,6,6,6,8,8,6,8,8,6,8,8,6,12,6,6,12,6,3,15,6,6,6,6,6,3,15,6,6,12,6,3,15,6,6,12,12,12,6,6,12,6,3,15,6,6,6,6,6,3,15,6,6,12,6,3,15,6,6,6,3,24,6,6,12,6,3,15,6,6,6,6,6,3,15,6,6,12,6,3,15,6,6,12,12,12,6,6,12,6,3,15,6,6,6,6,6,3,15,6,6,12,6,3,15,6,6,6,3,15,3,3,3,3,3,3,3,3,3,3,3,3,3,3,3,3,8,3,6,3,3,12,12,8,3,6,3,3,12,6,8,3,6,3,3,12,6,8,3,6,3,3,12,6,8,3,6,3,3,12,6,8,3,6,3,3,12,6,8,3,6,3,3,12,6,12,6,6,6,3,6,3,6,12,6,6,6,3,6,3,3,6,12,6,6,6,3,6,3,6,12,6,6,6,3,6,3,3,6,12,6,6,6,3,6,3,6,12,6,6,6,3,6,3,3,6,12,6,6,6,3,6,3,3,6,6,6,6,6,6,3,3,12,12,12,16,12,12,6,6,12,6,6,12,16,12,12,6,16,12,12,16,12,12,6,12,6,6,6,8,8,6,8,8,6,8,8,6,12,6,6,12,6,3,15,6,6,6,6,6,3,15,6,6,12,6,3,15,6,6,12,12,12,6,6,12,6,3,15,6,6,6,6,6,3,15,6,6,12,6,3,15,6,6,6,3,24,6,6,12,6,3,15,6,6,6,6,6,3,15,6,6,12,6,3,15,6,6,12,12,12,6,6,12,6,3,15,6,6,6,6,6,3,15,6,6,12,6,3,15,6,6,6,3,15,3,3,3,3,3,3,3,3,3,3,3,3,3,3,3,3,12,6,6,16,6,12,6,6,12,6,6,12,6,6,12,6,6,12,6,6,12,6,6,12,6,6,16,12,6,6,6,6,12,12,16,6,12,12,16,6,21,12,6,3,15,6,6,6,6,6,3,15,6,6,12,6,3,15,6,6,12,12,12,6,6,12,6,3,15,6,6,6,6,6,3,15,6,6,12,6,3,3,12,6,6,6,3,3,21,6,6,12,6,3,15,6,6,6,6,6,3,15,6,6,12,6,3,15,6,6,12,12,12,6,6,12,6,3,15,6,6,6,6,6,3,15,6,6,12,6,3,15,6,6,6,3,15,3,3,3,3,3,3,3,3,3,3,3,3,3,3,3,3,4,4,4,4,4,4,4,8,4,4,4,8,8,8,8,4,16,4,4,4,4,4,4,12,4,4,4,21,4,4,4,4,4,4,4,4,4,4,4,4,4,4,4,4,8,3,3,3,3,3,3,3,3,3,3,3,3,3,3,3,3,12,6,6,16,6,12,6,6,12,6,6,12,6,6,12,6,6,12,6,6,12,6,6,12,6,6,16,6,6,6,6,6,12,12,16,6,12,12,16,};
uint16_t headD_noteos[879]={
0,42,48,60,66,72,90,96,108,114,120,132,138,144,156,162,168,180,186,192,204,210,216,228,234,240,252,258,264,282,288,294,300,306,312,324,336,354,360,372,384,402,408,456,456,459,460,462,464,465,465,468,468,471,472,474,476,477,477,480,492,498,501,507,510,516,522,528,540,546,549,558,564,570,576,588,597,606,612,618,624,636,645,654,660,666,672,684,690,693,699,702,708,714,720,732,738,741,750,756,762,768,780,789,798,804,810,816,825,834,843,852,858,864,876,885,891,900,912,924,933,939,948,960,972,981,987,996,1008,1011,1014,1017,1020,1023,1026,1029,1032,1035,1038,1041,1044,1047,1050,1053,1056,1062,1068,1074,1077,1083,1086,1092,1104,1110,1116,1122,1125,1128,1131,1134,1140,1152,1158,1164,1170,1173,1179,1182,1188,1200,1206,1212,1218,1221,1224,1227,1230,1236,1248,1254,1260,1266,1269,1275,1278,1284,1296,1302,1308,1314,1317,1320,1323,1326,1332,1344,1350,1356,1362,1365,1368,1371,1374,1380,1386,1392,1398,1404,1410,1413,1416,1428,1440,1458,1476,1488,1500,1506,1512,1524,1530,1536,1554,1572,1584,1596,1602,1620,1632,1650,1668,1680,1692,1698,1710,1716,1722,1728,1737,1746,1752,1761,1770,1776,1785,1794,1800,1812,1818,1824,1836,1842,1845,1860,1866,1872,1878,1884,1890,1893,1908,1914,1920,1932,1938,1941,1956,1962,1968,1980,1992,2004,2010,2016,2028,2034,2037,2052,2058,2064,2070,2076,2082,2085,2100,2106,2112,2124,2130,2133,2148,2154,2160,2166,2169,2196,2202,2208,2220,2226,2229,2244,2250,2256,2262,2268,2274,2277,2292,2298,2304,2316,2322,2325,2340,2346,2352,2364,2376,2388,2394,2400,2412,2418,2421,2436,2442,2448,2454,2460,2466,2469,2484,2490,2496,2508,2514,2517,2532,2538,2544,2550,2553,2568,2568,2571,2572,2574,2576,2577,2577,2580,2580,2583,2584,2586,2588,2589,2589,2592,2601,2607,2613,2619,2622,2634,2646,2655,2661,2667,2673,2676,2688,2694,2703,2709,2715,2721,2724,2736,2742,2751,2757,2763,2769,2772,2784,2790,2799,2805,2811,2817,2820,2832,2838,2847,2853,2859,2865,2868,2880,2886,2895,2901,2907,2913,2916,2928,2934,2982,2988,2994,3000,3003,3009,3012,3018,3030,3036,3042,3048,3051,3054,3057,3060,3066,3078,3084,3090,3096,3099,3105,3108,3114,3126,3132,3138,3144,3147,3150,3153,3156,3162,3174,3180,3186,3192,3195,3201,3204,3210,3222,3228,3234,3240,3243,3246,3249,3252,3258,3270,3276,3282,3288,3291,3294,3297,3300,3306,3312,3318,3324,3330,3336,3339,3342,3354,3366,3384,3402,3414,3426,3432,3438,3450,3456,3462,3480,3498,3510,3522,3528,3546,3558,3576,3594,3606,3618,3624,3636,3642,3648,3654,3663,3672,3678,3687,3696,3702,3711,3720,3726,3738,3744,3750,3762,3768,3771,3786,3792,3798,3804,3810,3816,3819,3834,3840,3846,3858,3864,3867,3882,3888,3894,3906,3918,3930,3936,3942,3954,3960,3963,3978,3984,3990,3996,4002,4008,4011,4026,4032,4038,4050,4056,4059,4074,4080,4086,4092,4095,4122,4128,4134,4146,4152,4155,4170,4176,4182,4188,4194,4200,4203,4218,4224,4230,4242,4248,4251,4266,4272,4278,4290,4302,4314,4320,4326,4338,4344,4347,4362,4368,4374,4380,4386,4392,4395,4410,4416,4422,4434,4440,4443,4458,4464,4470,4476,4479,4494,4496,4497,4497,4500,4500,4503,4504,4506,4508,4509,4509,4512,4512,4515,4516,4518,4530,4536,4542,4560,4566,4578,4584,4590,4602,4608,4614,4626,4632,4638,4650,4656,4662,4674,4680,4686,4698,4704,4710,4722,4728,4734,4752,4764,4770,4776,4782,4788,4800,4812,4830,4836,4848,4860,4878,4884,4908,4920,4926,4929,4944,4950,4956,4962,4968,4974,4977,4992,4998,5004,5016,5022,5025,5040,5046,5052,5064,5076,5088,5094,5100,5112,5118,5121,5136,5142,5148,5154,5160,5166,5169,5184,5190,5196,5208,5214,5217,5220,5232,5238,5244,5250,5253,5256,5280,5286,5292,5304,5310,5313,5328,5334,5340,5346,5352,5358,5361,5376,5382,5388,5400,5406,5409,5424,5430,5436,5448,5460,5472,5478,5484,5496,5502,5505,5520,5526,5532,5538,5544,5550,5553,5568,5574,5580,5592,5598,5601,5616,5622,5628,5634,5637,5652,5652,5655,5656,5658,5660,5661,5661,5664,5664,5667,5668,5670,5672,5673,5673,5676,5680,5684,5688,5692,5696,5700,5704,5712,5716,5720,5724,5732,5740,5748,5756,5778,5796,5800,5804,5808,5812,5816,5820,5832,5836,5840,5844,5868,5872,5876,5880,5884,5888,5892,5896,5900,5904,5908,5912,5916,5920,5924,5928,5932,5940,5940,5943,5944,5946,5948,5949,5949,5952,5952,5955,5956,5958,5960,5961,5961,5964,5976,5982,5988,6006,6012,6024,6030,6036,6048,6054,6060,6072,6078,6084,6096,6102,6108,6120,6126,6132,6144,6150,6156,6168,6174,6180,6198,6204,6210,6216,6222,6228,6240,6252,6270,6276,6288,6300,};
uint16_t headD_len=879;
