uint16_t the_internationale_PNO_note[244][8]={
{NOTE_E4,NOTE_E3,},
{NOTE_A4,},
{NOTE_CS4,NOTE_E4,},
{NOTE_A1,NOTE_A2,},
{NOTE_E2,NOTE_E3,},
{NOTE_GS4,},
{NOTE_B4,},
{NOTE_E4,},
{NOTE_CS2,NOTE_CS3,},
{NOTE_A4,},
{NOTE_E4,NOTE_A1,NOTE_A2,},
{NOTE_CS4,},
{NOTE_A3,NOTE_D4,NOTE_FS4,},
{NOTE_D2,NOTE_D3,},
{NOTE_CS2,NOTE_CS3,},
{NOTE_FS3,NOTE_B3,NOTE_D4,NOTE_B1,NOTE_B2,},
{NOTE_A1,NOTE_A2,},
{NOTE_FS4,},
{NOTE_B4,},
{NOTE_B3,NOTE_E4,},
{NOTE_GS1,NOTE_GS2,},
{NOTE_E1,NOTE_E2,},
{NOTE_A4,},
{NOTE_GS4,},
{NOTE_B3,NOTE_D4,NOTE_FS1,NOTE_FS2,},
{NOTE_FS4,},
{NOTE_E4,},
{NOTE_B3,NOTE_GS1,NOTE_GS2,},
{NOTE_D4,},
{NOTE_A3,NOTE_CS4,},
{NOTE_A1,NOTE_A2,},
{NOTE_CS2,NOTE_CS3,},
{NOTE_D2,NOTE_D3,},
{NOTE_E2,NOTE_E3,},
{NOTE_GS3,NOTE_B3,NOTE_D4,NOTE_E4,},
{NOTE_A4,},
{NOTE_CS4,NOTE_E4,},
{NOTE_A1,NOTE_A2,},
{NOTE_E2,NOTE_E3,},
{NOTE_GS4,},
{NOTE_B4,},
{NOTE_E4,},
{NOTE_CS2,NOTE_CS3,},
{NOTE_A4,},
{NOTE_E4,NOTE_A1,NOTE_A2,},
{NOTE_CS4,},
{NOTE_FS3,NOTE_FS4,},
{NOTE_A3,NOTE_D4,NOTE_D2,NOTE_D3,},
{NOTE_AS3,NOTE_E4,NOTE_CS2,NOTE_CS3,},
{NOTE_D4,NOTE_FS3,NOTE_B3,NOTE_B1,NOTE_B2,},
{NOTE_B4,},
{NOTE_B3,NOTE_FS4,NOTE_D2,NOTE_D3,},
{NOTE_A4,},
{NOTE_GS4,NOTE_B3,NOTE_E4,NOTE_E2,NOTE_E3,},
{NOTE_B4,},
{NOTE_D4,NOTE_FS4,},
{NOTE_D2,NOTE_D3,},
{NOTE_CS2,NOTE_CS3,},
{NOTE_D5,NOTE_B1,NOTE_B2,},
{NOTE_B3,NOTE_D4,NOTE_GS4,NOTE_E2,NOTE_E3,},
{NOTE_A3,NOTE_CS4,NOTE_A4,},
{NOTE_A1,NOTE_A2,},
{NOTE_E4,},
{NOTE_A4,},
{NOTE_CS4,},
{NOTE_B4,},
{NOTE_GS4,},
{NOTE_B3,NOTE_E4,},
{NOTE_E2,NOTE_E3,},
{NOTE_GS1,NOTE_GS2,},
{NOTE_GS4,},
{NOTE_FS4,},
{NOTE_CS4,NOTE_E4,NOTE_A1,NOTE_A2,},
{NOTE_GS4,},
{NOTE_A4,},
{NOTE_B3,NOTE_DS4,NOTE_B1,NOTE_B2,},
{NOTE_FS4,},
{NOTE_B3,NOTE_E4,NOTE_GS4,},
{NOTE_E2,NOTE_E3,},
{NOTE_DS2,NOTE_DS3,},
{NOTE_E4,},
{NOTE_GS3,NOTE_CS4,},
{NOTE_CS2,NOTE_CS3,},
{NOTE_E4,},
{NOTE_DS4,},
{NOTE_B1,NOTE_B2,},
{NOTE_E4,},
{NOTE_FS4,},
{NOTE_CS4,NOTE_E4,},
{NOTE_A1,NOTE_A2,},
{NOTE_GS1,NOTE_GS2,},
{NOTE_FS4,},
{NOTE_B4,},
{NOTE_B3,NOTE_DS4,},
{NOTE_FS1,NOTE_FS2,},
{NOTE_B1,NOTE_B2,},
{NOTE_A4,},
{NOTE_B3,NOTE_E4,NOTE_GS4,},
{NOTE_E1,NOTE_E2,},
{NOTE_B1,NOTE_B2,},
{NOTE_E2,NOTE_E3,},
{NOTE_B3,NOTE_DS4,NOTE_A4,NOTE_B4,NOTE_FS2,NOTE_FS3,},
{NOTE_B4,},
{NOTE_B4,},
{NOTE_E4,},
{NOTE_GS2,NOTE_GS3,},
{NOTE_E2,NOTE_E3,},
{NOTE_GS4,},
{NOTE_E4,},
{NOTE_FS2,NOTE_FS3,},
{NOTE_E4,},
{NOTE_B4,},
{NOTE_DS4,},
{NOTE_GS2,NOTE_GS3,},
{NOTE_E4,},
{NOTE_CS4,NOTE_CS5,},
{NOTE_E4,NOTE_A2,NOTE_A3,},
{NOTE_F4,NOTE_GS2,NOTE_GS3,},
{NOTE_A4,},
{NOTE_CS4,NOTE_FS4,NOTE_FS2,NOTE_FS3,},
{NOTE_A4,},
{NOTE_GS4,},
{NOTE_B3,NOTE_DS2,NOTE_DS3,},
{NOTE_A4,},
{NOTE_B3,NOTE_E4,NOTE_B4,NOTE_GS2,NOTE_GS3,},
{NOTE_B3,NOTE_F4,NOTE_B4,NOTE_CS2,NOTE_CS3,},
{NOTE_CS4,NOTE_FS4,NOTE_A4,NOTE_FS2,NOTE_FS3,},
{NOTE_A3,NOTE_DS4,NOTE_FS4,NOTE_B1,NOTE_B2,},
{NOTE_E4,},
{NOTE_GS3,NOTE_B3,NOTE_E2,NOTE_E3,},
{NOTE_E3,NOTE_GS3,NOTE_CS4,},
{NOTE_E1,NOTE_E2,},
{NOTE_FS3,NOTE_A3,NOTE_D4,},
{NOTE_CS4,NOTE_E4,NOTE_CS5,},
{NOTE_E4,},
{NOTE_GS4,},
{NOTE_B3,NOTE_D4,NOTE_B4,},
{NOTE_A3,NOTE_CS4,NOTE_A4,},
{NOTE_A4,},
{NOTE_A1,NOTE_A2,},
{NOTE_A3,NOTE_CS4,NOTE_E4,},
{NOTE_B1,NOTE_B2,},
{NOTE_CS2,NOTE_CS3,},
{NOTE_A3,NOTE_D4,NOTE_FS4,},
{NOTE_D2,NOTE_D3,},
{NOTE_E2,NOTE_E3,},
{NOTE_A3,NOTE_D4,NOTE_FS2,NOTE_FS3,},
{NOTE_B4,},
{NOTE_D4,NOTE_FS4,NOTE_D2,NOTE_D3,},
{NOTE_A4,},
{NOTE_B3,NOTE_D4,NOTE_GS4,},
{NOTE_E2,NOTE_E3,},
{NOTE_E1,NOTE_E2,},
{NOTE_FS4,},
{NOTE_A3,NOTE_FS1,NOTE_FS2,},
{NOTE_D4,},
{NOTE_B3,NOTE_GS1,NOTE_GS2,},
{NOTE_E4,},
{NOTE_A3,NOTE_CS4,NOTE_E4,},
{NOTE_A1,NOTE_A2,},
{NOTE_B1,NOTE_B2,},
{NOTE_CS2,NOTE_CS3,},
{NOTE_GS3,NOTE_D4,NOTE_E4,NOTE_E2,NOTE_E3,},
{NOTE_CS4,},
{NOTE_CS4,NOTE_E4,NOTE_A4,},
{NOTE_A1,NOTE_A2,},
{NOTE_CS2,NOTE_CS3,},
{NOTE_CS4,},
{NOTE_B3,NOTE_E4,NOTE_GS4,NOTE_B4,},
{NOTE_E2,NOTE_E3,},
{NOTE_E4,},
{NOTE_A3,NOTE_CS4,NOTE_FS4,NOTE_A4,},
{NOTE_FS1,NOTE_FS2,},
{NOTE_A1,NOTE_A2,},
{NOTE_GS3,NOTE_CS4,NOTE_E4,NOTE_GS4,},
{NOTE_CS2,NOTE_CS3,},
{NOTE_GS4,},
{NOTE_FS4,},
{NOTE_CS4,NOTE_E4,},
{NOTE_A1,NOTE_A2,},
{NOTE_FS1,NOTE_FS2,},
{NOTE_F4,},
{NOTE_FS4,NOTE_FS2,NOTE_FS3,},
{NOTE_B3,NOTE_DS4,NOTE_A4,NOTE_B4,NOTE_B1,NOTE_B2,},
{NOTE_B3,NOTE_D4,NOTE_GS4,NOTE_B4,},
{NOTE_E2,NOTE_E3,},
{NOTE_B1,NOTE_B2,},
{NOTE_E1,NOTE_E2,},
{NOTE_E4,NOTE_GS4,NOTE_CS5,},
{NOTE_E4,},
{NOTE_GS4,},
{NOTE_D4,NOTE_GS4,NOTE_B4,},
{NOTE_CS4,NOTE_E4,NOTE_A4,},
{NOTE_A2,NOTE_A3,},
{NOTE_A1,NOTE_A2,},
{NOTE_A3,NOTE_CS4,NOTE_E4,},
{NOTE_B1,NOTE_B2,},
{NOTE_CS2,NOTE_CS3,},
{NOTE_A3,NOTE_D4,NOTE_FS4,},
{NOTE_D2,NOTE_D3,},
{NOTE_E2,NOTE_E3,},
{NOTE_A3,NOTE_D4,NOTE_FS2,NOTE_FS3,},
{NOTE_B4,},
{NOTE_D4,NOTE_FS4,NOTE_D2,NOTE_D3,},
{NOTE_A4,},
{NOTE_B3,NOTE_D4,NOTE_GS4,},
{NOTE_E2,NOTE_E3,},
{NOTE_E1,NOTE_E2,},
{NOTE_FS4,},
{NOTE_A3,NOTE_FS1,NOTE_FS2,},
{NOTE_D4,},
{NOTE_B3,NOTE_GS1,NOTE_GS2,},
{NOTE_E4,},
{NOTE_CS4,NOTE_E4,NOTE_CS5,},
{NOTE_A1,NOTE_A2,},
{NOTE_E2,NOTE_E3,},
{NOTE_A2,NOTE_A3,},
{NOTE_CS4,NOTE_E4,NOTE_CS5,},
{NOTE_E4,NOTE_AS4,NOTE_E5,NOTE_FS1,NOTE_FS2,},
{NOTE_FS3,NOTE_AS3,NOTE_E4,},
{NOTE_E4,NOTE_AS4,NOTE_E5,NOTE_CS2,NOTE_CS3,},
{NOTE_D4,NOTE_FS4,NOTE_D5,NOTE_FS2,NOTE_FS3,},
{NOTE_CS4,NOTE_FS4,NOTE_CS5,NOTE_E2,NOTE_E3,},
{NOTE_B3,NOTE_D4,NOTE_FS4,NOTE_B4,},
{NOTE_D2,NOTE_D3,},
{NOTE_AS3,NOTE_AS4,},
{NOTE_B3,NOTE_E4,NOTE_FS4,NOTE_B4,},
{NOTE_CS2,NOTE_CS3,},
{NOTE_CS4,NOTE_CS5,},
{NOTE_D4,NOTE_FS4,NOTE_B4,NOTE_D5,NOTE_B1,NOTE_B2,},
{NOTE_D1,NOTE_D2,},
{NOTE_D4,NOTE_FS4,NOTE_B4,NOTE_D5,},
{NOTE_CS4,NOTE_E4,NOTE_A4,NOTE_CS5,},
{NOTE_E1,NOTE_E2,},
{NOTE_E3,NOTE_A3,NOTE_CS4,},
{NOTE_CS4,NOTE_E4,NOTE_A4,},
{NOTE_D4,NOTE_E4,NOTE_GS4,NOTE_B4,},
{NOTE_E1,NOTE_E2,},
{NOTE_E3,NOTE_GS3,NOTE_D4,},
{NOTE_D4,NOTE_E4,NOTE_GS4,},
{NOTE_CS4,NOTE_E4,NOTE_A4,},
{NOTE_A2,NOTE_A3,},
{NOTE_E2,NOTE_E3,},
};
uint16_t the_internationale_PNO_notedura[244]={
12,18,24,12,12,6,6,18,12,6,12,6,24,12,12,12,12,6,18,24,12,12,6,6,12,6,6,12,6,36,12,9,3,24,12,18,24,12,12,6,6,18,12,6,12,6,24,12,12,12,6,12,6,12,12,24,6,6,12,12,36,12,12,12,6,6,18,24,12,12,6,6,12,6,6,12,6,24,12,12,6,24,12,6,6,12,6,18,24,12,12,6,18,24,12,12,6,36,12,12,12,12,18,30,24,12,12,6,6,12,6,18,6,12,6,24,12,12,6,12,6,6,12,6,12,12,12,12,36,12,12,24,12,9,12,9,3,24,12,12,24,12,12,24,12,12,12,9,12,3,24,12,12,18,12,24,12,6,36,12,12,12,12,18,24,12,12,6,12,24,12,24,12,12,12,24,6,18,36,12,12,6,12,12,36,12,12,12,9,12,9,3,24,12,12,24,12,12,24,12,12,12,9,12,3,24,12,12,18,12,24,12,6,36,12,12,12,12,18,12,6,12,12,6,12,6,6,12,6,12,12,6,18,12,12,6,18,12,12,6,36,12,};
uint16_t the_internationale_PNO_noteos[244]={
0,48,48,48,60,66,72,72,72,78,84,90,96,96,108,120,132,138,144,144,144,156,162,168,168,174,180,180,186,192,192,204,213,216,228,240,240,240,252,258,264,264,264,270,276,282,288,288,300,312,324,324,330,336,348,348,348,354,360,372,384,384,396,408,420,426,432,432,432,444,450,456,456,462,468,468,474,480,480,492,504,504,504,510,516,516,522,528,528,528,540,546,552,552,552,564,570,576,576,588,600,612,624,624,624,624,636,642,648,648,654,654,660,660,666,672,672,684,696,696,702,708,708,714,720,732,744,756,768,768,780,780,792,804,804,807,813,816,816,828,840,840,852,864,864,876,888,900,900,909,912,912,924,936,936,936,948,954,960,960,972,984,996,1008,1008,1008,1020,1026,1032,1032,1044,1056,1056,1068,1080,1080,1098,1104,1104,1104,1116,1122,1128,1140,1152,1152,1164,1176,1188,1188,1191,1197,1200,1200,1212,1224,1224,1236,1248,1248,1260,1272,1284,1284,1293,1296,1296,1308,1320,1320,1320,1332,1338,1344,1344,1356,1368,1380,1392,1404,1410,1416,1428,1440,1440,1446,1452,1452,1458,1464,1476,1482,1488,1488,1500,1506,1512,1512,1524,1530,1536,1536,};
uint16_t the_internationale_PNO_len=244;
