uint16_t hlxd_note[438][8]={
{NOTE_AS4,NOTE_DS5,NOTE_DS4,NOTE_G4,NOTE_C4,},
{NOTE_C4,},
{NOTE_DS6,NOTE_AS5,},
{NOTE_C4,},
{NOTE_FS4,},
{NOTE_GS4,},
{NOTE_GS4,},
{NOTE_C5,NOTE_G4,NOTE_C2,NOTE_G4,NOTE_C4,},
{NOTE_G5,NOTE_C6,NOTE_FS2,},
{NOTE_DS4,NOTE_G4,},
{NOTE_CS2,NOTE_DS2,},
{NOTE_FS4,},
{NOTE_AS4,NOTE_F4,NOTE_FS2,},
{NOTE_C2,NOTE_AS5,NOTE_F5,NOTE_C4,NOTE_DS4,NOTE_G4,},
{NOTE_C4,},
{NOTE_G4,NOTE_C5,},
{NOTE_C4,},
{NOTE_G5,NOTE_C6,},
{NOTE_DS4,NOTE_G4,},
{NOTE_C4,},
{NOTE_GS4,},
{NOTE_CS2,NOTE_DS2,},
{NOTE_FS4,},
{NOTE_GS4,},
{NOTE_DS5,NOTE_AS4,NOTE_C2,NOTE_DS6,NOTE_DS4,NOTE_C4,NOTE_G4,NOTE_FS2,},
{NOTE_AS5,NOTE_DS4,NOTE_C4,NOTE_G4,},
{NOTE_C4,},
{NOTE_G4,NOTE_C5,NOTE_C2,NOTE_G5,NOTE_C6,NOTE_DS4,NOTE_C4,NOTE_G4,},
{NOTE_GS4,},
{NOTE_GS4,},
{NOTE_F4,NOTE_AS4,NOTE_C2,NOTE_F5,NOTE_DS4,NOTE_G4,NOTE_FS2,},
{NOTE_AS5,NOTE_DS4,NOTE_G4,NOTE_C4,},
{NOTE_CS2,NOTE_DS2,},
{NOTE_AS4,NOTE_DS5,NOTE_C2,NOTE_DS6,NOTE_G4,NOTE_C4,NOTE_DS4,},
{NOTE_GS4,},
{NOTE_C4,},
{NOTE_C5,NOTE_G4,},
{NOTE_C4,},
{NOTE_G5,NOTE_C6,NOTE_FS2,},
{NOTE_DS4,NOTE_G4,NOTE_C4,},
{NOTE_C4,},
{NOTE_DS4,},
{NOTE_F4,},
{NOTE_G4,},
{NOTE_AS4,},
{NOTE_GS4,},
{NOTE_C4,},
{NOTE_DS4,},
{NOTE_F4,},
{NOTE_CS2,NOTE_DS2,},
{NOTE_FS4,},
{NOTE_G4,},
{NOTE_AS4,},
{NOTE_C4,},
{NOTE_CS2,NOTE_DS2,},
{NOTE_GS4,},
{NOTE_DS4,},
{NOTE_F4,},
{NOTE_DS4,},
{NOTE_DS4,},
{NOTE_DS5,NOTE_FS2,},
{NOTE_C4,},
{NOTE_AS3,NOTE_G4,NOTE_DS4,NOTE_G4,NOTE_GS2,},
{NOTE_AS3,NOTE_G4,NOTE_DS4,},
{NOTE_GS4,},
{NOTE_DS4,},
{NOTE_DS4,NOTE_DS5,},
{NOTE_DS5,NOTE_FS2,},
{NOTE_AS4,},
{NOTE_CS2,NOTE_DS2,},
{NOTE_AS4,},
{NOTE_AS3,NOTE_DS4,NOTE_G4,NOTE_G4,},
{NOTE_FS4,},
{NOTE_DS4,},
{NOTE_DS4,},
{NOTE_G5,NOTE_C2,},
{NOTE_FS4,},
{NOTE_AS3,NOTE_GS2,},
{NOTE_DS4,NOTE_AS3,NOTE_G4,NOTE_G4,},
{NOTE_DS4,},
{NOTE_DS4,NOTE_AS4,NOTE_DS5,},
{NOTE_DS5,NOTE_FS2,},
{NOTE_CS2,NOTE_DS2,},
{NOTE_F4,},
{NOTE_AS1,NOTE_AS4,},
{NOTE_G5,NOTE_AS3,NOTE_DS4,NOTE_G4,NOTE_GS2,},
{NOTE_G4,},
{NOTE_DS4,},
{NOTE_DS4,},
{NOTE_DS5,NOTE_FS2,},
{NOTE_C4,},
{NOTE_AS4,},
{NOTE_DS5,NOTE_DS4,NOTE_AS3,NOTE_G4,NOTE_G4,},
{NOTE_GS4,},
{NOTE_GS4,},
{NOTE_DS2,NOTE_DS5,},
{NOTE_DS4,},
{NOTE_AS4,},
{NOTE_CS2,NOTE_DS2,},
{NOTE_FS4,},
{NOTE_G4,NOTE_AS3,NOTE_DS4,NOTE_GS2,},
{NOTE_G4,},
{NOTE_G4,},
{NOTE_G4,},
{NOTE_DS4,},
{NOTE_AS4,NOTE_FS2,},
{NOTE_C4,},
{NOTE_DS4,},
{NOTE_AS3,NOTE_DS4,NOTE_G4,NOTE_G4,},
{NOTE_GS4,},
{NOTE_DS2,NOTE_F5,},
{NOTE_AS3,NOTE_AS3,NOTE_DS4,NOTE_G4,NOTE_FS2,},
{NOTE_AS4,NOTE_DS5,NOTE_CS2,NOTE_DS2,},
{NOTE_G4,},
{NOTE_D4,},
{NOTE_DS5,NOTE_AS5,NOTE_GS2,},
{NOTE_AS3,NOTE_G4,NOTE_DS4,NOTE_G4,},
{NOTE_CS2,NOTE_DS2,},
{NOTE_C4,},
{NOTE_C2,NOTE_C6,},
{NOTE_C4,},
{NOTE_C4,},
{NOTE_FS4,},
{NOTE_G3,NOTE_C4,NOTE_DS4,NOTE_G4,NOTE_G4,NOTE_GS2,},
{NOTE_GS4,},
{NOTE_C2,NOTE_C6,NOTE_DS5,NOTE_C5,},
{NOTE_DS4,},
{NOTE_CS2,NOTE_DS2,},
{NOTE_FS4,},
{NOTE_G4,NOTE_DS4,NOTE_C4,NOTE_G4,NOTE_FS2,},
{NOTE_G4,},
{NOTE_C2,NOTE_C6,},
{NOTE_C4,},
{NOTE_C4,},
{NOTE_FS4,},
{NOTE_G3,NOTE_DS4,NOTE_G4,NOTE_C4,NOTE_G4,NOTE_GS2,},
{NOTE_AS5,NOTE_DS4,NOTE_G4,NOTE_C4,NOTE_G4,},
{NOTE_C2,NOTE_C6,NOTE_DS5,NOTE_C5,},
{NOTE_DS4,},
{NOTE_CS2,NOTE_DS2,},
{NOTE_FS4,},
{NOTE_G4,},
{NOTE_C4,},
{NOTE_C4,NOTE_DS4,NOTE_G4,NOTE_G4,},
{NOTE_GS4,},
{NOTE_C4,},
{NOTE_C4,},
{NOTE_AS5,NOTE_FS2,},
{NOTE_C4,},
{NOTE_G3,NOTE_DS4,NOTE_C4,NOTE_G4,},
{NOTE_DS5,NOTE_DS4,NOTE_C4,NOTE_G4,NOTE_G4,NOTE_GS2,},
{NOTE_GS4,},
{NOTE_C4,},
{NOTE_DS4,},
{NOTE_DS5,NOTE_C5,},
{NOTE_CS2,NOTE_DS2,},
{NOTE_FS4,},
{NOTE_G4,NOTE_DS4,NOTE_C4,NOTE_G4,NOTE_G4,},
{NOTE_G4,},
{NOTE_GS4,},
{NOTE_C4,},
{NOTE_C4,},
{NOTE_C4,},
{NOTE_FS4,},
{NOTE_G3,NOTE_G5,NOTE_C4,NOTE_G4,NOTE_GS2,},
{NOTE_DS4,NOTE_C4,NOTE_G4,NOTE_GS2,},
{NOTE_C2,NOTE_DS6,},
{NOTE_DS4,NOTE_FS2,},
{NOTE_G6,NOTE_C5,NOTE_DS5,},
{NOTE_C4,},
{NOTE_CS2,NOTE_DS2,},
{NOTE_G1,NOTE_CS2,NOTE_DS2,},
{NOTE_G4,NOTE_G5,NOTE_C4,NOTE_DS4,NOTE_G4,NOTE_G4,},
{NOTE_GS4,},
{NOTE_C4,},
{NOTE_C4,},
{NOTE_DS4,},
{NOTE_C4,},
{NOTE_FS4,},
{NOTE_G3,NOTE_DS4,NOTE_C4,NOTE_G4,NOTE_G4,},
{NOTE_C6,NOTE_DS4,NOTE_C4,NOTE_G4,NOTE_G4,NOTE_GS2,},
{NOTE_GS4,},
{NOTE_C2,NOTE_DS5,},
{NOTE_DS4,NOTE_C6,NOTE_FS2,},
{NOTE_C4,},
{NOTE_CS2,NOTE_DS2,},
{NOTE_G4,NOTE_DS4,NOTE_C4,NOTE_G4,NOTE_FS2,},
{NOTE_AS5,NOTE_DS4,NOTE_C4,NOTE_G4,NOTE_G4,},
{NOTE_C4,},
{NOTE_C5,NOTE_FS2,},
{NOTE_C4,},
{NOTE_C4,},
{NOTE_C4,},
{NOTE_C4,NOTE_DS4,NOTE_G4,NOTE_GS2,},
{NOTE_G4,},
{NOTE_C2,NOTE_C5,NOTE_DS5,},
{NOTE_G4,},
{NOTE_CS2,NOTE_DS2,},
{NOTE_FS4,},
{NOTE_DS4,NOTE_GS2,},
{NOTE_C4,NOTE_DS4,NOTE_G4,NOTE_G4,NOTE_GS2,},
{NOTE_F2,NOTE_F3,},
{NOTE_AS5,NOTE_FS2,},
{NOTE_C4,},
{NOTE_C4,NOTE_DS5,NOTE_F4,NOTE_C4,NOTE_GS4,NOTE_GS2,},
{NOTE_GS4,NOTE_F4,NOTE_C4,},
{NOTE_GS4,},
{NOTE_F2,NOTE_F5,NOTE_C5,},
{NOTE_F4,NOTE_FS2,},
{NOTE_CS2,NOTE_DS2,},
{NOTE_F5,NOTE_C4,NOTE_GS4,NOTE_F4,NOTE_GS2,},
{NOTE_F4,},
{NOTE_GS4,},
{NOTE_F4,},
{NOTE_F4,},
{NOTE_C4,},
{NOTE_FS4,},
{NOTE_C4,NOTE_F4,NOTE_GS4,},
{NOTE_F4,},
{NOTE_C4,NOTE_GS4,NOTE_F4,NOTE_GS2,},
{NOTE_F2,NOTE_G5,NOTE_C5,NOTE_F5,},
{NOTE_C5,NOTE_CS2,NOTE_DS2,},
{NOTE_FS4,},
{NOTE_C2,NOTE_F4,NOTE_AS5,NOTE_GS4,NOTE_GS2,},
{NOTE_C4,NOTE_F4,NOTE_GS4,NOTE_GS2,},
{NOTE_CS2,NOTE_DS2,},
{NOTE_G2,NOTE_G3,},
{NOTE_D4,},
{NOTE_D4,},
{NOTE_C4,},
{NOTE_FS4,},
{NOTE_AS4,NOTE_D4,NOTE_G4,NOTE_GS2,},
{NOTE_G4,},
{NOTE_D4,},
{NOTE_GS4,},
{NOTE_G4,},
{NOTE_D5,NOTE_AS4,},
{NOTE_CS2,NOTE_DS2,},
{NOTE_FS4,},
{NOTE_G4,},
{NOTE_G4,NOTE_D4,NOTE_AS4,NOTE_G4,NOTE_FS2,},
{NOTE_AS4,},
{NOTE_G4,},
{NOTE_G4,},
{NOTE_C4,},
{NOTE_FS4,},
{NOTE_G3,NOTE_AS5,NOTE_AS4,NOTE_G4,NOTE_G4,},
{NOTE_D4,NOTE_AS4,NOTE_G4,NOTE_G4,NOTE_GS2,},
{NOTE_D4,},
{NOTE_G2,NOTE_D5,},
{NOTE_C4,},
{NOTE_G4,},
{NOTE_AS4,NOTE_D5,},
{NOTE_CS2,NOTE_DS2,},
{NOTE_FS4,},
{NOTE_G4,},
{NOTE_AS4,NOTE_G4,NOTE_AS4,NOTE_D4,NOTE_G4,NOTE_GS2,},
{NOTE_G4,},
{NOTE_G4,},
{NOTE_AS4,},
{NOTE_AS4,},
{NOTE_C4,},
{NOTE_FS4,},
{NOTE_D4,},
{NOTE_D4,NOTE_G4,NOTE_AS4,NOTE_G4,},
{NOTE_GS4,},
{NOTE_GS4,},
{NOTE_G1,NOTE_AS4,},
{NOTE_D4,},
{NOTE_CS2,NOTE_DS2,},
{NOTE_FS4,},
{NOTE_AS4,},
{NOTE_G4,NOTE_GS2,},
{NOTE_G4,NOTE_AS4,NOTE_D4,NOTE_G4,NOTE_GS2,},
{NOTE_G4,},
{NOTE_F4,},
{NOTE_C4,},
{NOTE_FS4,},
{NOTE_G4,},
{NOTE_D4,},
{NOTE_G4,NOTE_D4,NOTE_AS4,NOTE_G4,NOTE_GS2,},
{NOTE_G1,NOTE_G4,NOTE_D5,},
{NOTE_F4,},
{NOTE_AS4,NOTE_CS2,NOTE_DS2,},
{NOTE_FS4,},
{NOTE_G4,},
{NOTE_AS4,NOTE_AS5,NOTE_G4,},
{NOTE_G4,NOTE_G4,NOTE_GS2,},
{NOTE_CS2,NOTE_DS2,},
{NOTE_C4,},
{NOTE_C4,},
{NOTE_DS6,NOTE_DS5,NOTE_CS3,NOTE_E2,NOTE_C2,},
{NOTE_AS4,NOTE_G4,NOTE_DS4,},
{NOTE_C6,NOTE_C5,},
{NOTE_G4,NOTE_AS4,NOTE_CS3,NOTE_E2,NOTE_C2,},
{NOTE_DS4,NOTE_AS4,},
{NOTE_C6,NOTE_C5,},
{NOTE_C4,},
{NOTE_AS5,NOTE_AS4,},
{NOTE_AS5,NOTE_DS4,NOTE_C4,NOTE_G4,NOTE_AS4,},
{NOTE_C6,NOTE_DS4,NOTE_C4,NOTE_G4,NOTE_C5,NOTE_CS3,NOTE_C2,NOTE_E2,},
{NOTE_C4,},
{NOTE_C6,NOTE_G4,NOTE_C5,},
{NOTE_C4,NOTE_DS4,NOTE_G4,NOTE_CS3,NOTE_E2,NOTE_C2,},
{NOTE_AS5,NOTE_DS4,NOTE_C4,NOTE_G4,NOTE_AS4,},
{NOTE_DS5,NOTE_DS4,},
{NOTE_G5,NOTE_G4,},
{NOTE_G1,NOTE_G4,NOTE_AS3,NOTE_D4,},
{NOTE_CS3,NOTE_C2,NOTE_E2,},
{NOTE_G1,NOTE_G4,NOTE_D4,},
{NOTE_DS5,NOTE_G4,NOTE_D4,NOTE_AS3,NOTE_CS3,NOTE_C2,NOTE_E2,},
{NOTE_F4,},
{NOTE_G1,NOTE_G5,},
{NOTE_AS3,NOTE_D4,NOTE_G4,NOTE_CS3,NOTE_E2,NOTE_C2,},
{NOTE_AS4,},
{NOTE_C4,},
{NOTE_C6,NOTE_DS6,NOTE_DS5,NOTE_CS3,NOTE_E2,NOTE_C2,},
{NOTE_C6,NOTE_C5,},
{NOTE_DS4,},
{NOTE_AS4,NOTE_G4,},
{NOTE_C6,NOTE_C5,},
{NOTE_AS5,NOTE_AS4,},
{NOTE_C4,},
{NOTE_AS5,NOTE_DS4,NOTE_C4,NOTE_G4,NOTE_AS4,},
{NOTE_C6,NOTE_C4,NOTE_DS4,NOTE_C5,NOTE_E2,NOTE_CS3,NOTE_C2,},
{NOTE_G4,NOTE_C4,NOTE_DS4,NOTE_CS3,},
{NOTE_C2,NOTE_G4,NOTE_DS4,NOTE_C4,},
{NOTE_C6,NOTE_C5,},
{NOTE_CS3,NOTE_E2,NOTE_C2,},
{NOTE_AS5,NOTE_C4,NOTE_AS4,},
{NOTE_DS4,NOTE_G4,NOTE_C4,},
{NOTE_DS5,NOTE_DS4,},
{NOTE_F5,NOTE_F4,},
{NOTE_F2,NOTE_F4,NOTE_GS4,NOTE_C4,NOTE_CS3,},
{NOTE_E2,NOTE_C2,NOTE_CS3,},
{NOTE_F2,NOTE_AS4,NOTE_C4,NOTE_GS4,NOTE_F4,NOTE_CS3,NOTE_C2,NOTE_E2,},
{NOTE_C4,},
{NOTE_DS4,},
{NOTE_E4,},
{NOTE_F2,NOTE_F5,},
{NOTE_C4,NOTE_GS4,NOTE_F4,NOTE_C2,NOTE_CS3,},
{NOTE_DS4,},
{NOTE_G4,},
{NOTE_G5,NOTE_G4,},
{NOTE_C4,},
{NOTE_FS4,},
{NOTE_DS4,NOTE_AS3,NOTE_G4,},
{NOTE_GS4,},
{NOTE_GS4,},
{NOTE_AS4,},
{NOTE_CS2,NOTE_DS2,},
{NOTE_FS4,},
{NOTE_AS3,NOTE_DS4,NOTE_G4,NOTE_FS2,},
{NOTE_DS4,},
{NOTE_C4,},
{NOTE_FS4,},
{NOTE_DS4,},
{NOTE_DS5,NOTE_DS4,NOTE_FS2,},
{NOTE_AS3,NOTE_DS4,NOTE_G4,NOTE_FS2,},
{NOTE_D2,NOTE_C5,},
{NOTE_C5,NOTE_C4,},
{NOTE_CS2,NOTE_DS2,},
{NOTE_FS4,},
{NOTE_AS3,NOTE_DS4,NOTE_G4,NOTE_FS2,},
{NOTE_C4,},
{NOTE_DS4,},
{NOTE_DS5,NOTE_DS4,},
{NOTE_C4,},
{NOTE_FS4,},
{NOTE_DS4,NOTE_C4,},
{NOTE_G4,},
{NOTE_GS4,},
{NOTE_GS4,},
{NOTE_C4,},
{NOTE_CS2,NOTE_DS2,},
{NOTE_FS4,},
{NOTE_DS4,NOTE_C4,NOTE_G4,NOTE_GS2,},
{NOTE_C4,},
{NOTE_C4,},
{NOTE_FS4,},
{NOTE_DS4,NOTE_G4,NOTE_C4,NOTE_GS2,},
{NOTE_C4,},
{NOTE_DS4,NOTE_C4,NOTE_G4,},
{NOTE_CS2,NOTE_DS2,},
{NOTE_FS4,},
{NOTE_G1,NOTE_CS2,NOTE_DS2,},
{NOTE_DS4,NOTE_G4,NOTE_C4,},
{NOTE_GS4,},
{NOTE_C4,},
{NOTE_G5,NOTE_G4,NOTE_CS3,NOTE_E2,NOTE_C2,},
{NOTE_AS5,NOTE_AS4,},
{NOTE_DS4,NOTE_C4,NOTE_G4,},
{NOTE_C4,},
{NOTE_C6,NOTE_C5,},
{NOTE_DS4,NOTE_G4,NOTE_C4,},
{NOTE_C4,},
{NOTE_DS5,NOTE_G5,NOTE_DS4,NOTE_G4,NOTE_CS3,NOTE_C2,},
{NOTE_G4,},
{NOTE_C4,NOTE_G4,NOTE_CS3,NOTE_E2,NOTE_C2,},
{NOTE_G4,},
{NOTE_G5,NOTE_DS5,NOTE_DS4,NOTE_G4,NOTE_C4,NOTE_CS3,NOTE_C2,NOTE_E2,},
{NOTE_AS4,},
{NOTE_C2,NOTE_G5,NOTE_DS5,NOTE_C6,NOTE_DS4,NOTE_G4,NOTE_C4,NOTE_CS3,},
{NOTE_E2,NOTE_C2,},
{NOTE_C4,},
{NOTE_G5,NOTE_G4,NOTE_CS3,NOTE_C2,},
{NOTE_E4,},
{NOTE_AS5,NOTE_AS4,},
{NOTE_DS4,NOTE_G4,NOTE_C4,},
{NOTE_C6,NOTE_C5,},
{NOTE_DS4,NOTE_C4,NOTE_G4,},
{NOTE_C4,},
{NOTE_C5,NOTE_DS5,NOTE_DS4,NOTE_C4,NOTE_G4,NOTE_CS3,NOTE_C2,NOTE_E2,},
{NOTE_F4,},
{NOTE_DS5,NOTE_C5,NOTE_C4,NOTE_G4,NOTE_DS4,NOTE_CS3,NOTE_E2,NOTE_C2,},
{NOTE_G4,},
{NOTE_AS4,},
{NOTE_C5,NOTE_DS5,NOTE_E2,NOTE_C2,NOTE_CS3,},
{NOTE_AS4,},
{NOTE_A4,},
{NOTE_G5,NOTE_DS5,},
{NOTE_DS6,NOTE_DS5,},
{NOTE_DS4,NOTE_C4,NOTE_G4,},
{NOTE_A4,},
{NOTE_CS3,NOTE_C2,NOTE_E2,},
{NOTE_D6,NOTE_D5,},
{NOTE_AS5,NOTE_AS4,},
{NOTE_C6,NOTE_C5,},
{NOTE_C2,NOTE_DS5,NOTE_G5,NOTE_C5,NOTE_DS4,NOTE_C4,NOTE_G4,NOTE_CS3,},
{NOTE_E4,},
{NOTE_C2,NOTE_DS5,NOTE_G5,NOTE_C5,NOTE_DS4,NOTE_C4,NOTE_G4,NOTE_CS3,},
{NOTE_C2,NOTE_C5,NOTE_DS5,NOTE_G5,NOTE_DS4,NOTE_C4,NOTE_G4,NOTE_CS3,},
{NOTE_E2,NOTE_C2,},
{NOTE_C2,NOTE_G4,},
{NOTE_DS5,NOTE_G5,NOTE_C5,NOTE_G4,NOTE_C4,NOTE_DS4,NOTE_CS3,NOTE_E2,},
{NOTE_C2,NOTE_G4,},
{NOTE_DS5,NOTE_C5,NOTE_G5,NOTE_CS3,NOTE_E2,NOTE_C2,},
};
uint16_t hlxd_notedura[438]={
6,6,3,12,3,3,3,6,3,8,12,3,3,3,12,4,8,3,9,9,3,12,3,3,3,3,12,3,3,3,3,3,12,3,3,3,6,9,3,8,12,3,3,3,3,3,3,3,3,6,3,3,3,3,6,3,3,3,4,6,3,12,3,3,3,4,6,3,8,12,4,3,3,6,8,9,3,3,3,4,6,3,12,3,4,3,3,6,8,3,12,15,3,3,3,4,8,6,12,3,3,15,3,3,6,3,12,6,3,3,4,3,6,4,4,3,3,6,3,4,6,12,3,3,3,4,8,12,3,3,3,4,3,12,3,3,3,6,8,12,3,6,4,3,3,4,8,3,12,3,3,3,6,8,4,12,3,3,12,3,6,8,12,3,3,3,6,3,4,3,6,6,3,3,4,8,3,12,3,3,3,3,6,3,6,12,3,3,6,3,9,12,6,3,3,6,3,12,3,3,3,6,3,12,3,3,3,6,3,12,3,12,3,6,6,12,3,3,8,3,6,4,3,3,3,6,6,36,27,12,3,3,3,4,3,6,6,12,3,3,3,3,6,3,12,3,3,3,6,4,12,9,6,12,3,4,3,6,3,24,21,12,3,4,3,3,3,6,6,12,3,3,3,3,6,12,12,3,3,8,3,4,3,6,3,3,3,3,6,3,8,3,4,3,3,3,3,12,3,3,3,8,3,3,3,3,9,3,3,3,3,4,4,3,3,8,3,3,6,6,3,3,8,3,3,3,3,4,3,3,3,3,8,3,3,3,4,4,3,3,3,8,32,18,6,3,4,3,3,12,6,3,3,9,6,3,6,3,3,12,9,6,3,3,6,42,30,12,3,4,6,3,3,6,12,3,3,6,12,3,3,6,3,6,3,6,3,3,9,3,8,3,8,12,6,6,3,4,3,8,3,6,3,3,12,3,3,4,6,9,6,12,3,6,3,6,6,3,4,45,40,12,32,30,3,3,9,40,3,3,3,3,3,3,3,6,};
uint16_t hlxd_noteos[438]={
0,0,0,0,0,6,9,12,12,12,12,18,24,24,24,30,30,30,30,30,30,36,36,42,48,48,48,54,54,57,60,60,60,66,66,69,72,72,72,72,72,72,75,76,78,78,80,81,84,84,84,84,87,88,90,90,90,92,96,96,96,96,102,102,105,108,108,108,108,108,114,114,114,120,120,120,120,126,126,132,132,132,132,135,138,138,138,144,144,144,144,150,150,150,153,156,156,156,156,156,162,162,162,162,168,168,168,174,174,174,180,180,180,183,186,186,186,186,189,192,192,192,192,198,201,204,204,204,204,210,210,216,216,216,216,222,222,228,228,228,228,234,234,234,234,240,240,240,240,246,246,249,252,252,252,252,252,258,258,258,264,264,264,264,270,270,276,276,276,276,276,282,282,282,288,288,288,288,288,294,294,297,300,300,300,300,306,306,312,312,312,312,318,318,318,324,324,324,324,330,330,336,336,336,342,342,345,348,348,348,354,354,354,360,360,360,360,366,366,366,372,372,372,378,378,378,384,384,384,384,384,390,390,393,393,396,396,396,396,399,402,405,408,408,408,408,414,414,417,420,420,420,420,420,420,423,426,432,432,432,432,432,432,438,438,438,441,444,444,444,444,447,450,450,456,456,456,456,459,462,462,468,468,468,468,471,474,474,474,477,480,480,480,492,498,498,501,504,504,510,516,522,522,522,534,546,552,558,558,564,564,567,570,570,573,576,576,588,588,588,597,600,606,606,612,612,618,618,618,630,630,642,648,654,654,660,660,663,663,666,666,672,672,672,672,672,678,678,681,684,684,684,690,696,696,696,702,702,702,708,708,708,708,714,720,720,720,720,720,726,726,726,729,732,732,732,738,744,744,744,750,756,756,756,756,762,762,762,768,768,774,774,786,786,786,798,798,798,798,804,804,804,810,810,816,816,816,822,822,834,834,846,846,846,852,852,858,858,858,864,864,864,864,864,864,894,900,912,918,918,924,930,930,936,936,948,};
uint16_t hlxd_len=438;
