uint16_t pal1_note[320][8]={
{NOTE_FS4,NOTE_B4,},
{NOTE_B1,NOTE_FS4,NOTE_B3,},
{NOTE_FS4,},
{NOTE_FS4,},
{NOTE_B4,NOTE_E4,},
{NOTE_FS4,},
{NOTE_A1,NOTE_E4,NOTE_A3,},
{NOTE_A4,NOTE_E4,},
{NOTE_FS4,},
{NOTE_E4,},
{NOTE_E4,NOTE_A4,},
{NOTE_B4,},
{NOTE_B4,},
{NOTE_CS4,},
{NOTE_G4,},
{NOTE_G1,NOTE_D4,NOTE_G3,NOTE_D4,},
{NOTE_E4,},
{NOTE_G4,},
{NOTE_D4,},
{NOTE_E4,NOTE_A3,NOTE_A1,},
{NOTE_A4,},
{NOTE_CS4,},
{NOTE_B4,},
{NOTE_A4,},
{NOTE_A4,},
{NOTE_B1,NOTE_FS4,NOTE_B3,NOTE_B3,},
{NOTE_B4,},
{NOTE_B4,},
{NOTE_B4,},
{NOTE_B4,},
{NOTE_B3,NOTE_B1,NOTE_FS4,},
{NOTE_B4,NOTE_FS4,},
{NOTE_FS4,},
{NOTE_FS4,},
{NOTE_E4,NOTE_B4,},
{NOTE_FS4,},
{NOTE_B4,},
{NOTE_A1,NOTE_E4,NOTE_A3,},
{NOTE_A4,NOTE_A4,},
{NOTE_B4,},
{NOTE_A4,},
{NOTE_A4,},
{NOTE_A4,},
{NOTE_E4,},
{NOTE_E4,},
{NOTE_FS4,},
{NOTE_G4,NOTE_D4,NOTE_G1,NOTE_G3,},
{NOTE_G4,},
{NOTE_A4,},
{NOTE_G4,},
{NOTE_G4,},
{NOTE_A3,NOTE_FS4,NOTE_E4,NOTE_A1,},
{NOTE_A4,},
{NOTE_E4,},
{NOTE_A4,},
{NOTE_D4,},
{NOTE_B1,NOTE_B3,NOTE_FS4,},
{NOTE_FS4,},
{NOTE_B4,},
{NOTE_B4,},
{NOTE_B4,},
{NOTE_FS4,NOTE_B4,},
{NOTE_FS4,NOTE_B3,NOTE_B1,NOTE_B3,NOTE_FS4,},
{NOTE_B4,},
{NOTE_B4,},
{NOTE_CS4,},
{NOTE_B4,},
{NOTE_B4,},
{NOTE_A4,},
{NOTE_FS4,},
{NOTE_A3,NOTE_A3,NOTE_E4,NOTE_A1,NOTE_E4,NOTE_A4,},
{NOTE_A4,},
{NOTE_A4,},
{NOTE_FS4,},
{NOTE_A4,},
{NOTE_G3,NOTE_G1,NOTE_D4,NOTE_D4,NOTE_G3,NOTE_E4,},
{NOTE_G4,},
{NOTE_B4,},
{NOTE_A4,},
{NOTE_G4,},
{NOTE_A3,NOTE_E4,NOTE_FS4,NOTE_A3,NOTE_E4,NOTE_A4,NOTE_A1,},
{NOTE_E4,},
{NOTE_FS4,},
{NOTE_FS4,},
{NOTE_B3,NOTE_B3,NOTE_FS4,NOTE_FS4,NOTE_B1,},
{NOTE_B4,},
{NOTE_B4,},
{NOTE_B4,},
{NOTE_A3,NOTE_A1,NOTE_E4,NOTE_E4,NOTE_E4,NOTE_A3,},
{NOTE_A4,},
{NOTE_B4,},
{NOTE_B4,},
{NOTE_A4,},
{NOTE_D4,NOTE_D4,NOTE_G1,NOTE_G3,NOTE_G3,},
{NOTE_D4,},
{NOTE_G4,},
{NOTE_B4,},
{NOTE_G4,NOTE_B4,},
{NOTE_B4,},
{NOTE_CS4,},
{NOTE_E4,NOTE_A3,NOTE_A1,NOTE_A3,NOTE_E4,},
{NOTE_A4,},
{NOTE_D4,},
{NOTE_CS4,},
{NOTE_B4,},
{NOTE_A4,},
{NOTE_CS4,},
{NOTE_B4,},
{NOTE_CS4,},
{NOTE_FS4,},
{NOTE_B3,NOTE_FS4,NOTE_B1,NOTE_B3,NOTE_FS4,},
{NOTE_B4,},
{NOTE_B4,},
{NOTE_FS4,},
{NOTE_FS4,NOTE_B1,NOTE_B3,NOTE_B3,NOTE_FS4,},
{NOTE_B4,},
{NOTE_B4,},
{NOTE_CS4,},
{NOTE_B4,NOTE_B4,},
{NOTE_A4,},
{NOTE_FS4,},
{NOTE_E4,NOTE_A4,NOTE_A3,NOTE_A1,NOTE_E4,NOTE_A3,},
{NOTE_A4,},
{NOTE_A4,},
{NOTE_FS4,},
{NOTE_A4,},
{NOTE_B4,NOTE_G3,NOTE_G3,NOTE_G1,NOTE_D4,NOTE_D4,},
{NOTE_G4,},
{NOTE_CS4,},
{NOTE_G4,},
{NOTE_B4,},
{NOTE_A1,NOTE_E4,NOTE_A3,NOTE_A3,NOTE_CS5,NOTE_E4,NOTE_A4,},
{NOTE_B4,},
{NOTE_CS4,},
{NOTE_B3,NOTE_B1,NOTE_FS4,NOTE_B3,NOTE_FS4,NOTE_FS4,},
{NOTE_B4,},
{NOTE_B4,},
{NOTE_B4,},
{NOTE_A3,NOTE_E4,NOTE_A1,NOTE_E4,NOTE_E4,NOTE_A3,},
{NOTE_A4,},
{NOTE_B4,},
{NOTE_B4,},
{NOTE_A4,},
{NOTE_D4,NOTE_D4,NOTE_G3,NOTE_G3,NOTE_G1,},
{NOTE_G4,},
{NOTE_D4,},
{NOTE_B4,},
{NOTE_B4,NOTE_G4,},
{NOTE_B4,},
{NOTE_CS4,},
{NOTE_A3,NOTE_A1,NOTE_E4,NOTE_E4,NOTE_A3,},
{NOTE_D4,},
{NOTE_A4,},
{NOTE_CS4,},
{NOTE_A4,NOTE_B4,},
{NOTE_CS4,},
{NOTE_A4,},
{NOTE_B4,},
{NOTE_B3,NOTE_B3,NOTE_FS4,NOTE_FS4,NOTE_B1,NOTE_B4,},
{NOTE_B4,},
{NOTE_A4,NOTE_D4,NOTE_D2,},
{NOTE_D5,NOTE_A4,},
{NOTE_A4,},
{NOTE_A4,},
{NOTE_D5,NOTE_G4,},
{NOTE_A4,},
{NOTE_C2,NOTE_G4,NOTE_C4,},
{NOTE_G4,NOTE_C5,},
{NOTE_A4,},
{NOTE_G4,},
{NOTE_C5,NOTE_G4,},
{NOTE_D4,},
{NOTE_D4,},
{NOTE_E4,},
{NOTE_AS4,},
{NOTE_AS1,NOTE_AS3,NOTE_F4,NOTE_F4,},
{NOTE_G4,},
{NOTE_F4,},
{NOTE_AS4,},
{NOTE_C4,NOTE_G4,NOTE_C2,},
{NOTE_E4,},
{NOTE_C4,},
{NOTE_D4,},
{NOTE_C4,},
{NOTE_C4,},
{NOTE_D4,},
{NOTE_D2,NOTE_D4,NOTE_A4,NOTE_D4,},
{NOTE_D4,},
{NOTE_D4,},
{NOTE_D4,},
{NOTE_D2,NOTE_D4,NOTE_A4,},
{NOTE_D5,NOTE_A4,},
{NOTE_A4,},
{NOTE_A4,},
{NOTE_G4,NOTE_D5,},
{NOTE_A4,},
{NOTE_D4,},
{NOTE_C2,NOTE_G4,NOTE_C4,},
{NOTE_C5,NOTE_C5,},
{NOTE_D4,},
{NOTE_C4,},
{NOTE_C4,},
{NOTE_C4,},
{NOTE_G4,},
{NOTE_G4,},
{NOTE_A4,},
{NOTE_AS1,NOTE_AS4,NOTE_F4,NOTE_AS3,},
{NOTE_AS4,},
{NOTE_C4,},
{NOTE_AS4,},
{NOTE_AS4,},
{NOTE_A4,NOTE_C4,NOTE_C2,NOTE_G4,},
{NOTE_C4,},
{NOTE_G4,},
{NOTE_C4,},
{NOTE_F4,},
{NOTE_D4,NOTE_A4,NOTE_D2,},
{NOTE_D4,},
{NOTE_A4,},
{NOTE_D4,},
{NOTE_D4,},
{NOTE_A4,NOTE_D5,},
{NOTE_D4,NOTE_D2,NOTE_A4,NOTE_A4,NOTE_D4,},
{NOTE_D4,},
{NOTE_D4,},
{NOTE_E4,},
{NOTE_D4,},
{NOTE_D4,},
{NOTE_C4,},
{NOTE_A4,},
{NOTE_G4,NOTE_C2,NOTE_G4,NOTE_C4,NOTE_C4,NOTE_C5,},
{NOTE_C4,},
{NOTE_C4,},
{NOTE_A4,},
{NOTE_C4,},
{NOTE_F4,NOTE_AS3,NOTE_F4,NOTE_AS3,NOTE_AS1,NOTE_G4,},
{NOTE_AS4,},
{NOTE_D4,},
{NOTE_C4,},
{NOTE_AS4,},
{NOTE_C4,NOTE_G4,NOTE_A4,NOTE_C4,NOTE_C5,NOTE_G4,NOTE_C2,},
{NOTE_G4,},
{NOTE_A4,},
{NOTE_A4,NOTE_A4,NOTE_D4,NOTE_D4,NOTE_D2,},
{NOTE_D4,},
{NOTE_A4,},
{NOTE_D4,},
{NOTE_D4,},
{NOTE_C2,NOTE_G4,NOTE_G4,NOTE_C4,NOTE_C4,NOTE_G4,},
{NOTE_C4,},
{NOTE_D4,},
{NOTE_C4,},
{NOTE_D4,},
{NOTE_F4,},
{NOTE_AS3,NOTE_AS1,NOTE_F4,NOTE_F4,NOTE_AS3,},
{NOTE_AS4,},
{NOTE_D4,},
{NOTE_D5,NOTE_AS4,},
{NOTE_D4,},
{NOTE_E4,},
{NOTE_C4,NOTE_C4,NOTE_G4,NOTE_G4,NOTE_C2,},
{NOTE_C4,},
{NOTE_F4,},
{NOTE_E4,},
{NOTE_C4,},
{NOTE_D4,},
{NOTE_E4,},
{NOTE_D4,},
{NOTE_E4,},
{NOTE_A4,},
{NOTE_D2,NOTE_D4,NOTE_A4,NOTE_D4,NOTE_A4,},
{NOTE_D4,},
{NOTE_D4,},
{NOTE_A4,},
{NOTE_D4,NOTE_D2,NOTE_A4,NOTE_D4,NOTE_A4,},
{NOTE_D4,},
{NOTE_D4,},
{NOTE_E4,},
{NOTE_D5,NOTE_D5,},
{NOTE_C4,},
{NOTE_A4,},
{NOTE_G4,NOTE_C4,NOTE_C4,NOTE_C2,NOTE_G4,NOTE_C5,},
{NOTE_C4,},
{NOTE_C4,},
{NOTE_A4,},
{NOTE_C4,},
{NOTE_D5,NOTE_AS3,NOTE_F4,NOTE_AS1,NOTE_AS3,NOTE_F4,},
{NOTE_AS4,},
{NOTE_E4,},
{NOTE_D4,},
{NOTE_AS4,},
{NOTE_C4,NOTE_C2,NOTE_C4,NOTE_G4,NOTE_G4,NOTE_E5,NOTE_C5,},
{NOTE_D4,},
{NOTE_E4,},
{NOTE_A4,NOTE_D4,NOTE_D4,NOTE_A4,NOTE_D2,NOTE_A4,},
{NOTE_D4,},
{NOTE_D4,},
{NOTE_D4,},
{NOTE_G4,NOTE_C2,NOTE_C4,NOTE_G4,NOTE_G4,NOTE_C4,},
{NOTE_C4,},
{NOTE_D4,},
{NOTE_D4,},
{NOTE_C4,},
{NOTE_F4,NOTE_AS1,NOTE_AS3,NOTE_AS3,NOTE_F4,},
{NOTE_F4,},
{NOTE_AS4,},
{NOTE_D4,},
{NOTE_AS4,NOTE_D5,},
{NOTE_D4,},
{NOTE_E4,},
{NOTE_G4,NOTE_G4,NOTE_C2,NOTE_C4,NOTE_C4,},
{NOTE_C4,},
{NOTE_F4,},
{NOTE_E4,},
{NOTE_C5,NOTE_D5,},
{NOTE_E4,},
{NOTE_C4,},
{NOTE_D5,NOTE_A4,NOTE_D4,NOTE_D4,NOTE_D2,NOTE_A4,},
{NOTE_D4,},
};
uint16_t pal1_notedura[320]={
18,48,18,36,30,24,48,18,18,30,30,12,24,24,18,24,30,6,30,24,18,12,39,54,6,48,18,6,18,6,48,18,18,30,30,27,18,48,18,18,24,30,24,24,24,24,24,18,24,6,24,24,18,30,6,48,48,42,18,6,18,6,48,24,18,72,30,24,24,48,48,18,30,24,24,24,18,24,24,6,24,57,54,54,48,18,6,24,48,18,48,48,30,48,36,18,30,30,24,24,48,18,24,24,24,30,24,54,54,60,48,18,30,24,48,18,24,30,30,60,48,48,18,30,24,24,24,18,24,6,24,24,60,45,48,18,6,24,48,18,48,48,30,48,18,36,30,30,30,30,48,12,18,30,30,69,54,18,48,24,48,18,18,36,30,24,48,18,18,30,30,12,24,24,18,24,30,30,6,24,12,18,39,6,54,18,48,6,18,6,48,18,18,30,30,27,18,48,18,18,24,24,30,24,24,24,24,18,24,6,24,24,18,30,6,48,48,18,42,6,18,6,48,24,18,72,24,30,24,48,48,18,30,24,24,24,18,24,24,6,24,57,54,48,18,54,6,24,48,18,48,30,48,36,48,18,30,30,24,24,48,18,24,24,30,24,24,54,54,60,48,18,30,24,48,24,18,30,30,60,48,48,18,30,24,24,24,18,24,24,6,24,60,45,48,18,6,24,48,18,48,48,30,48,36,18,30,30,30,30,48,18,12,30,30,69,54,48,};
uint16_t pal1_noteos[320]={
0,0,6,12,18,24,48,48,54,60,66,72,84,90,96,96,108,114,114,120,120,120,132,138,138,144,144,162,168,186,192,192,198,204,210,216,234,240,240,246,252,258,258,264,276,282,288,288,300,306,306,312,312,324,330,330,336,336,336,354,360,378,384,384,384,396,402,402,408,426,432,432,450,468,474,480,480,492,498,498,504,516,522,528,528,528,546,552,576,576,588,594,594,624,624,624,636,642,660,666,672,672,672,684,690,690,696,708,714,720,720,720,738,762,768,768,768,780,786,792,810,816,816,834,852,858,864,864,876,882,882,888,900,906,912,912,930,936,960,960,972,978,978,1008,1008,1008,1020,1026,1044,1050,1056,1056,1056,1068,1074,1080,1098,1104,1104,1122,1152,1152,1158,1164,1170,1176,1200,1200,1206,1212,1218,1224,1236,1242,1248,1248,1260,1266,1266,1272,1272,1272,1284,1290,1290,1296,1296,1314,1320,1338,1344,1344,1350,1356,1362,1368,1386,1392,1392,1398,1404,1410,1410,1416,1428,1434,1440,1440,1452,1458,1458,1464,1464,1476,1482,1482,1488,1488,1488,1506,1512,1530,1536,1536,1536,1548,1554,1554,1560,1578,1584,1584,1602,1620,1626,1632,1632,1644,1650,1650,1656,1668,1674,1680,1680,1680,1698,1704,1728,1728,1740,1746,1746,1776,1776,1776,1788,1794,1812,1818,1824,1824,1824,1836,1842,1842,1848,1860,1866,1872,1872,1872,1890,1914,1920,1920,1920,1932,1938,1944,1962,1968,1968,1986,2004,2010,2016,2016,2028,2034,2034,2040,2052,2058,2064,2064,2082,2088,2112,2112,2124,2130,2130,2160,2160,2160,2172,2178,2196,2202,2208,2208,2208,2220,2226,2232,2250,2256,};
uint16_t pal1_len=320;
