uint16_t pal3_1_note[199][8]={
{NOTE_G4,},
{NOTE_G4,},
{NOTE_D4,},
{NOTE_E4,},
{NOTE_E4,},
{NOTE_G4,},
{NOTE_D4,},
{NOTE_D4,},
{NOTE_E4,},
{NOTE_D4,},
{NOTE_E4,},
{NOTE_E4,},
{NOTE_D4,},
{NOTE_E4,},
{NOTE_G4,},
{NOTE_A4,},
{NOTE_G4,},
{NOTE_E4,},
{NOTE_G4,},
{NOTE_A4,},
{NOTE_A4,},
{NOTE_C4,},
{NOTE_A4,},
{NOTE_G4,},
{NOTE_E4,},
{NOTE_G4,},
{NOTE_G4,},
{NOTE_A4,},
{NOTE_C4,},
{NOTE_C4,},
{NOTE_D4,},
{NOTE_E4,},
{NOTE_D4,},
{NOTE_C4,},
{NOTE_D4,},
{NOTE_E4,},
{NOTE_G4,},
{NOTE_G4,},
{NOTE_A4,},
{NOTE_C4,},
{NOTE_D4,},
{NOTE_E4,},
{NOTE_E4,},
{NOTE_D4,},
{NOTE_C4,},
{NOTE_C4,},
{NOTE_A4,},
{NOTE_A4,},
{NOTE_C4,},
{NOTE_A4,},
{NOTE_E4,},
{NOTE_G4,},
{NOTE_A4,},
{NOTE_A4,},
{NOTE_C4,},
{NOTE_A4,},
{NOTE_C4,},
{NOTE_D4,},
{NOTE_E4,},
{NOTE_E4,},
{NOTE_D4,},
{NOTE_C4,},
{NOTE_C4,},
{NOTE_A4,},
{NOTE_C4,},
{NOTE_A4,},
{NOTE_C4,},
{NOTE_D4,},
{NOTE_E4,},
{NOTE_G4,},
{NOTE_E4,},
{NOTE_D4,},
{NOTE_C4,},
{NOTE_D4,},
{NOTE_E4,},
{NOTE_G4,},
{NOTE_G4,},
{NOTE_A4,},
{NOTE_C4,},
{NOTE_D4,},
{NOTE_E4,},
{NOTE_E4,},
{NOTE_D4,},
{NOTE_C4,},
{NOTE_C4,},
{NOTE_A4,},
{NOTE_A4,},
{NOTE_C4,},
{NOTE_A4,},
{NOTE_C4,},
{NOTE_A4,},
{NOTE_G4,},
{NOTE_E4,},
{NOTE_G4,},
{NOTE_E4,},
{NOTE_G4,},
{NOTE_A4,},
{NOTE_A4,},
{NOTE_C4,},
{NOTE_A4,},
{NOTE_A4,},
{NOTE_C4,},
{NOTE_D4,},
{NOTE_D4,},
{NOTE_E4,},
{NOTE_D4,},
{NOTE_D4,},
{NOTE_E4,},
{NOTE_G4,},
{NOTE_A4,},
{NOTE_E4,},
{NOTE_G4,},
{NOTE_D4,},
{NOTE_E4,},
{NOTE_C4,},
{NOTE_A4,},
{NOTE_C4,},
{NOTE_E4,},
{NOTE_G4,},
{NOTE_G4,},
{NOTE_A4,},
{NOTE_C4,},
{NOTE_D4,},
{NOTE_E4,},
{NOTE_E4,},
{NOTE_D4,},
{NOTE_C4,},
{NOTE_C4,},
{NOTE_A4,},
{NOTE_A4,},
{NOTE_C4,},
{NOTE_A4,},
{NOTE_E4,},
{NOTE_G4,},
{NOTE_A4,},
{NOTE_A4,},
{NOTE_C4,},
{NOTE_A4,},
{NOTE_C4,},
{NOTE_D4,},
{NOTE_E4,},
{NOTE_E4,},
{NOTE_D4,},
{NOTE_C4,},
{NOTE_C4,},
{NOTE_A4,},
{NOTE_C4,},
{NOTE_A4,},
{NOTE_C4,},
{NOTE_D4,},
{NOTE_E4,},
{NOTE_G4,},
{NOTE_E4,},
{NOTE_D4,},
{NOTE_C4,},
{NOTE_D4,},
{NOTE_E4,},
{NOTE_G4,},
{NOTE_G4,},
{NOTE_A4,},
{NOTE_C4,},
{NOTE_D4,},
{NOTE_E4,},
{NOTE_E4,},
{NOTE_D4,},
{NOTE_C4,},
{NOTE_C4,},
{NOTE_A4,},
{NOTE_A4,},
{NOTE_C4,},
{NOTE_A4,},
{NOTE_C4,},
{NOTE_A4,},
{NOTE_G4,},
{NOTE_E4,},
{NOTE_G4,},
{NOTE_E4,},
{NOTE_G4,},
{NOTE_A4,},
{NOTE_A4,},
{NOTE_C4,},
{NOTE_A4,},
{NOTE_A4,},
{NOTE_C4,},
{NOTE_D4,},
{NOTE_D4,},
{NOTE_E4,},
{NOTE_D4,},
{NOTE_D4,},
{NOTE_E4,},
{NOTE_G4,},
{NOTE_A4,},
{NOTE_E4,},
{NOTE_G4,},
{NOTE_D4,},
{NOTE_E4,},
{NOTE_C4,},
{NOTE_A4,},
};
uint16_t pal3_1_notedura[199]={
6,6,6,3,6,6,3,6,6,48,3,6,6,3,6,6,24,6,6,3,6,6,3,6,6,24,6,6,3,6,6,3,6,6,36,3,3,6,6,6,6,3,6,6,18,6,3,6,6,12,12,36,6,6,6,3,6,6,6,6,6,18,6,6,6,6,6,6,6,6,6,24,6,6,3,3,6,6,6,6,3,6,6,18,6,3,6,6,3,3,3,6,6,24,6,6,3,6,6,3,6,6,3,6,6,3,6,6,6,6,6,6,6,6,6,6,36,3,3,6,6,6,6,3,6,6,18,6,3,6,6,12,12,36,3,6,6,3,6,6,3,6,6,18,6,6,6,6,6,6,6,6,6,24,6,6,3,3,6,6,6,6,3,6,6,18,6,3,6,6,3,3,3,6,6,24,6,6,3,6,6,3,6,6,3,6,6,3,6,6,6,6,6,6,6,6,6,};
uint16_t pal3_1_noteos[199]={
0,36,42,48,60,66,72,84,90,96,144,156,162,168,180,186,192,228,234,240,252,258,264,276,282,288,324,330,336,348,354,360,372,378,384,432,444,456,462,468,474,480,492,498,504,522,528,540,546,552,564,576,624,636,642,648,660,666,672,684,690,696,714,720,726,732,738,744,750,756,762,768,804,810,816,828,840,846,852,858,864,876,882,888,906,912,924,930,936,942,945,948,954,960,996,1002,1008,1020,1026,1032,1044,1050,1056,1068,1074,1080,1092,1098,1104,1110,1116,1122,1128,1134,1140,1146,1152,1632,1644,1656,1662,1668,1674,1680,1692,1698,1704,1722,1728,1740,1746,1752,1764,1776,1824,1836,1842,1848,1860,1866,1872,1884,1890,1896,1914,1920,1926,1932,1938,1944,1950,1956,1962,1968,2004,2010,2016,2028,2040,2046,2052,2058,2064,2076,2082,2088,2106,2112,2124,2130,2136,2142,2145,2148,2154,2160,2196,2202,2208,2220,2226,2232,2244,2250,2256,2268,2274,2280,2292,2298,2304,2310,2316,2322,2328,2334,2340,};
uint16_t pal3_1_len=199;
