uint16_t palbg_note[324][8]={
{NOTE_CS6,NOTE_GS3,NOTE_GS5,NOTE_CS2,},
{NOTE_GS4,NOTE_CS5,},
{NOTE_B5,NOTE_FS5,NOTE_GS3,},
{NOTE_GS4,},
{NOTE_CS6,NOTE_GS3,NOTE_GS5,},
{NOTE_DS5,NOTE_CS2,NOTE_GS3,NOTE_GS5,},
{NOTE_FS5,NOTE_B5,},
{NOTE_GS3,NOTE_GS2,},
{NOTE_GS3,NOTE_CS2,},
{NOTE_DS5,NOTE_GS2,NOTE_GS5,},
{NOTE_GS4,},
{NOTE_GS4,},
{NOTE_CS2,NOTE_B5,NOTE_FS5,NOTE_GS3,},
{NOTE_GS4,},
{NOTE_GS2,NOTE_CS6,NOTE_GS5,},
{NOTE_GS4,},
{NOTE_CS2,NOTE_GS3,NOTE_E6,NOTE_B5,},
{NOTE_GS4,NOTE_CS5,},
{NOTE_GS3,NOTE_GS2,},
{NOTE_AS5,NOTE_DS6,},
{NOTE_CS6,NOTE_GS5,},
{NOTE_FS5,NOTE_B5,NOTE_GS3,NOTE_CS2,},
{NOTE_GS2,NOTE_GS3,},
{NOTE_DS5,NOTE_GS5,},
{NOTE_GS4,NOTE_CS5,},
{NOTE_CS4,},
{NOTE_GS4,},
{NOTE_GS4,},
{NOTE_GS4,},
{NOTE_GS4,},
{NOTE_GS4,},
{NOTE_CS2,NOTE_GS3,},
{NOTE_GS4,},
{NOTE_GS4,},
{NOTE_GS4,},
{NOTE_GS3,NOTE_B1,NOTE_FS5,NOTE_CS5,},
{NOTE_FS4,NOTE_B4,},
{NOTE_FS4,},
{NOTE_E5,NOTE_GS3,NOTE_B4,},
{NOTE_CS5,NOTE_FS5,NOTE_GS3,},
{NOTE_CS5,NOTE_GS4,NOTE_GS3,NOTE_B1,},
{NOTE_CS5,NOTE_FS5,},
{NOTE_FS2,NOTE_GS3,},
{NOTE_GS3,NOTE_B1,},
{NOTE_GS4,},
{NOTE_E5,NOTE_B4,NOTE_FS2,},
{NOTE_GS4,},
{NOTE_FS5,NOTE_B1,NOTE_GS3,NOTE_CS5,},
{NOTE_FS2,NOTE_B5,NOTE_FS5,},
{NOTE_GS4,},
{NOTE_GS4,},
{NOTE_B1,NOTE_GS5,NOTE_CS6,NOTE_GS3,},
{NOTE_FS4,NOTE_B4,},
{NOTE_FS2,NOTE_GS3,},
{NOTE_B5,NOTE_FS5,},
{NOTE_DS5,NOTE_GS5,},
{NOTE_CS5,NOTE_B1,NOTE_GS3,NOTE_FS5,},
{NOTE_DS5,NOTE_GS5,},
{NOTE_GS3,NOTE_FS2,},
{NOTE_B4,NOTE_FS4,},
{NOTE_B4,},
{NOTE_GS4,},
{NOTE_GS4,},
{NOTE_GS4,},
{NOTE_FS4,},
{NOTE_GS4,},
{NOTE_GS3,NOTE_B1,},
{NOTE_FS4,},
{NOTE_GS5,NOTE_CS6,NOTE_CS2,NOTE_GS3,},
{NOTE_CS5,NOTE_GS4,},
{NOTE_FS5,NOTE_B5,NOTE_GS3,},
{NOTE_GS4,},
{NOTE_GS5,NOTE_GS3,NOTE_CS6,},
{NOTE_DS5,NOTE_GS3,NOTE_CS2,NOTE_GS5,},
{NOTE_GS3,NOTE_GS2,},
{NOTE_B5,NOTE_FS5,},
{NOTE_CS2,NOTE_GS3,},
{NOTE_DS5,NOTE_GS2,NOTE_GS5,},
{NOTE_GS4,},
{NOTE_GS4,},
{NOTE_FS5,NOTE_CS2,NOTE_B5,NOTE_GS3,},
{NOTE_CS6,NOTE_GS5,NOTE_GS2,},
{NOTE_GS4,},
{NOTE_GS4,},
{NOTE_CS5,NOTE_GS4,},
{NOTE_B5,NOTE_CS2,NOTE_GS3,NOTE_E6,},
{NOTE_GS3,NOTE_GS2,},
{NOTE_AS5,NOTE_DS6,},
{NOTE_CS6,NOTE_GS5,},
{NOTE_GS3,NOTE_CS2,NOTE_B5,NOTE_FS5,},
{NOTE_GS2,NOTE_GS3,},
{NOTE_GS4,NOTE_CS5,},
{NOTE_GS5,NOTE_DS5,},
{NOTE_GS4,},
{NOTE_CS4,},
{NOTE_GS4,},
{NOTE_GS4,},
{NOTE_GS4,},
{NOTE_GS4,},
{NOTE_GS3,NOTE_CS2,},
{NOTE_GS4,},
{NOTE_GS4,},
{NOTE_GS4,},
{NOTE_B1,NOTE_FS5,NOTE_CS5,NOTE_GS3,},
{NOTE_FS4,NOTE_B4,},
{NOTE_B4,NOTE_GS3,NOTE_E5,},
{NOTE_FS4,},
{NOTE_CS5,NOTE_FS5,NOTE_GS3,},
{NOTE_CS5,NOTE_GS4,NOTE_B1,NOTE_GS3,},
{NOTE_GS3,NOTE_FS2,},
{NOTE_CS5,NOTE_FS5,},
{NOTE_B1,NOTE_GS3,},
{NOTE_FS2,NOTE_B4,NOTE_E5,},
{NOTE_GS4,},
{NOTE_GS4,},
{NOTE_CS5,NOTE_GS3,NOTE_B1,NOTE_FS5,},
{NOTE_DS5,NOTE_GS5,NOTE_GS3,},
{NOTE_FS4,},
{NOTE_GS3,NOTE_FS5,NOTE_B5,},
{NOTE_GS3,NOTE_CS2,NOTE_GS5,NOTE_CS6,},
{NOTE_CS5,NOTE_GS4,},
{NOTE_CS6,NOTE_GS5,},
{NOTE_GS3,NOTE_GS2,},
{NOTE_GS5,NOTE_CS6,},
{NOTE_GS3,NOTE_FS5,NOTE_B5,NOTE_CS2,},
{NOTE_GS5,NOTE_CS6,},
{NOTE_GS2,NOTE_GS3,},
{NOTE_GS4,NOTE_CS5,},
{NOTE_CS4,},
{NOTE_GS4,},
{NOTE_GS4,},
{NOTE_GS4,},
{NOTE_GS4,},
{NOTE_GS4,},
{NOTE_GS3,NOTE_CS2,},
{NOTE_GS4,},
{NOTE_E5,NOTE_B4,},
{NOTE_GS3,NOTE_E2,NOTE_CS3,},
{NOTE_B4,NOTE_E5,},
{NOTE_B4,NOTE_E5,},
{NOTE_GS3,NOTE_B4,NOTE_E5,NOTE_CS4,NOTE_B2,},
{NOTE_GS3,NOTE_E5,NOTE_B2,NOTE_B4,},
{NOTE_CS4,NOTE_B4,NOTE_E5,},
{NOTE_GS3,NOTE_E2,},
{NOTE_B4,NOTE_E5,},
{NOTE_GS4,},
{NOTE_B4,NOTE_E5,},
{NOTE_B2,NOTE_CS5,NOTE_FS5,},
{NOTE_FS5,NOTE_CS5,NOTE_B2,},
{NOTE_GS3,NOTE_CS3,NOTE_E2,},
{NOTE_B4,NOTE_E5,},
{NOTE_E5,NOTE_B4,},
{NOTE_B2,NOTE_B4,NOTE_CS4,NOTE_GS3,NOTE_E5,},
{NOTE_E5,NOTE_GS3,NOTE_B4,NOTE_B2,},
{NOTE_E2,NOTE_CS5,NOTE_GS3,NOTE_GS4,},
{NOTE_CS4,},
{NOTE_FS4,NOTE_B4,},
{NOTE_GS3,NOTE_B2,},
{NOTE_GS3,NOTE_B2,},
{NOTE_CS3,NOTE_CS2,NOTE_GS3,},
{NOTE_GS4,NOTE_CS5,},
{NOTE_GS4,NOTE_CS5,},
{NOTE_CS5,NOTE_GS4,},
{NOTE_GS4,NOTE_CS5,NOTE_CS4,NOTE_GS2,},
{NOTE_GS4,},
{NOTE_GS4,NOTE_GS2,NOTE_CS5,},
{NOTE_GS3,NOTE_CS2,},
{NOTE_CS4,NOTE_GS4,NOTE_CS5,},
{NOTE_CS5,NOTE_GS4,},
{NOTE_GS4,NOTE_CS5,},
{NOTE_GS4,},
{NOTE_B4,NOTE_GS2,NOTE_E5,},
{NOTE_GS2,NOTE_B4,NOTE_E5,},
{NOTE_GS3,NOTE_CS5,NOTE_GS4,},
{NOTE_CS3,NOTE_CS2,},
{NOTE_CS5,NOTE_GS3,NOTE_GS4,},
{NOTE_GS2,NOTE_GS3,NOTE_CS5,NOTE_GS4,NOTE_CS4,},
{NOTE_GS4,NOTE_CS5,NOTE_GS2,NOTE_GS3,},
{NOTE_CS4,},
{NOTE_FS4,NOTE_GS3,NOTE_CS2,NOTE_B4,},
{NOTE_CS4,NOTE_GS3,NOTE_GS2,},
{NOTE_GS4,NOTE_DS4,},
{NOTE_GS3,NOTE_GS2,},
{NOTE_B1,NOTE_CS3,NOTE_GS3,},
{NOTE_CS4,NOTE_FS4,},
{NOTE_CS4,NOTE_FS4,},
{NOTE_FS4,NOTE_CS4,},
{NOTE_CS4,NOTE_FS2,NOTE_GS3,NOTE_CS4,NOTE_FS4,},
{NOTE_FS2,NOTE_GS3,NOTE_CS4,NOTE_FS4,},
{NOTE_CS4,NOTE_CS4,NOTE_FS4,},
{NOTE_B1,NOTE_GS3,},
{NOTE_FS4,NOTE_CS4,},
{NOTE_FS4,NOTE_CS4,},
{NOTE_FS2,NOTE_GS4,NOTE_DS4,},
{NOTE_GS4,},
{NOTE_DS4,NOTE_FS2,NOTE_GS4,},
{NOTE_GS3,NOTE_CS3,NOTE_B1,},
{NOTE_CS4,NOTE_FS4,},
{NOTE_FS4,NOTE_CS4,},
{NOTE_GS3,NOTE_FS2,NOTE_FS4,NOTE_CS4,NOTE_CS4,},
{NOTE_FS4,NOTE_GS3,NOTE_FS2,NOTE_CS4,},
{NOTE_GS3,NOTE_FS4,NOTE_B4,NOTE_B1,},
{NOTE_CS4,},
{NOTE_GS3,NOTE_FS2,},
{NOTE_GS4,NOTE_DS4,},
{NOTE_FS2,NOTE_GS3,},
{NOTE_CS4,NOTE_FS4,},
{NOTE_B1,NOTE_GS3,NOTE_CS3,},
{NOTE_FS4,NOTE_CS4,},
{NOTE_CS4,NOTE_FS4,},
{NOTE_FS4,NOTE_CS4,NOTE_FS2,NOTE_CS4,},
{NOTE_GS4,},
{NOTE_FS4,NOTE_FS2,NOTE_CS4,},
{NOTE_FS4,NOTE_CS4,NOTE_CS4,},
{NOTE_GS3,NOTE_B1,},
{NOTE_CS4,NOTE_FS4,},
{NOTE_FS4,NOTE_CS4,NOTE_FS2,},
{NOTE_FS4,NOTE_CS4,},
{NOTE_GS4,},
{NOTE_CS4,NOTE_FS4,NOTE_FS2,},
{NOTE_CS5,NOTE_FS4,NOTE_GS3,NOTE_CS4,},
{NOTE_CS3,NOTE_B1,},
{NOTE_E5,NOTE_GS3,NOTE_FS4,NOTE_CS4,},
{NOTE_FS4,NOTE_FS2,NOTE_CS4,NOTE_GS3,NOTE_CS4,NOTE_FS5,},
{NOTE_FS2,NOTE_FS4,NOTE_GS3,NOTE_CS4,NOTE_GS5,},
{NOTE_B1,NOTE_GS3,},
{NOTE_E5,NOTE_CS4,},
{NOTE_FS4,},
{NOTE_GS5,NOTE_CS4,NOTE_FS2,},
{NOTE_B5,NOTE_FS2,},
{NOTE_E5,NOTE_B4,},
{NOTE_E5,NOTE_B4,},
{NOTE_CS3,NOTE_GS3,NOTE_E2,},
{NOTE_E5,NOTE_B4,},
{NOTE_B4,NOTE_CS4,NOTE_GS3,NOTE_E5,NOTE_B2,},
{NOTE_B2,NOTE_E5,NOTE_B4,NOTE_GS3,},
{NOTE_GS3,NOTE_E2,},
{NOTE_E5,NOTE_B4,NOTE_CS4,},
{NOTE_B4,NOTE_E5,},
{NOTE_E5,NOTE_B4,},
{NOTE_CS5,NOTE_FS5,NOTE_B2,},
{NOTE_GS4,},
{NOTE_FS5,NOTE_B2,NOTE_CS5,},
{NOTE_GS3,NOTE_E2,NOTE_CS3,},
{NOTE_B4,NOTE_E5,},
{NOTE_E5,NOTE_B4,},
{NOTE_B2,NOTE_B4,NOTE_CS4,NOTE_GS3,NOTE_E5,},
{NOTE_B4,NOTE_GS3,NOTE_E5,NOTE_B2,},
{NOTE_CS4,},
{NOTE_GS3,NOTE_GS4,NOTE_CS5,NOTE_E2,},
{NOTE_B4,NOTE_FS4,},
{NOTE_B2,NOTE_GS3,},
{NOTE_B2,NOTE_GS3,},
{NOTE_GS4,NOTE_CS5,},
{NOTE_GS3,NOTE_CS3,NOTE_CS2,},
{NOTE_CS5,NOTE_GS4,},
{NOTE_CS5,NOTE_GS4,},
{NOTE_GS2,NOTE_CS4,NOTE_GS4,NOTE_CS5,},
{NOTE_GS4,},
{NOTE_GS4,NOTE_GS2,NOTE_CS5,},
{NOTE_CS4,NOTE_CS5,NOTE_GS4,},
{NOTE_CS2,NOTE_GS3,},
{NOTE_CS5,NOTE_GS4,},
{NOTE_GS3,NOTE_B4,NOTE_E5,},
{NOTE_GS4,},
{NOTE_CS5,NOTE_GS4,},
{NOTE_GS4,},
{NOTE_GS3,NOTE_CS5,NOTE_GS4,},
{NOTE_CS2,NOTE_CS3,},
{NOTE_GS4,NOTE_CS5,NOTE_GS3,},
{NOTE_GS4,NOTE_GS2,NOTE_CS5,NOTE_GS3,NOTE_CS4,},
{NOTE_GS4,NOTE_GS3,NOTE_GS2,NOTE_CS5,},
{NOTE_GS3,NOTE_CS2,},
{NOTE_DS4,NOTE_GS4,},
{NOTE_CS4,},
{NOTE_GS2,NOTE_CS4,NOTE_GS3,},
{NOTE_GS3,NOTE_GS2,},
{NOTE_FS4,NOTE_CS4,},
{NOTE_GS3,NOTE_CS3,NOTE_B1,},
{NOTE_CS4,NOTE_FS4,},
{NOTE_CS4,NOTE_FS4,},
{NOTE_GS3,NOTE_FS2,NOTE_FS4,NOTE_CS4,NOTE_CS4,},
{NOTE_GS3,NOTE_FS2,NOTE_CS4,NOTE_FS4,},
{NOTE_GS3,NOTE_B1,},
{NOTE_CS4,NOTE_FS4,NOTE_CS4,},
{NOTE_CS4,NOTE_FS4,},
{NOTE_GS4,NOTE_DS4,NOTE_GS3,},
{NOTE_FS4,NOTE_CS4,},
{NOTE_FS4,},
{NOTE_FS4,},
{NOTE_FS4,NOTE_CS4,},
{NOTE_CS3,NOTE_GS3,NOTE_B1,},
{NOTE_FS4,NOTE_CS4,},
{NOTE_CS4,NOTE_CS4,NOTE_FS2,NOTE_FS4,NOTE_GS3,},
{NOTE_FS4,NOTE_FS2,NOTE_CS4,NOTE_GS3,},
{NOTE_E4,NOTE_GS3,NOTE_B3,NOTE_B1,},
{NOTE_CS4,},
{NOTE_GS3,NOTE_CS4,},
{NOTE_FS2,NOTE_GS3,},
{NOTE_FS2,NOTE_GS3,},
{NOTE_GS3,NOTE_B1,NOTE_CS3,},
{NOTE_FS4,NOTE_CS4,},
{NOTE_CS4,NOTE_FS4,},
{NOTE_CS4,NOTE_FS4,},
{NOTE_FS4,NOTE_CS4,NOTE_CS4,NOTE_FS2,},
{NOTE_GS4,},
{NOTE_FS2,NOTE_FS4,NOTE_CS4,},
{NOTE_CS4,NOTE_CS4,NOTE_FS4,},
{NOTE_GS3,NOTE_B1,},
{NOTE_FS4,NOTE_CS4,},
{NOTE_GS4,},
{NOTE_CS4,NOTE_FS4,NOTE_FS2,},
{NOTE_CS4,NOTE_FS4,},
{NOTE_FS2,NOTE_CS4,NOTE_FS4,},
{NOTE_FS4,NOTE_GS3,NOTE_CS4,NOTE_CS5,},
{NOTE_CS3,NOTE_B1,},
{NOTE_FS4,NOTE_CS4,NOTE_GS3,NOTE_FS5,},
{NOTE_CS4,NOTE_CS4,NOTE_GS5,NOTE_FS4,NOTE_GS3,NOTE_FS2,},
{NOTE_CS4,NOTE_GS3,NOTE_B5,NOTE_FS2,NOTE_FS4,},
{NOTE_CS4,NOTE_FS5,NOTE_CS4,NOTE_FS4,},
{NOTE_B1,NOTE_GS3,},
{NOTE_CS4,NOTE_B5,NOTE_FS4,},
{NOTE_FS2,NOTE_CS4,NOTE_B5,},
};
uint16_t palbg_notedura[324]={
6,48,3,6,3,6,12,6,6,6,3,3,6,3,6,3,6,18,6,3,3,6,6,12,30,6,3,3,6,3,3,6,6,3,3,6,48,6,3,3,6,12,6,6,3,6,3,6,6,3,3,6,18,6,3,3,6,18,6,30,6,3,3,3,6,3,6,6,6,48,3,6,3,6,6,12,6,6,3,3,6,6,3,3,18,6,6,3,3,6,6,30,12,3,6,3,3,6,3,6,3,6,3,6,48,3,6,3,6,6,12,6,6,3,3,6,3,6,3,6,18,3,6,3,6,24,6,30,6,3,3,6,3,3,6,6,3,6,18,3,3,3,3,6,3,6,30,3,3,6,3,3,3,3,6,3,6,3,3,6,3,18,3,3,6,3,6,3,3,30,6,3,3,3,6,3,3,3,3,6,3,6,3,6,18,3,3,3,3,3,6,3,30,3,6,3,6,3,3,3,3,6,3,3,6,3,3,6,18,3,3,6,3,3,6,3,3,30,6,3,3,6,3,3,3,6,3,3,3,3,3,18,6,3,3,3,6,3,3,30,3,6,3,6,3,3,3,3,3,6,6,3,3,3,6,18,3,3,6,3,3,6,3,6,3,30,3,3,6,3,3,3,6,12,3,3,3,3,6,18,3,3,3,6,3,3,6,30,3,3,3,6,3,3,3,6,3,6,3,3,6,3,18,3,3,6,3,3,6,3,6,3,30,3,3,6,3,3,3,3,6,3,};
uint16_t palbg_noteos[324]={
0,0,6,6,9,12,18,18,24,30,30,33,36,42,42,45,48,48,54,54,57,60,66,66,66,72,72,75,78,78,81,84,90,90,93,96,96,102,102,105,108,114,114,120,126,126,129,132,138,138,141,144,144,150,150,153,156,162,162,162,168,168,171,174,174,177,180,186,192,192,198,198,201,204,210,210,216,222,222,225,228,234,234,237,240,240,246,246,249,252,258,258,258,264,264,267,270,270,273,276,282,282,285,288,288,294,294,297,300,306,306,312,318,318,321,324,330,330,333,336,336,342,342,345,348,354,354,354,360,360,363,366,366,369,372,378,384,384,384,387,390,393,396,396,399,402,402,402,405,408,408,411,414,417,420,420,426,426,429,432,432,432,435,438,438,441,444,444,447,450,450,450,453,456,456,459,462,465,468,468,474,474,477,480,480,480,483,486,489,492,492,495,498,498,498,501,504,504,507,510,513,516,516,522,522,525,528,528,528,531,534,534,537,540,540,543,546,546,546,549,552,552,555,558,561,564,564,567,570,573,576,576,576,579,582,585,588,588,591,594,594,594,597,600,600,603,606,609,612,612,618,618,621,624,624,624,627,630,630,633,636,636,639,642,642,642,645,648,648,651,654,657,660,660,660,666,669,672,672,672,675,678,681,684,684,687,690,690,690,693,696,696,699,702,705,708,708,714,714,717,720,720,720,723,726,726,729,732,732,735,738,738,738,741,744,744,747,750,753,756,756,759,};
uint16_t palbg_len=324;
