uint16_t dshh_note[1558][8]={
{NOTE_GS4,},
{NOTE_B3,NOTE_FS4,},
{NOTE_AS4,},
{NOTE_CS4,},
{NOTE_FS4,},
{NOTE_GS4,},
{NOTE_CS4,NOTE_GS4,},
{NOTE_AS4,},
{NOTE_CS4,},
{NOTE_FS4,},
{NOTE_GS4,},
{NOTE_AS4,NOTE_DS4,},
{NOTE_AS4,},
{NOTE_CS4,},
{NOTE_DS4,},
{NOTE_GS4,},
{NOTE_AS4,},
{NOTE_FS4,NOTE_CS5,},
{NOTE_DS4,},
{NOTE_FS4,},
{NOTE_GS4,},
{NOTE_B3,NOTE_FS4,},
{NOTE_AS4,},
{NOTE_CS4,},
{NOTE_FS4,},
{NOTE_GS4,},
{NOTE_CS4,NOTE_GS4,},
{NOTE_AS4,},
{NOTE_CS4,},
{NOTE_FS4,},
{NOTE_AS4,NOTE_DS4,},
{NOTE_GS4,},
{NOTE_AS4,},
{NOTE_CS4,},
{NOTE_DS4,},
{NOTE_GS4,},
{NOTE_AS4,},
{NOTE_CS4,NOTE_FS3,},
{NOTE_DS4,},
{NOTE_FS4,},
{NOTE_GS4,},
{NOTE_B2,NOTE_FS3,},
{NOTE_AS4,},
{NOTE_CS4,},
{NOTE_FS4,},
{NOTE_GS4,},
{NOTE_CS3,NOTE_GS3,},
{NOTE_AS4,},
{NOTE_CS4,},
{NOTE_FS4,},
{NOTE_GS4,},
{NOTE_DS3,NOTE_AS3,},
{NOTE_AS4,},
{NOTE_CS4,},
{NOTE_FS4,},
{NOTE_GS4,},
{NOTE_FS3,NOTE_CS4,},
{NOTE_AS4,},
{NOTE_CS4,},
{NOTE_FS4,},
{NOTE_GS4,},
{NOTE_B2,NOTE_FS3,},
{NOTE_AS4,},
{NOTE_CS4,},
{NOTE_FS4,},
{NOTE_GS4,},
{NOTE_CS3,NOTE_GS3,},
{NOTE_AS4,},
{NOTE_CS4,},
{NOTE_FS4,},
{NOTE_GS4,},
{NOTE_DS3,NOTE_AS3,},
{NOTE_AS4,},
{NOTE_CS4,},
{NOTE_FS4,},
{NOTE_GS4,},
{NOTE_DS2,NOTE_AS2,},
{NOTE_AS4,},
{NOTE_AS4,},
{NOTE_CS4,},
{NOTE_B4,},
{NOTE_DS4,},
{NOTE_FS4,},
{NOTE_B3,NOTE_FS5,},
{NOTE_GS4,},
{NOTE_FS4,},
{NOTE_CS4,},
{NOTE_F5,NOTE_CS3,},
{NOTE_CS4,NOTE_CS5,},
{NOTE_B4,NOTE_FS3,},
{NOTE_AS2,NOTE_AS4,},
{NOTE_F3,NOTE_CS5,},
{NOTE_AS4,},
{NOTE_FS4,},
{NOTE_CS4,},
{NOTE_DS4,},
{NOTE_AS4,},
{NOTE_DS4,NOTE_FS5,},
{NOTE_F5,NOTE_AS3,},
{NOTE_B4,},
{NOTE_DS4,},
{NOTE_FS4,},
{NOTE_B4,},
{NOTE_FS4,},
{NOTE_DS4,},
{NOTE_F5,NOTE_CS3,},
{NOTE_CS4,},
{NOTE_GS4,},
{NOTE_CS4,},
{NOTE_CS4,},
{NOTE_F4,},
{NOTE_DS4,},
{NOTE_AS4,},
{NOTE_DS4,},
{NOTE_F4,},
{NOTE_FS4,},
{NOTE_AS4,NOTE_FS4,},
{NOTE_CS5,NOTE_CS4,},
{NOTE_DS4,},
{NOTE_FS2,NOTE_B2,},
{NOTE_FS4,},
{NOTE_B3,NOTE_FS5,},
{NOTE_FS4,},
{NOTE_GS4,},
{NOTE_CS3,NOTE_GS2,},
{NOTE_F5,NOTE_GS3,},
{NOTE_CS4,NOTE_CS5,},
{NOTE_B4,NOTE_GS3,},
{NOTE_AS4,NOTE_AS2,NOTE_F2,},
{NOTE_F3,NOTE_CS5,},
{NOTE_F5,NOTE_AS3,},
{NOTE_FS4,},
{NOTE_CS4,},
{NOTE_DS3,NOTE_DS4,},
{NOTE_AS4,},
{NOTE_DS4,NOTE_FS5,},
{NOTE_F5,NOTE_CS4,},
{NOTE_DS4,},
{NOTE_FS3,NOTE_B2,},
{NOTE_FS4,},
{NOTE_B4,},
{NOTE_FS4,},
{NOTE_FS4,},
{NOTE_CS3,NOTE_F5,NOTE_GS3,},
{NOTE_DS5,NOTE_GS3,},
{NOTE_CS4,NOTE_CS5,},
{NOTE_DS4,},
{NOTE_GS4,},
{NOTE_DS4,},
{NOTE_AS4,},
{NOTE_DS4,},
{NOTE_F4,},
{NOTE_FS4,},
{NOTE_DS4,},
{NOTE_F4,},
{NOTE_FS4,},
{NOTE_FS2,NOTE_B2,NOTE_B1,},
{NOTE_B4,},
{NOTE_B3,NOTE_FS3,},
{NOTE_F4,},
{NOTE_DS4,},
{NOTE_CS3,NOTE_CS2,NOTE_GS2,},
{NOTE_F4,},
{NOTE_FS4,},
{NOTE_GS3,NOTE_CS4,},
{NOTE_DS2,NOTE_AS2,NOTE_DS3,},
{NOTE_DS3,NOTE_F5,},
{NOTE_DS4,NOTE_AS3,},
{NOTE_DS4,},
{NOTE_F4,},
{NOTE_FS4,},
{NOTE_FS3,NOTE_FS2,NOTE_CS3,},
{NOTE_F4,},
{NOTE_CS4,},
{NOTE_CS4,NOTE_DS5,NOTE_FS4,},
{NOTE_B2,NOTE_CS5,},
{NOTE_FS4,NOTE_FS3,},
{NOTE_B3,NOTE_FS4,},
{NOTE_DS4,},
{NOTE_CS4,},
{NOTE_GS2,NOTE_CS3,},
{NOTE_FS4,},
{NOTE_GS4,},
{NOTE_AS4,},
{NOTE_DS4,},
{NOTE_AS4,},
{NOTE_DS4,},
{NOTE_F4,},
{NOTE_FS4,},
{NOTE_DS4,},
{NOTE_F4,},
{NOTE_FS4,},
{NOTE_B4,},
{NOTE_FS4,},
{NOTE_B4,},
{NOTE_DS4,},
{NOTE_FS4,},
{NOTE_B3,NOTE_F5,},
{NOTE_DS5,NOTE_CS2,},
{NOTE_F4,},
{NOTE_CS4,},
{NOTE_F4,},
{NOTE_GS4,},
{NOTE_FS4,},
{NOTE_CS4,},
{NOTE_DS4,},
{NOTE_AS4,},
{NOTE_F4,},
{NOTE_DS4,},
{NOTE_FS4,},
{NOTE_AS4,},
{NOTE_DS4,},
{NOTE_DS4,},
{NOTE_DS4,NOTE_F5,},
{NOTE_FS4,},
{NOTE_FS4,},
{NOTE_F4,},
{NOTE_GS4,},
{NOTE_CS4,},
{NOTE_GS4,},
{NOTE_AS4,},
{NOTE_FS4,},
{NOTE_F4,},
{NOTE_FS2,NOTE_B1,NOTE_B2,},
{NOTE_B4,},
{NOTE_B1,NOTE_B2,NOTE_FS2,},
{NOTE_FS4,},
{NOTE_FS4,},
{NOTE_AS4,},
{NOTE_GS4,},
{NOTE_FS4,},
{NOTE_FS4,},
{NOTE_AS5,NOTE_AS4,},
{NOTE_CS6,NOTE_CS5,},
{NOTE_AS4,NOTE_AS5,},
{NOTE_GS4,NOTE_GS5,},
{NOTE_B4,},
{NOTE_FS4,},
{NOTE_B4,},
{NOTE_FS4,NOTE_FS5,},
{NOTE_DS4,},
{NOTE_DS5,NOTE_DS4,},
{NOTE_FS4,},
{NOTE_FS4,NOTE_FS5,},
{NOTE_B4,},
{NOTE_GS5,NOTE_GS4,},
{NOTE_CS4,},
{NOTE_GS4,},
{NOTE_CS4,},
{NOTE_F4,},
{NOTE_GS4,},
{NOTE_AS5,NOTE_AS4,},
{NOTE_CS4,},
{NOTE_CS5,NOTE_CS6,NOTE_GS3,},
{NOTE_F3,NOTE_AS5,NOTE_AS4,},
{NOTE_AS4,},
{NOTE_GS4,NOTE_GS5,},
{NOTE_F4,},
{NOTE_AS4,},
{NOTE_FS5,NOTE_FS4,},
{NOTE_CS4,},
{NOTE_F3,NOTE_DS4,NOTE_DS5,},
{NOTE_FS5,NOTE_FS4,},
{NOTE_AS4,},
{NOTE_CS4,},
{NOTE_FS5,NOTE_FS4,},
{NOTE_AS4,},
{NOTE_DS4,},
{NOTE_AS4,},
{NOTE_DS4,},
{NOTE_FS4,},
{NOTE_AS5,NOTE_AS4,},
{NOTE_AS4,},
{NOTE_DS4,},
{NOTE_CS5,NOTE_CS6,},
{NOTE_FS4,},
{NOTE_AS5,NOTE_AS4,},
{NOTE_B4,},
{NOTE_GS4,NOTE_GS5,},
{NOTE_FS4,},
{NOTE_B4,},
{NOTE_DS4,},
{NOTE_B3,NOTE_AS5,NOTE_AS4,},
{NOTE_CS5,NOTE_CS6,},
{NOTE_AS4,},
{NOTE_GS4,},
{NOTE_FS4,},
{NOTE_CS5,NOTE_CS6,},
{NOTE_CS4,},
{NOTE_GS4,},
{NOTE_DS6,NOTE_DS5,},
{NOTE_CS4,},
{NOTE_GS4,},
{NOTE_F3,NOTE_CS6,NOTE_CS5,},
{NOTE_B4,NOTE_B5,NOTE_GS2,},
{NOTE_GS4,},
{NOTE_AS4,NOTE_AS5,},
{NOTE_CS4,},
{NOTE_DS4,},
{NOTE_AS4,},
{NOTE_DS4,},
{NOTE_F4,},
{NOTE_FS4,},
{NOTE_F4,},
{NOTE_CS4,},
{NOTE_AS4,},
{NOTE_FS4,},
{NOTE_F4,},
{NOTE_CS4,},
{NOTE_AS4,},
{NOTE_AS4,NOTE_AS5,},
{NOTE_FS4,},
{NOTE_CS4,},
{NOTE_AS1,NOTE_CS6,NOTE_CS5,},
{NOTE_AS5,NOTE_AS4,NOTE_CS3,},
{NOTE_GS4,NOTE_GS5,},
{NOTE_B4,},
{NOTE_FS4,},
{NOTE_B4,},
{NOTE_FS4,NOTE_FS5,},
{NOTE_DS4,},
{NOTE_DS5,NOTE_DS4,},
{NOTE_FS4,},
{NOTE_FS4,NOTE_FS5,},
{NOTE_B4,},
{NOTE_GS5,NOTE_GS4,},
{NOTE_CS4,},
{NOTE_GS4,},
{NOTE_CS4,},
{NOTE_F4,},
{NOTE_AS4,NOTE_AS5,},
{NOTE_GS4,},
{NOTE_CS4,},
{NOTE_GS3,NOTE_CS6,NOTE_CS5,},
{NOTE_AS4,NOTE_AS5,NOTE_F3,},
{NOTE_GS4,NOTE_GS5,},
{NOTE_AS4,},
{NOTE_F4,},
{NOTE_FS5,NOTE_FS4,},
{NOTE_AS4,},
{NOTE_CS4,},
{NOTE_F3,NOTE_DS4,NOTE_DS5,},
{NOTE_AS4,},
{NOTE_FS5,NOTE_FS4,},
{NOTE_CS4,},
{NOTE_AS4,},
{NOTE_FS5,NOTE_FS4,},
{NOTE_DS4,},
{NOTE_AS4,},
{NOTE_DS4,},
{NOTE_FS4,},
{NOTE_FS4,NOTE_FS5,NOTE_AS3,},
{NOTE_DS4,NOTE_F5,NOTE_F4,},
{NOTE_DS4,NOTE_DS5,},
{NOTE_FS4,},
{NOTE_F4,NOTE_F5,},
{NOTE_DS4,NOTE_DS5,},
{NOTE_B4,},
{NOTE_FS4,},
{NOTE_B4,},
{NOTE_CS4,},
{NOTE_GS5,NOTE_GS4,},
{NOTE_B4,},
{NOTE_GS4,},
{NOTE_CS4,},
{NOTE_B4,},
{NOTE_F4,},
{NOTE_F4,NOTE_F5,},
{NOTE_CS4,},
{NOTE_GS4,},
{NOTE_DS5,NOTE_DS4,},
{NOTE_F4,},
{NOTE_CS4,},
{NOTE_F5,NOTE_F4,},
{NOTE_GS4,},
{NOTE_CS4,},
{NOTE_F4,NOTE_F5,},
{NOTE_CS4,},
{NOTE_FS4,},
{NOTE_CS4,},
{NOTE_FS4,},
{NOTE_FS4,},
{NOTE_FS4,},
{NOTE_GS4,},
{NOTE_AS4,},
{NOTE_CS4,},
{NOTE_FS4,},
{NOTE_GS4,},
{NOTE_AS4,},
{NOTE_GS4,},
{NOTE_B2,NOTE_FS3,},
{NOTE_AS4,},
{NOTE_CS4,},
{NOTE_FS4,},
{NOTE_GS4,},
{NOTE_GS3,NOTE_CS3,},
{NOTE_AS4,},
{NOTE_CS4,},
{NOTE_FS4,},
{NOTE_GS4,},
{NOTE_DS3,NOTE_AS3,},
{NOTE_AS4,},
{NOTE_CS4,},
{NOTE_FS4,},
{NOTE_GS4,},
{NOTE_FS3,NOTE_CS4,},
{NOTE_AS4,},
{NOTE_CS4,},
{NOTE_FS4,},
{NOTE_GS4,},
{NOTE_B2,NOTE_FS3,},
{NOTE_AS4,},
{NOTE_CS4,},
{NOTE_FS4,},
{NOTE_GS4,},
{NOTE_CS3,NOTE_GS3,},
{NOTE_AS4,},
{NOTE_CS4,},
{NOTE_FS4,},
{NOTE_AS3,NOTE_DS3,},
{NOTE_GS4,},
{NOTE_AS4,},
{NOTE_CS4,},
{NOTE_FS4,},
{NOTE_GS4,},
{NOTE_AS4,},
{NOTE_DS2,NOTE_AS2,},
{NOTE_FS4,},
{NOTE_GS4,},
{NOTE_AS4,NOTE_B1,},
{NOTE_B2,NOTE_FS2,},
{NOTE_GS4,},
{NOTE_FS4,},
{NOTE_B3,NOTE_FS4,NOTE_B2,NOTE_FS3,},
{NOTE_B4,},
{NOTE_DS4,},
{NOTE_F4,},
{NOTE_CS2,NOTE_FS4,},
{NOTE_GS2,NOTE_CS3,},
{NOTE_F4,},
{NOTE_DS4,},
{NOTE_CS4,NOTE_CS4,NOTE_GS3,NOTE_CS3,},
{NOTE_AS4,},
{NOTE_GS4,},
{NOTE_CS4,},
{NOTE_DS3,NOTE_AS2,},
{NOTE_DS2,NOTE_DS4,},
{NOTE_F4,},
{NOTE_FS4,},
{NOTE_F4,},
{NOTE_DS4,NOTE_AS3,},
{NOTE_DS4,},
{NOTE_CS4,},
{NOTE_AS3,NOTE_DS4,},
{NOTE_CS4,},
{NOTE_FS4,},
{NOTE_CS4,},
{NOTE_FS4,},
{NOTE_AS4,},
{NOTE_AS4,},
{NOTE_B4,},
{NOTE_AS4,},
{NOTE_CS4,},
{NOTE_FS3,NOTE_B2,},
{NOTE_DS4,},
{NOTE_F4,},
{NOTE_FS4,},
{NOTE_F4,},
{NOTE_FS4,},
{NOTE_GS4,},
{NOTE_AS4,},
{NOTE_CS3,NOTE_GS3,},
{NOTE_GS4,},
{NOTE_FS4,},
{NOTE_F4,},
{NOTE_CS4,},
{NOTE_CS4,},
{NOTE_DS4,},
{NOTE_CS4,NOTE_FS3,},
{NOTE_AS4,},
{NOTE_CS4,NOTE_FS3,},
{NOTE_AS4,},
{NOTE_FS4,},
{NOTE_F4,},
{NOTE_FS4,},
{NOTE_CS4,},
{NOTE_GS4,},
{NOTE_AS4,NOTE_B1,},
{NOTE_GS4,},
{NOTE_FS4,},
{NOTE_FS4,},
{NOTE_FS4,NOTE_B2,NOTE_FS3,},
{NOTE_B4,},
{NOTE_DS4,},
{NOTE_F4,},
{NOTE_FS4,NOTE_CS2,},
{NOTE_GS4,},
{NOTE_F4,},
{NOTE_DS4,},
{NOTE_GS3,NOTE_CS4,NOTE_CS3,},
{NOTE_CS4,},
{NOTE_GS4,},
{NOTE_CS4,},
{NOTE_DS4,NOTE_DS2,},
{NOTE_AS4,},
{NOTE_F4,},
{NOTE_FS4,},
{NOTE_AS3,NOTE_DS3,},
{NOTE_F4,},
{NOTE_CS4,},
{NOTE_DS4,},
{NOTE_FS4,},
{NOTE_CS4,},
{NOTE_CS3,NOTE_AS3,},
{NOTE_FS4,},
{NOTE_DS4,},
{NOTE_AS4,},
{NOTE_CS4,},
{NOTE_B4,},
{NOTE_DS4,},
{NOTE_FS4,},
{NOTE_B2,NOTE_FS3,},
{NOTE_FS4,},
{NOTE_FS4,},
{NOTE_GS4,},
{NOTE_CS4,},
{NOTE_GS4,},
{NOTE_AS4,},
{NOTE_GS3,NOTE_CS3,},
{NOTE_GS4,},
{NOTE_CS4,},
{NOTE_DS4,},
{NOTE_FS4,},
{NOTE_AS4,},
{NOTE_DS4,},
{NOTE_F4,},
{NOTE_GS5,NOTE_FS4,},
{NOTE_AS5,NOTE_F4,},
{NOTE_CS4,},
{NOTE_CS4,},
{NOTE_GS4,},
{NOTE_FS4,},
{NOTE_DS4,},
{NOTE_F4,},
{NOTE_CS4,},
{NOTE_AS4,},
{NOTE_GS4,},
{NOTE_B4,},
{NOTE_DS4,},
{NOTE_FS4,},
{NOTE_B3,NOTE_CS5,},
{NOTE_B4,NOTE_DS4,},
{NOTE_CS4,},
{NOTE_AS4,},
{NOTE_GS4,},
{NOTE_CS4,},
{NOTE_GS4,},
{NOTE_AS4,},
{NOTE_B4,},
{NOTE_F4,},
{NOTE_DS4,},
{NOTE_AS4,},
{NOTE_GS4,},
{NOTE_AS4,},
{NOTE_FS4,},
{NOTE_DS4,},
{NOTE_GS4,},
{NOTE_AS4,},
{NOTE_AS4,},
{NOTE_B4,},
{NOTE_FS4,},
{NOTE_AS4,},
{NOTE_GS4,},
{NOTE_CS4,},
{NOTE_FS4,},
{NOTE_FS4,},
{NOTE_DS4,},
{NOTE_F4,},
{NOTE_AS4,},
{NOTE_FS4,},
{NOTE_B4,},
{NOTE_FS4,},
{NOTE_F4,},
{NOTE_DS4,},
{NOTE_FS4,},
{NOTE_CS4,},
{NOTE_B4,},
{NOTE_CS4,NOTE_DS3,},
{NOTE_CS4,},
{NOTE_DS4,},
{NOTE_FS4,},
{NOTE_FS4,},
{NOTE_F4,},
{NOTE_F4,},
{NOTE_CS4,},
{NOTE_DS4,},
{NOTE_CS4,},
{NOTE_AS4,},
{NOTE_AS4,},
{NOTE_DS4,},
{NOTE_F4,},
{NOTE_DS4,},
{NOTE_FS4,},
{NOTE_FS4,},
{NOTE_F4,},
{NOTE_CS4,},
{NOTE_AS4,},
{NOTE_B1,NOTE_B2,},
{NOTE_DS6,NOTE_DS5,NOTE_FS2,},
{NOTE_B4,},
{NOTE_B3,NOTE_B2,NOTE_CS5,NOTE_CS6,NOTE_FS3,},
{NOTE_B2,NOTE_B4,NOTE_B5,},
{NOTE_GS2,NOTE_AS4,NOTE_CS3,NOTE_AS5,},
{NOTE_CS4,},
{NOTE_CS3,NOTE_CS4,NOTE_GS3,},
{NOTE_GS5,NOTE_GS4,},
{NOTE_AS4,NOTE_AS5,},
{NOTE_B4,NOTE_B5,},
{NOTE_GS4,},
{NOTE_DS3,NOTE_AS2,NOTE_DS2,},
{NOTE_DS3,NOTE_AS2,},
{NOTE_AS4,NOTE_AS5,},
{NOTE_DS4,NOTE_AS3,},
{NOTE_DS4,},
{NOTE_GS5,NOTE_GS4,},
{NOTE_AS5,NOTE_AS4,},
{NOTE_AS4,},
{NOTE_FS4,},
{NOTE_CS4,},
{NOTE_FS4,},
{NOTE_AS4,},
{NOTE_B4,},
{NOTE_FS4,},
{NOTE_B4,},
{NOTE_B4,NOTE_B5,NOTE_DS4,},
{NOTE_AS4,NOTE_AS5,},
{NOTE_GS5,NOTE_GS4,},
{NOTE_FS4,NOTE_FS5,},
{NOTE_CS3,NOTE_GS2,NOTE_CS2,},
{NOTE_FS5,NOTE_FS4,},
{NOTE_FS3,NOTE_DS2,NOTE_B2,},
{NOTE_B2,NOTE_FS3,},
{NOTE_FS3,NOTE_FS4,NOTE_B3,},
{NOTE_FS3,NOTE_B2,NOTE_B3,},
{NOTE_B3,NOTE_FS4,},
{NOTE_B3,NOTE_FS3,NOTE_B2,},
{NOTE_B3,NOTE_FS4,},
{NOTE_CS4,NOTE_B2,NOTE_FS3,},
{NOTE_FS4,NOTE_B3,},
{NOTE_B2,NOTE_DS2,NOTE_FS3,},
{NOTE_B4,},
{NOTE_DS2,NOTE_FS3,NOTE_B2,},
{NOTE_FS3,NOTE_B2,},
{NOTE_FS3,NOTE_B3,NOTE_FS4,},
{NOTE_CS4,},
{NOTE_B3,NOTE_B2,NOTE_FS3,},
{NOTE_B3,NOTE_FS4,},
{NOTE_DS4,},
{NOTE_B2,NOTE_FS3,NOTE_B3,},
{NOTE_FS4,NOTE_B3,},
{NOTE_FS3,NOTE_B2,NOTE_CS4,},
{NOTE_B3,NOTE_FS4,},
{NOTE_B4,},
{NOTE_DS2,NOTE_B2,NOTE_FS3,},
{NOTE_CS3,NOTE_GS3,NOTE_F2,},
{NOTE_FS4,},
{NOTE_FS4,},
{NOTE_GS3,NOTE_CS3,},
{NOTE_CS4,NOTE_GS3,},
{NOTE_FS4,},
{NOTE_CS3,NOTE_CS4,NOTE_GS3,},
{NOTE_CS4,},
{NOTE_FS4,},
{NOTE_CS3,NOTE_GS3,NOTE_CS4,},
{NOTE_GS4,NOTE_GS3,},
{NOTE_GS3,NOTE_CS3,},
{NOTE_FS4,},
{NOTE_CS4,},
{NOTE_FS4,},
{NOTE_GS3,NOTE_F2,NOTE_CS3,},
{NOTE_F4,NOTE_F5,},
{NOTE_CS3,NOTE_GS3,NOTE_F2,},
{NOTE_GS3,NOTE_CS3,},
{NOTE_GS4,NOTE_GS3,NOTE_CS4,},
{NOTE_CS3,NOTE_CS4,NOTE_GS3,},
{NOTE_CS4,NOTE_GS4,},
{NOTE_CS3,NOTE_GS3,NOTE_CS4,},
{NOTE_GS4,NOTE_GS3,},
{NOTE_GS3,NOTE_CS3,NOTE_DS4,},
{NOTE_AS5,NOTE_CS4,NOTE_GS4,NOTE_AS4,},
{NOTE_CS5,NOTE_CS6,},
{NOTE_F2,NOTE_CS3,NOTE_GS3,},
{NOTE_AS5,NOTE_AS4,},
{NOTE_GS4,NOTE_GS5,},
{NOTE_B4,},
{NOTE_FS4,},
{NOTE_B4,},
{NOTE_FS5,NOTE_FS4,},
{NOTE_DS4,},
{NOTE_DS5,NOTE_DS4,},
{NOTE_FS4,},
{NOTE_FS4,NOTE_FS5,},
{NOTE_B4,},
{NOTE_GS4,NOTE_GS5,},
{NOTE_CS4,},
{NOTE_GS4,},
{NOTE_CS4,},
{NOTE_F4,},
{NOTE_AS5,NOTE_AS4,},
{NOTE_GS4,},
{NOTE_CS4,},
{NOTE_GS3,NOTE_CS5,NOTE_CS6,},
{NOTE_AS5,NOTE_AS4,NOTE_F3,},
{NOTE_GS5,NOTE_GS4,},
{NOTE_AS4,},
{NOTE_F4,},
{NOTE_FS5,NOTE_FS4,},
{NOTE_AS4,},
{NOTE_CS4,},
{NOTE_DS5,NOTE_F3,NOTE_DS4,},
{NOTE_FS4,NOTE_FS5,},
{NOTE_AS4,},
{NOTE_CS4,},
{NOTE_FS4,NOTE_FS5,},
{NOTE_AS4,},
{NOTE_DS4,},
{NOTE_AS4,},
{NOTE_DS4,},
{NOTE_FS4,},
{NOTE_AS4,NOTE_AS5,},
{NOTE_AS4,},
{NOTE_DS4,},
{NOTE_FS4,},
{NOTE_CS6,NOTE_CS5,},
{NOTE_AS4,NOTE_AS5,},
{NOTE_GS5,NOTE_GS4,},
{NOTE_B4,},
{NOTE_FS4,},
{NOTE_B4,},
{NOTE_DS4,},
{NOTE_B3,NOTE_AS5,NOTE_AS4,},
{NOTE_CS6,NOTE_CS5,},
{NOTE_AS4,},
{NOTE_GS4,},
{NOTE_CS5,NOTE_CS6,},
{NOTE_FS4,},
{NOTE_CS4,},
{NOTE_GS4,},
{NOTE_CS4,},
{NOTE_DS5,NOTE_DS6,},
{NOTE_GS4,},
{NOTE_CS5,NOTE_CS6,NOTE_F3,},
{NOTE_GS2,NOTE_B5,NOTE_B4,},
{NOTE_AS5,NOTE_AS4,},
{NOTE_GS4,},
{NOTE_CS4,},
{NOTE_DS4,},
{NOTE_AS4,},
{NOTE_DS4,},
{NOTE_F4,},
{NOTE_FS4,},
{NOTE_F4,},
{NOTE_CS4,},
{NOTE_AS4,},
{NOTE_FS4,},
{NOTE_F4,},
{NOTE_CS4,},
{NOTE_AS4,},
{NOTE_AS5,NOTE_AS4,},
{NOTE_FS4,},
{NOTE_CS4,},
{NOTE_CS5,NOTE_CS6,NOTE_AS1,},
{NOTE_CS3,NOTE_AS4,NOTE_AS5,},
{NOTE_GS5,NOTE_GS4,},
{NOTE_B4,},
{NOTE_FS4,},
{NOTE_B4,},
{NOTE_FS4,NOTE_FS5,},
{NOTE_DS4,},
{NOTE_DS4,NOTE_DS5,},
{NOTE_FS4,},
{NOTE_FS5,NOTE_FS4,},
{NOTE_B4,},
{NOTE_GS4,NOTE_GS5,},
{NOTE_CS4,},
{NOTE_GS4,},
{NOTE_CS4,},
{NOTE_F4,},
{NOTE_GS4,},
{NOTE_AS5,NOTE_AS4,},
{NOTE_CS4,},
{NOTE_CS5,NOTE_CS6,NOTE_GS3,},
{NOTE_F3,NOTE_AS5,NOTE_AS4,},
{NOTE_AS4,},
{NOTE_GS5,NOTE_GS4,},
{NOTE_F4,},
{NOTE_FS4,NOTE_FS5,},
{NOTE_AS4,},
{NOTE_CS4,},
{NOTE_DS4,NOTE_DS5,NOTE_F3,},
{NOTE_FS4,NOTE_FS5,},
{NOTE_AS4,},
{NOTE_CS4,},
{NOTE_FS4,NOTE_FS5,},
{NOTE_AS4,},
{NOTE_DS4,},
{NOTE_AS4,},
{NOTE_DS4,},
{NOTE_FS4,},
{NOTE_AS3,NOTE_FS5,NOTE_FS4,},
{NOTE_F4,NOTE_F5,NOTE_DS4,},
{NOTE_FS4,},
{NOTE_DS5,NOTE_DS4,},
{NOTE_F5,NOTE_F4,},
{NOTE_DS5,NOTE_DS4,},
{NOTE_B4,},
{NOTE_FS4,},
{NOTE_B4,},
{NOTE_CS4,},
{NOTE_GS5,NOTE_GS4,},
{NOTE_B4,},
{NOTE_GS4,},
{NOTE_CS4,},
{NOTE_B4,},
{NOTE_F5,NOTE_F4,},
{NOTE_F4,},
{NOTE_CS4,},
{NOTE_DS4,NOTE_DS5,},
{NOTE_GS4,},
{NOTE_F4,},
{NOTE_F4,NOTE_F5,},
{NOTE_CS4,},
{NOTE_GS4,},
{NOTE_F5,NOTE_F4,},
{NOTE_CS4,},
{NOTE_CS4,},
{NOTE_FS4,},
{NOTE_CS4,},
{NOTE_FS4,},
{NOTE_FS4,},
{NOTE_FS4,},
{NOTE_GS4,},
{NOTE_AS4,},
{NOTE_CS4,},
{NOTE_FS4,},
{NOTE_GS4,},
{NOTE_AS4,},
{NOTE_B1,NOTE_FS2,NOTE_B2,},
{NOTE_CS4,},
{NOTE_B3,NOTE_FS3,NOTE_B2,},
{NOTE_AS4,},
{NOTE_FS4,},
{NOTE_FS4,},
{NOTE_GS4,},
{NOTE_GS4,},
{NOTE_FS2,NOTE_CS5,NOTE_B1,NOTE_B2,},
{NOTE_FS3,NOTE_B3,},
{NOTE_AS4,},
{NOTE_FS4,},
{NOTE_FS2,NOTE_B2,},
{NOTE_FS4,},
{NOTE_GS4,},
{NOTE_B1,NOTE_B2,NOTE_FS2,},
{NOTE_GS4,},
{NOTE_CS4,},
{NOTE_B3,NOTE_B2,NOTE_FS3,},
{NOTE_AS4,},
{NOTE_GS4,},
{NOTE_FS4,},
{NOTE_GS4,},
{NOTE_GS4,},
{NOTE_FS2,NOTE_CS5,NOTE_B1,NOTE_B2,},
{NOTE_FS3,NOTE_B3,},
{NOTE_AS4,},
{NOTE_GS4,},
{NOTE_FS2,NOTE_B2,},
{NOTE_FS4,},
{NOTE_GS4,},
{NOTE_CS2,NOTE_CS3,NOTE_GS2,},
{NOTE_GS4,},
{NOTE_CS4,},
{NOTE_CS4,NOTE_CS3,NOTE_GS3,},
{NOTE_AS4,},
{NOTE_GS4,},
{NOTE_FS4,},
{NOTE_GS4,},
{NOTE_GS4,},
{NOTE_GS2,NOTE_CS5,NOTE_CS2,NOTE_CS3,},
{NOTE_GS3,NOTE_CS4,},
{NOTE_AS4,},
{NOTE_GS4,},
{NOTE_GS2,NOTE_CS3,},
{NOTE_FS4,},
{NOTE_GS4,},
{NOTE_GS4,},
{NOTE_CS2,NOTE_CS3,NOTE_GS2,},
{NOTE_DS4,},
{NOTE_CS4,},
{NOTE_CS3,NOTE_CS4,NOTE_GS3,},
{NOTE_B4,},
{NOTE_AS4,},
{NOTE_CS4,},
{NOTE_CS4,},
{NOTE_GS2,NOTE_DS5,NOTE_CS2,NOTE_CS3,},
{NOTE_GS3,NOTE_CS4,},
{NOTE_CS4,},
{NOTE_B4,},
{NOTE_GS2,NOTE_CS3,},
{NOTE_AS4,},
{NOTE_CS4,},
{NOTE_DS2,NOTE_DS3,NOTE_AS2,},
{NOTE_CS4,},
{NOTE_CS4,},
{NOTE_DS4,NOTE_DS3,NOTE_AS3,},
{NOTE_AS4,},
{NOTE_FS4,},
{NOTE_FS4,},
{NOTE_GS4,},
{NOTE_GS4,},
{NOTE_AS2,NOTE_CS5,NOTE_DS2,NOTE_DS3,},
{NOTE_AS3,NOTE_DS4,},
{NOTE_AS4,},
{NOTE_GS4,},
{NOTE_AS2,NOTE_DS3,},
{NOTE_FS4,},
{NOTE_GS4,},
{NOTE_DS2,NOTE_DS3,NOTE_AS2,},
{NOTE_GS4,},
{NOTE_CS4,},
{NOTE_DS4,NOTE_DS3,NOTE_AS3,},
{NOTE_AS4,},
{NOTE_GS4,},
{NOTE_FS4,},
{NOTE_GS4,},
{NOTE_GS4,},
{NOTE_AS2,NOTE_CS5,NOTE_DS2,NOTE_DS3,},
{NOTE_AS3,NOTE_DS4,},
{NOTE_AS4,},
{NOTE_GS4,},
{NOTE_AS2,NOTE_DS3,},
{NOTE_FS4,},
{NOTE_GS4,},
{NOTE_CS3,NOTE_F3,NOTE_F2,},
{NOTE_GS4,},
{NOTE_CS4,},
{NOTE_F4,NOTE_F3,NOTE_CS4,},
{NOTE_AS4,},
{NOTE_GS4,},
{NOTE_FS4,},
{NOTE_GS4,},
{NOTE_GS4,},
{NOTE_CS3,NOTE_F2,NOTE_F3,},
{NOTE_FS4,},
{NOTE_GS4,},
{NOTE_CS4,NOTE_AS5,NOTE_F4,},
{NOTE_CS3,NOTE_F3,},
{NOTE_B4,},
{NOTE_CS4,},
{NOTE_GS4,},
{NOTE_F4,},
{NOTE_DS4,},
{NOTE_F4,},
{NOTE_CS4,},
{NOTE_FS4,NOTE_B3,},
{NOTE_GS4,},
{NOTE_AS4,},
{NOTE_CS4,},
{NOTE_FS4,},
{NOTE_GS4,},
{NOTE_AS4,},
{NOTE_CS4,NOTE_GS4,},
{NOTE_CS4,},
{NOTE_FS4,},
{NOTE_GS4,},
{NOTE_DS4,NOTE_AS4,},
{NOTE_AS4,},
{NOTE_CS4,},
{NOTE_FS4,},
{NOTE_GS4,},
{NOTE_CS4,NOTE_GS4,},
{NOTE_AS4,},
{NOTE_CS4,},
{NOTE_FS4,},
{NOTE_B3,NOTE_FS4,},
{NOTE_GS4,},
{NOTE_AS4,},
{NOTE_CS4,},
{NOTE_FS4,},
{NOTE_GS4,},
{NOTE_CS4,NOTE_GS4,},
{NOTE_AS4,},
{NOTE_CS4,},
{NOTE_FS4,},
{NOTE_GS4,},
{NOTE_DS4,NOTE_AS4,},
{NOTE_AS4,},
{NOTE_CS4,},
{NOTE_FS4,},
{NOTE_GS4,},
{NOTE_CS4,NOTE_GS4,},
{NOTE_AS4,},
{NOTE_AS4,},
{NOTE_CS4,},
{NOTE_DS4,},
{NOTE_FS3,NOTE_B2,},
{NOTE_FS4,},
{NOTE_GS4,},
{NOTE_CS3,NOTE_GS3,},
{NOTE_F4,},
{NOTE_CS4,},
{NOTE_B4,},
{NOTE_AS4,},
{NOTE_AS3,NOTE_DS3,},
{NOTE_CS4,},
{NOTE_FS4,},
{NOTE_CS3,NOTE_GS3,},
{NOTE_FS4,},
{NOTE_F4,},
{NOTE_DS4,},
{NOTE_B2,NOTE_FS3,},
{NOTE_FS4,},
{NOTE_F4,},
{NOTE_CS4,},
{NOTE_GS3,NOTE_CS3,},
{NOTE_CS4,},
{NOTE_AS3,NOTE_DS3,},
{NOTE_GS3,NOTE_CS3,},
{NOTE_AS4,},
{NOTE_CS4,},
{NOTE_DS4,},
{NOTE_FS3,NOTE_B2,},
{NOTE_FS4,},
{NOTE_GS4,},
{NOTE_CS3,NOTE_GS3,},
{NOTE_F4,},
{NOTE_CS4,},
{NOTE_B4,},
{NOTE_AS4,},
{NOTE_AS3,NOTE_DS3,},
{NOTE_CS4,},
{NOTE_F4,},
{NOTE_FS4,},
{NOTE_CS3,NOTE_GS3,},
{NOTE_FS4,},
{NOTE_F4,},
{NOTE_DS4,},
{NOTE_B2,NOTE_FS3,},
{NOTE_FS4,},
{NOTE_F4,},
{NOTE_CS3,NOTE_GS3,},
{NOTE_DS4,},
{NOTE_CS4,},
{NOTE_DS4,},
{NOTE_DS3,NOTE_AS3,},
{NOTE_F4,},
{NOTE_CS4,},
{NOTE_GS4,},
{NOTE_GS4,},
{NOTE_FS4,},
{NOTE_CS3,NOTE_GS3,},
{NOTE_F4,},
{NOTE_AS4,NOTE_AS5,},
{NOTE_CS5,NOTE_CS6,},
{NOTE_AS4,NOTE_AS5,},
{NOTE_GS5,NOTE_GS4,},
{NOTE_B4,},
{NOTE_FS4,},
{NOTE_B4,},
{NOTE_FS4,NOTE_FS5,},
{NOTE_DS4,},
{NOTE_DS4,NOTE_DS5,},
{NOTE_FS4,},
{NOTE_FS5,NOTE_FS4,},
{NOTE_B4,},
{NOTE_GS4,NOTE_GS5,},
{NOTE_CS4,},
{NOTE_GS4,},
{NOTE_CS4,},
{NOTE_F4,},
{NOTE_AS4,NOTE_AS5,},
{NOTE_GS4,},
{NOTE_CS4,},
{NOTE_GS3,NOTE_CS6,NOTE_CS5,},
{NOTE_AS4,NOTE_AS5,NOTE_F3,},
{NOTE_GS5,NOTE_GS4,},
{NOTE_AS4,},
{NOTE_F4,},
{NOTE_FS5,NOTE_FS4,},
{NOTE_AS4,},
{NOTE_CS4,},
{NOTE_DS5,NOTE_F3,NOTE_DS4,},
{NOTE_FS4,NOTE_FS5,},
{NOTE_AS4,},
{NOTE_CS4,},
{NOTE_FS4,NOTE_FS5,},
{NOTE_AS4,},
{NOTE_DS4,},
{NOTE_AS4,},
{NOTE_DS4,},
{NOTE_FS4,},
{NOTE_AS4,NOTE_AS5,},
{NOTE_AS4,},
{NOTE_DS4,},
{NOTE_FS4,},
{NOTE_CS6,NOTE_CS5,},
{NOTE_AS4,NOTE_AS5,},
{NOTE_GS4,NOTE_GS5,},
{NOTE_B4,},
{NOTE_FS4,},
{NOTE_B4,},
{NOTE_DS4,},
{NOTE_AS4,NOTE_AS5,NOTE_B3,},
{NOTE_AS4,},
{NOTE_CS6,NOTE_CS5,},
{NOTE_GS4,},
{NOTE_CS5,NOTE_CS6,},
{NOTE_FS4,},
{NOTE_CS4,},
{NOTE_GS4,},
{NOTE_CS4,},
{NOTE_DS5,NOTE_DS6,},
{NOTE_GS4,},
{NOTE_CS6,NOTE_F3,NOTE_CS5,},
{NOTE_GS2,NOTE_B5,NOTE_B4,},
{NOTE_AS5,NOTE_AS4,},
{NOTE_GS4,},
{NOTE_CS4,},
{NOTE_DS4,},
{NOTE_AS4,},
{NOTE_DS4,},
{NOTE_F4,},
{NOTE_FS4,},
{NOTE_F4,},
{NOTE_CS4,},
{NOTE_AS4,},
{NOTE_FS4,},
{NOTE_F4,},
{NOTE_CS4,},
{NOTE_AS4,},
{NOTE_AS5,NOTE_AS4,},
{NOTE_FS4,},
{NOTE_CS4,},
{NOTE_CS5,NOTE_CS6,NOTE_AS1,},
{NOTE_CS3,NOTE_AS4,NOTE_AS5,},
{NOTE_GS5,NOTE_GS4,},
{NOTE_B4,},
{NOTE_FS4,},
{NOTE_B4,},
{NOTE_FS4,NOTE_FS5,},
{NOTE_DS4,},
{NOTE_DS4,NOTE_DS5,},
{NOTE_FS4,},
{NOTE_FS5,NOTE_FS4,},
{NOTE_B4,},
{NOTE_GS4,NOTE_GS5,},
{NOTE_CS4,},
{NOTE_GS4,},
{NOTE_CS4,},
{NOTE_F4,},
{NOTE_GS4,},
{NOTE_AS5,NOTE_AS4,},
{NOTE_CS4,},
{NOTE_CS5,NOTE_CS6,NOTE_GS3,},
{NOTE_F3,NOTE_AS5,NOTE_AS4,},
{NOTE_AS4,},
{NOTE_GS5,NOTE_GS4,},
{NOTE_F4,},
{NOTE_FS4,NOTE_FS5,},
{NOTE_AS4,},
{NOTE_CS4,},
{NOTE_DS4,NOTE_DS5,NOTE_F3,},
{NOTE_FS4,NOTE_FS5,},
{NOTE_AS4,},
{NOTE_CS4,},
{NOTE_FS4,NOTE_FS5,},
{NOTE_AS4,},
{NOTE_DS4,},
{NOTE_AS4,},
{NOTE_DS4,},
{NOTE_FS4,},
{NOTE_AS3,NOTE_FS5,NOTE_FS4,},
{NOTE_F4,NOTE_F5,NOTE_DS4,},
{NOTE_FS4,},
{NOTE_DS5,NOTE_DS4,},
{NOTE_F5,NOTE_F4,},
{NOTE_DS5,NOTE_DS4,},
{NOTE_B4,},
{NOTE_FS4,},
{NOTE_B4,},
{NOTE_CS4,},
{NOTE_GS5,NOTE_GS4,},
{NOTE_B4,},
{NOTE_GS4,},
{NOTE_CS4,},
{NOTE_B4,},
{NOTE_F5,NOTE_F4,},
{NOTE_F4,},
{NOTE_CS4,},
{NOTE_DS4,NOTE_DS5,},
{NOTE_GS4,},
{NOTE_F4,},
{NOTE_F4,NOTE_F5,},
{NOTE_CS4,},
{NOTE_GS4,},
{NOTE_F5,NOTE_F4,},
{NOTE_CS4,},
{NOTE_CS4,},
{NOTE_FS4,},
{NOTE_CS4,},
{NOTE_FS4,},
{NOTE_FS4,},
{NOTE_FS4,},
{NOTE_GS4,},
{NOTE_AS4,},
{NOTE_CS4,},
{NOTE_FS4,},
{NOTE_GS4,},
{NOTE_AS4,},
{NOTE_B4,},
{NOTE_DS4,NOTE_DS5,},
{NOTE_FS4,},
{NOTE_B4,},
{NOTE_DS4,},
{NOTE_DS4,NOTE_DS5,},
{NOTE_FS4,},
{NOTE_B4,},
{NOTE_FS5,NOTE_FS4,},
{NOTE_FS4,},
{NOTE_DS4,},
{NOTE_CS4,},
{NOTE_GS4,NOTE_GS5,},
{NOTE_GS4,},
{NOTE_CS4,},
{NOTE_F4,},
{NOTE_CS4,},
{NOTE_AS4,NOTE_AS5,},
{NOTE_GS4,},
{NOTE_F4,},
{NOTE_CS4,},
{NOTE_FS4,NOTE_FS5,},
{NOTE_DS4,},
{NOTE_AS4,},
{NOTE_DS4,},
{NOTE_FS4,},
{NOTE_AS4,NOTE_AS5,NOTE_DS3,},
{NOTE_AS2,NOTE_GS5,NOTE_GS4,},
{NOTE_FS4,NOTE_FS5,},
{NOTE_FS4,},
{NOTE_AS4,},
{NOTE_GS4,NOTE_GS5,},
{NOTE_AS4,},
{NOTE_F4,},
{NOTE_AS4,},
{NOTE_F4,},
{NOTE_CS6,NOTE_CS5,},
{NOTE_AS4,},
{NOTE_F4,},
{NOTE_CS4,},
{NOTE_AS5,NOTE_AS4,},
{NOTE_B4,},
{NOTE_FS4,},
{NOTE_B4,},
{NOTE_DS4,},
{NOTE_FS4,NOTE_FS5,},
{NOTE_FS4,},
{NOTE_AS4,},
{NOTE_CS5,NOTE_CS4,},
{NOTE_FS4,},
{NOTE_DS4,},
{NOTE_CS4,},
{NOTE_DS4,NOTE_DS5,},
{NOTE_GS4,},
{NOTE_CS4,},
{NOTE_GS4,},
{NOTE_F4,},
{NOTE_CS5,NOTE_CS4,},
{NOTE_CS4,},
{NOTE_GS4,},
{NOTE_AS3,NOTE_AS4,},
{NOTE_CS4,},
{NOTE_CS5,NOTE_CS4,},
{NOTE_AS4,},
{NOTE_F4,},
{NOTE_AS4,},
{NOTE_F4,},
{NOTE_CS4,},
{NOTE_AS4,},
{NOTE_F4,},
{NOTE_AS4,},
{NOTE_DS4,},
{NOTE_AS4,},
{NOTE_FS4,},
{NOTE_DS4,},
{NOTE_AS4,},
{NOTE_FS4,},
{NOTE_DS4,},
{NOTE_AS4,},
{NOTE_B4,},
{NOTE_DS4,NOTE_DS5,},
{NOTE_FS4,},
{NOTE_B4,},
{NOTE_DS4,},
{NOTE_DS5,NOTE_DS4,},
{NOTE_FS4,},
{NOTE_B4,},
{NOTE_FS4,NOTE_FS5,},
{NOTE_FS4,},
{NOTE_DS4,},
{NOTE_GS5,NOTE_GS4,},
{NOTE_CS4,},
{NOTE_GS4,},
{NOTE_CS4,},
{NOTE_F4,},
{NOTE_AS5,NOTE_AS4,},
{NOTE_CS4,},
{NOTE_GS4,},
{NOTE_F4,},
{NOTE_CS4,},
{NOTE_FS4,NOTE_FS5,},
{NOTE_DS4,},
{NOTE_AS4,},
{NOTE_DS4,},
{NOTE_FS4,},
{NOTE_AS5,NOTE_AS4,NOTE_DS3,},
{NOTE_AS2,NOTE_GS4,NOTE_GS5,},
{NOTE_FS4,},
{NOTE_FS5,NOTE_FS4,},
{NOTE_AS4,},
{NOTE_AS4,},
{NOTE_GS5,NOTE_GS4,},
{NOTE_F4,},
{NOTE_AS4,},
{NOTE_F4,},
{NOTE_AS4,},
{NOTE_CS5,NOTE_CS6,},
{NOTE_F4,},
{NOTE_CS4,},
{NOTE_DS6,NOTE_DS5,},
{NOTE_B4,},
{NOTE_FS4,},
{NOTE_B4,},
{NOTE_DS4,},
{NOTE_B4,},
{NOTE_FS4,},
{NOTE_AS5,NOTE_AS4,},
{NOTE_F4,},
{NOTE_B4,},
{NOTE_CS4,},
{NOTE_GS4,NOTE_GS5,},
{NOTE_CS4,},
{NOTE_GS4,},
{NOTE_F4,},
{NOTE_CS4,},
{NOTE_GS4,},
{NOTE_CS4,NOTE_FS4,NOTE_FS5,},
{NOTE_GS4,NOTE_GS5,NOTE_CS2,},
{NOTE_AS5,NOTE_AS4,},
{NOTE_DS4,},
{NOTE_AS4,},
{NOTE_DS4,},
{NOTE_FS4,},
{NOTE_AS4,},
{NOTE_FS4,},
{NOTE_GS5,NOTE_GS4,NOTE_DS3,},
{NOTE_AS2,NOTE_FS5,NOTE_FS4,},
{NOTE_FS4,},
{NOTE_FS5,NOTE_FS4,},
{NOTE_FS4,},
{NOTE_B4,},
{NOTE_DS4,NOTE_DS5,},
{NOTE_FS4,},
{NOTE_B4,},
{NOTE_DS4,},
{NOTE_DS5,NOTE_DS4,},
{NOTE_FS4,},
{NOTE_B4,},
{NOTE_FS4,NOTE_FS5,},
{NOTE_FS4,},
{NOTE_DS4,},
{NOTE_GS5,NOTE_GS4,},
{NOTE_CS4,},
{NOTE_GS4,},
{NOTE_CS4,},
{NOTE_F4,},
{NOTE_AS5,NOTE_AS4,},
{NOTE_CS4,},
{NOTE_GS4,},
{NOTE_F4,},
{NOTE_CS4,},
{NOTE_FS4,NOTE_FS5,},
{NOTE_DS4,},
{NOTE_AS4,},
{NOTE_DS4,},
{NOTE_FS4,},
{NOTE_AS5,NOTE_AS4,NOTE_DS3,},
{NOTE_AS2,NOTE_GS4,NOTE_GS5,},
{NOTE_FS4,},
{NOTE_FS5,NOTE_FS4,},
{NOTE_AS4,},
{NOTE_AS4,},
{NOTE_GS5,NOTE_GS4,},
{NOTE_F4,},
{NOTE_AS4,},
{NOTE_F4,},
{NOTE_AS4,},
{NOTE_CS5,NOTE_CS6,},
{NOTE_F4,},
{NOTE_CS4,},
{NOTE_B4,},
{NOTE_AS5,NOTE_AS4,},
{NOTE_FS4,},
{NOTE_B4,},
{NOTE_DS4,},
{NOTE_FS4,NOTE_FS5,},
{NOTE_FS4,},
{NOTE_AS4,},
{NOTE_FS4,},
{NOTE_CS4,NOTE_CS5,},
{NOTE_DS4,},
{NOTE_DS5,NOTE_DS4,},
{NOTE_CS4,},
{NOTE_GS4,},
{NOTE_CS4,},
{NOTE_GS4,},
{NOTE_CS4,NOTE_CS5,},
{NOTE_F4,},
{NOTE_CS4,},
{NOTE_GS4,},
{NOTE_AS4,NOTE_AS3,},
{NOTE_CS4,},
{NOTE_CS4,NOTE_CS5,},
{NOTE_AS4,},
{NOTE_F4,},
{NOTE_AS4,},
{NOTE_F4,},
{NOTE_CS4,},
{NOTE_AS4,},
{NOTE_F4,},
{NOTE_AS4,},
{NOTE_DS4,},
{NOTE_AS4,},
{NOTE_FS4,},
{NOTE_DS4,},
{NOTE_AS4,},
{NOTE_FS4,},
{NOTE_DS4,},
{NOTE_AS4,},
{NOTE_DS4,},
{NOTE_B4,},
{NOTE_FS4,},
{NOTE_B4,},
{NOTE_DS4,},
{NOTE_FS3,NOTE_DS4,},
{NOTE_FS4,NOTE_B3,},
{NOTE_GS4,},
{NOTE_CS4,},
{NOTE_GS4,},
{NOTE_CS4,},
{NOTE_F4,},
{NOTE_GS4,},
{NOTE_AS4,},
{NOTE_CS4,},
{NOTE_GS4,},
{NOTE_F4,},
{NOTE_DS4,},
{NOTE_FS4,},
{NOTE_AS4,},
{NOTE_DS4,},
{NOTE_FS4,},
{NOTE_AS4,NOTE_DS3,},
{NOTE_AS2,NOTE_GS4,},
{NOTE_FS4,},
{NOTE_DS4,},
{NOTE_AS4,},
{NOTE_GS4,},
{NOTE_AS4,},
{NOTE_F4,},
{NOTE_AS4,},
{NOTE_F4,},
{NOTE_CS4,},
{NOTE_AS4,},
{NOTE_F4,},
{NOTE_CS4,},
{NOTE_DS4,},
{NOTE_B4,},
{NOTE_FS4,},
{NOTE_B4,},
{NOTE_DS4,},
{NOTE_B4,},
{NOTE_FS4,},
{NOTE_F4,},
{NOTE_AS4,},
{NOTE_B4,},
{NOTE_CS4,},
{NOTE_GS4,},
{NOTE_CS4,},
{NOTE_GS4,},
{NOTE_F4,},
{NOTE_CS4,},
{NOTE_GS4,},
{NOTE_CS4,NOTE_FS4,},
{NOTE_GS4,NOTE_CS2,},
{NOTE_DS4,},
{NOTE_AS4,},
{NOTE_AS4,},
{NOTE_DS4,},
{NOTE_FS4,},
{NOTE_AS4,},
{NOTE_FS4,},
{NOTE_DS3,NOTE_GS4,},
{NOTE_FS4,NOTE_AS2,},
{NOTE_FS4,},
{NOTE_FS4,},
{NOTE_FS4,},
{NOTE_FS4,NOTE_B3,},
{NOTE_GS4,},
{NOTE_AS4,},
{NOTE_CS4,},
{NOTE_FS4,},
{NOTE_GS4,},
{NOTE_AS4,},
{NOTE_CS4,NOTE_GS4,},
{NOTE_CS4,},
{NOTE_FS4,},
{NOTE_DS4,NOTE_AS4,},
{NOTE_GS4,},
{NOTE_AS4,},
{NOTE_CS4,},
{NOTE_DS4,},
{NOTE_GS4,},
{NOTE_FS4,NOTE_CS5,},
{NOTE_AS4,},
{NOTE_CS4,},
{NOTE_AS4,},
{NOTE_FS4,NOTE_B3,},
{NOTE_GS4,},
{NOTE_AS4,},
{NOTE_CS4,},
{NOTE_FS4,},
{NOTE_GS4,},
{NOTE_AS4,},
{NOTE_CS4,NOTE_GS4,},
{NOTE_CS4,},
{NOTE_FS4,},
{NOTE_DS4,NOTE_AS4,},
{NOTE_GS4,},
{NOTE_AS4,},
{NOTE_CS4,},
{NOTE_DS4,},
{NOTE_GS4,},
{NOTE_FS3,NOTE_CS4,},
{NOTE_AS4,},
{NOTE_CS4,},
{NOTE_FS4,},
{NOTE_GS4,},
{NOTE_AS4,},
{NOTE_FS4,},
};
uint16_t dshh_notedura[1558]={
6,30,6,6,6,6,16,6,6,6,6,30,6,6,6,6,6,16,6,6,6,30,6,6,6,6,16,6,6,6,30,6,6,6,6,6,6,16,6,6,6,30,6,6,6,6,16,6,6,6,6,30,6,6,6,6,16,6,6,6,6,30,6,6,6,6,16,6,6,6,6,30,6,6,6,6,16,6,6,6,6,12,6,6,12,6,6,6,6,6,6,6,6,21,6,6,6,6,6,6,12,6,6,12,6,6,12,6,6,39,6,6,6,6,6,6,6,6,12,6,6,6,6,12,6,6,6,6,6,6,6,16,6,6,6,6,6,12,6,6,6,12,6,6,6,6,39,6,6,6,6,6,6,6,6,16,6,6,16,6,6,12,6,18,6,6,6,16,6,6,6,12,6,6,6,6,6,6,6,6,16,6,6,39,6,6,6,6,12,6,6,16,3,3,3,3,6,6,6,6,3,3,6,18,6,3,3,6,3,3,3,6,3,6,6,3,3,6,3,3,6,3,3,6,12,12,6,6,6,6,6,40,6,3,3,6,3,3,3,6,3,3,6,6,6,15,3,3,3,3,3,6,3,3,3,3,6,3,3,6,3,3,6,3,3,15,3,3,3,3,3,6,3,3,3,6,3,3,12,3,3,3,3,6,3,3,3,8,3,3,6,3,3,3,3,3,39,3,3,3,3,3,3,3,3,3,3,3,3,3,6,3,3,3,3,6,3,3,3,6,3,3,6,6,6,15,3,3,3,3,6,3,3,3,3,6,3,3,6,3,3,3,3,6,3,3,15,3,3,3,3,3,3,3,6,3,12,3,3,3,3,12,3,3,3,3,3,6,3,3,6,3,3,6,3,3,12,3,3,3,3,32,15,3,3,3,20,3,21,6,30,6,6,6,6,16,6,6,6,6,30,6,6,6,6,16,6,6,6,6,30,6,6,6,6,16,6,6,6,36,6,6,6,6,6,12,12,3,3,6,12,3,3,6,6,3,3,6,12,3,3,6,3,6,3,12,6,3,3,3,6,12,3,6,12,6,6,6,3,3,3,6,3,30,6,3,3,6,3,3,6,16,3,3,6,3,15,12,8,12,15,6,6,6,3,6,3,6,3,6,3,6,6,3,3,6,6,3,3,6,3,6,3,6,6,3,3,12,3,3,8,6,8,6,6,8,6,8,6,8,6,6,8,6,8,6,6,8,6,9,6,6,18,6,6,6,3,3,6,3,3,3,6,3,3,6,3,6,12,6,6,6,6,12,6,6,3,3,9,6,6,3,3,6,6,6,3,6,3,6,6,3,3,6,6,6,3,3,6,3,6,3,3,3,6,8,6,6,6,8,6,8,6,9,6,6,8,6,8,6,6,21,12,3,3,3,3,6,12,6,6,6,12,6,6,3,3,16,6,6,6,3,6,12,3,30,6,6,6,6,6,6,6,6,6,6,6,6,12,6,6,6,6,3,3,3,3,6,6,6,12,6,6,6,12,3,3,12,3,3,6,6,12,6,6,40,18,6,6,12,3,3,15,3,3,6,12,6,8,6,32,6,6,6,3,3,3,3,6,6,3,6,3,6,3,3,3,6,3,3,6,6,6,15,3,3,3,3,6,3,3,3,3,6,3,3,6,3,3,3,6,3,3,15,3,3,3,3,3,6,3,3,6,3,3,12,3,3,3,3,3,6,3,3,8,3,3,3,3,6,3,3,3,39,3,3,3,3,3,3,3,3,3,3,3,3,3,3,6,3,3,3,3,6,3,3,3,6,3,3,6,6,6,15,3,3,3,3,3,6,3,3,3,3,6,3,6,3,3,3,6,3,3,15,3,3,3,3,3,3,3,6,3,3,12,3,3,3,3,12,3,3,3,3,6,3,3,6,3,3,6,3,3,12,3,3,3,3,3,15,32,3,3,3,20,3,21,12,6,16,3,3,3,3,6,6,6,3,3,6,3,3,12,6,6,16,3,3,3,3,6,6,6,3,3,6,3,3,12,6,6,16,3,3,3,3,6,6,6,3,3,6,3,3,6,12,6,3,16,3,3,3,6,6,6,3,3,6,3,3,12,6,6,16,3,3,3,3,6,6,6,3,3,6,3,3,12,6,6,16,3,3,3,3,6,6,6,3,3,6,3,3,12,6,6,16,3,3,3,3,6,6,3,3,6,6,12,6,42,6,6,6,21,30,6,6,6,6,6,6,16,6,6,6,30,6,6,6,6,16,6,6,6,30,6,6,6,6,6,16,6,6,6,6,30,6,6,6,6,16,6,6,6,12,30,6,12,16,6,6,6,6,30,6,21,16,6,6,12,30,12,6,12,16,39,30,16,6,6,12,30,6,12,16,6,6,6,6,30,6,6,16,16,6,6,12,30,12,6,16,6,6,6,30,6,6,6,6,6,16,6,6,3,3,6,3,3,3,6,3,3,6,6,6,15,3,3,3,3,6,3,3,3,3,6,3,3,6,3,3,3,6,3,3,15,3,3,3,3,3,6,3,3,6,3,3,12,3,3,3,3,3,3,6,3,8,3,3,3,3,6,3,3,3,39,3,3,3,3,3,3,3,3,3,3,3,3,3,3,6,3,3,3,3,6,3,3,3,6,3,3,6,6,6,15,3,3,3,3,3,6,3,3,3,3,6,3,6,3,3,3,6,3,3,15,3,3,3,3,3,3,3,6,3,3,12,3,3,3,3,12,3,3,3,3,6,3,3,6,3,3,6,3,3,12,3,3,3,3,3,15,32,3,3,3,20,3,21,3,12,3,3,3,6,3,3,6,3,3,3,12,3,3,3,3,12,3,3,3,12,3,3,3,3,3,3,6,3,3,12,3,3,3,3,12,3,3,6,12,3,3,3,3,6,3,3,6,3,3,3,12,3,3,3,3,6,3,3,6,3,40,3,3,3,3,3,3,3,3,3,3,3,3,3,3,3,3,3,12,3,3,3,6,3,3,6,3,3,12,3,3,3,3,12,3,3,3,3,12,3,3,3,3,3,3,3,6,3,3,12,3,3,3,3,12,3,6,16,3,3,3,3,3,3,6,3,3,3,16,3,3,3,3,3,3,3,16,3,3,3,3,3,3,3,3,12,21,12,3,12,3,3,3,6,3,3,6,3,3,12,3,3,3,3,12,3,3,3,3,12,3,3,3,3,3,3,3,6,3,3,12,3,3,3,3,12,3,6,3,12,3,3,3,6,3,3,3,6,3,12,3,3,3,3,6,3,3,3,6,3,40,3,3,3,3,3,3,3,3,3,3,3,3,3,3,3,3,12,3,3,3,3,6,6,12,3,3,3,3,3,12,3,3,3,3,12,3,3,3,3,3,6,3,3,12,3,3,3,3,12,3,3,6,16,3,3,3,3,3,3,3,6,3,3,16,3,3,3,3,3,3,3,3,16,3,3,3,3,3,3,3,12,21,12,30,6,6,6,6,6,6,16,6,6,30,6,6,6,6,6,16,6,6,6,30,6,6,6,6,6,6,16,6,6,30,6,6,6,6,6,16,6,6,6,6,6,};
uint16_t dshh_noteos[1558]={
0,0,6,12,18,24,30,30,36,42,48,48,54,60,66,72,78,78,84,90,96,96,102,108,114,120,126,126,132,138,144,144,150,156,162,168,174,174,180,186,192,192,198,204,210,216,222,222,228,234,240,240,246,252,258,264,270,270,276,282,288,288,294,300,306,312,318,318,324,330,336,336,342,348,354,360,366,366,372,378,384,384,390,396,402,402,408,414,420,426,432,438,444,444,450,456,462,468,474,480,480,486,492,492,498,504,510,510,516,522,522,528,534,540,546,552,564,570,576,576,582,588,594,594,600,606,612,618,624,630,636,642,642,648,654,660,666,672,672,678,684,684,690,696,702,708,714,714,720,726,732,738,744,756,762,768,768,774,780,786,792,798,798,804,810,816,822,828,828,834,840,846,846,852,858,864,870,876,882,888,894,894,900,906,912,918,924,930,936,948,954,960,960,963,966,969,972,978,984,990,990,993,996,996,1002,1008,1011,1014,1014,1017,1020,1020,1023,1026,1032,1032,1035,1038,1038,1041,1044,1044,1047,1050,1050,1056,1062,1068,1074,1080,1086,1092,1140,1146,1149,1152,1152,1155,1158,1158,1161,1164,1164,1167,1170,1173,1176,1179,1182,1185,1188,1188,1191,1194,1197,1200,1200,1203,1206,1206,1209,1212,1215,1215,1218,1221,1221,1224,1227,1230,1233,1236,1236,1239,1242,1242,1245,1248,1248,1251,1254,1257,1260,1263,1263,1266,1269,1269,1272,1275,1278,1278,1281,1284,1287,1290,1290,1293,1296,1299,1302,1305,1308,1311,1314,1317,1320,1323,1326,1329,1332,1332,1335,1338,1341,1344,1344,1347,1350,1350,1353,1356,1356,1359,1362,1365,1368,1371,1374,1377,1380,1380,1383,1386,1389,1392,1392,1395,1398,1398,1401,1404,1407,1407,1410,1413,1413,1416,1419,1422,1425,1428,1431,1434,1434,1437,1440,1440,1443,1446,1449,1452,1452,1455,1458,1461,1464,1464,1467,1470,1470,1473,1476,1476,1479,1482,1482,1485,1488,1491,1494,1494,1494,1497,1500,1503,1506,1509,1512,1536,1536,1542,1548,1554,1560,1566,1566,1572,1578,1584,1584,1590,1596,1602,1608,1614,1614,1620,1626,1632,1632,1638,1644,1650,1656,1662,1662,1668,1674,1680,1680,1686,1692,1698,1704,1710,1716,1722,1725,1728,1728,1734,1737,1740,1746,1746,1749,1752,1752,1758,1761,1764,1770,1770,1773,1776,1776,1782,1785,1788,1788,1788,1791,1794,1800,1800,1806,1812,1812,1815,1818,1818,1821,1824,1824,1830,1833,1836,1842,1845,1848,1854,1854,1857,1860,1866,1869,1872,1884,1884,1893,1896,1902,1908,1914,1914,1917,1920,1926,1926,1929,1932,1938,1938,1941,1944,1950,1950,1953,1956,1962,1962,1965,1968,1974,1974,1977,1980,1980,1983,1986,1992,1995,1998,2004,2004,2010,2013,2016,2022,2022,2028,2031,2034,2040,2040,2046,2049,2052,2058,2058,2064,2067,2070,2076,2082,2088,2091,2094,2094,2097,2100,2100,2103,2106,2106,2109,2112,2112,2118,2124,2130,2136,2136,2142,2148,2148,2151,2154,2154,2160,2163,2166,2166,2169,2172,2175,2178,2178,2181,2184,2187,2190,2190,2193,2196,2199,2202,2202,2205,2208,2208,2211,2214,2214,2217,2220,2226,2232,2232,2238,2241,2244,2250,2250,2256,2259,2262,2268,2268,2274,2277,2280,2292,2295,2298,2301,2304,2304,2310,2316,2322,2328,2328,2340,2340,2343,2346,2346,2352,2358,2364,2364,2364,2367,2370,2370,2376,2382,2388,2394,2400,2406,2412,2418,2424,2430,2436,2436,2442,2448,2454,2460,2466,2469,2472,2475,2478,2484,2490,2496,2496,2502,2508,2508,2514,2517,2520,2520,2523,2526,2532,2532,2538,2544,2544,2544,2550,2556,2556,2562,2565,2565,2568,2571,2574,2574,2580,2580,2586,2592,2592,2598,2604,2610,2613,2616,2619,2622,2628,2634,2634,2637,2640,2640,2643,2646,2646,2649,2652,2652,2655,2658,2661,2664,2667,2670,2673,2676,2676,2679,2682,2685,2688,2688,2691,2694,2694,2697,2700,2703,2703,2706,2709,2709,2712,2715,2718,2721,2724,2724,2727,2730,2730,2733,2736,2736,2739,2742,2745,2748,2751,2751,2754,2757,2757,2760,2763,2766,2766,2769,2772,2775,2778,2778,2781,2784,2787,2790,2793,2796,2799,2802,2805,2808,2811,2814,2817,2820,2820,2823,2826,2829,2832,2832,2835,2838,2838,2841,2844,2844,2847,2850,2853,2856,2859,2862,2865,2868,2868,2871,2874,2877,2880,2880,2883,2886,2886,2889,2892,2895,2895,2898,2901,2901,2904,2907,2910,2913,2916,2919,2922,2922,2925,2928,2928,2931,2934,2937,2940,2940,2943,2946,2949,2952,2952,2955,2958,2958,2961,2964,2964,2967,2970,2970,2973,2976,2979,2982,2982,2982,2985,2988,2991,2994,2997,3000,3024,3030,3036,3036,3039,3042,3045,3048,3054,3060,3060,3063,3066,3066,3069,3072,3072,3078,3084,3084,3087,3090,3093,3096,3102,3108,3108,3111,3114,3114,3117,3120,3120,3126,3132,3132,3135,3138,3141,3144,3150,3156,3156,3159,3162,3162,3165,3168,3168,3174,3180,3180,3183,3186,3189,3192,3198,3204,3204,3207,3210,3210,3213,3216,3216,3222,3228,3228,3231,3234,3237,3240,3246,3252,3252,3255,3258,3258,3261,3264,3264,3270,3276,3276,3279,3282,3285,3288,3294,3300,3300,3303,3306,3306,3309,3312,3312,3318,3324,3324,3327,3330,3333,3336,3342,3342,3345,3348,3354,3354,3360,3366,3366,3372,3378,3384,3408,3408,3414,3420,3426,3432,3438,3438,3444,3450,3456,3456,3462,3468,3474,3480,3486,3486,3492,3498,3504,3504,3510,3516,3522,3528,3534,3534,3540,3546,3552,3552,3558,3564,3570,3576,3582,3582,3588,3594,3600,3600,3612,3618,3630,3630,3636,3642,3648,3648,3654,3660,3678,3684,3690,3696,3696,3708,3720,3726,3726,3738,3744,3774,3780,3786,3792,3792,3804,3810,3822,3822,3828,3834,3840,3840,3846,3852,3858,3870,3876,3882,3888,3888,3900,3912,3918,3918,3924,3930,3936,3936,3942,3948,3954,3960,3966,3966,3972,3978,3981,3984,3984,3987,3990,3990,3993,3996,3996,3999,4002,4005,4008,4011,4014,4017,4020,4020,4023,4026,4029,4032,4032,4035,4038,4038,4041,4044,4047,4047,4050,4053,4053,4056,4059,4062,4065,4068,4068,4071,4074,4074,4077,4080,4080,4083,4086,4089,4092,4095,4095,4098,4101,4101,4104,4107,4110,4110,4113,4116,4119,4122,4122,4125,4128,4131,4134,4137,4140,4143,4146,4149,4152,4155,4158,4161,4164,4164,4167,4170,4173,4176,4176,4179,4182,4182,4185,4188,4188,4191,4194,4197,4200,4203,4206,4209,4212,4212,4215,4218,4221,4224,4224,4227,4230,4230,4233,4236,4239,4239,4242,4245,4245,4248,4251,4254,4257,4260,4263,4266,4266,4269,4272,4272,4275,4278,4281,4284,4284,4287,4290,4293,4296,4296,4299,4302,4302,4305,4308,4308,4311,4314,4314,4317,4320,4323,4326,4326,4326,4329,4332,4335,4338,4341,4344,4368,4368,4371,4374,4377,4380,4380,4383,4386,4386,4389,4392,4392,4395,4398,4401,4404,4404,4407,4410,4413,4416,4416,4419,4422,4425,4428,4431,4434,4434,4437,4440,4440,4443,4446,4449,4452,4452,4455,4458,4464,4464,4467,4470,4473,4476,4476,4479,4482,4482,4485,4488,4488,4491,4494,4497,4500,4500,4503,4506,4506,4509,4512,4512,4515,4518,4521,4524,4527,4530,4533,4536,4539,4542,4545,4548,4551,4554,4557,4560,4560,4563,4566,4569,4572,4572,4575,4578,4578,4581,4584,4584,4587,4590,4593,4596,4596,4599,4602,4605,4608,4608,4611,4614,4617,4620,4623,4626,4626,4629,4632,4632,4635,4638,4641,4644,4644,4647,4650,4656,4656,4659,4662,4665,4668,4671,4674,4674,4677,4680,4680,4683,4686,4689,4692,4695,4698,4701,4704,4704,4707,4710,4713,4716,4719,4722,4725,4728,4728,4740,4752,4752,4755,4758,4761,4764,4764,4767,4770,4770,4773,4776,4776,4779,4782,4785,4788,4788,4791,4794,4797,4800,4800,4803,4806,4809,4812,4815,4818,4818,4821,4824,4824,4827,4830,4833,4836,4836,4839,4842,4848,4848,4851,4854,4857,4860,4860,4863,4866,4866,4869,4872,4872,4875,4878,4881,4884,4884,4887,4890,4890,4893,4896,4896,4899,4902,4905,4908,4911,4914,4917,4920,4923,4926,4929,4932,4935,4938,4941,4944,4944,4947,4950,4953,4956,4962,4968,4968,4971,4974,4977,4980,4980,4983,4986,4989,4992,4992,4995,4998,5001,5004,5007,5010,5010,5013,5016,5016,5019,5022,5025,5028,5028,5031,5034,5040,5040,5043,5046,5049,5052,5055,5058,5058,5061,5064,5064,5067,5070,5073,5076,5079,5082,5085,5088,5088,5091,5094,5097,5100,5103,5106,5109,5112,5112,5124,5136,5136,5142,5148,5154,5160,5166,5166,5172,5178,5184,5184,5190,5196,5202,5208,5214,5214,5220,5226,5232,5232,5238,5244,5250,5256,5262,5262,5268,5274,5280,5280,5286,5292,5298,5304,5310,5310,5316,5322,5328,5334,};
uint16_t dshh_len=1558;
