uint16_t Lemon_note[696][8]={
{NOTE_B4,},
{NOTE_CS4,},
{NOTE_FS4,NOTE_DS5,},
{NOTE_B4,},
{NOTE_GS4,},
{NOTE_CS4,},
{NOTE_FS4,NOTE_AS4,},
{NOTE_FS4,},
{NOTE_DS4,},
{NOTE_AS4,},
{NOTE_CS4,NOTE_GS4,},
{NOTE_FS4,},
{NOTE_B4,},
{NOTE_FS4,},
{NOTE_B3,NOTE_CS4,NOTE_DS4,},
{NOTE_CS4,},
{NOTE_DS4,},
{NOTE_E4,},
{NOTE_B4,},
{NOTE_AS4,},
{NOTE_B4,},
{NOTE_DS4,NOTE_FS4,},
{NOTE_E4,},
{NOTE_DS4,},
{NOTE_E4,},
{NOTE_D4,NOTE_F4,},
{NOTE_F4,},
{NOTE_B4,},
{NOTE_AS4,},
{NOTE_GS4,},
{NOTE_CS4,NOTE_G4,},
{NOTE_B4,},
{NOTE_CS4,},
{NOTE_FS4,NOTE_DS5,},
{NOTE_B4,},
{NOTE_GS4,},
{NOTE_CS4,},
{NOTE_CS4,NOTE_AS4,},
{NOTE_FS4,},
{NOTE_DS4,},
{NOTE_AS4,},
{NOTE_B3,NOTE_GS4,},
{NOTE_FS4,},
{NOTE_B4,},
{NOTE_FS4,},
{NOTE_FS3,NOTE_B3,NOTE_DS4,},
{NOTE_CS4,},
{NOTE_DS4,},
{NOTE_B3,NOTE_E4,},
{NOTE_B3,NOTE_FS4,},
{NOTE_B3,NOTE_E4,},
{NOTE_FS4,},
{NOTE_B3,NOTE_DS4,},
{NOTE_FS4,},
{NOTE_B3,NOTE_B4,},
{NOTE_DS4,},
{NOTE_FS4,NOTE_CS5,},
{NOTE_CS4,},
{NOTE_CS4,},
{NOTE_B4,},
{NOTE_DS4,NOTE_B4,},
{NOTE_FS4,},
{NOTE_B4,},
{NOTE_CS4,},
{NOTE_FS4,NOTE_DS5,},
{NOTE_B4,},
{NOTE_GS4,},
{NOTE_CS4,},
{NOTE_CS4,NOTE_AS4,},
{NOTE_FS4,},
{NOTE_CS4,NOTE_DS4,},
{NOTE_AS4,},
{NOTE_B3,NOTE_GS4,},
{NOTE_FS4,},
{NOTE_B4,},
{NOTE_FS4,},
{NOTE_FS3,NOTE_B3,NOTE_DS4,},
{NOTE_CS4,},
{NOTE_DS4,},
{NOTE_B3,NOTE_E4,},
{NOTE_B3,NOTE_B4,},
{NOTE_B3,NOTE_AS4,},
{NOTE_B4,},
{NOTE_B3,NOTE_DS4,NOTE_FS4,},
{NOTE_B3,NOTE_E4,},
{NOTE_DS4,},
{NOTE_E4,},
{NOTE_GS3,NOTE_D4,NOTE_F4,},
{NOTE_D4,NOTE_F4,NOTE_B4,},
{NOTE_AS4,},
{NOTE_GS4,},
{NOTE_CS4,NOTE_G4,},
{NOTE_G3,NOTE_AS3,NOTE_DS4,},
{NOTE_B4,},
{NOTE_CS4,},
{NOTE_FS4,NOTE_DS5,},
{NOTE_B4,},
{NOTE_GS4,},
{NOTE_CS4,},
{NOTE_CS4,NOTE_AS4,},
{NOTE_FS4,},
{NOTE_CS4,NOTE_DS4,},
{NOTE_AS4,},
{NOTE_B3,NOTE_GS4,},
{NOTE_FS4,},
{NOTE_B4,},
{NOTE_FS4,},
{NOTE_FS3,NOTE_B3,NOTE_DS4,},
{NOTE_FS3,NOTE_B3,},
{NOTE_CS4,},
{NOTE_DS4,},
{NOTE_B3,NOTE_E4,},
{NOTE_B3,NOTE_FS4,},
{NOTE_B3,NOTE_E4,},
{NOTE_FS4,},
{NOTE_B3,NOTE_DS4,},
{NOTE_FS4,},
{NOTE_B3,NOTE_B4,},
{NOTE_DS4,},
{NOTE_G4,NOTE_AS4,NOTE_CS5,},
{NOTE_CS4,},
{NOTE_CS4,NOTE_G4,NOTE_CS5,},
{NOTE_B4,},
{NOTE_B3,NOTE_DS4,NOTE_FS4,NOTE_B4,},
{NOTE_B3,NOTE_DS4,NOTE_FS4,},
{NOTE_B3,NOTE_E4,NOTE_GS4,},
{NOTE_AS4,},
{NOTE_B4,},
{NOTE_AS4,},
{NOTE_GS4,},
{NOTE_B3,NOTE_DS4,NOTE_FS4,},
{NOTE_DS4,},
{NOTE_DS4,},
{NOTE_CS4,},
{NOTE_FS4,},
{NOTE_AS4,},
{NOTE_CS4,},
{NOTE_DS4,},
{NOTE_E4,},
{NOTE_DS4,},
{NOTE_CS4,},
{NOTE_FS4,NOTE_B4,},
{NOTE_CS4,},
{NOTE_FS4,},
{NOTE_B3,NOTE_E4,},
{NOTE_FS4,},
{NOTE_GS4,},
{NOTE_FS4,},
{NOTE_E4,},
{NOTE_B3,NOTE_DS4,},
{NOTE_B4,},
{NOTE_B4,},
{NOTE_B4,},
{NOTE_B3,NOTE_E4,NOTE_AS4,},
{NOTE_CS4,NOTE_FS4,NOTE_GS4,},
{NOTE_AS4,},
{NOTE_B3,NOTE_DS4,NOTE_FS4,NOTE_B4,},
{NOTE_CS4,},
{NOTE_DS4,},
{NOTE_CS4,},
{NOTE_B4,},
{NOTE_FS4,NOTE_GS4,},
{NOTE_B4,},
{NOTE_FS4,NOTE_DS5,},
{NOTE_FS4,},
{NOTE_FS4,NOTE_CS5,},
{NOTE_B4,},
{NOTE_FS4,NOTE_CS5,},
{NOTE_DS4,},
{NOTE_CS4,},
{NOTE_B4,},
{NOTE_FS4,NOTE_GS4,},
{NOTE_B4,},
{NOTE_FS4,NOTE_DS5,},
{NOTE_FS4,},
{NOTE_FS4,NOTE_CS5,},
{NOTE_B4,},
{NOTE_FS4,NOTE_CS5,},
{NOTE_DS4,},
{NOTE_CS4,},
{NOTE_B4,},
{NOTE_FS4,NOTE_GS4,},
{NOTE_B4,},
{NOTE_FS4,NOTE_DS5,},
{NOTE_FS4,},
{NOTE_FS4,NOTE_B4,NOTE_GS5,},
{NOTE_FS4,},
{NOTE_B4,NOTE_FS5,},
{NOTE_B4,},
{NOTE_AS4,NOTE_CS5,},
{NOTE_FS5,NOTE_AS5,},
{NOTE_FS4,},
{NOTE_AS4,NOTE_DS5,},
{NOTE_FS4,},
{NOTE_G4,},
{NOTE_AS4,},
{NOTE_CS4,},
{NOTE_CS4,NOTE_CS5,},
{NOTE_DS4,},
{NOTE_CS4,},
{NOTE_B4,},
{NOTE_FS4,NOTE_GS4,},
{NOTE_B4,},
{NOTE_FS4,NOTE_DS5,},
{NOTE_FS4,},
{NOTE_FS4,NOTE_CS5,},
{NOTE_B4,},
{NOTE_FS4,NOTE_B4,},
{NOTE_B4,},
{NOTE_CS4,},
{NOTE_DS4,},
{NOTE_G4,NOTE_AS4,NOTE_E5,},
{NOTE_DS4,},
{NOTE_CS4,NOTE_G4,NOTE_CS5,},
{NOTE_AS4,},
{NOTE_B3,NOTE_DS4,NOTE_FS4,NOTE_B4,},
{NOTE_B3,NOTE_DS4,NOTE_FS4,},
{NOTE_B4,},
{NOTE_AS4,},
{NOTE_B3,NOTE_E4,NOTE_GS4,},
{NOTE_AS4,},
{NOTE_E4,NOTE_GS4,NOTE_B4,},
{NOTE_CS4,},
{NOTE_DS4,},
{NOTE_FS4,},
{NOTE_B4,},
{NOTE_FS4,},
{NOTE_DS4,},
{NOTE_FS4,},
{NOTE_B3,NOTE_E4,NOTE_GS4,},
{NOTE_CS4,},
{NOTE_CS4,NOTE_FS4,NOTE_AS4,},
{NOTE_B4,},
{NOTE_CS4,NOTE_F4,NOTE_B4,},
{NOTE_CS4,NOTE_F4,},
{NOTE_B4,},
{NOTE_AS4,},
{NOTE_B3,NOTE_E4,NOTE_GS4,},
{NOTE_AS4,},
{NOTE_E4,NOTE_GS4,NOTE_B4,},
{NOTE_CS4,},
{NOTE_DS4,},
{NOTE_FS4,},
{NOTE_B4,},
{NOTE_FS4,},
{NOTE_FS4,NOTE_B4,},
{NOTE_CS4,},
{NOTE_FS4,NOTE_B4,NOTE_DS5,},
{NOTE_E4,},
{NOTE_CS4,NOTE_FS4,NOTE_CS5,},
{NOTE_B4,},
{NOTE_B3,NOTE_DS4,NOTE_FS4,NOTE_B4,},
{NOTE_B3,NOTE_DS4,NOTE_FS4,},
{NOTE_FS4,NOTE_CS5,},
{NOTE_B4,},
{NOTE_FS4,},
{NOTE_B4,},
{NOTE_FS4,NOTE_B4,},
{NOTE_CS4,},
{NOTE_FS4,},
{NOTE_B4,},
{NOTE_FS4,NOTE_B4,},
{NOTE_CS4,},
{NOTE_FS4,},
{NOTE_B4,},
{NOTE_DS4,NOTE_B4,},
{NOTE_CS4,},
{NOTE_DS4,},
{NOTE_B4,},
{NOTE_FS4,NOTE_CS5,},
{NOTE_FS4,},
{NOTE_FS4,},
{NOTE_B4,},
{NOTE_DS4,NOTE_B4,},
{NOTE_CS4,},
{NOTE_FS4,},
{NOTE_B4,},
{NOTE_F4,NOTE_GS4,NOTE_D5,},
{NOTE_F4,NOTE_B4,},
{NOTE_CS4,NOTE_G4,NOTE_AS4,NOTE_CS5,},
{NOTE_CS4,NOTE_G4,},
{NOTE_B4,},
{NOTE_CS4,},
{NOTE_FS4,NOTE_DS5,},
{NOTE_B4,},
{NOTE_GS4,},
{NOTE_CS4,},
{NOTE_CS4,NOTE_AS4,},
{NOTE_FS4,},
{NOTE_CS4,NOTE_DS4,},
{NOTE_AS4,},
{NOTE_B3,NOTE_GS4,},
{NOTE_FS4,},
{NOTE_B4,},
{NOTE_FS4,},
{NOTE_FS3,NOTE_B3,NOTE_DS4,},
{NOTE_FS3,NOTE_B3,},
{NOTE_CS4,},
{NOTE_DS4,},
{NOTE_B3,NOTE_E4,},
{NOTE_B3,NOTE_B4,},
{NOTE_B3,NOTE_AS4,},
{NOTE_B4,},
{NOTE_B3,NOTE_DS4,NOTE_FS4,},
{NOTE_B3,NOTE_E4,},
{NOTE_DS4,},
{NOTE_E4,},
{NOTE_GS3,NOTE_D4,NOTE_F4,},
{NOTE_D4,NOTE_F4,NOTE_B4,},
{NOTE_AS4,},
{NOTE_GS4,},
{NOTE_CS4,NOTE_G4,},
{NOTE_G3,NOTE_AS3,NOTE_DS4,},
{NOTE_B4,},
{NOTE_CS4,},
{NOTE_FS4,NOTE_DS5,},
{NOTE_B4,},
{NOTE_GS4,},
{NOTE_CS4,},
{NOTE_CS4,NOTE_AS4,},
{NOTE_FS4,},
{NOTE_CS4,NOTE_DS4,},
{NOTE_AS4,},
{NOTE_B3,NOTE_GS4,},
{NOTE_FS4,},
{NOTE_B4,},
{NOTE_FS4,},
{NOTE_FS3,NOTE_B3,NOTE_DS4,},
{NOTE_FS3,NOTE_B3,},
{NOTE_CS4,},
{NOTE_DS4,},
{NOTE_B3,NOTE_E4,},
{NOTE_B3,NOTE_FS4,},
{NOTE_B3,NOTE_E4,},
{NOTE_FS4,},
{NOTE_B3,NOTE_DS4,},
{NOTE_FS4,},
{NOTE_B3,NOTE_B4,},
{NOTE_DS4,},
{NOTE_G4,NOTE_AS4,NOTE_CS5,},
{NOTE_DS4,},
{NOTE_CS4,NOTE_G4,NOTE_CS5,},
{NOTE_B4,},
{NOTE_B3,NOTE_DS4,NOTE_FS4,NOTE_B4,},
{NOTE_B3,NOTE_DS4,NOTE_FS4,},
{NOTE_B3,NOTE_E4,NOTE_GS4,},
{NOTE_AS4,},
{NOTE_B4,},
{NOTE_AS4,},
{NOTE_GS4,},
{NOTE_B3,NOTE_DS4,NOTE_FS4,},
{NOTE_DS4,},
{NOTE_DS4,},
{NOTE_FS4,NOTE_AS4,NOTE_CS5,},
{NOTE_DS4,},
{NOTE_E4,},
{NOTE_DS4,},
{NOTE_CS4,},
{NOTE_FS4,NOTE_B4,},
{NOTE_CS4,},
{NOTE_FS4,},
{NOTE_B3,NOTE_E4,},
{NOTE_FS4,},
{NOTE_GS4,},
{NOTE_FS4,},
{NOTE_E4,},
{NOTE_B3,NOTE_DS4,},
{NOTE_B4,},
{NOTE_B4,},
{NOTE_B4,},
{NOTE_B3,NOTE_E4,NOTE_AS4,},
{NOTE_CS4,NOTE_FS4,NOTE_GS4,},
{NOTE_AS4,},
{NOTE_B3,NOTE_DS4,NOTE_FS4,NOTE_B4,},
{NOTE_CS4,},
{NOTE_DS4,},
{NOTE_CS4,},
{NOTE_B4,},
{NOTE_FS4,NOTE_GS4,},
{NOTE_B4,},
{NOTE_FS4,NOTE_DS5,},
{NOTE_FS4,},
{NOTE_FS4,NOTE_CS5,},
{NOTE_B4,},
{NOTE_FS4,NOTE_CS5,},
{NOTE_DS4,},
{NOTE_CS4,},
{NOTE_B4,},
{NOTE_FS4,NOTE_GS4,},
{NOTE_B4,},
{NOTE_FS4,NOTE_DS5,},
{NOTE_FS4,},
{NOTE_FS4,NOTE_CS5,},
{NOTE_B4,},
{NOTE_FS4,NOTE_CS5,},
{NOTE_DS4,},
{NOTE_CS4,},
{NOTE_B4,},
{NOTE_FS4,NOTE_GS4,},
{NOTE_B4,},
{NOTE_FS4,NOTE_DS5,},
{NOTE_FS4,},
{NOTE_FS4,NOTE_B4,NOTE_GS5,},
{NOTE_FS4,},
{NOTE_B4,NOTE_FS5,},
{NOTE_B4,},
{NOTE_AS4,NOTE_CS5,},
{NOTE_FS5,NOTE_AS5,},
{NOTE_FS4,},
{NOTE_AS4,NOTE_DS5,},
{NOTE_FS4,},
{NOTE_GS4,},
{NOTE_G4,},
{NOTE_AS4,},
{NOTE_CS4,},
{NOTE_CS4,NOTE_G4,NOTE_CS5,},
{NOTE_DS4,},
{NOTE_CS4,},
{NOTE_B4,},
{NOTE_FS4,NOTE_GS4,},
{NOTE_B4,},
{NOTE_FS4,NOTE_DS5,},
{NOTE_FS4,},
{NOTE_FS4,NOTE_CS5,},
{NOTE_B4,},
{NOTE_FS4,NOTE_B4,},
{NOTE_CS4,},
{NOTE_DS4,},
{NOTE_G4,NOTE_AS4,NOTE_E5,},
{NOTE_DS4,},
{NOTE_CS4,NOTE_G4,NOTE_CS5,},
{NOTE_AS4,},
{NOTE_B3,NOTE_DS4,NOTE_FS4,NOTE_B4,},
{NOTE_B3,NOTE_DS4,NOTE_FS4,},
{NOTE_B4,},
{NOTE_AS4,},
{NOTE_B3,NOTE_E4,NOTE_GS4,},
{NOTE_AS4,},
{NOTE_E4,NOTE_GS4,NOTE_B4,},
{NOTE_CS4,},
{NOTE_DS4,},
{NOTE_FS4,},
{NOTE_B4,},
{NOTE_FS4,},
{NOTE_DS4,},
{NOTE_FS4,},
{NOTE_FS4,},
{NOTE_B3,NOTE_E4,NOTE_GS4,},
{NOTE_CS4,},
{NOTE_CS4,NOTE_FS4,NOTE_AS4,},
{NOTE_B4,},
{NOTE_CS4,NOTE_F4,NOTE_B4,},
{NOTE_CS4,NOTE_F4,},
{NOTE_B4,},
{NOTE_AS4,},
{NOTE_B3,NOTE_E4,NOTE_GS4,},
{NOTE_AS4,},
{NOTE_E4,NOTE_GS4,NOTE_B4,},
{NOTE_CS4,},
{NOTE_DS4,},
{NOTE_FS4,},
{NOTE_B4,},
{NOTE_FS4,},
{NOTE_FS4,NOTE_B4,},
{NOTE_CS4,},
{NOTE_E4,NOTE_B4,NOTE_DS5,},
{NOTE_E4,},
{NOTE_CS4,NOTE_FS4,NOTE_CS5,},
{NOTE_B4,},
{NOTE_B3,NOTE_DS4,NOTE_FS4,NOTE_B4,},
{NOTE_B3,NOTE_DS4,NOTE_FS4,},
{NOTE_FS4,},
{NOTE_B3,NOTE_DS4,},
{NOTE_B3,NOTE_DS4,NOTE_FS4,},
{NOTE_B4,},
{NOTE_DS4,},
{NOTE_FS4,},
{NOTE_B4,},
{NOTE_AS3,NOTE_DS4,NOTE_G4,NOTE_AS4,},
{NOTE_GS3,NOTE_C4,NOTE_DS4,NOTE_GS4,},
{NOTE_DS4,NOTE_DS5,},
{NOTE_F4,NOTE_GS4,NOTE_CS5,NOTE_F5,},
{NOTE_F4,NOTE_GS4,NOTE_DS5,},
{NOTE_DS4,NOTE_GS4,NOTE_AS4,},
{NOTE_DS4,NOTE_G4,NOTE_CS5,},
{NOTE_C4,},
{NOTE_C4,NOTE_DS4,NOTE_GS4,NOTE_C5,},
{NOTE_GS3,NOTE_C4,NOTE_DS4,},
{NOTE_C4,NOTE_DS4,NOTE_F4,NOTE_GS4,},
{NOTE_DS4,NOTE_GS4,NOTE_C5,},
{NOTE_DS4,NOTE_GS4,NOTE_CS5,},
{NOTE_DS4,NOTE_GS4,NOTE_C5,},
{NOTE_AS4,},
{NOTE_AS3,NOTE_DS4,NOTE_G4,NOTE_AS4,},
{NOTE_AS3,NOTE_DS4,NOTE_G4,},
{NOTE_GS3,NOTE_C4,NOTE_DS4,NOTE_GS4,},
{NOTE_GS3,NOTE_C4,NOTE_DS4,},
{NOTE_C4,NOTE_DS4,NOTE_F4,NOTE_GS4,},
{NOTE_DS4,NOTE_GS4,NOTE_DS5,},
{NOTE_F4,NOTE_GS4,NOTE_CS5,NOTE_F5,},
{NOTE_F4,NOTE_GS4,NOTE_DS5,},
{NOTE_DS4,NOTE_GS4,NOTE_AS4,},
{NOTE_DS4,NOTE_AS4,NOTE_CS5,},
{NOTE_C4,},
{NOTE_C4,NOTE_DS4,NOTE_GS4,NOTE_C5,},
{NOTE_GS3,NOTE_C4,NOTE_DS4,},
{NOTE_C4,NOTE_DS4,NOTE_F4,NOTE_GS4,},
{NOTE_DS4,NOTE_GS4,NOTE_C5,},
{NOTE_DS4,NOTE_GS4,NOTE_CS5,},
{NOTE_DS4,NOTE_GS4,NOTE_C5,},
{NOTE_AS3,NOTE_DS4,NOTE_G4,NOTE_AS4,},
{NOTE_AS3,NOTE_DS4,NOTE_G4,},
{NOTE_GS3,NOTE_C4,NOTE_DS4,NOTE_GS4,},
{NOTE_GS3,NOTE_C4,NOTE_DS4,},
{NOTE_F4,},
{NOTE_G4,},
{NOTE_DS4,NOTE_GS4,},
{NOTE_DS4,},
{NOTE_F4,NOTE_GS4,NOTE_F5,},
{NOTE_DS4,},
{NOTE_AS4,},
{NOTE_DS4,NOTE_GS4,NOTE_AS4,},
{NOTE_CS4,},
{NOTE_C4,},
{NOTE_DS4,NOTE_GS4,NOTE_C5,},
{NOTE_DS4,NOTE_F4,NOTE_GS4,},
{NOTE_C4,},
{NOTE_DS4,NOTE_GS4,NOTE_AS4,NOTE_CS5,},
{NOTE_C4,},
{NOTE_DS4,NOTE_G4,NOTE_AS4,},
{NOTE_G4,},
{NOTE_DS4,NOTE_GS4,},
{NOTE_F4,},
{NOTE_G4,},
{NOTE_DS4,NOTE_GS4,},
{NOTE_DS4,},
{NOTE_F4,NOTE_GS4,NOTE_F5,},
{NOTE_DS4,},
{NOTE_DS4,},
{NOTE_G4,NOTE_AS4,NOTE_DS5,NOTE_G5,},
{NOTE_G4,},
{NOTE_GS4,},
{NOTE_GS4,NOTE_C5,NOTE_DS5,NOTE_GS5,},
{NOTE_GS4,NOTE_CS5,NOTE_F5,NOTE_GS5,},
{NOTE_F4,},
{NOTE_DS4,NOTE_GS4,NOTE_C5,NOTE_DS5,},
{NOTE_C4,},
{NOTE_CS4,NOTE_FS4,NOTE_AS4,},
{NOTE_B4,},
{NOTE_AS4,},
{NOTE_GS4,},
{NOTE_GS4,NOTE_C5,},
{NOTE_F4,NOTE_CS5,},
{NOTE_DS4,},
{NOTE_F4,},
{NOTE_G4,},
{NOTE_GS4,},
{NOTE_DS4,},
{NOTE_E4,},
{NOTE_FS4,},
{NOTE_B4,NOTE_E5,NOTE_B5,},
{NOTE_AS4,},
{NOTE_B4,},
{NOTE_CS4,},
{NOTE_E4,},
{NOTE_CS4,},
{NOTE_DS4,},
{NOTE_CS4,},
{NOTE_B4,},
{NOTE_GS4,},
{NOTE_B4,},
{NOTE_FS4,NOTE_B4,NOTE_DS5,},
{NOTE_FS4,},
{NOTE_FS4,NOTE_CS5,},
{NOTE_B4,},
{NOTE_FS4,NOTE_CS5,},
{NOTE_DS4,},
{NOTE_CS4,},
{NOTE_B4,},
{NOTE_FS4,NOTE_GS4,},
{NOTE_B4,},
{NOTE_FS4,NOTE_DS5,},
{NOTE_FS4,},
{NOTE_FS4,NOTE_CS5,},
{NOTE_B4,},
{NOTE_FS4,NOTE_CS5,},
{NOTE_DS4,},
{NOTE_CS4,},
{NOTE_B4,},
{NOTE_FS4,NOTE_GS4,},
{NOTE_B4,},
{NOTE_FS4,NOTE_DS5,},
{NOTE_FS4,},
{NOTE_FS4,NOTE_B4,NOTE_GS5,},
{NOTE_FS4,},
{NOTE_B4,NOTE_FS5,},
{NOTE_B4,},
{NOTE_AS4,NOTE_CS5,},
{NOTE_FS5,NOTE_AS5,},
{NOTE_FS4,},
{NOTE_AS4,NOTE_DS5,},
{NOTE_FS4,},
{NOTE_GS4,},
{NOTE_G4,},
{NOTE_AS4,},
{NOTE_CS4,},
{NOTE_CS4,NOTE_G4,NOTE_CS5,},
{NOTE_DS4,},
{NOTE_CS4,},
{NOTE_B4,},
{NOTE_FS4,NOTE_GS4,},
{NOTE_B4,},
{NOTE_FS4,NOTE_DS5,},
{NOTE_FS4,},
{NOTE_FS4,NOTE_CS5,},
{NOTE_B4,},
{NOTE_FS4,NOTE_B4,},
{NOTE_B4,},
{NOTE_CS4,},
{NOTE_DS4,},
{NOTE_G4,NOTE_AS4,NOTE_G5,},
{NOTE_DS4,},
{NOTE_CS4,NOTE_G4,NOTE_CS5,},
{NOTE_AS4,},
{NOTE_B3,NOTE_DS4,NOTE_FS4,NOTE_B4,},
{NOTE_B3,NOTE_DS4,NOTE_FS4,},
{NOTE_B4,},
{NOTE_AS4,},
{NOTE_B3,NOTE_E4,NOTE_GS4,},
{NOTE_AS4,},
{NOTE_E4,NOTE_GS4,NOTE_B4,},
{NOTE_CS4,},
{NOTE_DS4,},
{NOTE_FS4,},
{NOTE_B4,},
{NOTE_FS4,},
{NOTE_DS4,},
{NOTE_FS4,},
{NOTE_B3,NOTE_E4,NOTE_GS4,},
{NOTE_CS4,},
{NOTE_CS4,NOTE_FS4,NOTE_AS4,},
{NOTE_B4,},
{NOTE_F4,NOTE_B4,},
{NOTE_F4,NOTE_GS4,},
{NOTE_B4,},
{NOTE_AS4,},
{NOTE_B3,NOTE_E4,NOTE_GS4,},
{NOTE_AS4,},
{NOTE_E4,NOTE_GS4,NOTE_B4,},
{NOTE_CS4,},
{NOTE_DS4,},
{NOTE_FS4,},
{NOTE_B4,},
{NOTE_FS4,},
{NOTE_B3,NOTE_E4,},
{NOTE_DS4,},
{NOTE_B3,NOTE_E4,},
{NOTE_B4,},
{NOTE_FS4,NOTE_B4,},
{NOTE_FS4,},
{NOTE_CS4,},
{NOTE_FS4,NOTE_B4,NOTE_DS5,},
{NOTE_FS4,NOTE_B4,},
{NOTE_DS4,},
{NOTE_CS4,},
{NOTE_E4,NOTE_GS4,NOTE_B4,},
{NOTE_CS4,},
{NOTE_E4,NOTE_GS4,NOTE_DS5,},
{NOTE_E4,},
{NOTE_DS4,},
{NOTE_FS4,},
{NOTE_B4,},
{NOTE_DS4,},
{NOTE_B4,},
{NOTE_FS4,},
{NOTE_B4,},
{NOTE_FS4,NOTE_B4,NOTE_CS5,},
{NOTE_DS4,},
{NOTE_FS4,NOTE_CS5,},
{NOTE_B4,},
{NOTE_FS4,NOTE_B4,},
{NOTE_CS5,NOTE_FS5,},
{NOTE_B4,},
{NOTE_CS5,NOTE_FS5,},
{NOTE_B4,},
{NOTE_CS5,NOTE_FS5,},
{NOTE_B4,},
{NOTE_CS5,NOTE_FS5,},
{NOTE_B4,},
{NOTE_CS5,NOTE_FS5,},
{NOTE_B4,},
{NOTE_CS5,NOTE_FS5,},
{NOTE_B4,},
{NOTE_CS5,NOTE_FS5,},
{NOTE_B4,},
};
uint16_t Lemon_notedura[696]={
3,3,6,3,8,6,6,3,8,6,6,3,12,6,12,3,3,12,6,3,3,12,6,3,3,9,3,6,3,3,12,3,3,6,3,8,6,6,3,8,6,6,3,8,6,12,3,3,12,6,3,3,6,6,6,6,9,3,9,3,24,18,3,3,6,3,8,6,6,3,8,6,6,3,8,6,12,3,3,12,6,3,3,12,6,3,3,12,6,3,3,9,8,3,3,6,3,8,6,6,3,8,6,6,3,8,6,9,8,3,3,12,6,3,3,6,6,6,6,3,8,9,3,12,6,9,3,6,3,3,6,6,12,9,8,6,4,3,6,3,3,6,6,12,9,3,6,3,3,6,6,6,6,12,6,6,12,3,3,3,3,3,8,3,8,3,8,3,3,3,3,3,8,3,8,3,8,3,3,3,3,3,8,3,8,3,8,3,8,3,3,8,3,8,12,9,9,3,3,3,3,3,8,3,8,3,8,3,3,3,3,3,8,3,8,12,6,3,3,6,6,6,6,6,4,3,6,3,8,3,8,3,8,12,6,3,3,6,6,6,6,6,4,3,6,3,8,3,8,3,8,12,6,6,6,6,6,6,6,6,6,6,6,6,6,6,6,6,6,6,6,6,6,6,6,6,6,12,12,12,6,3,3,6,3,8,6,6,3,8,6,6,3,8,6,9,8,3,3,12,6,3,3,12,6,3,3,12,6,3,3,9,8,3,3,6,3,8,6,6,3,8,6,6,3,8,6,9,8,3,3,12,6,3,3,6,6,6,6,3,8,9,3,12,6,9,3,6,3,3,6,6,12,9,3,6,3,3,6,6,12,9,3,6,3,3,6,6,6,6,12,6,6,12,3,3,3,3,3,8,3,8,3,8,3,3,3,3,3,8,3,8,3,8,3,3,3,3,3,8,3,8,3,8,3,8,3,3,8,3,3,6,12,9,9,3,3,3,3,3,8,3,8,3,8,6,3,3,3,8,3,8,12,6,3,3,6,6,6,6,6,4,3,6,6,3,3,3,8,3,8,12,6,3,3,6,6,6,6,6,4,3,6,3,8,3,8,3,8,12,6,3,12,12,12,9,9,8,12,12,12,12,12,12,6,6,12,12,12,12,12,6,6,12,12,12,12,12,12,12,12,12,6,6,12,12,12,12,12,12,12,12,12,3,6,3,12,12,12,6,6,12,6,6,24,12,12,12,12,12,12,12,6,3,12,12,6,6,12,12,6,6,24,12,12,12,12,12,12,6,6,12,6,6,6,6,6,6,6,6,12,3,3,3,12,3,3,3,3,3,8,3,8,3,8,3,3,3,3,3,8,3,8,3,8,3,3,3,3,3,8,3,8,3,8,3,8,3,3,8,3,3,6,12,9,9,3,3,3,3,3,8,3,8,3,8,3,3,3,3,3,8,3,8,12,6,3,3,6,6,6,6,6,4,3,6,3,8,3,8,3,8,12,6,3,3,6,6,6,6,6,4,3,6,3,8,3,8,3,8,3,9,6,3,3,6,6,6,6,6,4,4,3,6,3,8,3,8,3,8,3,8,3,8,3,8,3,8,3,8,3,8,3,8,};
uint16_t Lemon_noteos[696]={
0,9,12,18,21,30,36,42,45,54,60,66,69,78,84,102,105,108,120,126,129,132,144,150,153,156,165,168,174,177,180,198,201,204,210,213,222,228,234,237,246,252,258,261,270,276,294,297,300,312,318,321,324,330,336,342,348,357,360,369,372,372,438,441,444,450,453,462,468,474,477,486,492,498,501,510,516,534,537,540,552,558,561,564,576,582,585,588,600,606,609,612,621,630,633,636,642,645,654,660,666,669,678,684,690,693,702,708,717,726,729,732,744,750,753,756,762,768,774,780,784,792,801,804,816,828,837,840,846,849,852,858,864,876,879,879,880,885,888,894,897,900,906,912,924,933,936,942,945,948,954,960,966,972,984,990,996,1008,1012,1014,1017,1020,1024,1032,1036,1044,1048,1056,1060,1062,1065,1068,1072,1080,1084,1092,1096,1104,1108,1110,1113,1116,1120,1128,1132,1140,1144,1152,1156,1164,1164,1168,1176,1180,1188,1191,1191,1200,1204,1206,1209,1212,1216,1224,1228,1236,1240,1248,1252,1254,1257,1260,1264,1272,1276,1284,1296,1302,1305,1308,1314,1320,1326,1332,1335,1335,1338,1344,1348,1356,1360,1368,1372,1380,1392,1398,1401,1404,1410,1416,1422,1428,1431,1431,1434,1440,1444,1452,1456,1464,1468,1476,1488,1500,1506,1512,1518,1524,1530,1536,1542,1548,1554,1560,1566,1572,1578,1584,1590,1596,1602,1608,1614,1620,1626,1632,1638,1644,1656,1668,1680,1686,1689,1692,1698,1701,1710,1716,1722,1725,1734,1740,1746,1749,1758,1764,1773,1782,1785,1788,1800,1806,1809,1812,1824,1830,1833,1836,1848,1854,1857,1860,1869,1878,1881,1884,1890,1893,1902,1908,1914,1917,1926,1932,1938,1941,1950,1956,1965,1974,1977,1980,1992,1998,2001,2004,2010,2016,2022,2028,2032,2040,2049,2052,2064,2076,2085,2088,2094,2097,2100,2106,2112,2124,2133,2136,2142,2145,2148,2154,2160,2172,2181,2184,2190,2193,2196,2202,2208,2214,2220,2232,2238,2244,2256,2260,2262,2265,2268,2272,2280,2284,2292,2296,2304,2308,2310,2313,2316,2320,2328,2332,2340,2344,2352,2356,2358,2361,2364,2368,2376,2380,2388,2392,2400,2404,2412,2412,2416,2424,2428,2430,2436,2439,2439,2448,2452,2454,2457,2460,2464,2472,2476,2484,2488,2496,2502,2505,2508,2512,2520,2524,2532,2544,2550,2553,2556,2562,2568,2574,2580,2583,2583,2586,2592,2598,2601,2604,2608,2616,2620,2628,2640,2646,2649,2652,2658,2664,2670,2676,2679,2679,2682,2688,2692,2700,2704,2712,2716,2724,2736,2745,2748,2760,2772,2775,2775,2776,2784,2796,2808,2820,2832,2844,2856,2862,2868,2880,2892,2904,2916,2928,2934,2940,2952,2964,2976,2988,3000,3012,3024,3036,3048,3054,3060,3072,3084,3096,3108,3120,3132,3144,3156,3168,3172,3177,3180,3192,3204,3216,3222,3228,3240,3246,3252,3276,3288,3300,3312,3324,3336,3348,3364,3369,3372,3384,3396,3402,3408,3420,3432,3438,3444,3468,3480,3492,3504,3516,3528,3540,3546,3552,3564,3570,3576,3582,3588,3594,3600,3606,3612,3627,3630,3633,3636,3648,3652,3654,3657,3660,3664,3672,3676,3684,3688,3696,3700,3702,3705,3708,3712,3720,3724,3732,3736,3744,3748,3750,3753,3756,3760,3768,3772,3780,3784,3792,3796,3804,3804,3808,3816,3820,3822,3828,3831,3831,3840,3844,3846,3849,3852,3856,3864,3868,3876,3880,3888,3892,3894,3897,3900,3904,3912,3916,3924,3936,3942,3945,3948,3954,3960,3966,3972,3975,3975,3978,3984,3988,3996,4000,4008,4012,4020,4032,4038,4041,4044,4050,4056,4062,4068,4071,4071,4074,4080,4084,4092,4096,4104,4108,4116,4116,4128,4134,4137,4140,4146,4152,4158,4164,4164,4167,4167,4170,4176,4180,4188,4192,4200,4204,4212,4216,4224,4228,4236,4240,4248,4252,4260,4264,4272,4276,4284,4288,};
uint16_t Lemon_len=696;
