uint16_t Graze_the_Roof_note[979][8]={
{NOTE_DS4,},
{NOTE_E4,},
{NOTE_A5,NOTE_A4,},
{NOTE_A4,},
{NOTE_DS5,NOTE_A4,},
{NOTE_E5,NOTE_C5,},
{NOTE_A4,},
{NOTE_A4,},
{NOTE_DS5,NOTE_G4,},
{NOTE_E5,NOTE_A4,},
{NOTE_G5,NOTE_A4,},
{NOTE_D5,NOTE_A4,},
{NOTE_E5,NOTE_A4,},
{NOTE_G5,NOTE_E5,},
{NOTE_E5,NOTE_A4,},
{NOTE_A4,},
{NOTE_G5,NOTE_G4,},
{NOTE_F5,NOTE_A4,},
{NOTE_D5,NOTE_A4,},
{NOTE_E5,NOTE_A4,},
{NOTE_D5,NOTE_A4,},
{NOTE_C4,},
{NOTE_A4,},
{NOTE_G4,},
{NOTE_A4,},
{NOTE_C5,NOTE_A4,},
{NOTE_D5,NOTE_E5,},
{NOTE_E5,NOTE_A4,},
{NOTE_D5,NOTE_G4,},
{NOTE_C4,},
{NOTE_A4,},
{NOTE_C4,},
{NOTE_DS5,NOTE_A4,},
{NOTE_E5,NOTE_G4,},
{NOTE_A5,NOTE_A4,},
{NOTE_A4,},
{NOTE_DS5,NOTE_A4,},
{NOTE_E5,NOTE_C5,},
{NOTE_A4,},
{NOTE_A4,},
{NOTE_DS5,NOTE_G4,},
{NOTE_E5,NOTE_A4,},
{NOTE_G5,NOTE_A4,},
{NOTE_D5,NOTE_A4,},
{NOTE_E5,NOTE_A4,},
{NOTE_G5,NOTE_E5,},
{NOTE_E5,NOTE_A4,},
{NOTE_A4,},
{NOTE_G5,NOTE_G4,},
{NOTE_F5,NOTE_A4,},
{NOTE_D5,NOTE_A4,},
{NOTE_E5,NOTE_A4,},
{NOTE_D5,NOTE_A4,},
{NOTE_C4,},
{NOTE_A4,},
{NOTE_G4,},
{NOTE_A4,},
{NOTE_C5,NOTE_A4,},
{NOTE_D5,NOTE_E5,},
{NOTE_E5,NOTE_A4,},
{NOTE_D5,NOTE_G4,},
{NOTE_C4,},
{NOTE_A4,},
{NOTE_C4,},
{NOTE_DS5,NOTE_A4,},
{NOTE_A4,NOTE_G4,},
{NOTE_A4,},
{NOTE_A4,},
{NOTE_A4,},
{NOTE_C4,},
{NOTE_A4,},
{NOTE_A4,},
{NOTE_G4,},
{NOTE_A4,},
{NOTE_A4,},
{NOTE_A4,},
{NOTE_A4,},
{NOTE_E4,},
{NOTE_A4,},
{NOTE_A4,},
{NOTE_G4,},
{NOTE_A4,},
{NOTE_A4,},
{NOTE_A4,},
{NOTE_A4,},
{NOTE_C4,},
{NOTE_A4,},
{NOTE_A4,},
{NOTE_G4,},
{NOTE_A4,},
{NOTE_A4,},
{NOTE_E4,},
{NOTE_A4,},
{NOTE_G4,},
{NOTE_A4,},
{NOTE_C4,},
{NOTE_A4,},
{NOTE_G4,},
{NOTE_A4,},
{NOTE_E5,NOTE_A5,},
{NOTE_A4,},
{NOTE_A4,},
{NOTE_C4,},
{NOTE_A4,},
{NOTE_A4,},
{NOTE_G4,},
{NOTE_A4,},
{NOTE_A4,},
{NOTE_A4,},
{NOTE_A4,},
{NOTE_E4,},
{NOTE_A4,},
{NOTE_A4,},
{NOTE_G4,},
{NOTE_A4,},
{NOTE_A4,},
{NOTE_A4,},
{NOTE_A4,},
{NOTE_C4,},
{NOTE_A4,},
{NOTE_A4,},
{NOTE_G4,},
{NOTE_A4,},
{NOTE_A4,},
{NOTE_E4,},
{NOTE_A4,},
{NOTE_G4,},
{NOTE_A4,},
{NOTE_C4,},
{NOTE_A4,},
{NOTE_DS4,},
{NOTE_G4,},
{NOTE_E4,},
{NOTE_A5,NOTE_A4,},
{NOTE_A4,},
{NOTE_DS5,NOTE_A4,},
{NOTE_E5,NOTE_C5,},
{NOTE_A4,},
{NOTE_A4,},
{NOTE_DS5,NOTE_G4,},
{NOTE_E5,NOTE_A4,},
{NOTE_G5,NOTE_A4,},
{NOTE_D5,NOTE_A4,},
{NOTE_E5,NOTE_A4,},
{NOTE_G5,NOTE_E5,},
{NOTE_E5,NOTE_A4,},
{NOTE_A4,},
{NOTE_G5,NOTE_G4,},
{NOTE_F5,NOTE_A4,},
{NOTE_D5,NOTE_A4,},
{NOTE_E5,NOTE_A4,},
{NOTE_D5,NOTE_A4,},
{NOTE_C4,},
{NOTE_A4,},
{NOTE_G4,},
{NOTE_A4,},
{NOTE_C5,NOTE_A4,},
{NOTE_D5,NOTE_E5,},
{NOTE_E5,NOTE_A4,},
{NOTE_D5,NOTE_G4,},
{NOTE_C4,},
{NOTE_A4,},
{NOTE_C4,},
{NOTE_DS5,NOTE_A4,},
{NOTE_E5,NOTE_G4,},
{NOTE_A5,NOTE_A4,},
{NOTE_A4,},
{NOTE_DS5,NOTE_A4,},
{NOTE_E5,NOTE_C5,},
{NOTE_A4,},
{NOTE_A4,},
{NOTE_DS5,NOTE_G4,},
{NOTE_E5,NOTE_A4,},
{NOTE_G5,NOTE_A4,},
{NOTE_D5,NOTE_A4,},
{NOTE_E5,NOTE_A4,},
{NOTE_G5,NOTE_E5,},
{NOTE_E5,NOTE_A4,},
{NOTE_A4,},
{NOTE_G5,NOTE_G4,},
{NOTE_F5,NOTE_A4,},
{NOTE_D5,NOTE_A4,},
{NOTE_E5,NOTE_A4,},
{NOTE_D5,NOTE_A4,},
{NOTE_C4,},
{NOTE_A4,},
{NOTE_G4,},
{NOTE_A4,},
{NOTE_C5,NOTE_A4,},
{NOTE_D5,NOTE_E5,},
{NOTE_E5,NOTE_A4,},
{NOTE_D5,NOTE_G4,},
{NOTE_C4,},
{NOTE_A4,},
{NOTE_C4,},
{NOTE_DS5,NOTE_A4,},
{NOTE_A4,NOTE_G4,},
{NOTE_A4,},
{NOTE_E4,},
{NOTE_E4,},
{NOTE_A4,},
{NOTE_E4,},
{NOTE_E4,},
{NOTE_E4,},
{NOTE_A4,},
{NOTE_E4,},
{NOTE_E4,},
{NOTE_A4,},
{NOTE_E4,},
{NOTE_E4,},
{NOTE_A4,},
{NOTE_E4,},
{NOTE_B4,},
{NOTE_C6,NOTE_A5,},
{NOTE_B5,NOTE_G5,},
{NOTE_A5,NOTE_F5,},
{NOTE_B5,NOTE_G5,},
{NOTE_C6,NOTE_A5,},
{NOTE_A5,NOTE_F5,},
{NOTE_B5,NOTE_G5,},
{NOTE_G5,NOTE_E5,},
{NOTE_E5,NOTE_B4,},
{NOTE_DS4,},
{NOTE_B4,},
{NOTE_E4,},
{NOTE_F4,},
{NOTE_DS4,},
{NOTE_E4,},
{NOTE_GS4,},
{NOTE_D4,},
{NOTE_E4,},
{NOTE_D4,},
{NOTE_C4,},
{NOTE_B4,},
{NOTE_C5,NOTE_E4,},
{NOTE_D5,NOTE_B4,},
{NOTE_E5,NOTE_C5,},
{NOTE_A5,NOTE_CS5,},
{NOTE_A5,NOTE_F5,},
{NOTE_G5,NOTE_E5,},
{NOTE_F5,NOTE_D5,},
{NOTE_E5,NOTE_G4,},
{NOTE_B4,NOTE_E4,},
{NOTE_E5,NOTE_B4,},
{NOTE_DS4,},
{NOTE_B4,},
{NOTE_E4,},
{NOTE_F4,},
{NOTE_DS4,},
{NOTE_E4,},
{NOTE_GS4,},
{NOTE_D4,},
{NOTE_E4,},
{NOTE_D4,},
{NOTE_C4,},
{NOTE_B4,},
{NOTE_C5,NOTE_E4,},
{NOTE_D5,NOTE_B4,},
{NOTE_E5,NOTE_C5,},
{NOTE_A5,NOTE_CS5,},
{NOTE_F4,},
{NOTE_F4,},
{NOTE_G4,},
{NOTE_F4,},
{NOTE_E4,},
{NOTE_D4,},
{NOTE_C4,},
{NOTE_B4,},
{NOTE_D4,},
{NOTE_A4,},
{NOTE_G4,},
{NOTE_F4,},
{NOTE_E4,},
{NOTE_E4,},
{NOTE_E4,},
{NOTE_E4,},
{NOTE_A4,},
{NOTE_A4,},
{NOTE_E4,},
{NOTE_E4,},
{NOTE_A4,},
{NOTE_A4,},
{NOTE_E4,},
{NOTE_E4,},
{NOTE_A4,},
{NOTE_A4,},
{NOTE_E4,},
{NOTE_E4,},
{NOTE_A4,},
{NOTE_A4,},
{NOTE_E4,},
{NOTE_E4,},
{NOTE_A4,},
{NOTE_A4,},
{NOTE_E4,},
{NOTE_E4,},
{NOTE_A4,},
{NOTE_A4,},
{NOTE_E4,},
{NOTE_E4,},
{NOTE_A4,},
{NOTE_A4,},
{NOTE_E4,},
{NOTE_E4,},
{NOTE_A4,},
{NOTE_A4,},
{NOTE_E4,},
{NOTE_E4,},
{NOTE_F4,},
{NOTE_F4,},
{NOTE_C4,},
{NOTE_C4,},
{NOTE_F4,},
{NOTE_F4,},
{NOTE_C4,},
{NOTE_C4,},
{NOTE_F4,},
{NOTE_F4,},
{NOTE_C4,},
{NOTE_C4,},
{NOTE_F4,},
{NOTE_F4,},
{NOTE_C4,},
{NOTE_C4,},
{NOTE_E4,},
{NOTE_E4,},
{NOTE_B4,},
{NOTE_B4,},
{NOTE_E4,},
{NOTE_E4,},
{NOTE_B4,},
{NOTE_B4,},
{NOTE_E4,},
{NOTE_E4,},
{NOTE_B4,},
{NOTE_B4,},
{NOTE_E4,},
{NOTE_E4,},
{NOTE_B4,},
{NOTE_B4,},
{NOTE_A4,},
{NOTE_A4,},
{NOTE_E4,},
{NOTE_E4,},
{NOTE_A4,},
{NOTE_A4,},
{NOTE_E4,},
{NOTE_E4,},
{NOTE_A4,},
{NOTE_A4,},
{NOTE_E4,},
{NOTE_E4,},
{NOTE_A4,},
{NOTE_A4,},
{NOTE_E4,},
{NOTE_E4,},
{NOTE_A4,},
{NOTE_A4,},
{NOTE_E4,},
{NOTE_E4,},
{NOTE_A4,},
{NOTE_A4,},
{NOTE_E4,},
{NOTE_E4,},
{NOTE_A4,},
{NOTE_A4,},
{NOTE_E4,},
{NOTE_E4,},
{NOTE_A4,},
{NOTE_A4,},
{NOTE_E4,},
{NOTE_E4,},
{NOTE_F4,},
{NOTE_F4,},
{NOTE_C4,},
{NOTE_C4,},
{NOTE_F4,},
{NOTE_F4,},
{NOTE_C4,},
{NOTE_C4,},
{NOTE_F4,},
{NOTE_F4,},
{NOTE_C4,},
{NOTE_C4,},
{NOTE_F4,},
{NOTE_F4,},
{NOTE_C4,},
{NOTE_C4,},
{NOTE_E4,},
{NOTE_E4,},
{NOTE_B4,},
{NOTE_B4,},
{NOTE_E4,},
{NOTE_E4,},
{NOTE_B4,},
{NOTE_B4,},
{NOTE_E4,},
{NOTE_E4,},
{NOTE_B4,},
{NOTE_B4,},
{NOTE_E4,},
{NOTE_E4,},
{NOTE_B4,},
{NOTE_B4,},
{NOTE_D4,},
{NOTE_CS4,},
{NOTE_D4,},
{NOTE_E4,},
{NOTE_F4,},
{NOTE_F4,},
{NOTE_E4,},
{NOTE_D4,},
{NOTE_C4,},
{NOTE_B4,},
{NOTE_F4,},
{NOTE_E4,},
{NOTE_F4,},
{NOTE_E4,},
{NOTE_D4,},
{NOTE_C4,},
{NOTE_C4,},
{NOTE_B4,},
{NOTE_A4,},
{NOTE_E4,},
{NOTE_E4,},
{NOTE_C4,},
{NOTE_D4,},
{NOTE_E4,},
{NOTE_D4,},
{NOTE_C4,},
{NOTE_B4,},
{NOTE_B4,},
{NOTE_A4,},
{NOTE_GS4,},
{NOTE_GS4,},
{NOTE_A4,},
{NOTE_B4,},
{NOTE_A4,},
{NOTE_GS4,},
{NOTE_A4,},
{NOTE_B4,},
{NOTE_C4,},
{NOTE_B4,},
{NOTE_C4,},
{NOTE_D4,},
{NOTE_E4,},
{NOTE_A4,},
{NOTE_CS4,},
{NOTE_E4,},
{NOTE_A4,},
{NOTE_G4,},
{NOTE_F4,},
{NOTE_E4,},
{NOTE_D4,},
{NOTE_CS4,},
{NOTE_D4,},
{NOTE_E4,},
{NOTE_F4,},
{NOTE_F4,},
{NOTE_E4,},
{NOTE_D4,},
{NOTE_C4,},
{NOTE_B4,},
{NOTE_F4,},
{NOTE_E4,},
{NOTE_F4,},
{NOTE_E4,},
{NOTE_D4,},
{NOTE_C4,},
{NOTE_C4,},
{NOTE_B4,},
{NOTE_A4,},
{NOTE_E4,},
{NOTE_E4,},
{NOTE_C4,},
{NOTE_D4,},
{NOTE_E4,},
{NOTE_D4,},
{NOTE_C4,},
{NOTE_B4,},
{NOTE_B4,},
{NOTE_A4,},
{NOTE_GS4,},
{NOTE_GS4,},
{NOTE_A4,},
{NOTE_B4,},
{NOTE_E4,},
{NOTE_E4,},
{NOTE_E4,},
{NOTE_E4,},
{NOTE_A5,NOTE_A4,},
{NOTE_A4,},
{NOTE_DS5,NOTE_A4,},
{NOTE_E5,NOTE_C5,},
{NOTE_A4,},
{NOTE_A4,},
{NOTE_DS5,NOTE_G4,},
{NOTE_E5,NOTE_A4,},
{NOTE_G5,NOTE_A4,},
{NOTE_D5,NOTE_A4,},
{NOTE_E5,NOTE_A4,},
{NOTE_G5,NOTE_E5,},
{NOTE_E5,NOTE_A4,},
{NOTE_A4,},
{NOTE_G5,NOTE_G4,},
{NOTE_F5,NOTE_A4,},
{NOTE_D5,NOTE_A4,},
{NOTE_E5,NOTE_A4,},
{NOTE_D5,NOTE_A4,},
{NOTE_C4,},
{NOTE_A4,},
{NOTE_G4,},
{NOTE_A4,},
{NOTE_C5,NOTE_A4,},
{NOTE_D5,NOTE_E5,},
{NOTE_E5,NOTE_A4,},
{NOTE_D5,NOTE_G4,},
{NOTE_C4,},
{NOTE_A4,},
{NOTE_C4,},
{NOTE_DS5,NOTE_A4,},
{NOTE_E5,NOTE_G4,},
{NOTE_A5,NOTE_A4,},
{NOTE_A4,},
{NOTE_DS5,NOTE_A4,},
{NOTE_E5,NOTE_C5,},
{NOTE_A4,},
{NOTE_A4,},
{NOTE_DS5,NOTE_G4,},
{NOTE_E5,NOTE_A4,},
{NOTE_G5,NOTE_A4,},
{NOTE_D5,NOTE_A4,},
{NOTE_E5,NOTE_A4,},
{NOTE_G5,NOTE_E5,},
{NOTE_E5,NOTE_A4,},
{NOTE_A4,},
{NOTE_G5,NOTE_G4,},
{NOTE_F5,NOTE_A4,},
{NOTE_D5,NOTE_A4,},
{NOTE_E5,NOTE_A4,},
{NOTE_D5,NOTE_A4,},
{NOTE_C4,},
{NOTE_A4,},
{NOTE_G4,},
{NOTE_A4,},
{NOTE_C5,NOTE_A4,},
{NOTE_D5,NOTE_E5,},
{NOTE_E5,NOTE_A4,},
{NOTE_D5,NOTE_G4,},
{NOTE_C4,},
{NOTE_A4,},
{NOTE_C4,},
{NOTE_DS5,NOTE_A4,},
{NOTE_A4,NOTE_G4,},
{NOTE_A4,},
{NOTE_A4,},
{NOTE_A4,},
{NOTE_C4,},
{NOTE_A4,},
{NOTE_A4,},
{NOTE_G4,},
{NOTE_A4,},
{NOTE_A4,},
{NOTE_A4,},
{NOTE_A4,},
{NOTE_E4,},
{NOTE_A4,},
{NOTE_A4,},
{NOTE_G4,},
{NOTE_A4,},
{NOTE_A4,},
{NOTE_A4,},
{NOTE_A4,},
{NOTE_C4,},
{NOTE_A4,},
{NOTE_A4,},
{NOTE_G4,},
{NOTE_A4,},
{NOTE_A4,},
{NOTE_E4,},
{NOTE_A4,},
{NOTE_G4,},
{NOTE_A4,},
{NOTE_C4,},
{NOTE_A4,},
{NOTE_G4,},
{NOTE_A4,},
{NOTE_E5,NOTE_A5,},
{NOTE_A4,},
{NOTE_A4,},
{NOTE_C4,},
{NOTE_A4,},
{NOTE_A4,},
{NOTE_G4,},
{NOTE_A4,},
{NOTE_A4,},
{NOTE_A4,},
{NOTE_A4,},
{NOTE_E4,},
{NOTE_A4,},
{NOTE_A4,},
{NOTE_G4,},
{NOTE_A4,},
{NOTE_A4,},
{NOTE_A4,},
{NOTE_A4,},
{NOTE_C4,},
{NOTE_A4,},
{NOTE_A4,},
{NOTE_G4,},
{NOTE_A4,},
{NOTE_A4,},
{NOTE_E4,},
{NOTE_A4,},
{NOTE_G4,},
{NOTE_A4,},
{NOTE_C4,},
{NOTE_A4,},
{NOTE_DS4,},
{NOTE_G4,},
{NOTE_E4,},
{NOTE_A5,NOTE_A4,},
{NOTE_A4,},
{NOTE_DS5,NOTE_A4,},
{NOTE_E5,NOTE_C5,},
{NOTE_A4,},
{NOTE_A4,},
{NOTE_DS5,NOTE_G4,},
{NOTE_E5,NOTE_A4,},
{NOTE_G5,NOTE_A4,},
{NOTE_D5,NOTE_A4,},
{NOTE_E5,NOTE_A4,},
{NOTE_G5,NOTE_E5,},
{NOTE_E5,NOTE_A4,},
{NOTE_A4,},
{NOTE_G5,NOTE_G4,},
{NOTE_F5,NOTE_A4,},
{NOTE_D5,NOTE_A4,},
{NOTE_E5,NOTE_A4,},
{NOTE_D5,NOTE_A4,},
{NOTE_C4,},
{NOTE_A4,},
{NOTE_G4,},
{NOTE_A4,},
{NOTE_C5,NOTE_A4,},
{NOTE_D5,NOTE_E5,},
{NOTE_E5,NOTE_A4,},
{NOTE_D5,NOTE_G4,},
{NOTE_C4,},
{NOTE_A4,},
{NOTE_C4,},
{NOTE_DS5,NOTE_A4,},
{NOTE_E5,NOTE_G4,},
{NOTE_A5,NOTE_A4,},
{NOTE_A4,},
{NOTE_DS5,NOTE_A4,},
{NOTE_E5,NOTE_C5,},
{NOTE_A4,},
{NOTE_A4,},
{NOTE_DS5,NOTE_G4,},
{NOTE_E5,NOTE_A4,},
{NOTE_G5,NOTE_A4,},
{NOTE_D5,NOTE_A4,},
{NOTE_E5,NOTE_A4,},
{NOTE_G5,NOTE_E5,},
{NOTE_E5,NOTE_A4,},
{NOTE_A4,},
{NOTE_G5,NOTE_G4,},
{NOTE_F5,NOTE_A4,},
{NOTE_D5,NOTE_A4,},
{NOTE_E5,NOTE_A4,},
{NOTE_D5,NOTE_A4,},
{NOTE_C4,},
{NOTE_A4,},
{NOTE_G4,},
{NOTE_A4,},
{NOTE_C5,NOTE_A4,},
{NOTE_D5,NOTE_E5,},
{NOTE_E5,NOTE_A4,},
{NOTE_D5,NOTE_G4,},
{NOTE_C4,},
{NOTE_A4,},
{NOTE_C4,},
{NOTE_DS5,NOTE_A4,},
{NOTE_A4,NOTE_G4,},
{NOTE_A4,},
{NOTE_E4,},
{NOTE_E4,},
{NOTE_A4,},
{NOTE_E4,},
{NOTE_E4,},
{NOTE_E4,},
{NOTE_A4,},
{NOTE_E4,},
{NOTE_E4,},
{NOTE_A4,},
{NOTE_E4,},
{NOTE_E4,},
{NOTE_A4,},
{NOTE_E4,},
{NOTE_B4,},
{NOTE_C6,NOTE_A5,},
{NOTE_B5,NOTE_G5,},
{NOTE_A5,NOTE_F5,},
{NOTE_B5,NOTE_G5,},
{NOTE_C6,NOTE_A5,},
{NOTE_A5,NOTE_F5,},
{NOTE_B5,NOTE_G5,},
{NOTE_G5,NOTE_E5,},
{NOTE_E5,NOTE_B4,},
{NOTE_DS4,},
{NOTE_B4,},
{NOTE_E4,},
{NOTE_F4,},
{NOTE_DS4,},
{NOTE_E4,},
{NOTE_GS4,},
{NOTE_D4,},
{NOTE_E4,},
{NOTE_D4,},
{NOTE_C4,},
{NOTE_B4,},
{NOTE_C5,NOTE_E4,},
{NOTE_D5,NOTE_B4,},
{NOTE_E5,NOTE_C5,},
{NOTE_A5,NOTE_CS5,},
{NOTE_A5,NOTE_F5,},
{NOTE_G5,NOTE_E5,},
{NOTE_F5,NOTE_D5,},
{NOTE_E5,NOTE_G4,},
{NOTE_B4,NOTE_E4,},
{NOTE_E5,NOTE_B4,},
{NOTE_DS4,},
{NOTE_B4,},
{NOTE_E4,},
{NOTE_F4,},
{NOTE_DS4,},
{NOTE_E4,},
{NOTE_GS4,},
{NOTE_D4,},
{NOTE_E4,},
{NOTE_D4,},
{NOTE_C4,},
{NOTE_B4,},
{NOTE_C5,NOTE_E4,},
{NOTE_D5,NOTE_B4,},
{NOTE_E5,NOTE_C5,},
{NOTE_A5,NOTE_CS5,},
{NOTE_F4,},
{NOTE_F4,},
{NOTE_G4,},
{NOTE_F4,},
{NOTE_E4,},
{NOTE_D4,},
{NOTE_C4,},
{NOTE_B4,},
{NOTE_D4,},
{NOTE_A4,},
{NOTE_G4,},
{NOTE_F4,},
{NOTE_E4,},
{NOTE_E4,},
{NOTE_E4,},
{NOTE_E4,},
{NOTE_A4,},
{NOTE_A4,},
{NOTE_E4,},
{NOTE_E4,},
{NOTE_A4,},
{NOTE_A4,},
{NOTE_E4,},
{NOTE_E4,},
{NOTE_A4,},
{NOTE_A4,},
{NOTE_E4,},
{NOTE_E4,},
{NOTE_A4,},
{NOTE_A4,},
{NOTE_E4,},
{NOTE_E4,},
{NOTE_A4,},
{NOTE_A4,},
{NOTE_E4,},
{NOTE_E4,},
{NOTE_A4,},
{NOTE_A4,},
{NOTE_E4,},
{NOTE_E4,},
{NOTE_A4,},
{NOTE_A4,},
{NOTE_E4,},
{NOTE_E4,},
{NOTE_A4,},
{NOTE_A4,},
{NOTE_E4,},
{NOTE_E4,},
{NOTE_F4,},
{NOTE_F4,},
{NOTE_C4,},
{NOTE_C4,},
{NOTE_F4,},
{NOTE_F4,},
{NOTE_C4,},
{NOTE_C4,},
{NOTE_F4,},
{NOTE_F4,},
{NOTE_C4,},
{NOTE_C4,},
{NOTE_F4,},
{NOTE_F4,},
{NOTE_C4,},
{NOTE_C4,},
{NOTE_E4,},
{NOTE_E4,},
{NOTE_B4,},
{NOTE_B4,},
{NOTE_E4,},
{NOTE_E4,},
{NOTE_B4,},
{NOTE_B4,},
{NOTE_E4,},
{NOTE_E4,},
{NOTE_B4,},
{NOTE_B4,},
{NOTE_E4,},
{NOTE_E4,},
{NOTE_B4,},
{NOTE_B4,},
{NOTE_A4,},
{NOTE_A4,},
{NOTE_E4,},
{NOTE_E4,},
{NOTE_A4,},
{NOTE_A4,},
{NOTE_E4,},
{NOTE_E4,},
{NOTE_A4,},
{NOTE_A4,},
{NOTE_E4,},
{NOTE_E4,},
{NOTE_A4,},
{NOTE_A4,},
{NOTE_E4,},
{NOTE_E4,},
{NOTE_A4,},
{NOTE_A4,},
{NOTE_E4,},
{NOTE_E4,},
{NOTE_A4,},
{NOTE_A4,},
{NOTE_E4,},
{NOTE_E4,},
{NOTE_A4,},
{NOTE_A4,},
{NOTE_E4,},
{NOTE_E4,},
{NOTE_A4,},
{NOTE_A4,},
{NOTE_E4,},
{NOTE_E4,},
{NOTE_F4,},
{NOTE_F4,},
{NOTE_C4,},
{NOTE_C4,},
{NOTE_F4,},
{NOTE_F4,},
{NOTE_C4,},
{NOTE_C4,},
{NOTE_F4,},
{NOTE_F4,},
{NOTE_C4,},
{NOTE_C4,},
{NOTE_F4,},
{NOTE_F4,},
{NOTE_C4,},
{NOTE_C4,},
{NOTE_E4,},
{NOTE_E4,},
{NOTE_B4,},
{NOTE_B4,},
{NOTE_E4,},
{NOTE_E4,},
{NOTE_B4,},
{NOTE_B4,},
{NOTE_E4,},
{NOTE_E4,},
{NOTE_B4,},
{NOTE_B4,},
{NOTE_E4,},
{NOTE_E4,},
{NOTE_B4,},
{NOTE_B4,},
{NOTE_D4,},
{NOTE_CS4,},
{NOTE_D4,},
{NOTE_E4,},
{NOTE_F4,},
{NOTE_F4,},
{NOTE_E4,},
{NOTE_D4,},
{NOTE_C4,},
{NOTE_B4,},
{NOTE_F4,},
{NOTE_E4,},
{NOTE_F4,},
{NOTE_E4,},
{NOTE_D4,},
{NOTE_C4,},
{NOTE_C4,},
{NOTE_B4,},
{NOTE_A4,},
{NOTE_E4,},
{NOTE_E4,},
{NOTE_C4,},
{NOTE_D4,},
{NOTE_E4,},
{NOTE_D4,},
{NOTE_C4,},
{NOTE_B4,},
{NOTE_B4,},
{NOTE_A4,},
{NOTE_GS4,},
{NOTE_GS4,},
{NOTE_A4,},
{NOTE_B4,},
{NOTE_A4,},
{NOTE_GS4,},
{NOTE_A4,},
{NOTE_B4,},
{NOTE_C4,},
{NOTE_B4,},
{NOTE_C4,},
{NOTE_D4,},
{NOTE_E4,},
{NOTE_A4,},
{NOTE_CS4,},
{NOTE_E4,},
{NOTE_A4,},
{NOTE_G4,},
{NOTE_F4,},
{NOTE_E4,},
{NOTE_D4,},
{NOTE_CS4,},
{NOTE_D4,},
{NOTE_E4,},
{NOTE_F4,},
{NOTE_F4,},
{NOTE_E4,},
{NOTE_D4,},
{NOTE_C4,},
{NOTE_B4,},
{NOTE_F4,},
{NOTE_E4,},
{NOTE_F4,},
{NOTE_E4,},
{NOTE_D4,},
{NOTE_C4,},
{NOTE_C4,},
{NOTE_B4,},
{NOTE_A4,},
{NOTE_E4,},
{NOTE_E4,},
{NOTE_C4,},
{NOTE_D4,},
{NOTE_E4,},
{NOTE_D4,},
{NOTE_C4,},
{NOTE_B4,},
{NOTE_B4,},
{NOTE_A4,},
{NOTE_GS4,},
{NOTE_GS4,},
{NOTE_A4,},
{NOTE_B4,},
{NOTE_E4,},
{NOTE_E4,},
{NOTE_E4,},
{NOTE_E4,},
};
uint16_t Graze_the_Roof_notedura[979]={
3,3,3,3,3,3,3,3,3,3,3,3,3,3,3,3,3,3,3,3,3,3,3,3,3,3,3,3,3,6,3,3,3,3,3,3,3,3,3,3,3,3,3,3,3,3,3,3,3,3,3,3,3,3,3,3,3,3,3,3,3,6,3,3,3,3,3,3,3,3,3,3,3,3,3,3,3,3,3,3,3,3,3,3,3,3,3,3,3,3,3,3,3,3,3,3,3,3,3,45,3,3,3,3,3,3,3,3,3,3,3,3,3,3,3,3,3,3,3,3,3,3,3,3,3,3,3,3,3,3,6,3,6,3,3,3,3,3,3,3,3,3,3,3,3,3,3,3,3,3,3,3,3,3,3,3,3,3,3,3,6,3,3,3,3,3,3,3,3,3,3,3,3,3,3,3,3,3,3,3,3,3,3,3,3,3,3,3,3,3,3,3,6,3,3,3,3,3,3,3,3,3,3,3,3,3,3,3,3,3,6,3,6,4,4,4,4,3,3,12,6,6,3,24,3,3,3,3,24,3,3,3,3,3,6,6,6,6,24,12,12,24,12,12,3,24,3,3,3,3,24,3,3,3,3,3,6,6,6,6,3,24,3,3,3,3,3,3,24,3,3,3,6,6,6,6,3,3,3,3,3,3,3,3,3,3,3,3,3,3,3,3,3,3,3,3,3,3,3,3,3,3,3,3,3,3,3,3,3,3,3,3,3,3,3,3,3,3,3,3,3,3,3,3,3,3,3,3,3,3,3,3,3,3,3,3,3,3,3,3,3,3,3,3,3,3,3,3,3,3,3,3,3,3,3,3,3,3,3,3,3,3,3,3,3,3,3,3,3,3,3,3,3,3,3,3,3,3,3,3,3,3,3,3,3,3,3,3,3,3,3,3,3,3,3,3,3,3,3,3,3,3,3,3,3,3,3,3,3,3,3,3,3,3,3,3,3,3,3,3,3,3,3,3,3,3,3,3,3,3,3,3,3,3,3,3,3,3,3,3,3,3,3,3,3,3,3,3,3,3,3,3,3,3,3,3,3,3,3,3,3,3,3,3,3,3,3,3,3,3,3,3,3,3,3,3,3,3,3,3,3,3,3,3,3,3,6,6,6,6,3,3,3,3,3,3,3,3,3,3,3,3,3,3,3,3,3,3,3,3,3,3,3,3,3,3,3,6,3,3,3,3,3,3,3,3,3,3,3,3,3,3,3,3,3,3,3,3,3,3,3,3,3,3,3,3,3,3,3,6,3,3,3,3,3,3,3,3,3,3,3,3,3,3,3,3,3,3,3,3,3,3,3,3,3,3,3,3,3,3,3,3,3,3,3,3,3,45,3,3,3,3,3,3,3,3,3,3,3,3,3,3,3,3,3,3,3,3,3,3,3,3,3,3,3,3,3,3,6,3,6,3,3,3,3,3,3,3,3,3,3,3,3,3,3,3,3,3,3,3,3,3,3,3,3,3,3,3,6,3,3,3,3,3,3,3,3,3,3,3,3,3,3,3,3,3,3,3,3,3,3,3,3,3,3,3,3,3,3,3,6,3,3,3,3,3,3,3,3,3,3,3,3,3,3,3,3,3,6,3,6,4,4,4,4,3,3,12,6,6,3,24,3,3,3,3,24,3,3,3,3,3,6,6,6,6,24,12,12,24,12,12,3,24,3,3,3,3,24,3,3,3,3,3,6,6,6,6,3,24,3,3,3,3,3,3,24,3,3,3,6,6,6,6,3,3,3,3,3,3,3,3,3,3,3,3,3,3,3,3,3,3,3,3,3,3,3,3,3,3,3,3,3,3,3,3,3,3,3,3,3,3,3,3,3,3,3,3,3,3,3,3,3,3,3,3,3,3,3,3,3,3,3,3,3,3,3,3,3,3,3,3,3,3,3,3,3,3,3,3,3,3,3,3,3,3,3,3,3,3,3,3,3,3,3,3,3,3,3,3,3,3,3,3,3,3,3,3,3,3,3,3,3,3,3,3,3,3,3,3,3,3,3,3,3,3,3,3,3,3,3,3,3,3,3,3,3,3,3,3,3,3,3,3,3,3,3,3,3,3,3,3,3,3,3,3,3,3,3,3,3,3,3,3,3,3,3,3,3,3,3,3,3,3,3,3,3,3,3,3,3,3,3,3,3,3,3,3,3,3,3,3,3,3,3,3,3,3,3,3,3,3,3,3,3,3,3,3,3,3,3,3,3,3,6,6,6,};
uint16_t Graze_the_Roof_noteos[979]={
0,90,96,102,108,114,120,126,132,138,144,150,156,162,168,174,180,186,192,198,204,210,216,228,234,240,246,252,258,264,264,270,276,282,288,294,300,306,312,318,324,330,336,342,348,354,360,366,372,378,384,390,396,402,408,420,426,432,438,444,450,456,456,462,468,474,480,486,492,498,504,510,516,522,528,534,540,546,552,558,564,570,576,582,588,594,600,606,612,618,624,630,636,642,648,654,660,666,672,672,678,684,690,696,702,708,714,720,726,732,738,744,750,756,762,768,774,780,786,792,798,804,810,816,822,828,834,840,846,852,852,858,858,864,870,876,882,888,894,900,906,912,918,924,930,936,942,948,954,960,966,972,978,984,996,1002,1008,1014,1020,1026,1032,1032,1038,1044,1050,1056,1062,1068,1074,1080,1086,1092,1098,1104,1110,1116,1122,1128,1134,1140,1146,1152,1158,1164,1170,1176,1188,1194,1200,1206,1212,1218,1224,1224,1230,1236,1242,1248,1254,1257,1260,1266,1278,1290,1296,1302,1305,1308,1314,1326,1332,1338,1338,1344,1353,1362,1371,1380,1386,1392,1416,1428,1440,1440,1446,1452,1458,1464,1464,1470,1472,1473,1476,1482,1488,1500,1512,1524,1536,1560,1572,1584,1608,1620,1632,1632,1638,1644,1650,1656,1656,1662,1664,1665,1668,1674,1680,1692,1704,1716,1728,1728,1728,1731,1734,1740,1746,1752,1752,1758,1764,1770,1776,1788,1800,1812,1824,1827,1830,1833,1836,1839,1842,1845,1848,1851,1854,1857,1860,1863,1866,1869,1872,1875,1878,1881,1884,1887,1890,1893,1896,1899,1902,1905,1908,1911,1914,1917,1920,1923,1926,1929,1932,1935,1938,1941,1944,1947,1950,1953,1956,1959,1962,1965,1968,1971,1974,1977,1980,1983,1986,1989,1992,1995,1998,2001,2004,2007,2010,2013,2016,2019,2022,2025,2028,2031,2034,2037,2040,2043,2046,2049,2052,2055,2058,2061,2064,2067,2070,2073,2076,2079,2082,2085,2088,2091,2094,2097,2100,2103,2106,2109,2112,2115,2118,2121,2124,2127,2130,2133,2136,2139,2142,2145,2148,2151,2154,2157,2160,2163,2166,2169,2172,2175,2178,2181,2184,2187,2190,2193,2196,2199,2202,2205,2208,2211,2214,2217,2220,2226,2229,2232,2238,2244,2250,2256,2259,2262,2265,2268,2274,2277,2280,2286,2292,2298,2304,2307,2310,2313,2316,2322,2325,2328,2334,2340,2346,2352,2355,2358,2361,2364,2367,2370,2373,2376,2379,2382,2385,2388,2391,2394,2397,2400,2403,2406,2409,2412,2418,2421,2424,2430,2436,2442,2448,2451,2454,2457,2460,2466,2469,2472,2478,2484,2490,2496,2499,2502,2505,2508,2514,2517,2520,2526,2532,2538,2544,2556,2568,2580,2592,2598,2604,2610,2616,2622,2628,2634,2640,2646,2652,2658,2664,2670,2676,2682,2688,2694,2700,2706,2712,2724,2730,2736,2742,2748,2754,2760,2760,2766,2772,2778,2784,2790,2796,2802,2808,2814,2820,2826,2832,2838,2844,2850,2856,2862,2868,2874,2880,2886,2892,2898,2904,2916,2922,2928,2934,2940,2946,2952,2952,2958,2964,2970,2976,2982,2988,2994,3000,3006,3012,3018,3024,3030,3036,3042,3048,3054,3060,3066,3072,3078,3084,3090,3096,3102,3108,3114,3120,3126,3132,3138,3144,3150,3156,3162,3168,3168,3174,3180,3186,3192,3198,3204,3210,3216,3222,3228,3234,3240,3246,3252,3258,3264,3270,3276,3282,3288,3294,3300,3306,3312,3318,3324,3330,3336,3342,3348,3348,3354,3354,3360,3366,3372,3378,3384,3390,3396,3402,3408,3414,3420,3426,3432,3438,3444,3450,3456,3462,3468,3474,3480,3492,3498,3504,3510,3516,3522,3528,3528,3534,3540,3546,3552,3558,3564,3570,3576,3582,3588,3594,3600,3606,3612,3618,3624,3630,3636,3642,3648,3654,3660,3666,3672,3684,3690,3696,3702,3708,3714,3720,3720,3726,3732,3738,3744,3750,3753,3756,3762,3774,3786,3792,3798,3801,3804,3810,3822,3828,3834,3834,3840,3849,3858,3867,3876,3882,3888,3912,3924,3936,3936,3942,3948,3954,3960,3960,3966,3968,3969,3972,3978,3984,3996,4008,4020,4032,4056,4068,4080,4104,4116,4128,4128,4134,4140,4146,4152,4152,4158,4160,4161,4164,4170,4176,4188,4200,4212,4224,4224,4224,4227,4230,4236,4242,4248,4248,4254,4260,4266,4272,4284,4296,4308,4320,4323,4326,4329,4332,4335,4338,4341,4344,4347,4350,4353,4356,4359,4362,4365,4368,4371,4374,4377,4380,4383,4386,4389,4392,4395,4398,4401,4404,4407,4410,4413,4416,4419,4422,4425,4428,4431,4434,4437,4440,4443,4446,4449,4452,4455,4458,4461,4464,4467,4470,4473,4476,4479,4482,4485,4488,4491,4494,4497,4500,4503,4506,4509,4512,4515,4518,4521,4524,4527,4530,4533,4536,4539,4542,4545,4548,4551,4554,4557,4560,4563,4566,4569,4572,4575,4578,4581,4584,4587,4590,4593,4596,4599,4602,4605,4608,4611,4614,4617,4620,4623,4626,4629,4632,4635,4638,4641,4644,4647,4650,4653,4656,4659,4662,4665,4668,4671,4674,4677,4680,4683,4686,4689,4692,4695,4698,4701,4704,4707,4710,4713,4716,4722,4725,4728,4734,4740,4746,4752,4755,4758,4761,4764,4770,4773,4776,4782,4788,4794,4800,4803,4806,4809,4812,4818,4821,4824,4830,4836,4842,4848,4851,4854,4857,4860,4863,4866,4869,4872,4875,4878,4881,4884,4887,4890,4893,4896,4899,4902,4905,4908,4914,4917,4920,4926,4932,4938,4944,4947,4950,4953,4956,4962,4965,4968,4974,4980,4986,4992,4995,4998,5001,5004,5010,5013,5016,5022,5028,5034,5040,5052,5064,};
uint16_t Graze_the_Roof_len=979;
